%
M48
M72
T01C0.0470
T02C0.0950
T03C0.1770
%
T01
X5824Y2300
X7792Y2300
X9761Y2300
X11729Y2300
X14792Y2300
X16761Y2300
X16761Y33900
X14792Y33900
X11729Y33900
X9761Y33900
X7792Y33900
X5824Y33900
T02
X5867Y29400
X5867Y27370
X5867Y23100
X5867Y21070
X2777Y21070
X2777Y23100
X2777Y27370
X2777Y29400
X2777Y15200
X2777Y13170
X2777Y8900
X2777Y6870
X5867Y6870
X5867Y8900
X5867Y13170
X5867Y15200
X17947Y16040
X19977Y16040
X19977Y20240
X17947Y20240
X17947Y30240
X19977Y30240
X19977Y6040
X17947Y6040
T03
X2277Y2100
X20777Y2100
X20777Y34100
X2277Y34100
M30
