G75*
%MOIN*%
%OFA0B0*%
%FSLAX24Y24*%
%IPPOS*%
%LPD*%
%AMOC8*
5,1,8,0,0,1.08239X$1,22.5*
%
%ADD10C,0.0050*%
%ADD11C,0.0060*%
D10*
X000291Y004255D02*
X000742Y004255D01*
X000592Y004255D02*
X000291Y004555D01*
X000366Y004715D02*
X000291Y004790D01*
X000291Y004941D01*
X000366Y005016D01*
X000441Y005016D01*
X000742Y004715D01*
X000742Y005016D01*
X000742Y004555D02*
X000516Y004330D01*
X001157Y004230D02*
X001157Y017830D01*
X021757Y017830D01*
X021757Y004230D01*
X001157Y004230D01*
X001157Y018430D02*
X001157Y032030D01*
X021757Y032030D01*
X021757Y018430D01*
X001157Y018430D01*
X000742Y018455D02*
X000291Y018455D01*
X000516Y018530D02*
X000742Y018755D01*
X000742Y018915D02*
X000742Y019216D01*
X000742Y019066D02*
X000291Y019066D01*
X000441Y018915D01*
X000291Y018755D02*
X000592Y018455D01*
X005359Y031495D02*
X005659Y031945D01*
X005819Y031795D02*
X005969Y031945D01*
X005969Y031495D01*
X005819Y031495D02*
X006120Y031495D01*
X005659Y031495D02*
X005359Y031945D01*
X014017Y034675D02*
X014318Y034675D01*
X014168Y034675D02*
X014168Y035125D01*
X014017Y034975D01*
X014287Y032905D02*
X014588Y032455D01*
X014748Y032530D02*
X014823Y032455D01*
X014973Y032455D01*
X015048Y032530D01*
X015048Y032605D01*
X014973Y032680D01*
X014898Y032680D01*
X014973Y032680D02*
X015048Y032755D01*
X015048Y032830D01*
X014973Y032905D01*
X014823Y032905D01*
X014748Y032830D01*
X014588Y032905D02*
X014287Y032455D01*
X015967Y034675D02*
X016268Y034975D01*
X016268Y035050D01*
X016193Y035125D01*
X016042Y035125D01*
X015967Y035050D01*
X015967Y034675D02*
X016268Y034675D01*
X012009Y004705D02*
X011859Y004705D01*
X011784Y004630D01*
X011624Y004705D02*
X011324Y004255D01*
X011624Y004255D02*
X011324Y004705D01*
X011784Y004255D02*
X012084Y004555D01*
X012084Y004630D01*
X012009Y004705D01*
X012084Y004255D02*
X011784Y004255D01*
X015176Y001450D02*
X015251Y001525D01*
X015401Y001525D01*
X015476Y001450D01*
X015476Y001375D01*
X015176Y001075D01*
X015476Y001075D01*
X017126Y001075D02*
X017426Y001075D01*
X017276Y001075D02*
X017276Y001525D01*
X017126Y001375D01*
X017081Y003295D02*
X017081Y003745D01*
X016856Y003520D01*
X017156Y003520D01*
X016695Y003295D02*
X016395Y003745D01*
X016695Y003745D02*
X016395Y003295D01*
D11*
X016411Y003010D02*
X015141Y003010D01*
X014441Y003010D02*
X013811Y003010D01*
X013811Y000410D01*
X017741Y000410D01*
X017741Y000330D01*
X013811Y000330D01*
X013811Y000410D01*
X014591Y000930D02*
X014593Y000958D01*
X014599Y000985D01*
X014608Y001011D01*
X014621Y001036D01*
X014638Y001059D01*
X014657Y001079D01*
X014679Y001096D01*
X014703Y001110D01*
X014729Y001120D01*
X014756Y001127D01*
X014784Y001130D01*
X014812Y001129D01*
X014839Y001124D01*
X014866Y001115D01*
X014891Y001103D01*
X014914Y001088D01*
X014935Y001069D01*
X014953Y001048D01*
X014968Y001024D01*
X014979Y000998D01*
X014987Y000972D01*
X014991Y000944D01*
X014991Y000916D01*
X014987Y000888D01*
X014979Y000862D01*
X014968Y000836D01*
X014953Y000812D01*
X014935Y000791D01*
X014914Y000772D01*
X014891Y000757D01*
X014866Y000745D01*
X014839Y000736D01*
X014812Y000731D01*
X014784Y000730D01*
X014756Y000733D01*
X014729Y000740D01*
X014703Y000750D01*
X014679Y000764D01*
X014657Y000781D01*
X014638Y000801D01*
X014621Y000824D01*
X014608Y000849D01*
X014599Y000875D01*
X014593Y000902D01*
X014591Y000930D01*
X013811Y003010D02*
X013811Y003950D01*
X017741Y003950D01*
X017741Y003010D01*
X017741Y000410D01*
X016561Y000930D02*
X016563Y000958D01*
X016569Y000985D01*
X016578Y001011D01*
X016591Y001036D01*
X016608Y001059D01*
X016627Y001079D01*
X016649Y001096D01*
X016673Y001110D01*
X016699Y001120D01*
X016726Y001127D01*
X016754Y001130D01*
X016782Y001129D01*
X016809Y001124D01*
X016836Y001115D01*
X016861Y001103D01*
X016884Y001088D01*
X016905Y001069D01*
X016923Y001048D01*
X016938Y001024D01*
X016949Y000998D01*
X016957Y000972D01*
X016961Y000944D01*
X016961Y000916D01*
X016957Y000888D01*
X016949Y000862D01*
X016938Y000836D01*
X016923Y000812D01*
X016905Y000791D01*
X016884Y000772D01*
X016861Y000757D01*
X016836Y000745D01*
X016809Y000736D01*
X016782Y000731D01*
X016754Y000730D01*
X016726Y000733D01*
X016699Y000740D01*
X016673Y000750D01*
X016649Y000764D01*
X016627Y000781D01*
X016608Y000801D01*
X016591Y000824D01*
X016578Y000849D01*
X016569Y000875D01*
X016563Y000902D01*
X016561Y000930D01*
X017111Y003010D02*
X017741Y003010D01*
X012709Y003010D02*
X012709Y000410D01*
X012709Y000330D01*
X004839Y000330D01*
X004839Y000410D01*
X004839Y003010D01*
X004839Y003950D01*
X012709Y003950D01*
X012709Y003010D01*
X012079Y003010D01*
X011379Y003010D02*
X010109Y003010D01*
X009409Y003010D02*
X008139Y003010D01*
X007439Y003010D02*
X006170Y003010D01*
X005470Y003010D02*
X004839Y003010D01*
X005619Y000930D02*
X005621Y000958D01*
X005627Y000985D01*
X005636Y001011D01*
X005649Y001036D01*
X005666Y001059D01*
X005685Y001079D01*
X005707Y001096D01*
X005731Y001110D01*
X005757Y001120D01*
X005784Y001127D01*
X005812Y001130D01*
X005840Y001129D01*
X005867Y001124D01*
X005894Y001115D01*
X005919Y001103D01*
X005942Y001088D01*
X005963Y001069D01*
X005981Y001048D01*
X005996Y001024D01*
X006007Y000998D01*
X006015Y000972D01*
X006019Y000944D01*
X006019Y000916D01*
X006015Y000888D01*
X006007Y000862D01*
X005996Y000836D01*
X005981Y000812D01*
X005963Y000791D01*
X005942Y000772D01*
X005919Y000757D01*
X005894Y000745D01*
X005867Y000736D01*
X005840Y000731D01*
X005812Y000730D01*
X005784Y000733D01*
X005757Y000740D01*
X005731Y000750D01*
X005707Y000764D01*
X005685Y000781D01*
X005666Y000801D01*
X005649Y000824D01*
X005636Y000849D01*
X005627Y000875D01*
X005621Y000902D01*
X005619Y000930D01*
X004839Y000410D02*
X012709Y000410D01*
X011529Y000930D02*
X011531Y000958D01*
X011537Y000985D01*
X011546Y001011D01*
X011559Y001036D01*
X011576Y001059D01*
X011595Y001079D01*
X011617Y001096D01*
X011641Y001110D01*
X011667Y001120D01*
X011694Y001127D01*
X011722Y001130D01*
X011750Y001129D01*
X011777Y001124D01*
X011804Y001115D01*
X011829Y001103D01*
X011852Y001088D01*
X011873Y001069D01*
X011891Y001048D01*
X011906Y001024D01*
X011917Y000998D01*
X011925Y000972D01*
X011929Y000944D01*
X011929Y000916D01*
X011925Y000888D01*
X011917Y000862D01*
X011906Y000836D01*
X011891Y000812D01*
X011873Y000791D01*
X011852Y000772D01*
X011829Y000757D01*
X011804Y000745D01*
X011777Y000736D01*
X011750Y000731D01*
X011722Y000730D01*
X011694Y000733D01*
X011667Y000740D01*
X011641Y000750D01*
X011617Y000764D01*
X011595Y000781D01*
X011576Y000801D01*
X011559Y000824D01*
X011546Y000849D01*
X011537Y000875D01*
X011531Y000902D01*
X011529Y000930D01*
X009559Y000930D02*
X009561Y000958D01*
X009567Y000985D01*
X009576Y001011D01*
X009589Y001036D01*
X009606Y001059D01*
X009625Y001079D01*
X009647Y001096D01*
X009671Y001110D01*
X009697Y001120D01*
X009724Y001127D01*
X009752Y001130D01*
X009780Y001129D01*
X009807Y001124D01*
X009834Y001115D01*
X009859Y001103D01*
X009882Y001088D01*
X009903Y001069D01*
X009921Y001048D01*
X009936Y001024D01*
X009947Y000998D01*
X009955Y000972D01*
X009959Y000944D01*
X009959Y000916D01*
X009955Y000888D01*
X009947Y000862D01*
X009936Y000836D01*
X009921Y000812D01*
X009903Y000791D01*
X009882Y000772D01*
X009859Y000757D01*
X009834Y000745D01*
X009807Y000736D01*
X009780Y000731D01*
X009752Y000730D01*
X009724Y000733D01*
X009697Y000740D01*
X009671Y000750D01*
X009647Y000764D01*
X009625Y000781D01*
X009606Y000801D01*
X009589Y000824D01*
X009576Y000849D01*
X009567Y000875D01*
X009561Y000902D01*
X009559Y000930D01*
X007589Y000930D02*
X007591Y000958D01*
X007597Y000985D01*
X007606Y001011D01*
X007619Y001036D01*
X007636Y001059D01*
X007655Y001079D01*
X007677Y001096D01*
X007701Y001110D01*
X007727Y001120D01*
X007754Y001127D01*
X007782Y001130D01*
X007810Y001129D01*
X007837Y001124D01*
X007864Y001115D01*
X007889Y001103D01*
X007912Y001088D01*
X007933Y001069D01*
X007951Y001048D01*
X007966Y001024D01*
X007977Y000998D01*
X007985Y000972D01*
X007989Y000944D01*
X007989Y000916D01*
X007985Y000888D01*
X007977Y000862D01*
X007966Y000836D01*
X007951Y000812D01*
X007933Y000791D01*
X007912Y000772D01*
X007889Y000757D01*
X007864Y000745D01*
X007837Y000736D01*
X007810Y000731D01*
X007782Y000730D01*
X007754Y000733D01*
X007727Y000740D01*
X007701Y000750D01*
X007677Y000764D01*
X007655Y000781D01*
X007636Y000801D01*
X007619Y000824D01*
X007606Y000849D01*
X007597Y000875D01*
X007591Y000902D01*
X007589Y000930D01*
X004844Y032250D02*
X004844Y033190D01*
X004844Y035790D01*
X004844Y035870D01*
X012714Y035870D01*
X012714Y035790D01*
X012714Y033190D01*
X012714Y032250D01*
X004844Y032250D01*
X004844Y033190D02*
X005474Y033190D01*
X006174Y033190D02*
X007444Y033190D01*
X008144Y033190D02*
X009414Y033190D01*
X010114Y033190D02*
X011384Y033190D01*
X012084Y033190D02*
X012714Y033190D01*
X013812Y033190D02*
X013812Y032250D01*
X017742Y032250D01*
X017742Y033190D01*
X017742Y035790D01*
X013812Y035790D01*
X013812Y035870D01*
X017742Y035870D01*
X017742Y035790D01*
X016562Y035270D02*
X016564Y035298D01*
X016570Y035325D01*
X016579Y035351D01*
X016592Y035376D01*
X016609Y035399D01*
X016628Y035419D01*
X016650Y035436D01*
X016674Y035450D01*
X016700Y035460D01*
X016727Y035467D01*
X016755Y035470D01*
X016783Y035469D01*
X016810Y035464D01*
X016837Y035455D01*
X016862Y035443D01*
X016885Y035428D01*
X016906Y035409D01*
X016924Y035388D01*
X016939Y035364D01*
X016950Y035338D01*
X016958Y035312D01*
X016962Y035284D01*
X016962Y035256D01*
X016958Y035228D01*
X016950Y035202D01*
X016939Y035176D01*
X016924Y035152D01*
X016906Y035131D01*
X016885Y035112D01*
X016862Y035097D01*
X016837Y035085D01*
X016810Y035076D01*
X016783Y035071D01*
X016755Y035070D01*
X016727Y035073D01*
X016700Y035080D01*
X016674Y035090D01*
X016650Y035104D01*
X016628Y035121D01*
X016609Y035141D01*
X016592Y035164D01*
X016579Y035189D01*
X016570Y035215D01*
X016564Y035242D01*
X016562Y035270D01*
X016412Y033190D02*
X015142Y033190D01*
X014442Y033190D02*
X013812Y033190D01*
X013812Y035790D01*
X014592Y035270D02*
X014594Y035298D01*
X014600Y035325D01*
X014609Y035351D01*
X014622Y035376D01*
X014639Y035399D01*
X014658Y035419D01*
X014680Y035436D01*
X014704Y035450D01*
X014730Y035460D01*
X014757Y035467D01*
X014785Y035470D01*
X014813Y035469D01*
X014840Y035464D01*
X014867Y035455D01*
X014892Y035443D01*
X014915Y035428D01*
X014936Y035409D01*
X014954Y035388D01*
X014969Y035364D01*
X014980Y035338D01*
X014988Y035312D01*
X014992Y035284D01*
X014992Y035256D01*
X014988Y035228D01*
X014980Y035202D01*
X014969Y035176D01*
X014954Y035152D01*
X014936Y035131D01*
X014915Y035112D01*
X014892Y035097D01*
X014867Y035085D01*
X014840Y035076D01*
X014813Y035071D01*
X014785Y035070D01*
X014757Y035073D01*
X014730Y035080D01*
X014704Y035090D01*
X014680Y035104D01*
X014658Y035121D01*
X014639Y035141D01*
X014622Y035164D01*
X014609Y035189D01*
X014600Y035215D01*
X014594Y035242D01*
X014592Y035270D01*
X012714Y035790D02*
X004844Y035790D01*
X005624Y035270D02*
X005626Y035298D01*
X005632Y035325D01*
X005641Y035351D01*
X005654Y035376D01*
X005671Y035399D01*
X005690Y035419D01*
X005712Y035436D01*
X005736Y035450D01*
X005762Y035460D01*
X005789Y035467D01*
X005817Y035470D01*
X005845Y035469D01*
X005872Y035464D01*
X005899Y035455D01*
X005924Y035443D01*
X005947Y035428D01*
X005968Y035409D01*
X005986Y035388D01*
X006001Y035364D01*
X006012Y035338D01*
X006020Y035312D01*
X006024Y035284D01*
X006024Y035256D01*
X006020Y035228D01*
X006012Y035202D01*
X006001Y035176D01*
X005986Y035152D01*
X005968Y035131D01*
X005947Y035112D01*
X005924Y035097D01*
X005899Y035085D01*
X005872Y035076D01*
X005845Y035071D01*
X005817Y035070D01*
X005789Y035073D01*
X005762Y035080D01*
X005736Y035090D01*
X005712Y035104D01*
X005690Y035121D01*
X005671Y035141D01*
X005654Y035164D01*
X005641Y035189D01*
X005632Y035215D01*
X005626Y035242D01*
X005624Y035270D01*
X007594Y035270D02*
X007596Y035298D01*
X007602Y035325D01*
X007611Y035351D01*
X007624Y035376D01*
X007641Y035399D01*
X007660Y035419D01*
X007682Y035436D01*
X007706Y035450D01*
X007732Y035460D01*
X007759Y035467D01*
X007787Y035470D01*
X007815Y035469D01*
X007842Y035464D01*
X007869Y035455D01*
X007894Y035443D01*
X007917Y035428D01*
X007938Y035409D01*
X007956Y035388D01*
X007971Y035364D01*
X007982Y035338D01*
X007990Y035312D01*
X007994Y035284D01*
X007994Y035256D01*
X007990Y035228D01*
X007982Y035202D01*
X007971Y035176D01*
X007956Y035152D01*
X007938Y035131D01*
X007917Y035112D01*
X007894Y035097D01*
X007869Y035085D01*
X007842Y035076D01*
X007815Y035071D01*
X007787Y035070D01*
X007759Y035073D01*
X007732Y035080D01*
X007706Y035090D01*
X007682Y035104D01*
X007660Y035121D01*
X007641Y035141D01*
X007624Y035164D01*
X007611Y035189D01*
X007602Y035215D01*
X007596Y035242D01*
X007594Y035270D01*
X009564Y035270D02*
X009566Y035298D01*
X009572Y035325D01*
X009581Y035351D01*
X009594Y035376D01*
X009611Y035399D01*
X009630Y035419D01*
X009652Y035436D01*
X009676Y035450D01*
X009702Y035460D01*
X009729Y035467D01*
X009757Y035470D01*
X009785Y035469D01*
X009812Y035464D01*
X009839Y035455D01*
X009864Y035443D01*
X009887Y035428D01*
X009908Y035409D01*
X009926Y035388D01*
X009941Y035364D01*
X009952Y035338D01*
X009960Y035312D01*
X009964Y035284D01*
X009964Y035256D01*
X009960Y035228D01*
X009952Y035202D01*
X009941Y035176D01*
X009926Y035152D01*
X009908Y035131D01*
X009887Y035112D01*
X009864Y035097D01*
X009839Y035085D01*
X009812Y035076D01*
X009785Y035071D01*
X009757Y035070D01*
X009729Y035073D01*
X009702Y035080D01*
X009676Y035090D01*
X009652Y035104D01*
X009630Y035121D01*
X009611Y035141D01*
X009594Y035164D01*
X009581Y035189D01*
X009572Y035215D01*
X009566Y035242D01*
X009564Y035270D01*
X011534Y035270D02*
X011536Y035298D01*
X011542Y035325D01*
X011551Y035351D01*
X011564Y035376D01*
X011581Y035399D01*
X011600Y035419D01*
X011622Y035436D01*
X011646Y035450D01*
X011672Y035460D01*
X011699Y035467D01*
X011727Y035470D01*
X011755Y035469D01*
X011782Y035464D01*
X011809Y035455D01*
X011834Y035443D01*
X011857Y035428D01*
X011878Y035409D01*
X011896Y035388D01*
X011911Y035364D01*
X011922Y035338D01*
X011930Y035312D01*
X011934Y035284D01*
X011934Y035256D01*
X011930Y035228D01*
X011922Y035202D01*
X011911Y035176D01*
X011896Y035152D01*
X011878Y035131D01*
X011857Y035112D01*
X011834Y035097D01*
X011809Y035085D01*
X011782Y035076D01*
X011755Y035071D01*
X011727Y035070D01*
X011699Y035073D01*
X011672Y035080D01*
X011646Y035090D01*
X011622Y035104D01*
X011600Y035121D01*
X011581Y035141D01*
X011564Y035164D01*
X011551Y035189D01*
X011542Y035215D01*
X011536Y035242D01*
X011534Y035270D01*
X017112Y033190D02*
X017742Y033190D01*
M02*
