G75*
%MOIN*%
%OFA0B0*%
%FSLAX24Y24*%
%IPPOS*%
%LPD*%
%AMOC8*
5,1,8,0,0,1.08239X$1,22.5*
%
%ADD10C,0.1850*%
%ADD11C,0.1430*%
%ADD12C,0.0785*%
D10*
X002277Y002100D03*
X020777Y002100D03*
X020777Y034100D03*
X002277Y034100D03*
D11*
X002777Y029400D03*
X002777Y027370D03*
X002777Y023100D03*
X002777Y021070D03*
X005867Y021070D03*
X005867Y023100D03*
X005867Y027370D03*
X005867Y029400D03*
X005867Y015200D03*
X005867Y013170D03*
X005867Y008900D03*
X005867Y006870D03*
X002777Y006870D03*
X002777Y008900D03*
X002777Y013170D03*
X002777Y015200D03*
X017947Y016040D03*
X019977Y016040D03*
X019977Y020240D03*
X017947Y020240D03*
X017947Y030240D03*
X019977Y030240D03*
X019977Y006040D03*
X017947Y006040D03*
D12*
X016761Y002653D02*
X016761Y001948D01*
X014792Y001948D02*
X014792Y002653D01*
X011729Y002653D02*
X011729Y001948D01*
X009761Y001948D02*
X009761Y002653D01*
X007792Y002653D02*
X007792Y001948D01*
X005824Y001948D02*
X005824Y002653D01*
X005824Y033548D02*
X005824Y034253D01*
X007792Y034253D02*
X007792Y033548D01*
X009761Y033548D02*
X009761Y034253D01*
X011729Y034253D02*
X011729Y033548D01*
X014792Y033548D02*
X014792Y034253D01*
X016761Y034253D02*
X016761Y033548D01*
M02*
