G75*
%MOIN*%
%OFA0B0*%
%FSLAX24Y24*%
%IPPOS*%
%LPD*%
%AMOC8*
5,1,8,0,0,1.08239X$1,22.5*
%
%ADD10C,0.1350*%
%ADD11C,0.0705*%
%ADD12C,0.0100*%
D10*
X002777Y006870D03*
X002777Y008900D03*
X002777Y013170D03*
X002777Y015200D03*
X005867Y015200D03*
X005867Y013170D03*
X005867Y008900D03*
X005867Y006870D03*
X005867Y021070D03*
X005867Y023100D03*
X005867Y027370D03*
X005867Y029400D03*
X002777Y029400D03*
X002777Y027370D03*
X002777Y023100D03*
X002777Y021070D03*
X017947Y020240D03*
X019977Y020240D03*
X019977Y016040D03*
X017947Y016040D03*
X017947Y006040D03*
X019977Y006040D03*
X019977Y030240D03*
X017947Y030240D03*
D11*
X016761Y033548D02*
X016761Y034253D01*
X014792Y034253D02*
X014792Y033548D01*
X011729Y033548D02*
X011729Y034253D01*
X009761Y034253D02*
X009761Y033548D01*
X007792Y033548D02*
X007792Y034253D01*
X005824Y034253D02*
X005824Y033548D01*
X005824Y002653D02*
X005824Y001948D01*
X007792Y001948D02*
X007792Y002653D01*
X009761Y002653D02*
X009761Y001948D01*
X011729Y001948D02*
X011729Y002653D01*
X014792Y002653D02*
X014792Y001948D01*
X016761Y001948D02*
X016761Y002653D01*
D12*
X001896Y003380D02*
X001177Y004100D01*
X001177Y017800D01*
X004217Y017800D01*
X004217Y005648D01*
X004256Y005553D01*
X005856Y003953D01*
X005929Y003880D01*
X006025Y003840D01*
X007769Y003840D01*
X008617Y002992D01*
X008617Y000550D01*
X004727Y000550D01*
X003557Y001720D01*
X003612Y001924D01*
X003612Y002276D01*
X003521Y002615D01*
X003345Y002920D01*
X003096Y003168D01*
X002792Y003344D01*
X002452Y003435D01*
X002101Y003435D01*
X001896Y003380D01*
X001828Y003449D02*
X008160Y003449D01*
X008258Y003351D02*
X002768Y003351D01*
X002951Y003252D02*
X008357Y003252D01*
X008455Y003154D02*
X003111Y003154D01*
X003210Y003055D02*
X008554Y003055D01*
X008617Y002957D02*
X003308Y002957D01*
X003381Y002858D02*
X008617Y002858D01*
X008617Y002760D02*
X003437Y002760D01*
X003494Y002661D02*
X008617Y002661D01*
X008617Y002563D02*
X003535Y002563D01*
X003561Y002464D02*
X008617Y002464D01*
X008617Y002366D02*
X003588Y002366D01*
X003612Y002267D02*
X008617Y002267D01*
X008617Y002169D02*
X003612Y002169D01*
X003612Y002070D02*
X008617Y002070D01*
X008617Y001972D02*
X003612Y001972D01*
X003598Y001873D02*
X008617Y001873D01*
X008617Y001775D02*
X003572Y001775D01*
X003601Y001676D02*
X008617Y001676D01*
X008617Y001578D02*
X003699Y001578D01*
X003798Y001479D02*
X008617Y001479D01*
X008617Y001381D02*
X003896Y001381D01*
X003995Y001282D02*
X008617Y001282D01*
X008617Y001184D02*
X004093Y001184D01*
X004192Y001085D02*
X008617Y001085D01*
X008617Y000987D02*
X004290Y000987D01*
X004389Y000888D02*
X008617Y000888D01*
X008617Y000790D02*
X004487Y000790D01*
X004586Y000691D02*
X008617Y000691D01*
X008617Y000593D02*
X004684Y000593D01*
X006018Y003843D02*
X001434Y003843D01*
X001532Y003745D02*
X007864Y003745D01*
X007963Y003646D02*
X001631Y003646D01*
X001729Y003548D02*
X008061Y003548D01*
X008232Y003745D02*
X012677Y003745D01*
X012677Y003843D02*
X008134Y003843D01*
X008035Y003942D02*
X012635Y003942D01*
X012677Y003900D02*
X012677Y000550D01*
X008877Y000550D01*
X008877Y003100D01*
X007877Y004100D01*
X006077Y004100D01*
X004477Y005700D01*
X004477Y017800D01*
X007577Y017800D01*
X007577Y009000D01*
X012677Y003900D01*
X012537Y004040D02*
X007937Y004040D01*
X008331Y003646D02*
X012677Y003646D01*
X012677Y003548D02*
X008429Y003548D01*
X008528Y003449D02*
X012677Y003449D01*
X012677Y003351D02*
X008626Y003351D01*
X008725Y003252D02*
X012677Y003252D01*
X012677Y003154D02*
X008823Y003154D01*
X008877Y003055D02*
X012677Y003055D01*
X012677Y002957D02*
X008877Y002957D01*
X008877Y002858D02*
X012677Y002858D01*
X012677Y002760D02*
X008877Y002760D01*
X008877Y002661D02*
X012677Y002661D01*
X012677Y002563D02*
X008877Y002563D01*
X008877Y002464D02*
X012677Y002464D01*
X012677Y002366D02*
X008877Y002366D01*
X008877Y002267D02*
X012677Y002267D01*
X012677Y002169D02*
X008877Y002169D01*
X008877Y002070D02*
X012677Y002070D01*
X012677Y001972D02*
X008877Y001972D01*
X008877Y001873D02*
X012677Y001873D01*
X012677Y001775D02*
X008877Y001775D01*
X008877Y001676D02*
X012677Y001676D01*
X012677Y001578D02*
X008877Y001578D01*
X008877Y001479D02*
X012677Y001479D01*
X012677Y001381D02*
X008877Y001381D01*
X008877Y001282D02*
X012677Y001282D01*
X012677Y001184D02*
X008877Y001184D01*
X008877Y001085D02*
X012677Y001085D01*
X012677Y000987D02*
X008877Y000987D01*
X008877Y000888D02*
X012677Y000888D01*
X012677Y000790D02*
X008877Y000790D01*
X008877Y000691D02*
X012677Y000691D01*
X012677Y000593D02*
X008877Y000593D01*
X006038Y004139D02*
X012438Y004139D01*
X012340Y004237D02*
X005940Y004237D01*
X005841Y004336D02*
X012241Y004336D01*
X012143Y004434D02*
X005743Y004434D01*
X005644Y004533D02*
X012044Y004533D01*
X011946Y004631D02*
X005546Y004631D01*
X005447Y004730D02*
X011847Y004730D01*
X011749Y004828D02*
X005349Y004828D01*
X005250Y004927D02*
X011650Y004927D01*
X011552Y005025D02*
X005152Y005025D01*
X005053Y005124D02*
X011453Y005124D01*
X011355Y005222D02*
X004955Y005222D01*
X004856Y005321D02*
X011256Y005321D01*
X011158Y005419D02*
X004758Y005419D01*
X004659Y005518D02*
X011059Y005518D01*
X010961Y005616D02*
X004561Y005616D01*
X004477Y005715D02*
X010862Y005715D01*
X010764Y005813D02*
X004477Y005813D01*
X004477Y005912D02*
X010665Y005912D01*
X010567Y006010D02*
X004477Y006010D01*
X004477Y006109D02*
X010468Y006109D01*
X010370Y006207D02*
X004477Y006207D01*
X004477Y006306D02*
X010271Y006306D01*
X010173Y006404D02*
X004477Y006404D01*
X004477Y006503D02*
X010074Y006503D01*
X009976Y006601D02*
X004477Y006601D01*
X004477Y006700D02*
X009877Y006700D01*
X009779Y006798D02*
X004477Y006798D01*
X004477Y006897D02*
X009680Y006897D01*
X009582Y006995D02*
X004477Y006995D01*
X004477Y007094D02*
X009483Y007094D01*
X009385Y007192D02*
X004477Y007192D01*
X004477Y007291D02*
X009286Y007291D01*
X009188Y007389D02*
X004477Y007389D01*
X004477Y007488D02*
X009089Y007488D01*
X008991Y007586D02*
X004477Y007586D01*
X004477Y007685D02*
X008892Y007685D01*
X008794Y007783D02*
X004477Y007783D01*
X004477Y007882D02*
X008695Y007882D01*
X008597Y007980D02*
X004477Y007980D01*
X004477Y008079D02*
X008498Y008079D01*
X008400Y008177D02*
X004477Y008177D01*
X004477Y008276D02*
X008301Y008276D01*
X008203Y008374D02*
X004477Y008374D01*
X004477Y008473D02*
X008104Y008473D01*
X008006Y008571D02*
X004477Y008571D01*
X004477Y008670D02*
X007907Y008670D01*
X007809Y008768D02*
X004477Y008768D01*
X004477Y008867D02*
X007710Y008867D01*
X007612Y008965D02*
X004477Y008965D01*
X004477Y009064D02*
X007577Y009064D01*
X007577Y009162D02*
X004477Y009162D01*
X004477Y009261D02*
X007577Y009261D01*
X007577Y009359D02*
X004477Y009359D01*
X004477Y009458D02*
X007577Y009458D01*
X007577Y009556D02*
X004477Y009556D01*
X004477Y009655D02*
X007577Y009655D01*
X007577Y009753D02*
X004477Y009753D01*
X004477Y009852D02*
X007577Y009852D01*
X007577Y009950D02*
X004477Y009950D01*
X004477Y010049D02*
X007577Y010049D01*
X007577Y010147D02*
X004477Y010147D01*
X004477Y010246D02*
X007577Y010246D01*
X007577Y010344D02*
X004477Y010344D01*
X004477Y010443D02*
X007577Y010443D01*
X007577Y010541D02*
X004477Y010541D01*
X004477Y010640D02*
X007577Y010640D01*
X007577Y010738D02*
X004477Y010738D01*
X004477Y010837D02*
X007577Y010837D01*
X007577Y010935D02*
X004477Y010935D01*
X004477Y011034D02*
X007577Y011034D01*
X007577Y011132D02*
X004477Y011132D01*
X004477Y011231D02*
X007577Y011231D01*
X007577Y011329D02*
X004477Y011329D01*
X004477Y011428D02*
X007577Y011428D01*
X007577Y011526D02*
X004477Y011526D01*
X004477Y011625D02*
X007577Y011625D01*
X007577Y011723D02*
X004477Y011723D01*
X004477Y011822D02*
X007577Y011822D01*
X007577Y011920D02*
X004477Y011920D01*
X004477Y012019D02*
X007577Y012019D01*
X007577Y012117D02*
X004477Y012117D01*
X004477Y012216D02*
X007577Y012216D01*
X007577Y012314D02*
X004477Y012314D01*
X004477Y012413D02*
X007577Y012413D01*
X007577Y012511D02*
X004477Y012511D01*
X004477Y012610D02*
X007577Y012610D01*
X007577Y012708D02*
X004477Y012708D01*
X004477Y012807D02*
X007577Y012807D01*
X007577Y012905D02*
X004477Y012905D01*
X004477Y013004D02*
X007577Y013004D01*
X007577Y013102D02*
X004477Y013102D01*
X004477Y013201D02*
X007577Y013201D01*
X007577Y013299D02*
X004477Y013299D01*
X004477Y013398D02*
X007577Y013398D01*
X007577Y013496D02*
X004477Y013496D01*
X004477Y013595D02*
X007577Y013595D01*
X007577Y013693D02*
X004477Y013693D01*
X004477Y013792D02*
X007577Y013792D01*
X007577Y013890D02*
X004477Y013890D01*
X004477Y013989D02*
X007577Y013989D01*
X007577Y014087D02*
X004477Y014087D01*
X004477Y014186D02*
X007577Y014186D01*
X007577Y014284D02*
X004477Y014284D01*
X004477Y014383D02*
X007577Y014383D01*
X007577Y014481D02*
X004477Y014481D01*
X004477Y014580D02*
X007577Y014580D01*
X007577Y014678D02*
X004477Y014678D01*
X004477Y014777D02*
X007577Y014777D01*
X007577Y014875D02*
X004477Y014875D01*
X004477Y014974D02*
X007577Y014974D01*
X007577Y015072D02*
X004477Y015072D01*
X004477Y015171D02*
X007577Y015171D01*
X007577Y015269D02*
X004477Y015269D01*
X004477Y015368D02*
X007577Y015368D01*
X007577Y015466D02*
X004477Y015466D01*
X004477Y015565D02*
X007577Y015565D01*
X007577Y015663D02*
X004477Y015663D01*
X004477Y015762D02*
X007577Y015762D01*
X007577Y015860D02*
X004477Y015860D01*
X004477Y015959D02*
X007577Y015959D01*
X007577Y016057D02*
X004477Y016057D01*
X004477Y016156D02*
X007577Y016156D01*
X007577Y016254D02*
X004477Y016254D01*
X004477Y016353D02*
X007577Y016353D01*
X007577Y016451D02*
X004477Y016451D01*
X004477Y016550D02*
X007577Y016550D01*
X007577Y016648D02*
X004477Y016648D01*
X004477Y016747D02*
X007577Y016747D01*
X007577Y016845D02*
X004477Y016845D01*
X004477Y016944D02*
X007577Y016944D01*
X007577Y017042D02*
X004477Y017042D01*
X004477Y017141D02*
X007577Y017141D01*
X007577Y017239D02*
X004477Y017239D01*
X004477Y017338D02*
X007577Y017338D01*
X007577Y017436D02*
X004477Y017436D01*
X004477Y017535D02*
X007577Y017535D01*
X007577Y017633D02*
X004477Y017633D01*
X004477Y017732D02*
X007577Y017732D01*
X007577Y018400D02*
X004477Y018400D01*
X004477Y030500D01*
X006077Y032100D01*
X007877Y032100D01*
X008877Y033100D01*
X008877Y035650D01*
X012677Y035650D01*
X012677Y032300D01*
X007577Y027200D01*
X007577Y018400D01*
X007577Y018421D02*
X004477Y018421D01*
X004477Y018520D02*
X007577Y018520D01*
X007577Y018618D02*
X004477Y018618D01*
X004477Y018717D02*
X007577Y018717D01*
X007577Y018815D02*
X004477Y018815D01*
X004477Y018914D02*
X007577Y018914D01*
X007577Y019012D02*
X004477Y019012D01*
X004477Y019111D02*
X007577Y019111D01*
X007577Y019209D02*
X004477Y019209D01*
X004477Y019308D02*
X007577Y019308D01*
X007577Y019406D02*
X004477Y019406D01*
X004477Y019505D02*
X007577Y019505D01*
X007577Y019603D02*
X004477Y019603D01*
X004477Y019702D02*
X007577Y019702D01*
X007577Y019800D02*
X004477Y019800D01*
X004477Y019899D02*
X007577Y019899D01*
X007577Y019997D02*
X004477Y019997D01*
X004477Y020096D02*
X007577Y020096D01*
X007577Y020194D02*
X004477Y020194D01*
X004477Y020293D02*
X007577Y020293D01*
X007577Y020391D02*
X004477Y020391D01*
X004477Y020490D02*
X007577Y020490D01*
X007577Y020588D02*
X004477Y020588D01*
X004477Y020687D02*
X007577Y020687D01*
X007577Y020785D02*
X004477Y020785D01*
X004477Y020884D02*
X007577Y020884D01*
X007577Y020982D02*
X004477Y020982D01*
X004477Y021081D02*
X007577Y021081D01*
X007577Y021179D02*
X004477Y021179D01*
X004477Y021278D02*
X007577Y021278D01*
X007577Y021376D02*
X004477Y021376D01*
X004477Y021475D02*
X007577Y021475D01*
X007577Y021573D02*
X004477Y021573D01*
X004477Y021672D02*
X007577Y021672D01*
X007577Y021770D02*
X004477Y021770D01*
X004477Y021869D02*
X007577Y021869D01*
X007577Y021967D02*
X004477Y021967D01*
X004477Y022066D02*
X007577Y022066D01*
X007577Y022164D02*
X004477Y022164D01*
X004477Y022263D02*
X007577Y022263D01*
X007577Y022361D02*
X004477Y022361D01*
X004477Y022460D02*
X007577Y022460D01*
X007577Y022558D02*
X004477Y022558D01*
X004477Y022657D02*
X007577Y022657D01*
X007577Y022755D02*
X004477Y022755D01*
X004477Y022854D02*
X007577Y022854D01*
X007577Y022952D02*
X004477Y022952D01*
X004477Y023051D02*
X007577Y023051D01*
X007577Y023149D02*
X004477Y023149D01*
X004477Y023248D02*
X007577Y023248D01*
X007577Y023346D02*
X004477Y023346D01*
X004477Y023445D02*
X007577Y023445D01*
X007577Y023543D02*
X004477Y023543D01*
X004477Y023642D02*
X007577Y023642D01*
X007577Y023740D02*
X004477Y023740D01*
X004477Y023839D02*
X007577Y023839D01*
X007577Y023937D02*
X004477Y023937D01*
X004477Y024036D02*
X007577Y024036D01*
X007577Y024134D02*
X004477Y024134D01*
X004477Y024233D02*
X007577Y024233D01*
X007577Y024331D02*
X004477Y024331D01*
X004477Y024430D02*
X007577Y024430D01*
X007577Y024528D02*
X004477Y024528D01*
X004477Y024627D02*
X007577Y024627D01*
X007577Y024725D02*
X004477Y024725D01*
X004477Y024824D02*
X007577Y024824D01*
X007577Y024922D02*
X004477Y024922D01*
X004477Y025021D02*
X007577Y025021D01*
X007577Y025119D02*
X004477Y025119D01*
X004477Y025218D02*
X007577Y025218D01*
X007577Y025316D02*
X004477Y025316D01*
X004477Y025415D02*
X007577Y025415D01*
X007577Y025513D02*
X004477Y025513D01*
X004477Y025612D02*
X007577Y025612D01*
X007577Y025710D02*
X004477Y025710D01*
X004477Y025809D02*
X007577Y025809D01*
X007577Y025907D02*
X004477Y025907D01*
X004477Y026006D02*
X007577Y026006D01*
X007577Y026104D02*
X004477Y026104D01*
X004477Y026203D02*
X007577Y026203D01*
X007577Y026301D02*
X004477Y026301D01*
X004477Y026400D02*
X007577Y026400D01*
X007577Y026498D02*
X004477Y026498D01*
X004477Y026597D02*
X007577Y026597D01*
X007577Y026695D02*
X004477Y026695D01*
X004477Y026794D02*
X007577Y026794D01*
X007577Y026892D02*
X004477Y026892D01*
X004477Y026991D02*
X007577Y026991D01*
X007577Y027089D02*
X004477Y027089D01*
X004477Y027188D02*
X007577Y027188D01*
X007663Y027286D02*
X004477Y027286D01*
X004477Y027385D02*
X007761Y027385D01*
X007860Y027483D02*
X004477Y027483D01*
X004477Y027582D02*
X007958Y027582D01*
X008057Y027680D02*
X004477Y027680D01*
X004477Y027779D02*
X008155Y027779D01*
X008254Y027877D02*
X004477Y027877D01*
X004477Y027976D02*
X008352Y027976D01*
X008451Y028074D02*
X004477Y028074D01*
X004477Y028173D02*
X008549Y028173D01*
X008648Y028271D02*
X004477Y028271D01*
X004477Y028370D02*
X008746Y028370D01*
X008845Y028468D02*
X004477Y028468D01*
X004477Y028567D02*
X008943Y028567D01*
X009042Y028665D02*
X004477Y028665D01*
X004477Y028764D02*
X009140Y028764D01*
X009239Y028862D02*
X004477Y028862D01*
X004477Y028961D02*
X009337Y028961D01*
X009436Y029059D02*
X004477Y029059D01*
X004477Y029158D02*
X009534Y029158D01*
X009633Y029256D02*
X004477Y029256D01*
X004477Y029355D02*
X009731Y029355D01*
X009830Y029453D02*
X004477Y029453D01*
X004477Y029552D02*
X009928Y029552D01*
X010027Y029650D02*
X004477Y029650D01*
X004477Y029749D02*
X010125Y029749D01*
X010224Y029847D02*
X004477Y029847D01*
X004477Y029946D02*
X010322Y029946D01*
X010421Y030044D02*
X004477Y030044D01*
X004477Y030143D02*
X010519Y030143D01*
X010618Y030241D02*
X004477Y030241D01*
X004477Y030340D02*
X010716Y030340D01*
X010815Y030438D02*
X004477Y030438D01*
X004513Y030537D02*
X010913Y030537D01*
X011012Y030635D02*
X004612Y030635D01*
X004710Y030734D02*
X011110Y030734D01*
X011209Y030832D02*
X004809Y030832D01*
X004907Y030931D02*
X011307Y030931D01*
X011406Y031029D02*
X005006Y031029D01*
X005104Y031128D02*
X011504Y031128D01*
X011603Y031226D02*
X005203Y031226D01*
X005301Y031325D02*
X011701Y031325D01*
X011800Y031423D02*
X005400Y031423D01*
X005498Y031522D02*
X011898Y031522D01*
X011997Y031620D02*
X005597Y031620D01*
X005695Y031719D02*
X012095Y031719D01*
X012194Y031817D02*
X005794Y031817D01*
X005892Y031916D02*
X012292Y031916D01*
X012391Y032014D02*
X005991Y032014D01*
X005820Y032211D02*
X001288Y032211D01*
X001386Y032310D02*
X005919Y032310D01*
X005929Y032320D02*
X005856Y032247D01*
X004256Y030647D01*
X004217Y030552D01*
X004217Y018400D01*
X001177Y018400D01*
X001177Y032100D01*
X001896Y032820D01*
X002101Y032765D01*
X002452Y032765D01*
X002792Y032856D01*
X003096Y033032D01*
X003345Y033280D01*
X003521Y033585D01*
X003612Y033924D01*
X003612Y034276D01*
X003557Y034480D01*
X004727Y035650D01*
X008617Y035650D01*
X008617Y033208D01*
X007769Y032360D01*
X006025Y032360D01*
X005929Y032320D01*
X005722Y032113D02*
X001189Y032113D01*
X001177Y032014D02*
X005623Y032014D01*
X005525Y031916D02*
X001177Y031916D01*
X001177Y031817D02*
X005426Y031817D01*
X005328Y031719D02*
X001177Y031719D01*
X001177Y031620D02*
X005229Y031620D01*
X005131Y031522D02*
X001177Y031522D01*
X001177Y031423D02*
X005032Y031423D01*
X004934Y031325D02*
X001177Y031325D01*
X001177Y031226D02*
X004835Y031226D01*
X004737Y031128D02*
X001177Y031128D01*
X001177Y031029D02*
X004638Y031029D01*
X004540Y030931D02*
X001177Y030931D01*
X001177Y030832D02*
X004441Y030832D01*
X004343Y030734D02*
X001177Y030734D01*
X001177Y030635D02*
X004251Y030635D01*
X004217Y030537D02*
X001177Y030537D01*
X001177Y030438D02*
X004217Y030438D01*
X004217Y030340D02*
X001177Y030340D01*
X001177Y030241D02*
X004217Y030241D01*
X004217Y030143D02*
X001177Y030143D01*
X001177Y030044D02*
X004217Y030044D01*
X004217Y029946D02*
X001177Y029946D01*
X001177Y029847D02*
X004217Y029847D01*
X004217Y029749D02*
X001177Y029749D01*
X001177Y029650D02*
X004217Y029650D01*
X004217Y029552D02*
X001177Y029552D01*
X001177Y029453D02*
X004217Y029453D01*
X004217Y029355D02*
X001177Y029355D01*
X001177Y029256D02*
X004217Y029256D01*
X004217Y029158D02*
X001177Y029158D01*
X001177Y029059D02*
X004217Y029059D01*
X004217Y028961D02*
X001177Y028961D01*
X001177Y028862D02*
X004217Y028862D01*
X004217Y028764D02*
X001177Y028764D01*
X001177Y028665D02*
X004217Y028665D01*
X004217Y028567D02*
X001177Y028567D01*
X001177Y028468D02*
X004217Y028468D01*
X004217Y028370D02*
X001177Y028370D01*
X001177Y028271D02*
X004217Y028271D01*
X004217Y028173D02*
X001177Y028173D01*
X001177Y028074D02*
X004217Y028074D01*
X004217Y027976D02*
X001177Y027976D01*
X001177Y027877D02*
X004217Y027877D01*
X004217Y027779D02*
X001177Y027779D01*
X001177Y027680D02*
X004217Y027680D01*
X004217Y027582D02*
X001177Y027582D01*
X001177Y027483D02*
X004217Y027483D01*
X004217Y027385D02*
X001177Y027385D01*
X001177Y027286D02*
X004217Y027286D01*
X004217Y027188D02*
X001177Y027188D01*
X001177Y027089D02*
X004217Y027089D01*
X004217Y026991D02*
X001177Y026991D01*
X001177Y026892D02*
X004217Y026892D01*
X004217Y026794D02*
X001177Y026794D01*
X001177Y026695D02*
X004217Y026695D01*
X004217Y026597D02*
X001177Y026597D01*
X001177Y026498D02*
X004217Y026498D01*
X004217Y026400D02*
X001177Y026400D01*
X001177Y026301D02*
X004217Y026301D01*
X004217Y026203D02*
X001177Y026203D01*
X001177Y026104D02*
X004217Y026104D01*
X004217Y026006D02*
X001177Y026006D01*
X001177Y025907D02*
X004217Y025907D01*
X004217Y025809D02*
X001177Y025809D01*
X001177Y025710D02*
X004217Y025710D01*
X004217Y025612D02*
X001177Y025612D01*
X001177Y025513D02*
X004217Y025513D01*
X004217Y025415D02*
X001177Y025415D01*
X001177Y025316D02*
X004217Y025316D01*
X004217Y025218D02*
X001177Y025218D01*
X001177Y025119D02*
X004217Y025119D01*
X004217Y025021D02*
X001177Y025021D01*
X001177Y024922D02*
X004217Y024922D01*
X004217Y024824D02*
X001177Y024824D01*
X001177Y024725D02*
X004217Y024725D01*
X004217Y024627D02*
X001177Y024627D01*
X001177Y024528D02*
X004217Y024528D01*
X004217Y024430D02*
X001177Y024430D01*
X001177Y024331D02*
X004217Y024331D01*
X004217Y024233D02*
X001177Y024233D01*
X001177Y024134D02*
X004217Y024134D01*
X004217Y024036D02*
X001177Y024036D01*
X001177Y023937D02*
X004217Y023937D01*
X004217Y023839D02*
X001177Y023839D01*
X001177Y023740D02*
X004217Y023740D01*
X004217Y023642D02*
X001177Y023642D01*
X001177Y023543D02*
X004217Y023543D01*
X004217Y023445D02*
X001177Y023445D01*
X001177Y023346D02*
X004217Y023346D01*
X004217Y023248D02*
X001177Y023248D01*
X001177Y023149D02*
X004217Y023149D01*
X004217Y023051D02*
X001177Y023051D01*
X001177Y022952D02*
X004217Y022952D01*
X004217Y022854D02*
X001177Y022854D01*
X001177Y022755D02*
X004217Y022755D01*
X004217Y022657D02*
X001177Y022657D01*
X001177Y022558D02*
X004217Y022558D01*
X004217Y022460D02*
X001177Y022460D01*
X001177Y022361D02*
X004217Y022361D01*
X004217Y022263D02*
X001177Y022263D01*
X001177Y022164D02*
X004217Y022164D01*
X004217Y022066D02*
X001177Y022066D01*
X001177Y021967D02*
X004217Y021967D01*
X004217Y021869D02*
X001177Y021869D01*
X001177Y021770D02*
X004217Y021770D01*
X004217Y021672D02*
X001177Y021672D01*
X001177Y021573D02*
X004217Y021573D01*
X004217Y021475D02*
X001177Y021475D01*
X001177Y021376D02*
X004217Y021376D01*
X004217Y021278D02*
X001177Y021278D01*
X001177Y021179D02*
X004217Y021179D01*
X004217Y021081D02*
X001177Y021081D01*
X001177Y020982D02*
X004217Y020982D01*
X004217Y020884D02*
X001177Y020884D01*
X001177Y020785D02*
X004217Y020785D01*
X004217Y020687D02*
X001177Y020687D01*
X001177Y020588D02*
X004217Y020588D01*
X004217Y020490D02*
X001177Y020490D01*
X001177Y020391D02*
X004217Y020391D01*
X004217Y020293D02*
X001177Y020293D01*
X001177Y020194D02*
X004217Y020194D01*
X004217Y020096D02*
X001177Y020096D01*
X001177Y019997D02*
X004217Y019997D01*
X004217Y019899D02*
X001177Y019899D01*
X001177Y019800D02*
X004217Y019800D01*
X004217Y019702D02*
X001177Y019702D01*
X001177Y019603D02*
X004217Y019603D01*
X004217Y019505D02*
X001177Y019505D01*
X001177Y019406D02*
X004217Y019406D01*
X004217Y019308D02*
X001177Y019308D01*
X001177Y019209D02*
X004217Y019209D01*
X004217Y019111D02*
X001177Y019111D01*
X001177Y019012D02*
X004217Y019012D01*
X004217Y018914D02*
X001177Y018914D01*
X001177Y018815D02*
X004217Y018815D01*
X004217Y018717D02*
X001177Y018717D01*
X001177Y018618D02*
X004217Y018618D01*
X004217Y018520D02*
X001177Y018520D01*
X001177Y018421D02*
X004217Y018421D01*
X004217Y017732D02*
X001177Y017732D01*
X001177Y017633D02*
X004217Y017633D01*
X004217Y017535D02*
X001177Y017535D01*
X001177Y017436D02*
X004217Y017436D01*
X004217Y017338D02*
X001177Y017338D01*
X001177Y017239D02*
X004217Y017239D01*
X004217Y017141D02*
X001177Y017141D01*
X001177Y017042D02*
X004217Y017042D01*
X004217Y016944D02*
X001177Y016944D01*
X001177Y016845D02*
X004217Y016845D01*
X004217Y016747D02*
X001177Y016747D01*
X001177Y016648D02*
X004217Y016648D01*
X004217Y016550D02*
X001177Y016550D01*
X001177Y016451D02*
X004217Y016451D01*
X004217Y016353D02*
X001177Y016353D01*
X001177Y016254D02*
X004217Y016254D01*
X004217Y016156D02*
X001177Y016156D01*
X001177Y016057D02*
X004217Y016057D01*
X004217Y015959D02*
X001177Y015959D01*
X001177Y015860D02*
X004217Y015860D01*
X004217Y015762D02*
X001177Y015762D01*
X001177Y015663D02*
X004217Y015663D01*
X004217Y015565D02*
X001177Y015565D01*
X001177Y015466D02*
X004217Y015466D01*
X004217Y015368D02*
X001177Y015368D01*
X001177Y015269D02*
X004217Y015269D01*
X004217Y015171D02*
X001177Y015171D01*
X001177Y015072D02*
X004217Y015072D01*
X004217Y014974D02*
X001177Y014974D01*
X001177Y014875D02*
X004217Y014875D01*
X004217Y014777D02*
X001177Y014777D01*
X001177Y014678D02*
X004217Y014678D01*
X004217Y014580D02*
X001177Y014580D01*
X001177Y014481D02*
X004217Y014481D01*
X004217Y014383D02*
X001177Y014383D01*
X001177Y014284D02*
X004217Y014284D01*
X004217Y014186D02*
X001177Y014186D01*
X001177Y014087D02*
X004217Y014087D01*
X004217Y013989D02*
X001177Y013989D01*
X001177Y013890D02*
X004217Y013890D01*
X004217Y013792D02*
X001177Y013792D01*
X001177Y013693D02*
X004217Y013693D01*
X004217Y013595D02*
X001177Y013595D01*
X001177Y013496D02*
X004217Y013496D01*
X004217Y013398D02*
X001177Y013398D01*
X001177Y013299D02*
X004217Y013299D01*
X004217Y013201D02*
X001177Y013201D01*
X001177Y013102D02*
X004217Y013102D01*
X004217Y013004D02*
X001177Y013004D01*
X001177Y012905D02*
X004217Y012905D01*
X004217Y012807D02*
X001177Y012807D01*
X001177Y012708D02*
X004217Y012708D01*
X004217Y012610D02*
X001177Y012610D01*
X001177Y012511D02*
X004217Y012511D01*
X004217Y012413D02*
X001177Y012413D01*
X001177Y012314D02*
X004217Y012314D01*
X004217Y012216D02*
X001177Y012216D01*
X001177Y012117D02*
X004217Y012117D01*
X004217Y012019D02*
X001177Y012019D01*
X001177Y011920D02*
X004217Y011920D01*
X004217Y011822D02*
X001177Y011822D01*
X001177Y011723D02*
X004217Y011723D01*
X004217Y011625D02*
X001177Y011625D01*
X001177Y011526D02*
X004217Y011526D01*
X004217Y011428D02*
X001177Y011428D01*
X001177Y011329D02*
X004217Y011329D01*
X004217Y011231D02*
X001177Y011231D01*
X001177Y011132D02*
X004217Y011132D01*
X004217Y011034D02*
X001177Y011034D01*
X001177Y010935D02*
X004217Y010935D01*
X004217Y010837D02*
X001177Y010837D01*
X001177Y010738D02*
X004217Y010738D01*
X004217Y010640D02*
X001177Y010640D01*
X001177Y010541D02*
X004217Y010541D01*
X004217Y010443D02*
X001177Y010443D01*
X001177Y010344D02*
X004217Y010344D01*
X004217Y010246D02*
X001177Y010246D01*
X001177Y010147D02*
X004217Y010147D01*
X004217Y010049D02*
X001177Y010049D01*
X001177Y009950D02*
X004217Y009950D01*
X004217Y009852D02*
X001177Y009852D01*
X001177Y009753D02*
X004217Y009753D01*
X004217Y009655D02*
X001177Y009655D01*
X001177Y009556D02*
X004217Y009556D01*
X004217Y009458D02*
X001177Y009458D01*
X001177Y009359D02*
X004217Y009359D01*
X004217Y009261D02*
X001177Y009261D01*
X001177Y009162D02*
X004217Y009162D01*
X004217Y009064D02*
X001177Y009064D01*
X001177Y008965D02*
X004217Y008965D01*
X004217Y008867D02*
X001177Y008867D01*
X001177Y008768D02*
X004217Y008768D01*
X004217Y008670D02*
X001177Y008670D01*
X001177Y008571D02*
X004217Y008571D01*
X004217Y008473D02*
X001177Y008473D01*
X001177Y008374D02*
X004217Y008374D01*
X004217Y008276D02*
X001177Y008276D01*
X001177Y008177D02*
X004217Y008177D01*
X004217Y008079D02*
X001177Y008079D01*
X001177Y007980D02*
X004217Y007980D01*
X004217Y007882D02*
X001177Y007882D01*
X001177Y007783D02*
X004217Y007783D01*
X004217Y007685D02*
X001177Y007685D01*
X001177Y007586D02*
X004217Y007586D01*
X004217Y007488D02*
X001177Y007488D01*
X001177Y007389D02*
X004217Y007389D01*
X004217Y007291D02*
X001177Y007291D01*
X001177Y007192D02*
X004217Y007192D01*
X004217Y007094D02*
X001177Y007094D01*
X001177Y006995D02*
X004217Y006995D01*
X004217Y006897D02*
X001177Y006897D01*
X001177Y006798D02*
X004217Y006798D01*
X004217Y006700D02*
X001177Y006700D01*
X001177Y006601D02*
X004217Y006601D01*
X004217Y006503D02*
X001177Y006503D01*
X001177Y006404D02*
X004217Y006404D01*
X004217Y006306D02*
X001177Y006306D01*
X001177Y006207D02*
X004217Y006207D01*
X004217Y006109D02*
X001177Y006109D01*
X001177Y006010D02*
X004217Y006010D01*
X004217Y005912D02*
X001177Y005912D01*
X001177Y005813D02*
X004217Y005813D01*
X004217Y005715D02*
X001177Y005715D01*
X001177Y005616D02*
X004230Y005616D01*
X004291Y005518D02*
X001177Y005518D01*
X001177Y005419D02*
X004390Y005419D01*
X004488Y005321D02*
X001177Y005321D01*
X001177Y005222D02*
X004587Y005222D01*
X004685Y005124D02*
X001177Y005124D01*
X001177Y005025D02*
X004784Y005025D01*
X004882Y004927D02*
X001177Y004927D01*
X001177Y004828D02*
X004981Y004828D01*
X005079Y004730D02*
X001177Y004730D01*
X001177Y004631D02*
X005178Y004631D01*
X005276Y004533D02*
X001177Y004533D01*
X001177Y004434D02*
X005375Y004434D01*
X005473Y004336D02*
X001177Y004336D01*
X001177Y004237D02*
X005572Y004237D01*
X005670Y004139D02*
X001177Y004139D01*
X001237Y004040D02*
X005769Y004040D01*
X005867Y003942D02*
X001335Y003942D01*
X007889Y032113D02*
X012489Y032113D01*
X012588Y032211D02*
X007988Y032211D01*
X008086Y032310D02*
X012677Y032310D01*
X012677Y032408D02*
X008185Y032408D01*
X008283Y032507D02*
X012677Y032507D01*
X012677Y032605D02*
X008382Y032605D01*
X008480Y032704D02*
X012677Y032704D01*
X012677Y032802D02*
X008579Y032802D01*
X008677Y032901D02*
X012677Y032901D01*
X012677Y032999D02*
X008776Y032999D01*
X008874Y033098D02*
X012677Y033098D01*
X012677Y033196D02*
X008877Y033196D01*
X008877Y033295D02*
X012677Y033295D01*
X012677Y033393D02*
X008877Y033393D01*
X008877Y033492D02*
X012677Y033492D01*
X012677Y033590D02*
X008877Y033590D01*
X008877Y033689D02*
X012677Y033689D01*
X012677Y033787D02*
X008877Y033787D01*
X008877Y033886D02*
X012677Y033886D01*
X012677Y033984D02*
X008877Y033984D01*
X008877Y034083D02*
X012677Y034083D01*
X012677Y034181D02*
X008877Y034181D01*
X008877Y034280D02*
X012677Y034280D01*
X012677Y034378D02*
X008877Y034378D01*
X008877Y034477D02*
X012677Y034477D01*
X012677Y034575D02*
X008877Y034575D01*
X008877Y034674D02*
X012677Y034674D01*
X012677Y034772D02*
X008877Y034772D01*
X008877Y034871D02*
X012677Y034871D01*
X012677Y034969D02*
X008877Y034969D01*
X008877Y035068D02*
X012677Y035068D01*
X012677Y035166D02*
X008877Y035166D01*
X008877Y035265D02*
X012677Y035265D01*
X012677Y035363D02*
X008877Y035363D01*
X008877Y035462D02*
X012677Y035462D01*
X012677Y035560D02*
X008877Y035560D01*
X008617Y035560D02*
X004637Y035560D01*
X004538Y035462D02*
X008617Y035462D01*
X008617Y035363D02*
X004440Y035363D01*
X004341Y035265D02*
X008617Y035265D01*
X008617Y035166D02*
X004243Y035166D01*
X004144Y035068D02*
X008617Y035068D01*
X008617Y034969D02*
X004046Y034969D01*
X003947Y034871D02*
X008617Y034871D01*
X008617Y034772D02*
X003849Y034772D01*
X003750Y034674D02*
X008617Y034674D01*
X008617Y034575D02*
X003652Y034575D01*
X003558Y034477D02*
X008617Y034477D01*
X008617Y034378D02*
X003584Y034378D01*
X003611Y034280D02*
X008617Y034280D01*
X008617Y034181D02*
X003612Y034181D01*
X003612Y034083D02*
X008617Y034083D01*
X008617Y033984D02*
X003612Y033984D01*
X003601Y033886D02*
X008617Y033886D01*
X008617Y033787D02*
X003575Y033787D01*
X003549Y033689D02*
X008617Y033689D01*
X008617Y033590D02*
X003522Y033590D01*
X003467Y033492D02*
X008617Y033492D01*
X008617Y033393D02*
X003410Y033393D01*
X003353Y033295D02*
X008617Y033295D01*
X008605Y033196D02*
X003261Y033196D01*
X003162Y033098D02*
X008507Y033098D01*
X008408Y032999D02*
X003040Y032999D01*
X002869Y032901D02*
X008310Y032901D01*
X008211Y032802D02*
X002591Y032802D01*
X001963Y032802D02*
X001879Y032802D01*
X001780Y032704D02*
X008113Y032704D01*
X008014Y032605D02*
X001682Y032605D01*
X001583Y032507D02*
X007916Y032507D01*
X007817Y032408D02*
X001485Y032408D01*
M02*
