G75*
G70*
%OFA0B0*%
%FSLAX24Y24*%
%IPPOS*%
%LPD*%
%AMOC8*
5,1,8,0,0,1.08239X$1,22.5*
%
%ADD10C,0.0060*%
%ADD11C,0.0040*%
%ADD12C,0.0050*%
%ADD13C,0.0030*%
D10*
X001590Y001040D02*
X001590Y002540D01*
X001840Y002790D01*
X002340Y002790D01*
X002590Y002540D01*
X002590Y001040D01*
X002840Y000790D01*
X003340Y000790D01*
X003590Y001040D01*
X003590Y002540D01*
X003840Y002790D01*
X004340Y002790D01*
X004590Y002540D01*
X004590Y001040D01*
X004840Y000790D01*
X005340Y000790D01*
X005590Y001040D01*
X005590Y002540D01*
X005840Y002790D01*
X006340Y002790D01*
X006590Y002540D01*
X006590Y001040D01*
X006840Y000790D01*
X007340Y000790D01*
X007590Y001040D01*
X007590Y002540D01*
X007840Y002790D01*
X008340Y002790D01*
X008590Y002540D01*
X008590Y001040D01*
X008340Y000790D01*
X007840Y000790D01*
X007590Y001040D01*
X008590Y001040D02*
X008840Y000790D01*
X009340Y000790D01*
X009590Y001040D01*
X009590Y002540D01*
X009840Y002790D01*
X010340Y002790D01*
X010590Y002540D01*
X010590Y001040D01*
X010340Y000790D01*
X009840Y000790D01*
X009590Y001040D01*
X010590Y001040D02*
X010840Y000790D01*
X011340Y000790D01*
X011590Y001040D01*
X011590Y002540D01*
X011840Y002790D01*
X012340Y002790D01*
X012590Y002540D01*
X012590Y001040D01*
X012340Y000790D01*
X011840Y000790D01*
X011590Y001040D01*
X012590Y001040D02*
X012840Y000790D01*
X013340Y000790D01*
X013590Y001040D01*
X013590Y002540D01*
X013840Y002790D01*
X014340Y002790D01*
X014590Y002540D01*
X014590Y001040D01*
X014340Y000790D01*
X013840Y000790D01*
X013590Y001040D01*
X014590Y001040D02*
X014840Y000790D01*
X015340Y000790D01*
X015590Y001040D01*
X015590Y002540D01*
X015840Y002790D01*
X016340Y002790D01*
X016590Y002540D01*
X016590Y001040D01*
X016340Y000790D01*
X015840Y000790D01*
X015590Y001040D01*
X016590Y001040D02*
X016840Y000790D01*
X017340Y000790D01*
X017590Y001040D01*
X017590Y002540D01*
X017840Y002790D01*
X018340Y002790D01*
X018590Y002540D01*
X018590Y001040D01*
X018340Y000790D01*
X017840Y000790D01*
X017590Y001040D01*
X018590Y001040D02*
X018840Y000790D01*
X019340Y000790D01*
X019590Y001040D01*
X019590Y002540D01*
X019840Y002790D01*
X020340Y002790D01*
X020590Y002540D01*
X020840Y002790D01*
X021340Y002790D01*
X021590Y002540D01*
X021590Y001040D01*
X021340Y000790D01*
X020840Y000790D01*
X020590Y001040D01*
X020590Y002540D01*
X019590Y002540D02*
X019340Y002790D01*
X018840Y002790D01*
X018590Y002540D01*
X017590Y002540D02*
X017340Y002790D01*
X016840Y002790D01*
X016590Y002540D01*
X015590Y002540D02*
X015340Y002790D01*
X014840Y002790D01*
X014590Y002540D01*
X013590Y002540D02*
X013340Y002790D01*
X012840Y002790D01*
X012590Y002540D01*
X011590Y002540D02*
X011340Y002790D01*
X010840Y002790D01*
X010590Y002540D01*
X009590Y002540D02*
X009340Y002790D01*
X008840Y002790D01*
X008590Y002540D01*
X007590Y002540D02*
X007340Y002790D01*
X006840Y002790D01*
X006590Y002540D01*
X005590Y002540D02*
X005340Y002790D01*
X004840Y002790D01*
X004590Y002540D01*
X003590Y002540D02*
X003340Y002790D01*
X002840Y002790D01*
X002590Y002540D01*
X002590Y001040D02*
X002340Y000790D01*
X001840Y000790D01*
X001590Y001040D01*
X003590Y001040D02*
X003840Y000790D01*
X004340Y000790D01*
X004590Y001040D01*
X005590Y001040D02*
X005840Y000790D01*
X006340Y000790D01*
X006590Y001040D01*
X005690Y005140D02*
X005190Y005140D01*
X004940Y005390D01*
X004940Y005890D01*
X005190Y006140D01*
X005690Y006140D01*
X005940Y005890D01*
X005940Y005390D01*
X005690Y005140D01*
X008640Y007290D02*
X008890Y007040D01*
X009390Y007040D01*
X009640Y007290D01*
X009640Y007790D01*
X009390Y008040D01*
X008890Y008040D01*
X008640Y007790D01*
X008640Y007290D01*
X005940Y008890D02*
X005690Y008640D01*
X005190Y008640D01*
X004940Y008890D01*
X004940Y009390D01*
X005190Y009640D01*
X005690Y009640D01*
X005940Y009390D01*
X005940Y008890D01*
X008640Y010790D02*
X008890Y010540D01*
X009390Y010540D01*
X009640Y010790D01*
X009640Y011290D01*
X009390Y011540D01*
X008890Y011540D01*
X008640Y011290D01*
X008640Y010790D01*
X005940Y012390D02*
X005690Y012140D01*
X005190Y012140D01*
X004940Y012390D01*
X004940Y012890D01*
X005190Y013140D01*
X005690Y013140D01*
X005940Y012890D01*
X005940Y012390D01*
X008640Y014290D02*
X008890Y014040D01*
X009390Y014040D01*
X009640Y014290D01*
X009640Y014790D01*
X009390Y015040D01*
X008890Y015040D01*
X008640Y014790D01*
X008640Y014290D01*
X005940Y015890D02*
X005690Y015640D01*
X005190Y015640D01*
X004940Y015890D01*
X004940Y016390D01*
X005190Y016640D01*
X005690Y016640D01*
X005940Y016390D01*
X005940Y015890D01*
X008640Y017790D02*
X008890Y017540D01*
X009390Y017540D01*
X009640Y017790D01*
X009640Y018290D01*
X009390Y018540D01*
X008890Y018540D01*
X008640Y018290D01*
X008640Y017790D01*
X008840Y021790D02*
X008590Y022040D01*
X008590Y023540D01*
X008840Y023790D01*
X009340Y023790D01*
X009590Y023540D01*
X009590Y022040D01*
X009340Y021790D01*
X008840Y021790D01*
X008590Y022040D02*
X008340Y021790D01*
X007840Y021790D01*
X007590Y022040D01*
X007590Y023540D01*
X007840Y023790D01*
X008340Y023790D01*
X008590Y023540D01*
X007590Y023540D02*
X007340Y023790D01*
X006840Y023790D01*
X006590Y023540D01*
X006590Y022040D01*
X006840Y021790D01*
X007340Y021790D01*
X007590Y022040D01*
X006590Y022040D02*
X006340Y021790D01*
X005840Y021790D01*
X005590Y022040D01*
X005590Y023540D01*
X005840Y023790D01*
X006340Y023790D01*
X006590Y023540D01*
X005590Y023540D02*
X005340Y023790D01*
X004840Y023790D01*
X004590Y023540D01*
X004590Y022040D01*
X004840Y021790D01*
X005340Y021790D01*
X005590Y022040D01*
X004590Y022040D02*
X004340Y021790D01*
X003840Y021790D01*
X003590Y022040D01*
X003590Y023540D01*
X003840Y023790D01*
X004340Y023790D01*
X004590Y023540D01*
X003590Y023540D02*
X003340Y023790D01*
X002840Y023790D01*
X002590Y023540D01*
X002590Y022040D01*
X002840Y021790D01*
X003340Y021790D01*
X003590Y022040D01*
X002590Y022040D02*
X002340Y021790D01*
X001840Y021790D01*
X001590Y022040D01*
X001590Y023540D01*
X001840Y023790D01*
X002340Y023790D01*
X002590Y023540D01*
X002340Y020640D02*
X001840Y020640D01*
X001590Y020390D01*
X001590Y019890D01*
X001840Y019640D01*
X002340Y019640D01*
X002590Y019890D01*
X002590Y020390D01*
X002340Y020640D01*
X009590Y022040D02*
X009840Y021790D01*
X010340Y021790D01*
X010590Y022040D01*
X010590Y023540D01*
X010840Y023790D01*
X011340Y023790D01*
X011590Y023540D01*
X011590Y022040D01*
X011340Y021790D01*
X010840Y021790D01*
X010590Y022040D01*
X011590Y022040D02*
X011840Y021790D01*
X012340Y021790D01*
X012590Y022040D01*
X012590Y023540D01*
X012840Y023790D01*
X013340Y023790D01*
X013590Y023540D01*
X013590Y022040D01*
X013340Y021790D01*
X012840Y021790D01*
X012590Y022040D01*
X013590Y022040D02*
X013840Y021790D01*
X014340Y021790D01*
X014590Y022040D01*
X014590Y023540D01*
X014840Y023790D01*
X015340Y023790D01*
X015590Y023540D01*
X015590Y022040D01*
X015340Y021790D01*
X014840Y021790D01*
X014590Y022040D01*
X015590Y022040D02*
X015840Y021790D01*
X016340Y021790D01*
X016590Y022040D01*
X016590Y023540D01*
X016840Y023790D01*
X017340Y023790D01*
X017590Y023540D01*
X017590Y022040D01*
X017340Y021790D01*
X016840Y021790D01*
X016590Y022040D01*
X017590Y022040D02*
X017840Y021790D01*
X018340Y021790D01*
X018590Y022040D01*
X018590Y023540D01*
X018840Y023790D01*
X019340Y023790D01*
X019590Y023540D01*
X019590Y022040D01*
X019340Y021790D01*
X018840Y021790D01*
X018590Y022040D01*
X019590Y022040D02*
X019840Y021790D01*
X020340Y021790D01*
X020590Y022040D01*
X020840Y021790D01*
X021340Y021790D01*
X021590Y022040D01*
X021590Y023540D01*
X021340Y023790D01*
X020840Y023790D01*
X020590Y023540D01*
X020590Y022040D01*
X020590Y023540D02*
X020340Y023790D01*
X019840Y023790D01*
X019590Y023540D01*
X018590Y023540D02*
X018340Y023790D01*
X017840Y023790D01*
X017590Y023540D01*
X016590Y023540D02*
X016340Y023790D01*
X015840Y023790D01*
X015590Y023540D01*
X014590Y023540D02*
X014340Y023790D01*
X013840Y023790D01*
X013590Y023540D01*
X012590Y023540D02*
X012340Y023790D01*
X011840Y023790D01*
X011590Y023540D01*
X010590Y023540D02*
X010340Y023790D01*
X009840Y023790D01*
X009590Y023540D01*
X018284Y006761D02*
X018531Y006514D01*
X018531Y006020D01*
X018773Y006143D02*
X018897Y006020D01*
X019144Y006020D01*
X019267Y006143D01*
X019267Y006761D01*
X019510Y006761D02*
X019510Y006267D01*
X019757Y006020D01*
X020004Y006267D01*
X020004Y006761D01*
X020247Y006761D02*
X020247Y006143D01*
X020370Y006020D01*
X020617Y006020D01*
X020740Y006143D01*
X020740Y006761D01*
X020983Y006514D02*
X021230Y006761D01*
X021477Y006514D01*
X021477Y006020D01*
X021477Y006390D02*
X020983Y006390D01*
X020983Y006514D02*
X020983Y006020D01*
X018773Y006143D02*
X018773Y006761D01*
X018531Y006390D02*
X018037Y006390D01*
X018037Y006514D02*
X018284Y006761D01*
X018037Y006514D02*
X018037Y006020D01*
X019590Y001040D02*
X019840Y000790D01*
X020340Y000790D01*
X020590Y001040D01*
D11*
X020636Y004260D02*
X020559Y004260D01*
X020559Y004337D01*
X020636Y004337D01*
X020636Y004260D01*
X020789Y004260D02*
X021096Y004260D01*
X020943Y004260D02*
X020943Y004720D01*
X020789Y004567D01*
X020406Y004644D02*
X020099Y004337D01*
X020099Y004260D01*
X019945Y004260D02*
X019638Y004260D01*
X019485Y004260D02*
X019408Y004260D01*
X019408Y004337D01*
X019485Y004337D01*
X019485Y004260D01*
X019255Y004337D02*
X019255Y004490D01*
X019178Y004567D01*
X019101Y004567D01*
X018948Y004490D01*
X018948Y004720D01*
X019255Y004720D01*
X019255Y004907D02*
X019331Y004907D01*
X019408Y004983D01*
X019408Y005367D01*
X019408Y005520D02*
X019408Y005597D01*
X019638Y005367D02*
X019561Y005290D01*
X019561Y005137D01*
X019638Y005060D01*
X019792Y005060D01*
X019868Y005137D01*
X019868Y005290D01*
X019792Y005367D01*
X019638Y005367D01*
X019792Y004720D02*
X019792Y004260D01*
X019638Y004567D02*
X019792Y004720D01*
X020099Y004720D02*
X020406Y004720D01*
X020406Y004644D01*
X020559Y005060D02*
X020482Y005137D01*
X020559Y005213D01*
X020789Y005213D01*
X020789Y005290D02*
X020789Y005060D01*
X020559Y005060D01*
X020559Y005367D02*
X020712Y005367D01*
X020789Y005290D01*
X020943Y005290D02*
X021096Y005290D01*
X021250Y005290D02*
X021250Y005137D01*
X021326Y005060D01*
X021480Y005060D01*
X021557Y005213D02*
X021250Y005213D01*
X021250Y005290D02*
X021326Y005367D01*
X021480Y005367D01*
X021557Y005290D01*
X021557Y005213D01*
X021480Y004720D02*
X021250Y004490D01*
X021557Y004490D01*
X021480Y004260D02*
X021480Y004720D01*
X021019Y005060D02*
X021019Y005444D01*
X021096Y005520D01*
X019255Y004337D02*
X019178Y004260D01*
X019024Y004260D01*
X018948Y004337D01*
X018794Y004567D02*
X018717Y004567D01*
X018564Y004413D01*
X018564Y004260D02*
X018564Y004567D01*
X018641Y005060D02*
X018641Y005290D01*
X018564Y005367D01*
X018487Y005290D01*
X018487Y005060D01*
X018334Y005060D02*
X018334Y005367D01*
X018411Y005367D01*
X018487Y005290D01*
X018794Y005290D02*
X018794Y005137D01*
X018871Y005060D01*
X019024Y005060D01*
X019101Y005137D01*
X019101Y005290D01*
X019024Y005367D01*
X018871Y005367D01*
X018794Y005290D01*
D12*
X013449Y005088D02*
X013449Y007292D01*
X012031Y007292D01*
X012031Y005088D01*
X013449Y005088D01*
X012150Y007056D02*
X012152Y007077D01*
X012158Y007097D01*
X012167Y007117D01*
X012179Y007134D01*
X012194Y007148D01*
X012212Y007160D01*
X012232Y007168D01*
X012252Y007173D01*
X012273Y007174D01*
X012294Y007171D01*
X012314Y007165D01*
X012333Y007154D01*
X012350Y007141D01*
X012363Y007125D01*
X012374Y007107D01*
X012382Y007087D01*
X012386Y007067D01*
X012386Y007045D01*
X012382Y007025D01*
X012374Y007005D01*
X012363Y006987D01*
X012350Y006971D01*
X012333Y006958D01*
X012314Y006947D01*
X012294Y006941D01*
X012273Y006938D01*
X012252Y006939D01*
X012232Y006944D01*
X012212Y006952D01*
X012194Y006964D01*
X012179Y006978D01*
X012167Y006995D01*
X012158Y007015D01*
X012152Y007035D01*
X012150Y007056D01*
X012031Y008588D02*
X013449Y008588D01*
X013449Y010792D01*
X012031Y010792D01*
X012031Y008588D01*
X012150Y010556D02*
X012152Y010577D01*
X012158Y010597D01*
X012167Y010617D01*
X012179Y010634D01*
X012194Y010648D01*
X012212Y010660D01*
X012232Y010668D01*
X012252Y010673D01*
X012273Y010674D01*
X012294Y010671D01*
X012314Y010665D01*
X012333Y010654D01*
X012350Y010641D01*
X012363Y010625D01*
X012374Y010607D01*
X012382Y010587D01*
X012386Y010567D01*
X012386Y010545D01*
X012382Y010525D01*
X012374Y010505D01*
X012363Y010487D01*
X012350Y010471D01*
X012333Y010458D01*
X012314Y010447D01*
X012294Y010441D01*
X012273Y010438D01*
X012252Y010439D01*
X012232Y010444D01*
X012212Y010452D01*
X012194Y010464D01*
X012179Y010478D01*
X012167Y010495D01*
X012158Y010515D01*
X012152Y010535D01*
X012150Y010556D01*
X012031Y012088D02*
X013449Y012088D01*
X013449Y014292D01*
X012031Y014292D01*
X012031Y012088D01*
X012150Y014056D02*
X012152Y014077D01*
X012158Y014097D01*
X012167Y014117D01*
X012179Y014134D01*
X012194Y014148D01*
X012212Y014160D01*
X012232Y014168D01*
X012252Y014173D01*
X012273Y014174D01*
X012294Y014171D01*
X012314Y014165D01*
X012333Y014154D01*
X012350Y014141D01*
X012363Y014125D01*
X012374Y014107D01*
X012382Y014087D01*
X012386Y014067D01*
X012386Y014045D01*
X012382Y014025D01*
X012374Y014005D01*
X012363Y013987D01*
X012350Y013971D01*
X012333Y013958D01*
X012314Y013947D01*
X012294Y013941D01*
X012273Y013938D01*
X012252Y013939D01*
X012232Y013944D01*
X012212Y013952D01*
X012194Y013964D01*
X012179Y013978D01*
X012167Y013995D01*
X012158Y014015D01*
X012152Y014035D01*
X012150Y014056D01*
X012031Y015588D02*
X013449Y015588D01*
X013449Y017792D01*
X012031Y017792D01*
X012031Y015588D01*
X012150Y017556D02*
X012152Y017577D01*
X012158Y017597D01*
X012167Y017617D01*
X012179Y017634D01*
X012194Y017648D01*
X012212Y017660D01*
X012232Y017668D01*
X012252Y017673D01*
X012273Y017674D01*
X012294Y017671D01*
X012314Y017665D01*
X012333Y017654D01*
X012350Y017641D01*
X012363Y017625D01*
X012374Y017607D01*
X012382Y017587D01*
X012386Y017567D01*
X012386Y017545D01*
X012382Y017525D01*
X012374Y017505D01*
X012363Y017487D01*
X012350Y017471D01*
X012333Y017458D01*
X012314Y017447D01*
X012294Y017441D01*
X012273Y017438D01*
X012252Y017439D01*
X012232Y017444D01*
X012212Y017452D01*
X012194Y017464D01*
X012179Y017478D01*
X012167Y017495D01*
X012158Y017515D01*
X012152Y017535D01*
X012150Y017556D01*
X012869Y019275D02*
X012869Y019905D01*
X014011Y019905D01*
X014011Y019275D01*
X012869Y019275D01*
X007531Y017781D02*
X007531Y016599D01*
X006349Y016599D01*
X006349Y017781D01*
X007531Y017781D01*
X006074Y017781D02*
X006076Y017799D01*
X006082Y017815D01*
X006091Y017830D01*
X006104Y017843D01*
X006119Y017852D01*
X006135Y017858D01*
X006153Y017860D01*
X006171Y017858D01*
X006187Y017852D01*
X006202Y017843D01*
X006215Y017830D01*
X006224Y017815D01*
X006230Y017799D01*
X006232Y017781D01*
X006230Y017763D01*
X006224Y017747D01*
X006215Y017732D01*
X006202Y017719D01*
X006187Y017710D01*
X006171Y017704D01*
X006153Y017702D01*
X006135Y017704D01*
X006119Y017710D01*
X006104Y017719D01*
X006091Y017732D01*
X006082Y017747D01*
X006076Y017763D01*
X006074Y017781D01*
X006011Y019275D02*
X004869Y019275D01*
X004869Y019905D01*
X006011Y019905D01*
X006011Y019275D01*
X004270Y018040D02*
X004270Y017040D01*
X003590Y016360D02*
X002590Y016360D01*
X001910Y017040D02*
X001910Y018040D01*
X002590Y018720D02*
X003590Y018720D01*
X003590Y015220D02*
X002590Y015220D01*
X001910Y014540D02*
X001910Y013540D01*
X002590Y012860D02*
X003590Y012860D01*
X004270Y013540D02*
X004270Y014540D01*
X006074Y014281D02*
X006076Y014299D01*
X006082Y014315D01*
X006091Y014330D01*
X006104Y014343D01*
X006119Y014352D01*
X006135Y014358D01*
X006153Y014360D01*
X006171Y014358D01*
X006187Y014352D01*
X006202Y014343D01*
X006215Y014330D01*
X006224Y014315D01*
X006230Y014299D01*
X006232Y014281D01*
X006230Y014263D01*
X006224Y014247D01*
X006215Y014232D01*
X006202Y014219D01*
X006187Y014210D01*
X006171Y014204D01*
X006153Y014202D01*
X006135Y014204D01*
X006119Y014210D01*
X006104Y014219D01*
X006091Y014232D01*
X006082Y014247D01*
X006076Y014263D01*
X006074Y014281D01*
X006349Y014281D02*
X006349Y013099D01*
X007531Y013099D01*
X007531Y014281D01*
X006349Y014281D01*
X003590Y011720D02*
X002590Y011720D01*
X001910Y011040D02*
X001910Y010040D01*
X002590Y009360D02*
X003590Y009360D01*
X004270Y010040D02*
X004270Y011040D01*
X006074Y010781D02*
X006076Y010799D01*
X006082Y010815D01*
X006091Y010830D01*
X006104Y010843D01*
X006119Y010852D01*
X006135Y010858D01*
X006153Y010860D01*
X006171Y010858D01*
X006187Y010852D01*
X006202Y010843D01*
X006215Y010830D01*
X006224Y010815D01*
X006230Y010799D01*
X006232Y010781D01*
X006230Y010763D01*
X006224Y010747D01*
X006215Y010732D01*
X006202Y010719D01*
X006187Y010710D01*
X006171Y010704D01*
X006153Y010702D01*
X006135Y010704D01*
X006119Y010710D01*
X006104Y010719D01*
X006091Y010732D01*
X006082Y010747D01*
X006076Y010763D01*
X006074Y010781D01*
X006349Y010781D02*
X006349Y009599D01*
X007531Y009599D01*
X007531Y010781D01*
X006349Y010781D01*
X003590Y008220D02*
X002590Y008220D01*
X001910Y007540D02*
X001910Y006540D01*
X002590Y005860D02*
X003590Y005860D01*
X004270Y006540D02*
X004270Y007540D01*
X006074Y007281D02*
X006076Y007299D01*
X006082Y007315D01*
X006091Y007330D01*
X006104Y007343D01*
X006119Y007352D01*
X006135Y007358D01*
X006153Y007360D01*
X006171Y007358D01*
X006187Y007352D01*
X006202Y007343D01*
X006215Y007330D01*
X006224Y007315D01*
X006230Y007299D01*
X006232Y007281D01*
X006230Y007263D01*
X006224Y007247D01*
X006215Y007232D01*
X006202Y007219D01*
X006187Y007210D01*
X006171Y007204D01*
X006153Y007202D01*
X006135Y007204D01*
X006119Y007210D01*
X006104Y007219D01*
X006091Y007232D01*
X006082Y007247D01*
X006076Y007263D01*
X006074Y007281D01*
X006349Y007281D02*
X006349Y006099D01*
X007531Y006099D01*
X007531Y007281D01*
X006349Y007281D01*
D13*
X001055Y001269D02*
X001055Y001162D01*
X001055Y001215D02*
X001322Y001215D01*
X001375Y001162D01*
X001375Y001108D01*
X001322Y001055D01*
X001375Y001377D02*
X001055Y001377D01*
X001055Y001537D01*
X001108Y001591D01*
X001215Y001591D01*
X001268Y001537D01*
X001268Y001377D01*
X001375Y001700D02*
X001161Y001913D01*
X001108Y001913D01*
X001055Y001860D01*
X001055Y001753D01*
X001108Y001700D01*
X001375Y001700D02*
X001375Y001913D01*
X005132Y004725D02*
X005132Y005045D01*
X005025Y005045D02*
X005239Y005045D01*
X005347Y005045D02*
X005347Y004725D01*
X005347Y004832D02*
X005507Y004832D01*
X005561Y004885D01*
X005561Y004992D01*
X005507Y005045D01*
X005347Y005045D01*
X005670Y005045D02*
X005670Y004885D01*
X005776Y004939D01*
X005830Y004939D01*
X005883Y004885D01*
X005883Y004778D01*
X005830Y004725D01*
X005723Y004725D01*
X005670Y004778D01*
X005670Y005045D02*
X005883Y005045D01*
X006364Y005674D02*
X006471Y005674D01*
X006418Y005674D02*
X006418Y005995D01*
X006471Y005995D02*
X006364Y005995D01*
X006579Y005941D02*
X006579Y005728D01*
X006633Y005674D01*
X006739Y005674D01*
X006793Y005728D01*
X006902Y005834D02*
X007062Y005995D01*
X007062Y005674D01*
X007115Y005834D02*
X006902Y005834D01*
X006793Y005941D02*
X006739Y005995D01*
X006633Y005995D01*
X006579Y005941D01*
X007743Y007711D02*
X007850Y007711D01*
X007904Y007764D01*
X008012Y007711D02*
X008226Y007924D01*
X008226Y007978D01*
X008172Y008031D01*
X008066Y008031D01*
X008012Y007978D01*
X007904Y007978D02*
X007850Y008031D01*
X007743Y008031D01*
X007690Y007978D01*
X007690Y007764D01*
X007743Y007711D01*
X008012Y007711D02*
X008226Y007711D01*
X008335Y007711D02*
X008548Y007711D01*
X008441Y007711D02*
X008441Y008031D01*
X008335Y007924D01*
X008335Y008261D02*
X008548Y008474D01*
X008548Y008528D01*
X008495Y008581D01*
X008388Y008581D01*
X008335Y008528D01*
X008226Y008528D02*
X008172Y008581D01*
X008066Y008581D01*
X008012Y008528D01*
X007904Y008528D02*
X007850Y008581D01*
X007743Y008581D01*
X007690Y008528D01*
X007690Y008314D01*
X007743Y008261D01*
X007850Y008261D01*
X007904Y008314D01*
X008012Y008261D02*
X008226Y008474D01*
X008226Y008528D01*
X008226Y008261D02*
X008012Y008261D01*
X008335Y008261D02*
X008548Y008261D01*
X009525Y008245D02*
X009739Y008245D01*
X009632Y008245D02*
X009632Y007925D01*
X009847Y007925D02*
X009847Y008245D01*
X010007Y008245D01*
X010061Y008192D01*
X010061Y008085D01*
X010007Y008032D01*
X009847Y008032D01*
X010170Y007978D02*
X010223Y007925D01*
X010330Y007925D01*
X010383Y007978D01*
X010383Y008192D01*
X010330Y008245D01*
X010223Y008245D01*
X010170Y008192D01*
X010170Y008139D01*
X010223Y008085D01*
X010383Y008085D01*
X010341Y007375D02*
X010127Y007375D01*
X010019Y007322D02*
X010019Y007215D01*
X009965Y007162D01*
X009805Y007162D01*
X009912Y007162D02*
X010019Y007055D01*
X010127Y007055D02*
X010127Y007108D01*
X010341Y007322D01*
X010341Y007375D01*
X010019Y007322D02*
X009965Y007375D01*
X009805Y007375D01*
X009805Y007055D01*
X009715Y005525D02*
X009555Y005525D01*
X009555Y005205D01*
X009555Y005312D02*
X009715Y005312D01*
X009769Y005365D01*
X009769Y005472D01*
X009715Y005525D01*
X009877Y005472D02*
X009877Y005419D01*
X009931Y005365D01*
X010037Y005365D01*
X010091Y005312D01*
X010091Y005258D01*
X010037Y005205D01*
X009931Y005205D01*
X009877Y005258D01*
X009877Y005312D01*
X009931Y005365D01*
X010037Y005365D02*
X010091Y005419D01*
X010091Y005472D01*
X010037Y005525D01*
X009931Y005525D01*
X009877Y005472D01*
X009662Y005312D02*
X009769Y005205D01*
X010390Y005314D02*
X010443Y005261D01*
X010550Y005261D01*
X010604Y005314D01*
X010712Y005261D02*
X010926Y005261D01*
X010819Y005261D02*
X010819Y005581D01*
X010712Y005474D01*
X010604Y005528D02*
X010550Y005581D01*
X010443Y005581D01*
X010390Y005528D01*
X010390Y005314D01*
X011035Y005261D02*
X011248Y005261D01*
X011141Y005261D02*
X011141Y005581D01*
X011035Y005474D01*
X011193Y008011D02*
X011140Y008064D01*
X011140Y008278D01*
X011193Y008331D01*
X011300Y008331D01*
X011354Y008278D01*
X011462Y008224D02*
X011569Y008331D01*
X011569Y008011D01*
X011462Y008011D02*
X011676Y008011D01*
X011785Y008064D02*
X011998Y008278D01*
X011998Y008064D01*
X011945Y008011D01*
X011838Y008011D01*
X011785Y008064D01*
X011785Y008278D01*
X011838Y008331D01*
X011945Y008331D01*
X011998Y008278D01*
X011354Y008064D02*
X011300Y008011D01*
X011193Y008011D01*
X011022Y008811D02*
X010916Y008811D01*
X010862Y008864D01*
X010862Y008918D01*
X010916Y008971D01*
X011022Y008971D01*
X011076Y008918D01*
X011076Y008864D01*
X011022Y008811D01*
X011022Y008971D02*
X011076Y009024D01*
X011076Y009078D01*
X011022Y009131D01*
X010916Y009131D01*
X010862Y009078D01*
X010862Y009024D01*
X010916Y008971D01*
X010754Y008864D02*
X010700Y008811D01*
X010593Y008811D01*
X010540Y008864D01*
X010540Y009078D01*
X010593Y009131D01*
X010700Y009131D01*
X010754Y009078D01*
X010091Y009025D02*
X009984Y008972D01*
X009877Y008865D01*
X010037Y008865D01*
X010091Y008812D01*
X010091Y008758D01*
X010037Y008705D01*
X009931Y008705D01*
X009877Y008758D01*
X009877Y008865D01*
X009769Y008865D02*
X009715Y008812D01*
X009555Y008812D01*
X009662Y008812D02*
X009769Y008705D01*
X009769Y008865D02*
X009769Y008972D01*
X009715Y009025D01*
X009555Y009025D01*
X009555Y008705D01*
X009805Y010555D02*
X009805Y010875D01*
X009965Y010875D01*
X010019Y010822D01*
X010019Y010715D01*
X009965Y010662D01*
X009805Y010662D01*
X009912Y010662D02*
X010019Y010555D01*
X010127Y010608D02*
X010181Y010555D01*
X010287Y010555D01*
X010341Y010608D01*
X010341Y010715D01*
X010287Y010769D01*
X010234Y010769D01*
X010127Y010715D01*
X010127Y010875D01*
X010341Y010875D01*
X010330Y011425D02*
X010223Y011425D01*
X010170Y011478D01*
X010170Y011532D01*
X010223Y011585D01*
X010330Y011585D01*
X010383Y011532D01*
X010383Y011478D01*
X010330Y011425D01*
X010330Y011585D02*
X010383Y011639D01*
X010383Y011692D01*
X010330Y011745D01*
X010223Y011745D01*
X010170Y011692D01*
X010170Y011639D01*
X010223Y011585D01*
X010061Y011585D02*
X010007Y011532D01*
X009847Y011532D01*
X009847Y011425D02*
X009847Y011745D01*
X010007Y011745D01*
X010061Y011692D01*
X010061Y011585D01*
X009739Y011745D02*
X009525Y011745D01*
X009632Y011745D02*
X009632Y011425D01*
X009555Y012205D02*
X009555Y012525D01*
X009715Y012525D01*
X009769Y012472D01*
X009769Y012365D01*
X009715Y012312D01*
X009555Y012312D01*
X009662Y012312D02*
X009769Y012205D01*
X009877Y012365D02*
X010091Y012365D01*
X010037Y012205D02*
X010037Y012525D01*
X009877Y012365D01*
X010540Y012364D02*
X010593Y012311D01*
X010700Y012311D01*
X010754Y012364D01*
X010862Y012364D02*
X010916Y012311D01*
X011022Y012311D01*
X011076Y012364D01*
X011076Y012471D01*
X011022Y012524D01*
X010969Y012524D01*
X010862Y012471D01*
X010862Y012631D01*
X011076Y012631D01*
X010754Y012578D02*
X010700Y012631D01*
X010593Y012631D01*
X010540Y012578D01*
X010540Y012364D01*
X011490Y011778D02*
X011490Y011564D01*
X011543Y011511D01*
X011650Y011511D01*
X011704Y011564D01*
X011812Y011564D02*
X011812Y011511D01*
X011812Y011564D02*
X012026Y011778D01*
X012026Y011831D01*
X011812Y011831D01*
X011704Y011778D02*
X011650Y011831D01*
X011543Y011831D01*
X011490Y011778D01*
X013605Y011805D02*
X013712Y011805D01*
X013658Y011805D02*
X013658Y012125D01*
X013605Y012125D02*
X013712Y012125D01*
X013820Y012072D02*
X013820Y011858D01*
X013873Y011805D01*
X013980Y011805D01*
X014033Y011858D01*
X014142Y011858D02*
X014196Y011805D01*
X014302Y011805D01*
X014356Y011858D01*
X014356Y011912D01*
X014302Y011965D01*
X014142Y011965D01*
X014142Y011858D01*
X014142Y011965D02*
X014249Y012072D01*
X014356Y012125D01*
X014033Y012072D02*
X013980Y012125D01*
X013873Y012125D01*
X013820Y012072D01*
X014293Y011331D02*
X014240Y011278D01*
X014240Y011064D01*
X014293Y011011D01*
X014400Y011011D01*
X014454Y011064D01*
X014562Y011064D02*
X014616Y011011D01*
X014722Y011011D01*
X014776Y011064D01*
X014776Y011278D01*
X014722Y011331D01*
X014616Y011331D01*
X014562Y011278D01*
X014562Y011224D01*
X014616Y011171D01*
X014776Y011171D01*
X014454Y011278D02*
X014400Y011331D01*
X014293Y011331D01*
X014356Y008625D02*
X014142Y008625D01*
X014033Y008572D02*
X013980Y008625D01*
X013873Y008625D01*
X013820Y008572D01*
X013820Y008358D01*
X013873Y008305D01*
X013980Y008305D01*
X014033Y008358D01*
X014142Y008358D02*
X014142Y008305D01*
X014142Y008358D02*
X014356Y008572D01*
X014356Y008625D01*
X013712Y008625D02*
X013605Y008625D01*
X013658Y008625D02*
X013658Y008305D01*
X013605Y008305D02*
X013712Y008305D01*
X014240Y007778D02*
X014240Y007564D01*
X014293Y007511D01*
X014400Y007511D01*
X014454Y007564D01*
X014562Y007511D02*
X014776Y007511D01*
X014669Y007511D02*
X014669Y007831D01*
X014562Y007724D01*
X014454Y007778D02*
X014400Y007831D01*
X014293Y007831D01*
X014240Y007778D01*
X014885Y007778D02*
X014938Y007831D01*
X015045Y007831D01*
X015098Y007778D01*
X015098Y007724D01*
X014885Y007511D01*
X015098Y007511D01*
X014302Y005125D02*
X014356Y005072D01*
X014356Y005019D01*
X014302Y004965D01*
X014196Y004965D01*
X014142Y005019D01*
X014142Y005072D01*
X014196Y005125D01*
X014302Y005125D01*
X014302Y004965D02*
X014356Y004912D01*
X014356Y004858D01*
X014302Y004805D01*
X014196Y004805D01*
X014142Y004858D01*
X014142Y004912D01*
X014196Y004965D01*
X014033Y004858D02*
X013980Y004805D01*
X013873Y004805D01*
X013820Y004858D01*
X013820Y005072D01*
X013873Y005125D01*
X013980Y005125D01*
X014033Y005072D01*
X013712Y005125D02*
X013605Y005125D01*
X013658Y005125D02*
X013658Y004805D01*
X013605Y004805D02*
X013712Y004805D01*
X008495Y011211D02*
X008388Y011211D01*
X008335Y011264D01*
X008388Y011371D02*
X008548Y011371D01*
X008548Y011264D02*
X008548Y011478D01*
X008495Y011531D01*
X008388Y011531D01*
X008335Y011478D01*
X008335Y011424D01*
X008388Y011371D01*
X008495Y011211D02*
X008548Y011264D01*
X008226Y011211D02*
X008012Y011211D01*
X008119Y011211D02*
X008119Y011531D01*
X008012Y011424D01*
X007904Y011478D02*
X007850Y011531D01*
X007743Y011531D01*
X007690Y011478D01*
X007690Y011264D01*
X007743Y011211D01*
X007850Y011211D01*
X007904Y011264D01*
X007850Y011761D02*
X007743Y011761D01*
X007690Y011814D01*
X007690Y012028D01*
X007743Y012081D01*
X007850Y012081D01*
X007904Y012028D01*
X008012Y012028D02*
X008066Y012081D01*
X008172Y012081D01*
X008226Y012028D01*
X008226Y011974D01*
X008012Y011761D01*
X008226Y011761D01*
X008335Y011814D02*
X008388Y011761D01*
X008495Y011761D01*
X008548Y011814D01*
X008548Y012028D01*
X008335Y011814D01*
X008335Y012028D01*
X008388Y012081D01*
X008495Y012081D01*
X008548Y012028D01*
X007904Y011814D02*
X007850Y011761D01*
X007115Y012674D02*
X006902Y012674D01*
X007115Y012888D01*
X007115Y012941D01*
X007062Y012995D01*
X006955Y012995D01*
X006902Y012941D01*
X006793Y012941D02*
X006739Y012995D01*
X006633Y012995D01*
X006579Y012941D01*
X006579Y012728D01*
X006633Y012674D01*
X006739Y012674D01*
X006793Y012728D01*
X006471Y012674D02*
X006364Y012674D01*
X006418Y012674D02*
X006418Y012995D01*
X006471Y012995D02*
X006364Y012995D01*
X005830Y012045D02*
X005883Y011992D01*
X005883Y011939D01*
X005830Y011885D01*
X005883Y011832D01*
X005883Y011778D01*
X005830Y011725D01*
X005723Y011725D01*
X005670Y011778D01*
X005776Y011885D02*
X005830Y011885D01*
X005830Y012045D02*
X005723Y012045D01*
X005670Y011992D01*
X005561Y011992D02*
X005561Y011885D01*
X005507Y011832D01*
X005347Y011832D01*
X005347Y011725D02*
X005347Y012045D01*
X005507Y012045D01*
X005561Y011992D01*
X005239Y012045D02*
X005025Y012045D01*
X005132Y012045D02*
X005132Y011725D01*
X006364Y009495D02*
X006471Y009495D01*
X006418Y009495D02*
X006418Y009174D01*
X006471Y009174D02*
X006364Y009174D01*
X006579Y009228D02*
X006579Y009441D01*
X006633Y009495D01*
X006739Y009495D01*
X006793Y009441D01*
X006902Y009441D02*
X006955Y009495D01*
X007062Y009495D01*
X007115Y009441D01*
X007115Y009388D01*
X007062Y009334D01*
X007115Y009281D01*
X007115Y009228D01*
X007062Y009174D01*
X006955Y009174D01*
X006902Y009228D01*
X006793Y009228D02*
X006739Y009174D01*
X006633Y009174D01*
X006579Y009228D01*
X007008Y009334D02*
X007062Y009334D01*
X005830Y008545D02*
X005830Y008225D01*
X005883Y008385D02*
X005670Y008385D01*
X005830Y008545D01*
X005561Y008492D02*
X005561Y008385D01*
X005507Y008332D01*
X005347Y008332D01*
X005347Y008225D02*
X005347Y008545D01*
X005507Y008545D01*
X005561Y008492D01*
X005239Y008545D02*
X005025Y008545D01*
X005132Y008545D02*
X005132Y008225D01*
X001725Y007215D02*
X001405Y007215D01*
X001565Y007055D01*
X001565Y007269D01*
X001405Y006946D02*
X001405Y006839D01*
X001405Y006893D02*
X001672Y006893D01*
X001725Y006839D01*
X001725Y006786D01*
X001672Y006733D01*
X001672Y010233D02*
X001725Y010286D01*
X001725Y010339D01*
X001672Y010393D01*
X001405Y010393D01*
X001405Y010446D02*
X001405Y010339D01*
X001458Y010555D02*
X001405Y010608D01*
X001405Y010715D01*
X001458Y010769D01*
X001511Y010769D01*
X001565Y010715D01*
X001618Y010769D01*
X001672Y010769D01*
X001725Y010715D01*
X001725Y010608D01*
X001672Y010555D01*
X001565Y010662D02*
X001565Y010715D01*
X001672Y013733D02*
X001725Y013786D01*
X001725Y013839D01*
X001672Y013893D01*
X001405Y013893D01*
X001405Y013946D02*
X001405Y013839D01*
X001458Y014055D02*
X001405Y014108D01*
X001405Y014215D01*
X001458Y014269D01*
X001511Y014269D01*
X001725Y014055D01*
X001725Y014269D01*
X001672Y017233D02*
X001725Y017286D01*
X001725Y017339D01*
X001672Y017393D01*
X001405Y017393D01*
X001405Y017446D02*
X001405Y017339D01*
X001511Y017555D02*
X001405Y017662D01*
X001725Y017662D01*
X001725Y017555D02*
X001725Y017769D01*
X001782Y019225D02*
X001782Y019545D01*
X001675Y019545D02*
X001889Y019545D01*
X001997Y019545D02*
X002157Y019545D01*
X002211Y019492D01*
X002211Y019385D01*
X002157Y019332D01*
X001997Y019332D01*
X001997Y019225D02*
X001997Y019545D01*
X002320Y019439D02*
X002426Y019545D01*
X002426Y019225D01*
X002320Y019225D02*
X002533Y019225D01*
X003190Y019514D02*
X003190Y019728D01*
X003243Y019781D01*
X003350Y019781D01*
X003404Y019728D01*
X003512Y019674D02*
X003619Y019781D01*
X003619Y019461D01*
X003512Y019461D02*
X003726Y019461D01*
X003835Y019621D02*
X004048Y019621D01*
X003995Y019461D02*
X003995Y019781D01*
X003835Y019621D01*
X003404Y019514D02*
X003350Y019461D01*
X003243Y019461D01*
X003190Y019514D01*
X004455Y019596D02*
X004508Y019542D01*
X004561Y019542D01*
X004615Y019596D01*
X004615Y019756D01*
X004722Y019756D02*
X004508Y019756D01*
X004455Y019702D01*
X004455Y019596D01*
X004508Y019433D02*
X004455Y019380D01*
X004455Y019273D01*
X004508Y019220D01*
X004722Y019220D01*
X004775Y019273D01*
X004775Y019380D01*
X004722Y019433D01*
X004722Y019542D02*
X004775Y019596D01*
X004775Y019702D01*
X004722Y019756D01*
X004775Y019112D02*
X004775Y019005D01*
X004775Y019058D02*
X004455Y019058D01*
X004455Y019005D02*
X004455Y019112D01*
X006364Y016495D02*
X006471Y016495D01*
X006418Y016495D02*
X006418Y016174D01*
X006471Y016174D02*
X006364Y016174D01*
X006579Y016228D02*
X006633Y016174D01*
X006739Y016174D01*
X006793Y016228D01*
X006902Y016174D02*
X007115Y016174D01*
X007008Y016174D02*
X007008Y016495D01*
X006902Y016388D01*
X006793Y016441D02*
X006739Y016495D01*
X006633Y016495D01*
X006579Y016441D01*
X006579Y016228D01*
X005883Y015492D02*
X005830Y015545D01*
X005723Y015545D01*
X005670Y015492D01*
X005561Y015492D02*
X005561Y015385D01*
X005507Y015332D01*
X005347Y015332D01*
X005347Y015225D02*
X005347Y015545D01*
X005507Y015545D01*
X005561Y015492D01*
X005670Y015225D02*
X005883Y015439D01*
X005883Y015492D01*
X005883Y015225D02*
X005670Y015225D01*
X005239Y015545D02*
X005025Y015545D01*
X005132Y015545D02*
X005132Y015225D01*
X007690Y015314D02*
X007743Y015261D01*
X007850Y015261D01*
X007904Y015314D01*
X008012Y015261D02*
X008226Y015261D01*
X008119Y015261D02*
X008119Y015581D01*
X008012Y015474D01*
X007904Y015528D02*
X007850Y015581D01*
X007743Y015581D01*
X007690Y015528D01*
X007690Y015314D01*
X007743Y015031D02*
X007690Y014978D01*
X007690Y014764D01*
X007743Y014711D01*
X007850Y014711D01*
X007904Y014764D01*
X008012Y014711D02*
X008226Y014711D01*
X008119Y014711D02*
X008119Y015031D01*
X008012Y014924D01*
X007904Y014978D02*
X007850Y015031D01*
X007743Y015031D01*
X008335Y015031D02*
X008548Y015031D01*
X008548Y014978D01*
X008335Y014764D01*
X008335Y014711D01*
X008388Y015261D02*
X008335Y015314D01*
X008335Y015368D01*
X008388Y015421D01*
X008495Y015421D01*
X008548Y015368D01*
X008548Y015314D01*
X008495Y015261D01*
X008388Y015261D01*
X008388Y015421D02*
X008335Y015474D01*
X008335Y015528D01*
X008388Y015581D01*
X008495Y015581D01*
X008548Y015528D01*
X008548Y015474D01*
X008495Y015421D01*
X009525Y015245D02*
X009739Y015245D01*
X009632Y015245D02*
X009632Y014925D01*
X009847Y014925D02*
X009847Y015245D01*
X010007Y015245D01*
X010061Y015192D01*
X010061Y015085D01*
X010007Y015032D01*
X009847Y015032D01*
X010170Y014978D02*
X010170Y014925D01*
X010170Y014978D02*
X010383Y015192D01*
X010383Y015245D01*
X010170Y015245D01*
X010091Y015705D02*
X009877Y015705D01*
X010091Y015919D01*
X010091Y015972D01*
X010037Y016025D01*
X009931Y016025D01*
X009877Y015972D01*
X009769Y015972D02*
X009769Y015865D01*
X009715Y015812D01*
X009555Y015812D01*
X009662Y015812D02*
X009769Y015705D01*
X009555Y015705D02*
X009555Y016025D01*
X009715Y016025D01*
X009769Y015972D01*
X010540Y016078D02*
X010540Y015864D01*
X010593Y015811D01*
X010700Y015811D01*
X010754Y015864D01*
X010862Y015811D02*
X011076Y016024D01*
X011076Y016078D01*
X011022Y016131D01*
X010916Y016131D01*
X010862Y016078D01*
X010754Y016078D02*
X010700Y016131D01*
X010593Y016131D01*
X010540Y016078D01*
X010862Y015811D02*
X011076Y015811D01*
X011543Y015331D02*
X011490Y015278D01*
X011490Y015064D01*
X011543Y015011D01*
X011650Y015011D01*
X011704Y015064D01*
X011812Y015171D02*
X012026Y015171D01*
X011972Y015011D02*
X011972Y015331D01*
X011812Y015171D01*
X011704Y015278D02*
X011650Y015331D01*
X011543Y015331D01*
X010341Y014322D02*
X010341Y014269D01*
X010287Y014215D01*
X010341Y014162D01*
X010341Y014108D01*
X010287Y014055D01*
X010181Y014055D01*
X010127Y014108D01*
X010019Y014055D02*
X009912Y014162D01*
X009965Y014162D02*
X009805Y014162D01*
X009805Y014055D02*
X009805Y014375D01*
X009965Y014375D01*
X010019Y014322D01*
X010019Y014215D01*
X009965Y014162D01*
X010127Y014322D02*
X010181Y014375D01*
X010287Y014375D01*
X010341Y014322D01*
X010287Y014215D02*
X010234Y014215D01*
X010234Y017555D02*
X010234Y017875D01*
X010127Y017769D01*
X010019Y017822D02*
X010019Y017715D01*
X009965Y017662D01*
X009805Y017662D01*
X009912Y017662D02*
X010019Y017555D01*
X010127Y017555D02*
X010341Y017555D01*
X010019Y017822D02*
X009965Y017875D01*
X009805Y017875D01*
X009805Y017555D01*
X009847Y018425D02*
X009847Y018745D01*
X010007Y018745D01*
X010061Y018692D01*
X010061Y018585D01*
X010007Y018532D01*
X009847Y018532D01*
X009739Y018745D02*
X009525Y018745D01*
X009632Y018745D02*
X009632Y018425D01*
X010170Y018478D02*
X010223Y018425D01*
X010330Y018425D01*
X010383Y018478D01*
X010383Y018532D01*
X010330Y018585D01*
X010170Y018585D01*
X010170Y018478D01*
X010170Y018585D02*
X010276Y018692D01*
X010383Y018745D01*
X011290Y019514D02*
X011290Y019728D01*
X011343Y019781D01*
X011450Y019781D01*
X011504Y019728D01*
X011612Y019728D02*
X011666Y019781D01*
X011772Y019781D01*
X011826Y019728D01*
X011826Y019674D01*
X011612Y019461D01*
X011826Y019461D01*
X011935Y019621D02*
X012095Y019781D01*
X012095Y019461D01*
X012148Y019621D02*
X011935Y019621D01*
X011504Y019514D02*
X011450Y019461D01*
X011343Y019461D01*
X011290Y019514D01*
X011543Y018831D02*
X011490Y018778D01*
X011490Y018564D01*
X011543Y018511D01*
X011650Y018511D01*
X011704Y018564D01*
X011812Y018511D02*
X012026Y018511D01*
X011919Y018511D02*
X011919Y018831D01*
X011812Y018724D01*
X011704Y018778D02*
X011650Y018831D01*
X011543Y018831D01*
X012455Y018812D02*
X012455Y018705D01*
X012455Y018758D02*
X012775Y018758D01*
X012775Y018705D02*
X012775Y018812D01*
X012722Y018920D02*
X012508Y018920D01*
X012455Y018973D01*
X012455Y019080D01*
X012508Y019133D01*
X012561Y019242D02*
X012455Y019349D01*
X012775Y019349D01*
X012775Y019242D02*
X012775Y019456D01*
X012722Y019564D02*
X012508Y019778D01*
X012722Y019778D01*
X012775Y019725D01*
X012775Y019618D01*
X012722Y019564D01*
X012508Y019564D01*
X012455Y019618D01*
X012455Y019725D01*
X012508Y019778D01*
X012722Y019133D02*
X012775Y019080D01*
X012775Y018973D01*
X012722Y018920D01*
X014240Y018278D02*
X014240Y018064D01*
X014293Y018011D01*
X014400Y018011D01*
X014454Y018064D01*
X014562Y018064D02*
X014616Y018011D01*
X014722Y018011D01*
X014776Y018064D01*
X014776Y018118D01*
X014722Y018171D01*
X014669Y018171D01*
X014722Y018171D02*
X014776Y018224D01*
X014776Y018278D01*
X014722Y018331D01*
X014616Y018331D01*
X014562Y018278D01*
X014454Y018278D02*
X014400Y018331D01*
X014293Y018331D01*
X014240Y018278D01*
X014902Y019190D02*
X015116Y019190D01*
X015169Y019243D01*
X015169Y019350D01*
X015116Y019404D01*
X015169Y019512D02*
X014956Y019726D01*
X014902Y019726D01*
X014849Y019672D01*
X014849Y019566D01*
X014902Y019512D01*
X014902Y019404D02*
X014849Y019350D01*
X014849Y019243D01*
X014902Y019190D01*
X015169Y019512D02*
X015169Y019726D01*
X015116Y019835D02*
X015169Y019888D01*
X015169Y019995D01*
X015116Y020048D01*
X015062Y020048D01*
X015009Y019995D01*
X015009Y019941D01*
X015009Y019995D02*
X014956Y020048D01*
X014902Y020048D01*
X014849Y019995D01*
X014849Y019888D01*
X014902Y019835D01*
X014356Y015625D02*
X014142Y015625D01*
X014142Y015465D01*
X014249Y015519D01*
X014302Y015519D01*
X014356Y015465D01*
X014356Y015358D01*
X014302Y015305D01*
X014196Y015305D01*
X014142Y015358D01*
X014033Y015358D02*
X013980Y015305D01*
X013873Y015305D01*
X013820Y015358D01*
X013820Y015572D01*
X013873Y015625D01*
X013980Y015625D01*
X014033Y015572D01*
X013712Y015625D02*
X013605Y015625D01*
X013658Y015625D02*
X013658Y015305D01*
X013605Y015305D02*
X013712Y015305D01*
X014240Y014778D02*
X014240Y014564D01*
X014293Y014511D01*
X014400Y014511D01*
X014454Y014564D01*
X014562Y014564D02*
X014616Y014511D01*
X014722Y014511D01*
X014776Y014564D01*
X014776Y014618D01*
X014722Y014671D01*
X014562Y014671D01*
X014562Y014564D01*
X014562Y014671D02*
X014669Y014778D01*
X014776Y014831D01*
X014454Y014778D02*
X014400Y014831D01*
X014293Y014831D01*
X014240Y014778D01*
X008448Y018064D02*
X008395Y018011D01*
X008288Y018011D01*
X008235Y018064D01*
X008235Y018171D02*
X008341Y018224D01*
X008395Y018224D01*
X008448Y018171D01*
X008448Y018064D01*
X008235Y018171D02*
X008235Y018331D01*
X008448Y018331D01*
X008395Y018561D02*
X008448Y018614D01*
X008448Y018668D01*
X008395Y018721D01*
X008235Y018721D01*
X008235Y018614D01*
X008288Y018561D01*
X008395Y018561D01*
X008235Y018721D02*
X008341Y018828D01*
X008448Y018881D01*
X008395Y019261D02*
X008288Y019261D01*
X008235Y019314D01*
X008126Y019261D02*
X007912Y019261D01*
X008019Y019261D02*
X008019Y019581D01*
X007912Y019474D01*
X007804Y019528D02*
X007750Y019581D01*
X007643Y019581D01*
X007590Y019528D01*
X007590Y019314D01*
X007643Y019261D01*
X007750Y019261D01*
X007804Y019314D01*
X007750Y018881D02*
X007643Y018881D01*
X007590Y018828D01*
X007590Y018614D01*
X007643Y018561D01*
X007750Y018561D01*
X007804Y018614D01*
X007912Y018561D02*
X008126Y018561D01*
X008019Y018561D02*
X008019Y018881D01*
X007912Y018774D01*
X007804Y018828D02*
X007750Y018881D01*
X007750Y018331D02*
X007643Y018331D01*
X007590Y018278D01*
X007590Y018064D01*
X007643Y018011D01*
X007750Y018011D01*
X007804Y018064D01*
X007912Y018011D02*
X008126Y018011D01*
X008019Y018011D02*
X008019Y018331D01*
X007912Y018224D01*
X007804Y018278D02*
X007750Y018331D01*
X008395Y019261D02*
X008448Y019314D01*
X008448Y019368D01*
X008395Y019421D01*
X008341Y019421D01*
X008395Y019421D02*
X008448Y019474D01*
X008448Y019528D01*
X008395Y019581D01*
X008288Y019581D01*
X008235Y019528D01*
X001425Y022108D02*
X001372Y022055D01*
X001425Y022108D02*
X001425Y022162D01*
X001372Y022215D01*
X001105Y022215D01*
X001105Y022162D02*
X001105Y022269D01*
X001105Y022377D02*
X001105Y022537D01*
X001158Y022591D01*
X001265Y022591D01*
X001318Y022537D01*
X001318Y022377D01*
X001425Y022377D02*
X001105Y022377D01*
X001211Y022700D02*
X001105Y022806D01*
X001425Y022806D01*
X001425Y022700D02*
X001425Y022913D01*
M02*
