G75*
G70*
%OFA0B0*%
%FSLAX24Y24*%
%IPPOS*%
%LPD*%
%AMOC8*
5,1,8,0,0,1.08239X$1,22.5*
%
%ADD10C,0.1085*%
%ADD11C,0.0770*%
%ADD12OC8,0.0680*%
%ADD13C,0.0437*%
D10*
X002090Y005040D03*
X004090Y005040D03*
X004090Y007040D03*
X004090Y008540D03*
X002090Y008540D03*
X002090Y007040D03*
X002090Y010540D03*
X002090Y012040D03*
X004090Y012040D03*
X004090Y010540D03*
X004090Y014040D03*
X004090Y015540D03*
X002090Y015540D03*
X002090Y014040D03*
X002090Y017540D03*
X004090Y017540D03*
D11*
X003090Y016540D03*
X003090Y013040D03*
X003090Y009540D03*
X003090Y006040D03*
D12*
X002090Y001290D03*
X003090Y001290D03*
X004090Y001290D03*
X004090Y002290D03*
X003090Y002290D03*
X002090Y002290D03*
X005090Y002290D03*
X006090Y002290D03*
X006090Y001290D03*
X005090Y001290D03*
X007090Y001290D03*
X008090Y001290D03*
X009090Y001290D03*
X009090Y002290D03*
X008090Y002290D03*
X007090Y002290D03*
X010090Y002290D03*
X011090Y002290D03*
X012090Y002290D03*
X012090Y001290D03*
X011090Y001290D03*
X010090Y001290D03*
X013090Y001290D03*
X014090Y001290D03*
X014090Y002290D03*
X013090Y002290D03*
X015090Y002290D03*
X016090Y002290D03*
X017090Y002290D03*
X017090Y001290D03*
X016090Y001290D03*
X015090Y001290D03*
X018090Y001290D03*
X019090Y001290D03*
X020090Y001290D03*
X020090Y002290D03*
X019090Y002290D03*
X018090Y002290D03*
X021090Y002290D03*
X021090Y001290D03*
X021090Y020290D03*
X021090Y021290D03*
X020090Y021290D03*
X020090Y020290D03*
X019090Y020290D03*
X019090Y021290D03*
X018090Y021290D03*
X018090Y020290D03*
X017090Y020290D03*
X017090Y021290D03*
X016090Y021290D03*
X016090Y020290D03*
X015090Y020290D03*
X015090Y021290D03*
X014090Y021290D03*
X014090Y020290D03*
X013090Y020290D03*
X013090Y021290D03*
X012090Y021290D03*
X012090Y020290D03*
X011090Y020290D03*
X011090Y021290D03*
X010090Y021290D03*
X010090Y020290D03*
X009090Y020290D03*
X009090Y021290D03*
X008090Y021290D03*
X008090Y020290D03*
X007090Y020290D03*
X007090Y021290D03*
X006090Y021290D03*
X006090Y020290D03*
X005090Y020290D03*
X005090Y021290D03*
X004090Y021290D03*
X004090Y020290D03*
X003090Y020290D03*
X003090Y021290D03*
X002090Y021290D03*
X002090Y020290D03*
D13*
X003290Y019090D03*
X005440Y018790D03*
X005790Y019540D03*
X006090Y017190D03*
X005440Y016190D03*
X006240Y013940D03*
X005440Y012690D03*
X006240Y010440D03*
X005440Y009190D03*
X006240Y006940D03*
X005440Y005690D03*
X008290Y005690D03*
X008990Y005690D03*
X008990Y004890D03*
X012204Y004936D03*
X013190Y005590D03*
X013190Y007190D03*
X012290Y007190D03*
X012204Y008440D03*
X013190Y009090D03*
X013190Y010690D03*
X012290Y010690D03*
X012204Y011944D03*
X013190Y012590D03*
X013190Y014190D03*
X012290Y014190D03*
X012204Y015447D03*
X013190Y016090D03*
X012290Y017690D03*
X013440Y018790D03*
X012484Y019534D03*
X011290Y019090D03*
X008990Y016190D03*
X008290Y016190D03*
X008990Y015390D03*
X008990Y012690D03*
X008290Y012690D03*
X008990Y011890D03*
X008990Y009190D03*
X008290Y009190D03*
X008990Y008390D03*
M02*
