%
M48
M72
T01C0.0197
T02C0.0400
T03C0.0460
T04C0.0670
%
T01
X5440Y6690
X6240Y7940
X5440Y10190
X6240Y11440
X5440Y13690
X6240Y14940
X8290Y13690
X8990Y13690
X8990Y12890
X8990Y10190
X8290Y10190
X8990Y9390
X8990Y6690
X8290Y6690
X8990Y5890
X12204Y5936
X13190Y6590
X13190Y8190
X12290Y8190
X12204Y9440
X13190Y10090
X13190Y11690
X12290Y11690
X12204Y12944
X13190Y13590
X13190Y15190
X12290Y15190
X12204Y16447
X13190Y17090
X12290Y18690
X13440Y19790
X11290Y20090
X8990Y17190
X8290Y17190
X8990Y16390
X6090Y18190
X5440Y17190
X5440Y19790
X3290Y20090
T02
X2090Y1290
X2090Y2290
X3090Y2290
X3090Y1290
X4090Y1290
X4090Y2290
X5090Y2290
X5090Y1290
X6090Y1290
X6090Y2290
X7090Y2290
X7090Y1290
X8090Y1290
X8090Y2290
X9090Y2290
X9090Y1290
X10090Y1290
X10090Y2290
X11090Y2290
X11090Y1290
X12090Y1290
X12090Y2290
X13090Y2290
X13090Y1290
X14090Y1290
X14090Y2290
X15090Y2290
X15090Y1290
X16090Y1290
X16090Y2290
X17090Y2290
X17090Y1290
X18090Y1290
X18090Y2290
X19090Y2290
X19090Y1290
X20090Y1290
X20090Y2290
X21090Y2290
X21090Y1290
X9140Y7540
X9140Y11040
X9140Y14540
X9140Y18040
X5440Y16140
X5440Y12640
X5440Y9140
X5440Y5640
X2090Y20140
X2090Y22290
X2090Y23290
X3090Y23290
X3090Y22290
X4090Y22290
X4090Y23290
X5090Y23290
X5090Y22290
X6090Y22290
X6090Y23290
X7090Y23290
X7090Y22290
X8090Y22290
X8090Y23290
X9090Y23290
X9090Y22290
X10090Y22290
X10090Y23290
X11090Y23290
X11090Y22290
X12090Y22290
X12090Y23290
X13090Y23290
X13090Y22290
X14090Y22290
X14090Y23290
X15090Y23290
X15090Y22290
X16090Y22290
X16090Y23290
X17090Y23290
X17090Y22290
X18090Y22290
X18090Y23290
X19090Y23290
X19090Y22290
X20090Y22290
X20090Y23290
X21090Y23290
X21090Y22290
T03
X3090Y17540
X3090Y14040
X3090Y10540
X3090Y7040
T04
X2090Y6040
X2090Y8040
X2090Y9540
X4090Y9540
X4090Y8040
X4090Y6040
X4090Y11540
X4090Y13040
X4090Y15040
X4090Y16540
X4090Y18540
X2090Y18540
X2090Y16540
X2090Y15040
X2090Y13040
X2090Y11540
M30
