G75*
G70*
%OFA0B0*%
%FSLAX24Y24*%
%IPPOS*%
%LPD*%
%AMOC8*
5,1,8,0,0,1.08239X$1,22.5*
%
%ADD10C,0.0000*%
%ADD11R,0.0551X0.0110*%
%ADD12C,0.1005*%
%ADD13C,0.0690*%
%ADD14R,0.0394X0.0433*%
%ADD15OC8,0.0600*%
%ADD16R,0.0413X0.0425*%
%ADD17R,0.0630X0.0138*%
%ADD18R,0.0425X0.0413*%
%ADD19R,0.0217X0.0394*%
%ADD20C,0.0080*%
%ADD21C,0.0357*%
%ADD22C,0.0120*%
D10*
X000590Y000290D02*
X000590Y022290D01*
X022590Y022290D01*
X022590Y000290D01*
X000590Y000290D01*
D11*
X006097Y005296D03*
X006097Y005493D03*
X006097Y005690D03*
X006097Y005887D03*
X006097Y006084D03*
X007783Y006084D03*
X007783Y005887D03*
X007783Y005690D03*
X007783Y005493D03*
X007783Y005296D03*
X007783Y008796D03*
X007783Y008993D03*
X007783Y009190D03*
X007783Y009387D03*
X007783Y009584D03*
X006097Y009584D03*
X006097Y009387D03*
X006097Y009190D03*
X006097Y008993D03*
X006097Y008796D03*
X006097Y012296D03*
X006097Y012493D03*
X006097Y012690D03*
X006097Y012887D03*
X006097Y013084D03*
X007783Y013084D03*
X007783Y012887D03*
X007783Y012690D03*
X007783Y012493D03*
X007783Y012296D03*
X007783Y015796D03*
X007783Y015993D03*
X007783Y016190D03*
X007783Y016387D03*
X007783Y016584D03*
X006097Y016584D03*
X006097Y016387D03*
X006097Y016190D03*
X006097Y015993D03*
X006097Y015796D03*
D12*
X004090Y015540D03*
X004090Y014040D03*
X002090Y014040D03*
X002090Y015540D03*
X002090Y017540D03*
X004090Y017540D03*
X004090Y012040D03*
X004090Y010540D03*
X002090Y010540D03*
X002090Y012040D03*
X002090Y008540D03*
X002090Y007040D03*
X004090Y007040D03*
X004090Y008540D03*
X004090Y005040D03*
X002090Y005040D03*
D13*
X003090Y006040D03*
X003090Y009540D03*
X003090Y013040D03*
X003090Y016540D03*
D14*
X009455Y016190D03*
X010125Y016190D03*
X010125Y015390D03*
X009455Y015390D03*
X009455Y012690D03*
X010125Y012690D03*
X010125Y011890D03*
X009455Y011890D03*
X009455Y009190D03*
X010125Y009190D03*
X010125Y008390D03*
X009455Y008390D03*
X009455Y005690D03*
X010125Y005690D03*
X010125Y004890D03*
X009455Y004890D03*
D15*
X009140Y006540D03*
X009140Y010040D03*
X009140Y013540D03*
X009140Y017040D03*
X009090Y020290D03*
X009090Y021290D03*
X008090Y021290D03*
X008090Y020290D03*
X007090Y020290D03*
X007090Y021290D03*
X006090Y021290D03*
X006090Y020290D03*
X005090Y020290D03*
X005090Y021290D03*
X004090Y021290D03*
X004090Y020290D03*
X003090Y020290D03*
X003090Y021290D03*
X002090Y021290D03*
X002090Y020290D03*
X002090Y019140D03*
X005440Y015140D03*
X005440Y011640D03*
X005440Y008140D03*
X005440Y004640D03*
X005090Y002290D03*
X006090Y002290D03*
X006090Y001290D03*
X005090Y001290D03*
X004090Y001290D03*
X003090Y001290D03*
X002090Y001290D03*
X002090Y002290D03*
X003090Y002290D03*
X004090Y002290D03*
X007090Y002290D03*
X008090Y002290D03*
X009090Y002290D03*
X009090Y001290D03*
X008090Y001290D03*
X007090Y001290D03*
X010090Y001290D03*
X011090Y001290D03*
X012090Y001290D03*
X012090Y002290D03*
X011090Y002290D03*
X010090Y002290D03*
X013090Y002290D03*
X014090Y002290D03*
X014090Y001290D03*
X013090Y001290D03*
X015090Y001290D03*
X016090Y001290D03*
X017090Y001290D03*
X017090Y002290D03*
X016090Y002290D03*
X015090Y002290D03*
X018090Y002290D03*
X019090Y002290D03*
X020090Y002290D03*
X020090Y001290D03*
X019090Y001290D03*
X018090Y001290D03*
X021090Y001290D03*
X021090Y002290D03*
X021090Y020290D03*
X021090Y021290D03*
X020090Y021290D03*
X020090Y020290D03*
X019090Y020290D03*
X019090Y021290D03*
X018090Y021290D03*
X018090Y020290D03*
X017090Y020290D03*
X017090Y021290D03*
X016090Y021290D03*
X016090Y020290D03*
X015090Y020290D03*
X015090Y021290D03*
X014090Y021290D03*
X014090Y020290D03*
X013090Y020290D03*
X013090Y021290D03*
X012090Y021290D03*
X012090Y020290D03*
X011090Y020290D03*
X011090Y021290D03*
X010090Y021290D03*
X010090Y020290D03*
D16*
X011796Y019090D03*
X012484Y019090D03*
X012284Y017190D03*
X011596Y017190D03*
X013196Y017190D03*
X013884Y017190D03*
X013884Y013690D03*
X013196Y013690D03*
X012284Y013690D03*
X011596Y013690D03*
X011596Y010190D03*
X012284Y010190D03*
X013196Y010190D03*
X013884Y010190D03*
X013884Y006690D03*
X013196Y006690D03*
X012284Y006690D03*
X011596Y006690D03*
X007384Y006890D03*
X007384Y007440D03*
X006696Y007440D03*
X006696Y006890D03*
X006696Y010390D03*
X006696Y010940D03*
X007384Y010940D03*
X007384Y010390D03*
X007384Y013890D03*
X007384Y014440D03*
X006696Y014440D03*
X006696Y013890D03*
X006596Y017190D03*
X006596Y017740D03*
X007284Y017740D03*
X007284Y017190D03*
X007284Y018440D03*
X006596Y018440D03*
X004484Y019090D03*
X003796Y019090D03*
D17*
X011638Y016586D03*
X011638Y016330D03*
X011638Y016074D03*
X011638Y015818D03*
X011638Y015562D03*
X011638Y015306D03*
X011638Y015050D03*
X011638Y014794D03*
X011638Y013086D03*
X011638Y012830D03*
X011638Y012574D03*
X011638Y012318D03*
X011638Y012062D03*
X011638Y011806D03*
X011638Y011550D03*
X011638Y011294D03*
X011638Y009586D03*
X011638Y009330D03*
X011638Y009074D03*
X011638Y008818D03*
X011638Y008562D03*
X011638Y008306D03*
X011638Y008050D03*
X011638Y007794D03*
X011638Y006086D03*
X011638Y005830D03*
X011638Y005574D03*
X011638Y005318D03*
X011638Y005062D03*
X011638Y004806D03*
X011638Y004550D03*
X011638Y004294D03*
X013842Y004294D03*
X013842Y004550D03*
X013842Y004806D03*
X013842Y005062D03*
X013842Y005318D03*
X013842Y005574D03*
X013842Y005830D03*
X013842Y006086D03*
X013842Y007794D03*
X013842Y008050D03*
X013842Y008306D03*
X013842Y008562D03*
X013842Y008818D03*
X013842Y009074D03*
X013842Y009330D03*
X013842Y009586D03*
X013842Y011294D03*
X013842Y011550D03*
X013842Y011806D03*
X013842Y012062D03*
X013842Y012318D03*
X013842Y012574D03*
X013842Y012830D03*
X013842Y013086D03*
X013842Y014794D03*
X013842Y015050D03*
X013842Y015306D03*
X013842Y015562D03*
X013842Y015818D03*
X013842Y016074D03*
X013842Y016330D03*
X013842Y016586D03*
D18*
X014490Y018246D03*
X014490Y018934D03*
X010790Y016134D03*
X010790Y015446D03*
X010790Y012634D03*
X010790Y011946D03*
X010790Y009134D03*
X010790Y008446D03*
X010790Y005634D03*
X010790Y004946D03*
D19*
X013066Y018059D03*
X013814Y018059D03*
X013814Y019121D03*
X013440Y019121D03*
X013066Y019121D03*
X005814Y019121D03*
X005440Y019121D03*
X005066Y019121D03*
X005066Y018059D03*
X005814Y018059D03*
D20*
X005814Y018314D01*
X005940Y018440D01*
X006596Y018440D01*
X006596Y018429D01*
X007284Y017740D01*
X007634Y018090D01*
X012390Y018090D01*
X012640Y017840D01*
X012640Y016590D01*
X012636Y016586D01*
X011638Y016586D01*
X011596Y016628D01*
X011596Y017190D01*
X011646Y016594D02*
X011638Y016586D01*
X011638Y016074D02*
X010851Y016074D01*
X010790Y016134D01*
X010734Y016190D01*
X010125Y016190D01*
X009455Y016190D02*
X008990Y016190D01*
X008990Y016890D01*
X009140Y017040D01*
X008640Y016390D02*
X008640Y013090D01*
X008284Y013084D01*
X007783Y013084D01*
X007783Y012887D02*
X007288Y012887D01*
X007284Y012890D01*
X007284Y013790D01*
X007384Y013890D01*
X007384Y014440D01*
X007290Y014534D01*
X007290Y016390D01*
X007293Y016387D01*
X007783Y016387D01*
X007783Y016584D02*
X008446Y016584D01*
X008640Y016390D01*
X008290Y016190D02*
X007783Y016190D01*
X007290Y016390D02*
X007290Y017190D01*
X007284Y017190D01*
X007284Y017740D01*
X006596Y017740D02*
X006596Y017190D01*
X006090Y017190D01*
X006097Y016584D02*
X006546Y016584D01*
X006740Y016390D01*
X006740Y015290D01*
X005890Y014440D01*
X005890Y013090D01*
X006091Y013090D01*
X006097Y013084D01*
X006546Y013084D01*
X006740Y012890D01*
X006740Y011790D01*
X005890Y010940D01*
X005890Y009590D01*
X006091Y009590D01*
X006540Y009590D01*
X006740Y009390D01*
X006740Y008290D01*
X005890Y007440D01*
X005890Y006090D01*
X006091Y006090D01*
X006097Y006084D01*
X006546Y006084D01*
X006740Y005890D01*
X006740Y002940D01*
X006090Y002290D01*
X005090Y002290D02*
X006540Y003740D01*
X006540Y005790D01*
X006440Y005890D01*
X006094Y005890D01*
X006097Y005887D01*
X006094Y005890D02*
X005790Y005890D01*
X005690Y005990D01*
X005690Y007540D01*
X006540Y008390D01*
X006540Y009290D01*
X006440Y009390D01*
X006094Y009390D01*
X006097Y009387D01*
X006094Y009390D02*
X005790Y009390D01*
X005690Y009490D01*
X005690Y011040D01*
X006540Y011890D01*
X006540Y012790D01*
X006443Y012887D01*
X006097Y012887D01*
X006094Y012890D01*
X005790Y012890D01*
X005690Y012990D01*
X005690Y014540D01*
X006540Y015390D01*
X006540Y016290D01*
X006440Y016390D01*
X006437Y016387D01*
X006097Y016387D01*
X006097Y016190D02*
X005440Y016190D01*
X005637Y015993D01*
X006097Y015993D01*
X006097Y015796D02*
X005334Y015796D01*
X005334Y015246D01*
X005440Y015140D01*
X005334Y015796D02*
X004590Y016540D01*
X003090Y016540D01*
X005440Y018790D02*
X005540Y018690D01*
X006090Y018690D01*
X006240Y018840D01*
X006890Y018840D01*
X007284Y018446D01*
X007284Y018440D01*
X005814Y019121D02*
X005814Y019516D01*
X005790Y019540D01*
X005440Y019121D02*
X005440Y018790D01*
X005066Y019121D02*
X005053Y019134D01*
X004484Y019090D02*
X004484Y019496D01*
X004440Y019540D01*
X003796Y019090D02*
X003290Y019090D01*
X006696Y014440D02*
X006696Y013890D01*
X006290Y013890D01*
X006240Y013940D01*
X007284Y012890D02*
X007284Y011040D01*
X007384Y010940D01*
X007384Y010390D01*
X007284Y010290D01*
X007284Y009390D01*
X007284Y007540D01*
X007384Y007440D01*
X007384Y006890D01*
X007284Y006790D01*
X007284Y005996D01*
X007393Y005887D01*
X007783Y005887D01*
X007783Y006084D02*
X008284Y006084D01*
X008640Y006090D01*
X008640Y003840D01*
X007090Y002290D01*
X005440Y004640D02*
X005334Y004746D01*
X005334Y005296D01*
X006097Y005296D01*
X006097Y005493D02*
X005637Y005493D01*
X005440Y005690D01*
X006097Y005690D01*
X005334Y005296D02*
X004590Y006040D01*
X003090Y006040D01*
X005334Y008246D02*
X005334Y008796D01*
X006097Y008796D01*
X006097Y008993D02*
X005637Y008993D01*
X005440Y009190D01*
X006097Y009190D01*
X006097Y009584D02*
X006091Y009590D01*
X005334Y008796D02*
X004590Y009540D01*
X003090Y009540D01*
X005334Y008246D02*
X005440Y008140D01*
X006696Y007440D02*
X006696Y006890D01*
X006290Y006890D01*
X006240Y006940D01*
X007783Y005690D02*
X008290Y005690D01*
X008640Y006090D02*
X008640Y009590D01*
X008284Y009584D01*
X007783Y009584D01*
X007783Y009387D02*
X007288Y009387D01*
X007284Y009390D01*
X007783Y009190D02*
X008290Y009190D01*
X008640Y009590D02*
X008640Y013090D01*
X008990Y013390D02*
X008990Y012690D01*
X009455Y012690D01*
X010125Y012690D02*
X010734Y012690D01*
X010790Y012634D01*
X010851Y012574D01*
X011638Y012574D01*
X011638Y012318D02*
X011162Y012318D01*
X010790Y011946D01*
X010734Y011890D01*
X010125Y011890D01*
X009455Y011890D02*
X008990Y011890D01*
X008290Y012690D02*
X007783Y012690D01*
X008990Y013390D02*
X009140Y013540D01*
X008990Y015390D02*
X009455Y015390D01*
X010125Y015390D02*
X010734Y015390D01*
X010790Y015446D01*
X011162Y015818D01*
X011638Y015818D01*
X011638Y015562D02*
X012090Y015562D01*
X012204Y015447D01*
X012063Y015306D01*
X011638Y015306D01*
X011638Y015050D02*
X012630Y015050D01*
X012640Y015040D01*
X012640Y016590D01*
X012840Y016590D02*
X012840Y013090D01*
X012844Y013094D01*
X013834Y013094D01*
X013842Y013086D01*
X013884Y013128D01*
X013884Y013690D01*
X013196Y013690D02*
X013196Y014184D01*
X013190Y014190D01*
X013842Y014794D02*
X014444Y014794D01*
X015890Y016240D01*
X015890Y018340D01*
X017590Y020040D01*
X017590Y020790D01*
X017090Y021290D01*
X016590Y020790D02*
X016090Y021290D01*
X015590Y020790D02*
X015090Y021290D01*
X015590Y020790D02*
X015590Y020040D01*
X015090Y019540D01*
X015090Y016640D01*
X014268Y015818D01*
X013842Y015818D01*
X013842Y016074D02*
X013206Y016074D01*
X013190Y016090D01*
X012840Y016590D02*
X013090Y016840D01*
X013540Y016840D01*
X013786Y016594D01*
X013834Y016594D01*
X013842Y016586D01*
X013842Y016330D02*
X014480Y016330D01*
X014890Y016740D01*
X014890Y020090D01*
X015090Y020290D01*
X015940Y020140D02*
X016090Y020290D01*
X015940Y020140D02*
X015940Y020090D01*
X015290Y019440D01*
X015290Y016540D01*
X014312Y015562D01*
X013842Y015562D01*
X013842Y015306D02*
X014356Y015306D01*
X015490Y016440D01*
X015490Y018940D01*
X016590Y020040D01*
X016590Y020790D01*
X017090Y020290D02*
X016940Y020140D01*
X016940Y020090D01*
X015690Y018840D01*
X015690Y016340D01*
X014400Y015050D01*
X013842Y015050D01*
X012640Y015040D02*
X012640Y013090D01*
X012636Y013094D01*
X011646Y013094D01*
X011638Y013086D01*
X011596Y013128D01*
X011596Y013690D01*
X012284Y013690D02*
X012284Y014184D01*
X012290Y014190D01*
X012640Y013090D02*
X012640Y011540D01*
X012630Y011550D01*
X011638Y011550D01*
X011638Y011806D02*
X012067Y011806D01*
X012204Y011944D01*
X012086Y012062D01*
X011638Y012062D01*
X012640Y011540D02*
X012640Y009590D01*
X012636Y009594D01*
X011646Y009594D01*
X011638Y009586D01*
X011596Y009628D01*
X011596Y010190D01*
X012284Y010190D02*
X012284Y010684D01*
X012290Y010690D01*
X013190Y010690D02*
X013196Y010684D01*
X013196Y010190D01*
X013884Y010190D02*
X013884Y009628D01*
X013842Y009586D01*
X013834Y009594D01*
X012844Y009594D01*
X012840Y009590D01*
X012840Y006340D01*
X013094Y006086D01*
X013842Y006086D01*
X013884Y006128D01*
X013884Y006690D01*
X013834Y006094D02*
X013842Y006086D01*
X013842Y005830D02*
X014400Y005830D01*
X017590Y002640D01*
X017590Y001790D01*
X017090Y001290D01*
X016590Y001790D02*
X016090Y001290D01*
X015590Y001790D02*
X015090Y001290D01*
X015590Y001790D02*
X015590Y003440D01*
X014480Y004550D01*
X013842Y004550D01*
X013842Y004294D02*
X014436Y004294D01*
X014890Y003840D01*
X014890Y002490D01*
X015090Y002290D01*
X016090Y002290D02*
X016090Y003240D01*
X014524Y004806D01*
X013842Y004806D01*
X013842Y005062D02*
X014568Y005062D01*
X016590Y003040D01*
X016590Y001790D01*
X017090Y002290D02*
X017090Y002840D01*
X014612Y005318D01*
X013842Y005318D01*
X013842Y005574D02*
X013206Y005574D01*
X013190Y005590D01*
X012640Y006090D02*
X012640Y004840D01*
X012350Y004550D01*
X011638Y004550D01*
X011638Y004806D02*
X012075Y004806D01*
X012204Y004936D01*
X012078Y005062D01*
X011638Y005062D01*
X011638Y005318D02*
X011162Y005318D01*
X010790Y004946D01*
X010734Y004890D01*
X010125Y004890D01*
X009455Y004890D02*
X008990Y004890D01*
X008990Y005690D02*
X008990Y006390D01*
X009140Y006540D01*
X008990Y005690D02*
X009455Y005690D01*
X010125Y005690D02*
X010734Y005690D01*
X010790Y005634D01*
X010851Y005574D01*
X011638Y005574D01*
X011638Y006086D02*
X011596Y006128D01*
X011596Y006690D01*
X011638Y006086D02*
X012636Y006086D01*
X012640Y006090D01*
X012640Y008040D01*
X012630Y008050D01*
X011638Y008050D01*
X011638Y008306D02*
X012071Y008306D01*
X012204Y008440D01*
X012082Y008562D01*
X011638Y008562D01*
X011638Y008818D02*
X011162Y008818D01*
X010790Y008446D01*
X010734Y008390D01*
X010125Y008390D01*
X009455Y008390D02*
X008990Y008390D01*
X008990Y009190D02*
X008990Y009890D01*
X009140Y010040D01*
X008990Y009190D02*
X009455Y009190D01*
X010125Y009190D02*
X010734Y009190D01*
X010790Y009134D01*
X010851Y009074D01*
X011638Y009074D01*
X012640Y009590D02*
X012640Y008040D01*
X012290Y007190D02*
X012284Y007184D01*
X012284Y006690D01*
X013196Y006690D02*
X013196Y007184D01*
X013190Y007190D01*
X013842Y007794D02*
X014486Y007794D01*
X018090Y004190D01*
X018090Y002290D01*
X018590Y001790D02*
X018090Y001290D01*
X018590Y001790D02*
X018590Y003990D01*
X014530Y008050D01*
X013842Y008050D01*
X013842Y008306D02*
X014574Y008306D01*
X019090Y003790D01*
X019090Y002290D01*
X019590Y001790D02*
X019090Y001290D01*
X019590Y001790D02*
X019590Y003590D01*
X014618Y008562D01*
X013842Y008562D01*
X013842Y008818D02*
X014662Y008818D01*
X020090Y003390D01*
X020090Y002290D01*
X020590Y001790D02*
X020090Y001290D01*
X020590Y001790D02*
X020590Y003190D01*
X014450Y009330D01*
X013842Y009330D01*
X013842Y009074D02*
X013206Y009074D01*
X013190Y009090D01*
X012840Y009590D02*
X012840Y013090D01*
X013190Y012590D02*
X013206Y012574D01*
X013842Y012574D01*
X013842Y012830D02*
X014480Y012830D01*
X016090Y014440D01*
X016090Y018240D01*
X017890Y020040D01*
X017890Y020090D01*
X018090Y020290D01*
X018590Y020040D02*
X018590Y020790D01*
X018090Y021290D01*
X019090Y021290D02*
X019590Y020790D01*
X019590Y020040D01*
X016690Y017140D01*
X016690Y014140D01*
X014356Y011806D01*
X013842Y011806D01*
X013842Y011550D02*
X014400Y011550D01*
X016890Y014040D01*
X016890Y017040D01*
X019940Y020090D01*
X019940Y020140D01*
X020090Y020290D01*
X020590Y020040D02*
X020590Y020790D01*
X020090Y021290D01*
X019090Y020290D02*
X018940Y020140D01*
X018940Y020090D01*
X016490Y017640D01*
X016490Y014240D01*
X014312Y012062D01*
X013842Y012062D01*
X013842Y012318D02*
X014268Y012318D01*
X016290Y014340D01*
X016290Y017740D01*
X018590Y020040D01*
X020590Y020040D02*
X017090Y016540D01*
X017090Y013940D01*
X014444Y011294D01*
X013842Y011294D01*
X013540Y016840D02*
X013884Y017184D01*
X013884Y017190D01*
X013814Y017260D01*
X013814Y018059D01*
X013846Y018090D01*
X014340Y018090D01*
X014490Y018240D01*
X014490Y018246D01*
X014240Y018690D02*
X013540Y018690D01*
X013440Y018790D01*
X013440Y017490D01*
X013196Y017246D01*
X013196Y017190D01*
X012284Y017190D02*
X012284Y017684D01*
X012290Y017690D01*
X013440Y018790D02*
X013440Y019121D01*
X013814Y019121D02*
X013814Y019416D01*
X013690Y019540D01*
X013040Y019540D01*
X012490Y019540D02*
X012484Y019534D01*
X012484Y019090D01*
X011796Y019090D02*
X011290Y019090D01*
X014240Y018690D02*
X014484Y018934D01*
X014490Y018934D01*
X007390Y014446D02*
X007384Y014440D01*
X006097Y012690D02*
X005440Y012690D01*
X005637Y012493D01*
X006097Y012493D01*
X006097Y012296D02*
X005334Y012296D01*
X005334Y011746D01*
X005440Y011640D01*
X005334Y012296D02*
X004590Y013040D01*
X003090Y013040D01*
X006240Y010440D02*
X006290Y010390D01*
X006696Y010390D01*
X006696Y010940D01*
D21*
X006240Y010440D03*
X005440Y009190D03*
X006240Y006940D03*
X005440Y005690D03*
X008290Y005690D03*
X008990Y005690D03*
X008990Y004890D03*
X012204Y004936D03*
X013190Y005590D03*
X013190Y007190D03*
X012290Y007190D03*
X012204Y008440D03*
X013190Y009090D03*
X013190Y010690D03*
X012290Y010690D03*
X012204Y011944D03*
X013190Y012590D03*
X013190Y014190D03*
X012290Y014190D03*
X012204Y015447D03*
X013190Y016090D03*
X012290Y017690D03*
X013440Y018790D03*
X012484Y019534D03*
X011290Y019090D03*
X008990Y016190D03*
X008290Y016190D03*
X008990Y015390D03*
X008990Y012690D03*
X008290Y012690D03*
X008990Y011890D03*
X008990Y009190D03*
X008290Y009190D03*
X008990Y008390D03*
X005440Y012690D03*
X006240Y013940D03*
X005440Y016190D03*
X006090Y017190D03*
X005440Y018790D03*
X005790Y019540D03*
X003290Y019090D03*
D22*
X002740Y019540D02*
X004440Y019540D01*
X005040Y019540D01*
X005066Y019516D01*
X005066Y019121D01*
X005040Y019540D02*
X005790Y019540D01*
X002740Y019540D02*
X002090Y020190D01*
X002090Y020290D01*
X012490Y019540D02*
X013040Y019540D01*
X013066Y019466D01*
X013066Y019121D01*
M02*
