G75*
G70*
%OFA0B0*%
%FSLAX24Y24*%
%IPPOS*%
%LPD*%
%AMOC8*
5,1,8,0,0,1.08239X$1,22.5*
%
%ADD10C,0.1005*%
%ADD11C,0.0690*%
%ADD12OC8,0.0600*%
%ADD13C,0.0080*%
%ADD14C,0.0357*%
D10*
X002090Y006040D03*
X002090Y008040D03*
X002090Y009540D03*
X004090Y009540D03*
X004090Y008040D03*
X004090Y006040D03*
X004090Y011540D03*
X004090Y013040D03*
X004090Y015040D03*
X004090Y016540D03*
X004090Y018540D03*
X002090Y018540D03*
X002090Y016540D03*
X002090Y015040D03*
X002090Y013040D03*
X002090Y011540D03*
D11*
X003090Y010540D03*
X003090Y007040D03*
X003090Y014040D03*
X003090Y017540D03*
D12*
X005440Y016140D03*
X005440Y012640D03*
X005440Y009140D03*
X005440Y005640D03*
X005090Y002290D03*
X005090Y001290D03*
X006090Y001290D03*
X006090Y002290D03*
X007090Y002290D03*
X007090Y001290D03*
X008090Y001290D03*
X008090Y002290D03*
X009090Y002290D03*
X009090Y001290D03*
X010090Y001290D03*
X010090Y002290D03*
X011090Y002290D03*
X011090Y001290D03*
X012090Y001290D03*
X012090Y002290D03*
X013090Y002290D03*
X013090Y001290D03*
X014090Y001290D03*
X014090Y002290D03*
X015090Y002290D03*
X015090Y001290D03*
X016090Y001290D03*
X016090Y002290D03*
X017090Y002290D03*
X017090Y001290D03*
X018090Y001290D03*
X018090Y002290D03*
X019090Y002290D03*
X019090Y001290D03*
X020090Y001290D03*
X020090Y002290D03*
X021090Y002290D03*
X021090Y001290D03*
X009140Y007540D03*
X009140Y011040D03*
X009140Y014540D03*
X009140Y018040D03*
X009090Y022290D03*
X009090Y023290D03*
X008090Y023290D03*
X008090Y022290D03*
X007090Y022290D03*
X007090Y023290D03*
X006090Y023290D03*
X006090Y022290D03*
X005090Y022290D03*
X005090Y023290D03*
X004090Y023290D03*
X004090Y022290D03*
X003090Y022290D03*
X003090Y023290D03*
X002090Y023290D03*
X002090Y022290D03*
X002090Y020140D03*
X010090Y022290D03*
X010090Y023290D03*
X011090Y023290D03*
X011090Y022290D03*
X012090Y022290D03*
X012090Y023290D03*
X013090Y023290D03*
X013090Y022290D03*
X014090Y022290D03*
X014090Y023290D03*
X015090Y023290D03*
X015090Y022290D03*
X016090Y022290D03*
X016090Y023290D03*
X017090Y023290D03*
X017090Y022290D03*
X018090Y022290D03*
X018090Y023290D03*
X019090Y023290D03*
X019090Y022290D03*
X020090Y022290D03*
X020090Y023290D03*
X021090Y023290D03*
X021090Y022290D03*
X004090Y002290D03*
X004090Y001290D03*
X003090Y001290D03*
X003090Y002290D03*
X002090Y002290D03*
X002090Y001290D03*
D13*
X001030Y000730D02*
X001030Y004840D01*
X012890Y004840D01*
X012890Y019940D01*
X002512Y019940D01*
X002530Y019958D01*
X002530Y020100D01*
X002130Y020100D01*
X002130Y020180D01*
X002530Y020180D01*
X002530Y020322D01*
X002272Y020580D01*
X002130Y020580D01*
X002130Y020180D01*
X002050Y020180D01*
X002050Y020580D01*
X001908Y020580D01*
X001650Y020322D01*
X001650Y020180D01*
X002050Y020180D01*
X002050Y020100D01*
X001650Y020100D01*
X001650Y019958D01*
X001668Y019940D01*
X001030Y019940D01*
X001030Y023850D01*
X022150Y023850D01*
X022150Y000730D01*
X001030Y000730D01*
X001030Y000761D02*
X022150Y000761D01*
X022150Y000840D02*
X001030Y000840D01*
X001030Y000918D02*
X001840Y000918D01*
X001908Y000850D02*
X002272Y000850D01*
X002530Y001108D01*
X002530Y001472D01*
X002272Y001730D01*
X001908Y001730D01*
X001650Y001472D01*
X001650Y001108D01*
X001908Y000850D01*
X001761Y000997D02*
X001030Y000997D01*
X001030Y001075D02*
X001683Y001075D01*
X001650Y001154D02*
X001030Y001154D01*
X001030Y001232D02*
X001650Y001232D01*
X001650Y001311D02*
X001030Y001311D01*
X001030Y001389D02*
X001650Y001389D01*
X001650Y001468D02*
X001030Y001468D01*
X001030Y001546D02*
X001724Y001546D01*
X001802Y001625D02*
X001030Y001625D01*
X001030Y001703D02*
X001881Y001703D01*
X001908Y001850D02*
X002272Y001850D01*
X002530Y002108D01*
X002530Y002472D01*
X002272Y002730D01*
X001908Y002730D01*
X001650Y002472D01*
X001650Y002108D01*
X001908Y001850D01*
X001898Y001860D02*
X001030Y001860D01*
X001030Y001782D02*
X022150Y001782D01*
X022150Y001860D02*
X021282Y001860D01*
X021272Y001850D02*
X021530Y002108D01*
X021530Y002472D01*
X021272Y002730D01*
X020908Y002730D01*
X020650Y002472D01*
X020650Y002108D01*
X020908Y001850D01*
X021272Y001850D01*
X021272Y001730D02*
X020908Y001730D01*
X020650Y001472D01*
X020650Y001108D01*
X020908Y000850D01*
X021272Y000850D01*
X021530Y001108D01*
X021530Y001472D01*
X021272Y001730D01*
X021299Y001703D02*
X022150Y001703D01*
X022150Y001625D02*
X021378Y001625D01*
X021456Y001546D02*
X022150Y001546D01*
X022150Y001468D02*
X021530Y001468D01*
X021530Y001389D02*
X022150Y001389D01*
X022150Y001311D02*
X021530Y001311D01*
X021530Y001232D02*
X022150Y001232D01*
X022150Y001154D02*
X021530Y001154D01*
X021497Y001075D02*
X022150Y001075D01*
X022150Y000997D02*
X021419Y000997D01*
X021340Y000918D02*
X022150Y000918D01*
X022150Y001939D02*
X021361Y001939D01*
X021439Y002017D02*
X022150Y002017D01*
X022150Y002096D02*
X021518Y002096D01*
X021530Y002174D02*
X022150Y002174D01*
X022150Y002253D02*
X021530Y002253D01*
X021530Y002331D02*
X022150Y002331D01*
X022150Y002410D02*
X021530Y002410D01*
X021514Y002488D02*
X022150Y002488D01*
X022150Y002567D02*
X021436Y002567D01*
X021357Y002645D02*
X022150Y002645D01*
X022150Y002724D02*
X021279Y002724D01*
X020901Y002724D02*
X020279Y002724D01*
X020272Y002730D02*
X019908Y002730D01*
X019650Y002472D01*
X019650Y002108D01*
X019908Y001850D01*
X020272Y001850D01*
X020530Y002108D01*
X020530Y002472D01*
X020272Y002730D01*
X020357Y002645D02*
X020823Y002645D01*
X020744Y002567D02*
X020436Y002567D01*
X020514Y002488D02*
X020666Y002488D01*
X020650Y002410D02*
X020530Y002410D01*
X020530Y002331D02*
X020650Y002331D01*
X020650Y002253D02*
X020530Y002253D01*
X020530Y002174D02*
X020650Y002174D01*
X020662Y002096D02*
X020518Y002096D01*
X020439Y002017D02*
X020741Y002017D01*
X020819Y001939D02*
X020361Y001939D01*
X020282Y001860D02*
X020898Y001860D01*
X020881Y001703D02*
X020299Y001703D01*
X020272Y001730D02*
X019908Y001730D01*
X019650Y001472D01*
X019650Y001108D01*
X019908Y000850D01*
X020272Y000850D01*
X020530Y001108D01*
X020530Y001472D01*
X020272Y001730D01*
X020378Y001625D02*
X020802Y001625D01*
X020724Y001546D02*
X020456Y001546D01*
X020530Y001468D02*
X020650Y001468D01*
X020650Y001389D02*
X020530Y001389D01*
X020530Y001311D02*
X020650Y001311D01*
X020650Y001232D02*
X020530Y001232D01*
X020530Y001154D02*
X020650Y001154D01*
X020683Y001075D02*
X020497Y001075D01*
X020419Y000997D02*
X020761Y000997D01*
X020840Y000918D02*
X020340Y000918D01*
X019840Y000918D02*
X019340Y000918D01*
X019272Y000850D02*
X019530Y001108D01*
X019530Y001472D01*
X019272Y001730D01*
X018908Y001730D01*
X018650Y001472D01*
X018650Y001108D01*
X018908Y000850D01*
X019272Y000850D01*
X019419Y000997D02*
X019761Y000997D01*
X019683Y001075D02*
X019497Y001075D01*
X019530Y001154D02*
X019650Y001154D01*
X019650Y001232D02*
X019530Y001232D01*
X019530Y001311D02*
X019650Y001311D01*
X019650Y001389D02*
X019530Y001389D01*
X019530Y001468D02*
X019650Y001468D01*
X019724Y001546D02*
X019456Y001546D01*
X019378Y001625D02*
X019802Y001625D01*
X019881Y001703D02*
X019299Y001703D01*
X019272Y001850D02*
X019530Y002108D01*
X019530Y002472D01*
X019272Y002730D01*
X018908Y002730D01*
X018650Y002472D01*
X018650Y002108D01*
X018908Y001850D01*
X019272Y001850D01*
X019282Y001860D02*
X019898Y001860D01*
X019819Y001939D02*
X019361Y001939D01*
X019439Y002017D02*
X019741Y002017D01*
X019662Y002096D02*
X019518Y002096D01*
X019530Y002174D02*
X019650Y002174D01*
X019650Y002253D02*
X019530Y002253D01*
X019530Y002331D02*
X019650Y002331D01*
X019650Y002410D02*
X019530Y002410D01*
X019514Y002488D02*
X019666Y002488D01*
X019744Y002567D02*
X019436Y002567D01*
X019357Y002645D02*
X019823Y002645D01*
X019901Y002724D02*
X019279Y002724D01*
X018901Y002724D02*
X018279Y002724D01*
X018272Y002730D02*
X017908Y002730D01*
X017650Y002472D01*
X017650Y002108D01*
X017908Y001850D01*
X018272Y001850D01*
X018530Y002108D01*
X018530Y002472D01*
X018272Y002730D01*
X018357Y002645D02*
X018823Y002645D01*
X018744Y002567D02*
X018436Y002567D01*
X018514Y002488D02*
X018666Y002488D01*
X018650Y002410D02*
X018530Y002410D01*
X018530Y002331D02*
X018650Y002331D01*
X018650Y002253D02*
X018530Y002253D01*
X018530Y002174D02*
X018650Y002174D01*
X018662Y002096D02*
X018518Y002096D01*
X018439Y002017D02*
X018741Y002017D01*
X018819Y001939D02*
X018361Y001939D01*
X018282Y001860D02*
X018898Y001860D01*
X018881Y001703D02*
X018299Y001703D01*
X018272Y001730D02*
X017908Y001730D01*
X017650Y001472D01*
X017650Y001108D01*
X017908Y000850D01*
X018272Y000850D01*
X018530Y001108D01*
X018530Y001472D01*
X018272Y001730D01*
X018378Y001625D02*
X018802Y001625D01*
X018724Y001546D02*
X018456Y001546D01*
X018530Y001468D02*
X018650Y001468D01*
X018650Y001389D02*
X018530Y001389D01*
X018530Y001311D02*
X018650Y001311D01*
X018650Y001232D02*
X018530Y001232D01*
X018530Y001154D02*
X018650Y001154D01*
X018683Y001075D02*
X018497Y001075D01*
X018419Y000997D02*
X018761Y000997D01*
X018840Y000918D02*
X018340Y000918D01*
X017840Y000918D02*
X017340Y000918D01*
X017272Y000850D02*
X017530Y001108D01*
X017530Y001472D01*
X017272Y001730D01*
X016908Y001730D01*
X016650Y001472D01*
X016650Y001108D01*
X016908Y000850D01*
X017272Y000850D01*
X017419Y000997D02*
X017761Y000997D01*
X017683Y001075D02*
X017497Y001075D01*
X017530Y001154D02*
X017650Y001154D01*
X017650Y001232D02*
X017530Y001232D01*
X017530Y001311D02*
X017650Y001311D01*
X017650Y001389D02*
X017530Y001389D01*
X017530Y001468D02*
X017650Y001468D01*
X017724Y001546D02*
X017456Y001546D01*
X017378Y001625D02*
X017802Y001625D01*
X017881Y001703D02*
X017299Y001703D01*
X017272Y001850D02*
X016908Y001850D01*
X016650Y002108D01*
X016650Y002472D01*
X016908Y002730D01*
X017272Y002730D01*
X017530Y002472D01*
X017530Y002108D01*
X017272Y001850D01*
X017282Y001860D02*
X017898Y001860D01*
X017819Y001939D02*
X017361Y001939D01*
X017439Y002017D02*
X017741Y002017D01*
X017662Y002096D02*
X017518Y002096D01*
X017530Y002174D02*
X017650Y002174D01*
X017650Y002253D02*
X017530Y002253D01*
X017530Y002331D02*
X017650Y002331D01*
X017650Y002410D02*
X017530Y002410D01*
X017514Y002488D02*
X017666Y002488D01*
X017744Y002567D02*
X017436Y002567D01*
X017357Y002645D02*
X017823Y002645D01*
X017901Y002724D02*
X017279Y002724D01*
X016901Y002724D02*
X016279Y002724D01*
X016272Y002730D02*
X015908Y002730D01*
X015650Y002472D01*
X015650Y002108D01*
X015908Y001850D01*
X016272Y001850D01*
X016530Y002108D01*
X016530Y002472D01*
X016272Y002730D01*
X016357Y002645D02*
X016823Y002645D01*
X016744Y002567D02*
X016436Y002567D01*
X016514Y002488D02*
X016666Y002488D01*
X016650Y002410D02*
X016530Y002410D01*
X016530Y002331D02*
X016650Y002331D01*
X016650Y002253D02*
X016530Y002253D01*
X016530Y002174D02*
X016650Y002174D01*
X016662Y002096D02*
X016518Y002096D01*
X016439Y002017D02*
X016741Y002017D01*
X016819Y001939D02*
X016361Y001939D01*
X016282Y001860D02*
X016898Y001860D01*
X016881Y001703D02*
X016299Y001703D01*
X016272Y001730D02*
X015908Y001730D01*
X015650Y001472D01*
X015650Y001108D01*
X015908Y000850D01*
X016272Y000850D01*
X016530Y001108D01*
X016530Y001472D01*
X016272Y001730D01*
X016378Y001625D02*
X016802Y001625D01*
X016724Y001546D02*
X016456Y001546D01*
X016530Y001468D02*
X016650Y001468D01*
X016650Y001389D02*
X016530Y001389D01*
X016530Y001311D02*
X016650Y001311D01*
X016650Y001232D02*
X016530Y001232D01*
X016530Y001154D02*
X016650Y001154D01*
X016683Y001075D02*
X016497Y001075D01*
X016419Y000997D02*
X016761Y000997D01*
X016840Y000918D02*
X016340Y000918D01*
X015840Y000918D02*
X015340Y000918D01*
X015272Y000850D02*
X015530Y001108D01*
X015530Y001472D01*
X015272Y001730D01*
X014908Y001730D01*
X014650Y001472D01*
X014650Y001108D01*
X014908Y000850D01*
X015272Y000850D01*
X015419Y000997D02*
X015761Y000997D01*
X015683Y001075D02*
X015497Y001075D01*
X015530Y001154D02*
X015650Y001154D01*
X015650Y001232D02*
X015530Y001232D01*
X015530Y001311D02*
X015650Y001311D01*
X015650Y001389D02*
X015530Y001389D01*
X015530Y001468D02*
X015650Y001468D01*
X015724Y001546D02*
X015456Y001546D01*
X015378Y001625D02*
X015802Y001625D01*
X015881Y001703D02*
X015299Y001703D01*
X015272Y001850D02*
X015530Y002108D01*
X015530Y002472D01*
X015272Y002730D01*
X014908Y002730D01*
X014650Y002472D01*
X014650Y002108D01*
X014908Y001850D01*
X015272Y001850D01*
X015282Y001860D02*
X015898Y001860D01*
X015819Y001939D02*
X015361Y001939D01*
X015439Y002017D02*
X015741Y002017D01*
X015662Y002096D02*
X015518Y002096D01*
X015530Y002174D02*
X015650Y002174D01*
X015650Y002253D02*
X015530Y002253D01*
X015530Y002331D02*
X015650Y002331D01*
X015650Y002410D02*
X015530Y002410D01*
X015514Y002488D02*
X015666Y002488D01*
X015744Y002567D02*
X015436Y002567D01*
X015357Y002645D02*
X015823Y002645D01*
X015901Y002724D02*
X015279Y002724D01*
X014901Y002724D02*
X014279Y002724D01*
X014272Y002730D02*
X013908Y002730D01*
X013650Y002472D01*
X013650Y002108D01*
X013908Y001850D01*
X014272Y001850D01*
X014530Y002108D01*
X014530Y002472D01*
X014272Y002730D01*
X014357Y002645D02*
X014823Y002645D01*
X014744Y002567D02*
X014436Y002567D01*
X014514Y002488D02*
X014666Y002488D01*
X014650Y002410D02*
X014530Y002410D01*
X014530Y002331D02*
X014650Y002331D01*
X014650Y002253D02*
X014530Y002253D01*
X014530Y002174D02*
X014650Y002174D01*
X014662Y002096D02*
X014518Y002096D01*
X014439Y002017D02*
X014741Y002017D01*
X014819Y001939D02*
X014361Y001939D01*
X014282Y001860D02*
X014898Y001860D01*
X014881Y001703D02*
X014299Y001703D01*
X014272Y001730D02*
X013908Y001730D01*
X013650Y001472D01*
X013650Y001108D01*
X013908Y000850D01*
X014272Y000850D01*
X014530Y001108D01*
X014530Y001472D01*
X014272Y001730D01*
X014378Y001625D02*
X014802Y001625D01*
X014724Y001546D02*
X014456Y001546D01*
X014530Y001468D02*
X014650Y001468D01*
X014650Y001389D02*
X014530Y001389D01*
X014530Y001311D02*
X014650Y001311D01*
X014650Y001232D02*
X014530Y001232D01*
X014530Y001154D02*
X014650Y001154D01*
X014683Y001075D02*
X014497Y001075D01*
X014419Y000997D02*
X014761Y000997D01*
X014840Y000918D02*
X014340Y000918D01*
X013840Y000918D02*
X013340Y000918D01*
X013272Y000850D02*
X013530Y001108D01*
X013530Y001472D01*
X013272Y001730D01*
X012908Y001730D01*
X012650Y001472D01*
X012650Y001108D01*
X012908Y000850D01*
X013272Y000850D01*
X013419Y000997D02*
X013761Y000997D01*
X013683Y001075D02*
X013497Y001075D01*
X013530Y001154D02*
X013650Y001154D01*
X013650Y001232D02*
X013530Y001232D01*
X013530Y001311D02*
X013650Y001311D01*
X013650Y001389D02*
X013530Y001389D01*
X013530Y001468D02*
X013650Y001468D01*
X013724Y001546D02*
X013456Y001546D01*
X013378Y001625D02*
X013802Y001625D01*
X013881Y001703D02*
X013299Y001703D01*
X013272Y001850D02*
X013530Y002108D01*
X013530Y002472D01*
X013272Y002730D01*
X012908Y002730D01*
X012650Y002472D01*
X012650Y002108D01*
X012908Y001850D01*
X013272Y001850D01*
X013282Y001860D02*
X013898Y001860D01*
X013819Y001939D02*
X013361Y001939D01*
X013439Y002017D02*
X013741Y002017D01*
X013662Y002096D02*
X013518Y002096D01*
X013530Y002174D02*
X013650Y002174D01*
X013650Y002253D02*
X013530Y002253D01*
X013530Y002331D02*
X013650Y002331D01*
X013650Y002410D02*
X013530Y002410D01*
X013514Y002488D02*
X013666Y002488D01*
X013744Y002567D02*
X013436Y002567D01*
X013357Y002645D02*
X013823Y002645D01*
X013901Y002724D02*
X013279Y002724D01*
X012901Y002724D02*
X012279Y002724D01*
X012272Y002730D02*
X011908Y002730D01*
X011650Y002472D01*
X011650Y002108D01*
X011908Y001850D01*
X012272Y001850D01*
X012530Y002108D01*
X012530Y002472D01*
X012272Y002730D01*
X012357Y002645D02*
X012823Y002645D01*
X012744Y002567D02*
X012436Y002567D01*
X012514Y002488D02*
X012666Y002488D01*
X012650Y002410D02*
X012530Y002410D01*
X012530Y002331D02*
X012650Y002331D01*
X012650Y002253D02*
X012530Y002253D01*
X012530Y002174D02*
X012650Y002174D01*
X012662Y002096D02*
X012518Y002096D01*
X012439Y002017D02*
X012741Y002017D01*
X012819Y001939D02*
X012361Y001939D01*
X012282Y001860D02*
X012898Y001860D01*
X012881Y001703D02*
X012299Y001703D01*
X012272Y001730D02*
X011908Y001730D01*
X011650Y001472D01*
X011650Y001108D01*
X011908Y000850D01*
X012272Y000850D01*
X012530Y001108D01*
X012530Y001472D01*
X012272Y001730D01*
X012378Y001625D02*
X012802Y001625D01*
X012724Y001546D02*
X012456Y001546D01*
X012530Y001468D02*
X012650Y001468D01*
X012650Y001389D02*
X012530Y001389D01*
X012530Y001311D02*
X012650Y001311D01*
X012650Y001232D02*
X012530Y001232D01*
X012530Y001154D02*
X012650Y001154D01*
X012683Y001075D02*
X012497Y001075D01*
X012419Y000997D02*
X012761Y000997D01*
X012840Y000918D02*
X012340Y000918D01*
X011840Y000918D02*
X011340Y000918D01*
X011272Y000850D02*
X011530Y001108D01*
X011530Y001472D01*
X011272Y001730D01*
X010908Y001730D01*
X010650Y001472D01*
X010650Y001108D01*
X010908Y000850D01*
X011272Y000850D01*
X011419Y000997D02*
X011761Y000997D01*
X011683Y001075D02*
X011497Y001075D01*
X011530Y001154D02*
X011650Y001154D01*
X011650Y001232D02*
X011530Y001232D01*
X011530Y001311D02*
X011650Y001311D01*
X011650Y001389D02*
X011530Y001389D01*
X011530Y001468D02*
X011650Y001468D01*
X011724Y001546D02*
X011456Y001546D01*
X011378Y001625D02*
X011802Y001625D01*
X011881Y001703D02*
X011299Y001703D01*
X011272Y001850D02*
X011530Y002108D01*
X011530Y002472D01*
X011272Y002730D01*
X010908Y002730D01*
X010650Y002472D01*
X010650Y002108D01*
X010908Y001850D01*
X011272Y001850D01*
X011282Y001860D02*
X011898Y001860D01*
X011819Y001939D02*
X011361Y001939D01*
X011439Y002017D02*
X011741Y002017D01*
X011662Y002096D02*
X011518Y002096D01*
X011530Y002174D02*
X011650Y002174D01*
X011650Y002253D02*
X011530Y002253D01*
X011530Y002331D02*
X011650Y002331D01*
X011650Y002410D02*
X011530Y002410D01*
X011514Y002488D02*
X011666Y002488D01*
X011744Y002567D02*
X011436Y002567D01*
X011357Y002645D02*
X011823Y002645D01*
X011901Y002724D02*
X011279Y002724D01*
X010901Y002724D02*
X010279Y002724D01*
X010272Y002730D02*
X010530Y002472D01*
X010530Y002108D01*
X010272Y001850D01*
X009908Y001850D01*
X009650Y002108D01*
X009650Y002472D01*
X009908Y002730D01*
X010272Y002730D01*
X010357Y002645D02*
X010823Y002645D01*
X010744Y002567D02*
X010436Y002567D01*
X010514Y002488D02*
X010666Y002488D01*
X010650Y002410D02*
X010530Y002410D01*
X010530Y002331D02*
X010650Y002331D01*
X010650Y002253D02*
X010530Y002253D01*
X010530Y002174D02*
X010650Y002174D01*
X010662Y002096D02*
X010518Y002096D01*
X010439Y002017D02*
X010741Y002017D01*
X010819Y001939D02*
X010361Y001939D01*
X010282Y001860D02*
X010898Y001860D01*
X010881Y001703D02*
X010299Y001703D01*
X010272Y001730D02*
X009908Y001730D01*
X009650Y001472D01*
X009650Y001108D01*
X009908Y000850D01*
X010272Y000850D01*
X010530Y001108D01*
X010530Y001472D01*
X010272Y001730D01*
X010378Y001625D02*
X010802Y001625D01*
X010724Y001546D02*
X010456Y001546D01*
X010530Y001468D02*
X010650Y001468D01*
X010650Y001389D02*
X010530Y001389D01*
X010530Y001311D02*
X010650Y001311D01*
X010650Y001232D02*
X010530Y001232D01*
X010530Y001154D02*
X010650Y001154D01*
X010683Y001075D02*
X010497Y001075D01*
X010419Y000997D02*
X010761Y000997D01*
X010840Y000918D02*
X010340Y000918D01*
X009840Y000918D02*
X009340Y000918D01*
X009272Y000850D02*
X009530Y001108D01*
X009530Y001472D01*
X009272Y001730D01*
X008908Y001730D01*
X008650Y001472D01*
X008650Y001108D01*
X008908Y000850D01*
X009272Y000850D01*
X009419Y000997D02*
X009761Y000997D01*
X009683Y001075D02*
X009497Y001075D01*
X009530Y001154D02*
X009650Y001154D01*
X009650Y001232D02*
X009530Y001232D01*
X009530Y001311D02*
X009650Y001311D01*
X009650Y001389D02*
X009530Y001389D01*
X009530Y001468D02*
X009650Y001468D01*
X009724Y001546D02*
X009456Y001546D01*
X009378Y001625D02*
X009802Y001625D01*
X009881Y001703D02*
X009299Y001703D01*
X009272Y001850D02*
X008908Y001850D01*
X008650Y002108D01*
X008650Y002472D01*
X008908Y002730D01*
X009272Y002730D01*
X009530Y002472D01*
X009530Y002108D01*
X009272Y001850D01*
X009282Y001860D02*
X009898Y001860D01*
X009819Y001939D02*
X009361Y001939D01*
X009439Y002017D02*
X009741Y002017D01*
X009662Y002096D02*
X009518Y002096D01*
X009530Y002174D02*
X009650Y002174D01*
X009650Y002253D02*
X009530Y002253D01*
X009530Y002331D02*
X009650Y002331D01*
X009650Y002410D02*
X009530Y002410D01*
X009514Y002488D02*
X009666Y002488D01*
X009744Y002567D02*
X009436Y002567D01*
X009357Y002645D02*
X009823Y002645D01*
X009901Y002724D02*
X009279Y002724D01*
X008901Y002724D02*
X008279Y002724D01*
X008272Y002730D02*
X007908Y002730D01*
X007650Y002472D01*
X007650Y002108D01*
X007908Y001850D01*
X008272Y001850D01*
X008530Y002108D01*
X008530Y002472D01*
X008272Y002730D01*
X008357Y002645D02*
X008823Y002645D01*
X008744Y002567D02*
X008436Y002567D01*
X008514Y002488D02*
X008666Y002488D01*
X008650Y002410D02*
X008530Y002410D01*
X008530Y002331D02*
X008650Y002331D01*
X008650Y002253D02*
X008530Y002253D01*
X008530Y002174D02*
X008650Y002174D01*
X008662Y002096D02*
X008518Y002096D01*
X008439Y002017D02*
X008741Y002017D01*
X008819Y001939D02*
X008361Y001939D01*
X008282Y001860D02*
X008898Y001860D01*
X008881Y001703D02*
X008299Y001703D01*
X008272Y001730D02*
X007908Y001730D01*
X007650Y001472D01*
X007650Y001108D01*
X007908Y000850D01*
X008272Y000850D01*
X008530Y001108D01*
X008530Y001472D01*
X008272Y001730D01*
X008378Y001625D02*
X008802Y001625D01*
X008724Y001546D02*
X008456Y001546D01*
X008530Y001468D02*
X008650Y001468D01*
X008650Y001389D02*
X008530Y001389D01*
X008530Y001311D02*
X008650Y001311D01*
X008650Y001232D02*
X008530Y001232D01*
X008530Y001154D02*
X008650Y001154D01*
X008683Y001075D02*
X008497Y001075D01*
X008419Y000997D02*
X008761Y000997D01*
X008840Y000918D02*
X008340Y000918D01*
X007840Y000918D02*
X007340Y000918D01*
X007272Y000850D02*
X007530Y001108D01*
X007530Y001472D01*
X007272Y001730D01*
X006908Y001730D01*
X006650Y001472D01*
X006650Y001108D01*
X006908Y000850D01*
X007272Y000850D01*
X007419Y000997D02*
X007761Y000997D01*
X007683Y001075D02*
X007497Y001075D01*
X007530Y001154D02*
X007650Y001154D01*
X007650Y001232D02*
X007530Y001232D01*
X007530Y001311D02*
X007650Y001311D01*
X007650Y001389D02*
X007530Y001389D01*
X007530Y001468D02*
X007650Y001468D01*
X007724Y001546D02*
X007456Y001546D01*
X007378Y001625D02*
X007802Y001625D01*
X007881Y001703D02*
X007299Y001703D01*
X007272Y001850D02*
X006908Y001850D01*
X006650Y002108D01*
X006650Y002472D01*
X006908Y002730D01*
X007272Y002730D01*
X007530Y002472D01*
X007530Y002108D01*
X007272Y001850D01*
X007282Y001860D02*
X007898Y001860D01*
X007819Y001939D02*
X007361Y001939D01*
X007439Y002017D02*
X007741Y002017D01*
X007662Y002096D02*
X007518Y002096D01*
X007530Y002174D02*
X007650Y002174D01*
X007650Y002253D02*
X007530Y002253D01*
X007530Y002331D02*
X007650Y002331D01*
X007650Y002410D02*
X007530Y002410D01*
X007514Y002488D02*
X007666Y002488D01*
X007744Y002567D02*
X007436Y002567D01*
X007357Y002645D02*
X007823Y002645D01*
X007901Y002724D02*
X007279Y002724D01*
X006901Y002724D02*
X006279Y002724D01*
X006272Y002730D02*
X005908Y002730D01*
X005650Y002472D01*
X005650Y002108D01*
X005908Y001850D01*
X006272Y001850D01*
X006530Y002108D01*
X006530Y002472D01*
X006272Y002730D01*
X006357Y002645D02*
X006823Y002645D01*
X006744Y002567D02*
X006436Y002567D01*
X006514Y002488D02*
X006666Y002488D01*
X006650Y002410D02*
X006530Y002410D01*
X006530Y002331D02*
X006650Y002331D01*
X006650Y002253D02*
X006530Y002253D01*
X006530Y002174D02*
X006650Y002174D01*
X006662Y002096D02*
X006518Y002096D01*
X006439Y002017D02*
X006741Y002017D01*
X006819Y001939D02*
X006361Y001939D01*
X006282Y001860D02*
X006898Y001860D01*
X006881Y001703D02*
X006299Y001703D01*
X006272Y001730D02*
X005908Y001730D01*
X005650Y001472D01*
X005650Y001108D01*
X005908Y000850D01*
X006272Y000850D01*
X006530Y001108D01*
X006530Y001472D01*
X006272Y001730D01*
X006378Y001625D02*
X006802Y001625D01*
X006724Y001546D02*
X006456Y001546D01*
X006530Y001468D02*
X006650Y001468D01*
X006650Y001389D02*
X006530Y001389D01*
X006530Y001311D02*
X006650Y001311D01*
X006650Y001232D02*
X006530Y001232D01*
X006530Y001154D02*
X006650Y001154D01*
X006683Y001075D02*
X006497Y001075D01*
X006419Y000997D02*
X006761Y000997D01*
X006840Y000918D02*
X006340Y000918D01*
X005840Y000918D02*
X005340Y000918D01*
X005272Y000850D02*
X005530Y001108D01*
X005530Y001472D01*
X005272Y001730D01*
X004908Y001730D01*
X004650Y001472D01*
X004650Y001108D01*
X004908Y000850D01*
X005272Y000850D01*
X005419Y000997D02*
X005761Y000997D01*
X005683Y001075D02*
X005497Y001075D01*
X005530Y001154D02*
X005650Y001154D01*
X005650Y001232D02*
X005530Y001232D01*
X005530Y001311D02*
X005650Y001311D01*
X005650Y001389D02*
X005530Y001389D01*
X005530Y001468D02*
X005650Y001468D01*
X005724Y001546D02*
X005456Y001546D01*
X005378Y001625D02*
X005802Y001625D01*
X005881Y001703D02*
X005299Y001703D01*
X005272Y001850D02*
X005530Y002108D01*
X005530Y002472D01*
X005272Y002730D01*
X004908Y002730D01*
X004650Y002472D01*
X004650Y002108D01*
X004908Y001850D01*
X005272Y001850D01*
X005282Y001860D02*
X005898Y001860D01*
X005819Y001939D02*
X005361Y001939D01*
X005439Y002017D02*
X005741Y002017D01*
X005662Y002096D02*
X005518Y002096D01*
X005530Y002174D02*
X005650Y002174D01*
X005650Y002253D02*
X005530Y002253D01*
X005530Y002331D02*
X005650Y002331D01*
X005650Y002410D02*
X005530Y002410D01*
X005514Y002488D02*
X005666Y002488D01*
X005744Y002567D02*
X005436Y002567D01*
X005357Y002645D02*
X005823Y002645D01*
X005901Y002724D02*
X005279Y002724D01*
X004901Y002724D02*
X004279Y002724D01*
X004272Y002730D02*
X003908Y002730D01*
X003650Y002472D01*
X003650Y002108D01*
X003908Y001850D01*
X004272Y001850D01*
X004530Y002108D01*
X004530Y002472D01*
X004272Y002730D01*
X004357Y002645D02*
X004823Y002645D01*
X004744Y002567D02*
X004436Y002567D01*
X004514Y002488D02*
X004666Y002488D01*
X004650Y002410D02*
X004530Y002410D01*
X004530Y002331D02*
X004650Y002331D01*
X004650Y002253D02*
X004530Y002253D01*
X004530Y002174D02*
X004650Y002174D01*
X004662Y002096D02*
X004518Y002096D01*
X004439Y002017D02*
X004741Y002017D01*
X004819Y001939D02*
X004361Y001939D01*
X004282Y001860D02*
X004898Y001860D01*
X004881Y001703D02*
X004299Y001703D01*
X004272Y001730D02*
X003908Y001730D01*
X003650Y001472D01*
X003650Y001108D01*
X003908Y000850D01*
X004272Y000850D01*
X004530Y001108D01*
X004530Y001472D01*
X004272Y001730D01*
X004378Y001625D02*
X004802Y001625D01*
X004724Y001546D02*
X004456Y001546D01*
X004530Y001468D02*
X004650Y001468D01*
X004650Y001389D02*
X004530Y001389D01*
X004530Y001311D02*
X004650Y001311D01*
X004650Y001232D02*
X004530Y001232D01*
X004530Y001154D02*
X004650Y001154D01*
X004683Y001075D02*
X004497Y001075D01*
X004419Y000997D02*
X004761Y000997D01*
X004840Y000918D02*
X004340Y000918D01*
X003840Y000918D02*
X003340Y000918D01*
X003272Y000850D02*
X003530Y001108D01*
X003530Y001472D01*
X003272Y001730D01*
X002908Y001730D01*
X002650Y001472D01*
X002650Y001108D01*
X002908Y000850D01*
X003272Y000850D01*
X003419Y000997D02*
X003761Y000997D01*
X003683Y001075D02*
X003497Y001075D01*
X003530Y001154D02*
X003650Y001154D01*
X003650Y001232D02*
X003530Y001232D01*
X003530Y001311D02*
X003650Y001311D01*
X003650Y001389D02*
X003530Y001389D01*
X003530Y001468D02*
X003650Y001468D01*
X003724Y001546D02*
X003456Y001546D01*
X003378Y001625D02*
X003802Y001625D01*
X003881Y001703D02*
X003299Y001703D01*
X003272Y001850D02*
X003530Y002108D01*
X003530Y002472D01*
X003272Y002730D01*
X002908Y002730D01*
X002650Y002472D01*
X002650Y002108D01*
X002908Y001850D01*
X003272Y001850D01*
X003282Y001860D02*
X003898Y001860D01*
X003819Y001939D02*
X003361Y001939D01*
X003439Y002017D02*
X003741Y002017D01*
X003662Y002096D02*
X003518Y002096D01*
X003530Y002174D02*
X003650Y002174D01*
X003650Y002253D02*
X003530Y002253D01*
X003530Y002331D02*
X003650Y002331D01*
X003650Y002410D02*
X003530Y002410D01*
X003514Y002488D02*
X003666Y002488D01*
X003744Y002567D02*
X003436Y002567D01*
X003357Y002645D02*
X003823Y002645D01*
X003901Y002724D02*
X003279Y002724D01*
X002901Y002724D02*
X002279Y002724D01*
X002357Y002645D02*
X002823Y002645D01*
X002744Y002567D02*
X002436Y002567D01*
X002514Y002488D02*
X002666Y002488D01*
X002650Y002410D02*
X002530Y002410D01*
X002530Y002331D02*
X002650Y002331D01*
X002650Y002253D02*
X002530Y002253D01*
X002530Y002174D02*
X002650Y002174D01*
X002662Y002096D02*
X002518Y002096D01*
X002439Y002017D02*
X002741Y002017D01*
X002819Y001939D02*
X002361Y001939D01*
X002282Y001860D02*
X002898Y001860D01*
X002881Y001703D02*
X002299Y001703D01*
X002378Y001625D02*
X002802Y001625D01*
X002724Y001546D02*
X002456Y001546D01*
X002530Y001468D02*
X002650Y001468D01*
X002650Y001389D02*
X002530Y001389D01*
X002530Y001311D02*
X002650Y001311D01*
X002650Y001232D02*
X002530Y001232D01*
X002530Y001154D02*
X002650Y001154D01*
X002683Y001075D02*
X002497Y001075D01*
X002419Y000997D02*
X002761Y000997D01*
X002840Y000918D02*
X002340Y000918D01*
X001819Y001939D02*
X001030Y001939D01*
X001030Y002017D02*
X001741Y002017D01*
X001662Y002096D02*
X001030Y002096D01*
X001030Y002174D02*
X001650Y002174D01*
X001650Y002253D02*
X001030Y002253D01*
X001030Y002331D02*
X001650Y002331D01*
X001650Y002410D02*
X001030Y002410D01*
X001030Y002488D02*
X001666Y002488D01*
X001744Y002567D02*
X001030Y002567D01*
X001030Y002645D02*
X001823Y002645D01*
X001901Y002724D02*
X001030Y002724D01*
X001030Y002802D02*
X022150Y002802D01*
X022150Y002881D02*
X001030Y002881D01*
X001030Y002959D02*
X022150Y002959D01*
X022150Y003038D02*
X001030Y003038D01*
X001030Y003116D02*
X022150Y003116D01*
X022150Y003195D02*
X001030Y003195D01*
X001030Y003273D02*
X022150Y003273D01*
X022150Y003352D02*
X001030Y003352D01*
X001030Y003430D02*
X022150Y003430D01*
X022150Y003509D02*
X001030Y003509D01*
X001030Y003587D02*
X022150Y003587D01*
X022150Y003666D02*
X001030Y003666D01*
X001030Y003744D02*
X022150Y003744D01*
X022150Y003823D02*
X001030Y003823D01*
X001030Y003901D02*
X022150Y003901D01*
X022150Y003980D02*
X001030Y003980D01*
X001030Y004058D02*
X022150Y004058D01*
X022150Y004137D02*
X001030Y004137D01*
X001030Y004215D02*
X022150Y004215D01*
X022150Y004294D02*
X001030Y004294D01*
X001030Y004372D02*
X022150Y004372D01*
X022150Y004451D02*
X001030Y004451D01*
X001030Y004529D02*
X022150Y004529D01*
X022150Y004608D02*
X001030Y004608D01*
X001030Y004686D02*
X022150Y004686D01*
X022150Y004765D02*
X001030Y004765D01*
X001030Y005140D02*
X001030Y019640D01*
X012590Y019640D01*
X012590Y005140D01*
X001030Y005140D01*
X001030Y005157D02*
X012590Y005157D01*
X012590Y005236D02*
X005629Y005236D01*
X005614Y005220D02*
X005860Y005466D01*
X005860Y005814D01*
X005614Y006060D01*
X005266Y006060D01*
X005020Y005814D01*
X005020Y005466D01*
X005266Y005220D01*
X005614Y005220D01*
X005708Y005314D02*
X012590Y005314D01*
X012590Y005393D02*
X005786Y005393D01*
X005860Y005471D02*
X012590Y005471D01*
X012590Y005550D02*
X005860Y005550D01*
X005860Y005628D02*
X012590Y005628D01*
X012590Y005707D02*
X005860Y005707D01*
X005860Y005785D02*
X012590Y005785D01*
X012590Y005864D02*
X005810Y005864D01*
X005732Y005942D02*
X012590Y005942D01*
X012590Y006021D02*
X005653Y006021D01*
X005227Y006021D02*
X004130Y006021D01*
X004130Y006000D02*
X004130Y006080D01*
X004732Y006080D01*
X004732Y006082D01*
X004722Y006166D01*
X004700Y006247D01*
X004667Y006325D01*
X004625Y006398D01*
X004574Y006465D01*
X004515Y006524D01*
X004448Y006575D01*
X004375Y006617D01*
X004297Y006650D01*
X004216Y006672D01*
X004132Y006682D01*
X004130Y006682D01*
X004130Y006080D01*
X004050Y006080D01*
X004050Y006682D01*
X004048Y006682D01*
X003964Y006672D01*
X003883Y006650D01*
X003805Y006617D01*
X003732Y006575D01*
X003665Y006524D01*
X003606Y006465D01*
X003555Y006398D01*
X003513Y006325D01*
X003480Y006247D01*
X003458Y006166D01*
X003448Y006082D01*
X003448Y006080D01*
X004050Y006080D01*
X004050Y006000D01*
X004130Y006000D01*
X004732Y006000D01*
X004732Y005998D01*
X004722Y005914D01*
X004700Y005833D01*
X004667Y005755D01*
X004625Y005682D01*
X004574Y005615D01*
X004515Y005556D01*
X004448Y005505D01*
X004375Y005463D01*
X004297Y005430D01*
X004216Y005408D01*
X004132Y005398D01*
X004130Y005398D01*
X004130Y006000D01*
X004130Y005942D02*
X004050Y005942D01*
X004050Y006000D02*
X004050Y005398D01*
X004048Y005398D01*
X003964Y005408D01*
X003883Y005430D01*
X003805Y005463D01*
X003732Y005505D01*
X003665Y005556D01*
X003606Y005615D01*
X003555Y005682D01*
X003513Y005755D01*
X003480Y005833D01*
X003458Y005914D01*
X003448Y005998D01*
X003448Y006000D01*
X004050Y006000D01*
X004050Y006021D02*
X002130Y006021D01*
X002130Y006000D02*
X002130Y006080D01*
X002732Y006080D01*
X002732Y006082D01*
X002722Y006166D01*
X002700Y006247D01*
X002667Y006325D01*
X002625Y006398D01*
X002574Y006465D01*
X002515Y006524D01*
X002448Y006575D01*
X002375Y006617D01*
X002297Y006650D01*
X002216Y006672D01*
X002132Y006682D01*
X002130Y006682D01*
X002130Y006080D01*
X002050Y006080D01*
X002050Y006682D01*
X002048Y006682D01*
X001964Y006672D01*
X001883Y006650D01*
X001805Y006617D01*
X001732Y006575D01*
X001665Y006524D01*
X001606Y006465D01*
X001555Y006398D01*
X001513Y006325D01*
X001480Y006247D01*
X001458Y006166D01*
X001448Y006082D01*
X001448Y006080D01*
X002050Y006080D01*
X002050Y006000D01*
X002130Y006000D01*
X002732Y006000D01*
X002732Y005998D01*
X002722Y005914D01*
X002700Y005833D01*
X002667Y005755D01*
X002625Y005682D01*
X002574Y005615D01*
X002515Y005556D01*
X002448Y005505D01*
X002375Y005463D01*
X002297Y005430D01*
X002216Y005408D01*
X002132Y005398D01*
X002130Y005398D01*
X002130Y006000D01*
X002130Y005942D02*
X002050Y005942D01*
X002050Y006000D02*
X002050Y005398D01*
X002048Y005398D01*
X001964Y005408D01*
X001883Y005430D01*
X001805Y005463D01*
X001732Y005505D01*
X001665Y005556D01*
X001606Y005615D01*
X001555Y005682D01*
X001513Y005755D01*
X001480Y005833D01*
X001458Y005914D01*
X001448Y005998D01*
X001448Y006000D01*
X002050Y006000D01*
X002050Y006021D02*
X001030Y006021D01*
X001030Y006099D02*
X001450Y006099D01*
X001462Y006178D02*
X001030Y006178D01*
X001030Y006256D02*
X001484Y006256D01*
X001518Y006335D02*
X001030Y006335D01*
X001030Y006413D02*
X001566Y006413D01*
X001633Y006492D02*
X001030Y006492D01*
X001030Y006570D02*
X001725Y006570D01*
X001880Y006649D02*
X001030Y006649D01*
X001030Y006727D02*
X002745Y006727D01*
X002696Y006777D02*
X002827Y006646D01*
X002998Y006575D01*
X003182Y006575D01*
X003353Y006646D01*
X003484Y006777D01*
X003555Y006948D01*
X003555Y007132D01*
X003484Y007303D01*
X003353Y007434D01*
X003182Y007505D01*
X002998Y007505D01*
X002827Y007434D01*
X002696Y007303D01*
X002625Y007132D01*
X002625Y006948D01*
X002696Y006777D01*
X002684Y006806D02*
X001030Y006806D01*
X001030Y006884D02*
X002651Y006884D01*
X002625Y006963D02*
X001030Y006963D01*
X001030Y007041D02*
X002625Y007041D01*
X002625Y007120D02*
X001030Y007120D01*
X001030Y007198D02*
X002652Y007198D01*
X002685Y007277D02*
X001030Y007277D01*
X001030Y007355D02*
X002747Y007355D01*
X002826Y007434D02*
X002305Y007434D01*
X002297Y007430D02*
X002375Y007463D01*
X002448Y007505D01*
X002515Y007556D01*
X002574Y007615D01*
X002625Y007682D01*
X002667Y007755D01*
X002700Y007833D01*
X002722Y007914D01*
X002732Y007998D01*
X002732Y008000D01*
X002130Y008000D01*
X002130Y008080D01*
X002732Y008080D01*
X002732Y008082D01*
X002722Y008166D01*
X002700Y008247D01*
X002667Y008325D01*
X002625Y008398D01*
X002574Y008465D01*
X002515Y008524D01*
X002448Y008575D01*
X002375Y008617D01*
X002297Y008650D01*
X002216Y008672D01*
X002132Y008682D01*
X002130Y008682D01*
X002130Y008080D01*
X002050Y008080D01*
X002050Y008682D01*
X002048Y008682D01*
X001964Y008672D01*
X001883Y008650D01*
X001805Y008617D01*
X001732Y008575D01*
X001665Y008524D01*
X001606Y008465D01*
X001555Y008398D01*
X001513Y008325D01*
X001480Y008247D01*
X001458Y008166D01*
X001448Y008082D01*
X001448Y008080D01*
X002050Y008080D01*
X002050Y008000D01*
X002130Y008000D01*
X002130Y007398D01*
X002132Y007398D01*
X002216Y007408D01*
X002297Y007430D01*
X002130Y007434D02*
X002050Y007434D01*
X002050Y007398D02*
X002050Y008000D01*
X001448Y008000D01*
X001448Y007998D01*
X001458Y007914D01*
X001480Y007833D01*
X001513Y007755D01*
X001555Y007682D01*
X001606Y007615D01*
X001665Y007556D01*
X001732Y007505D01*
X001805Y007463D01*
X001883Y007430D01*
X001964Y007408D01*
X002048Y007398D01*
X002050Y007398D01*
X002050Y007512D02*
X002130Y007512D01*
X002130Y007591D02*
X002050Y007591D01*
X002050Y007669D02*
X002130Y007669D01*
X002130Y007748D02*
X002050Y007748D01*
X002050Y007826D02*
X002130Y007826D01*
X002130Y007905D02*
X002050Y007905D01*
X002050Y007983D02*
X002130Y007983D01*
X002130Y008062D02*
X004050Y008062D01*
X004050Y008080D02*
X004050Y008000D01*
X004130Y008000D01*
X004130Y008080D01*
X004732Y008080D01*
X004732Y008082D01*
X004722Y008166D01*
X004700Y008247D01*
X004667Y008325D01*
X004625Y008398D01*
X004574Y008465D01*
X004515Y008524D01*
X004448Y008575D01*
X004375Y008617D01*
X004297Y008650D01*
X004216Y008672D01*
X004132Y008682D01*
X004130Y008682D01*
X004130Y008080D01*
X004050Y008080D01*
X004050Y008682D01*
X004048Y008682D01*
X003964Y008672D01*
X003883Y008650D01*
X003805Y008617D01*
X003732Y008575D01*
X003665Y008524D01*
X003606Y008465D01*
X003555Y008398D01*
X003513Y008325D01*
X003480Y008247D01*
X003458Y008166D01*
X003448Y008082D01*
X003448Y008080D01*
X004050Y008080D01*
X004050Y008140D02*
X004130Y008140D01*
X004130Y008062D02*
X012590Y008062D01*
X012590Y008140D02*
X004725Y008140D01*
X004707Y008219D02*
X012590Y008219D01*
X012590Y008297D02*
X004679Y008297D01*
X004638Y008376D02*
X012590Y008376D01*
X012590Y008454D02*
X004582Y008454D01*
X004504Y008533D02*
X012590Y008533D01*
X012590Y008611D02*
X004386Y008611D01*
X004130Y008611D02*
X004050Y008611D01*
X004050Y008533D02*
X004130Y008533D01*
X004130Y008454D02*
X004050Y008454D01*
X004050Y008376D02*
X004130Y008376D01*
X004130Y008297D02*
X004050Y008297D01*
X004050Y008219D02*
X004130Y008219D01*
X004130Y008000D02*
X004732Y008000D01*
X004732Y007998D01*
X004722Y007914D01*
X004700Y007833D01*
X004667Y007755D01*
X004625Y007682D01*
X004574Y007615D01*
X004515Y007556D01*
X004448Y007505D01*
X004375Y007463D01*
X004297Y007430D01*
X004216Y007408D01*
X004132Y007398D01*
X004130Y007398D01*
X004130Y008000D01*
X004130Y007983D02*
X004050Y007983D01*
X004050Y008000D02*
X004050Y007398D01*
X004048Y007398D01*
X003964Y007408D01*
X003883Y007430D01*
X003805Y007463D01*
X003732Y007505D01*
X003665Y007556D01*
X003606Y007615D01*
X003555Y007682D01*
X003513Y007755D01*
X003480Y007833D01*
X003458Y007914D01*
X003448Y007998D01*
X003448Y008000D01*
X004050Y008000D01*
X004050Y007905D02*
X004130Y007905D01*
X004130Y007826D02*
X004050Y007826D01*
X004050Y007748D02*
X004130Y007748D01*
X004130Y007669D02*
X004050Y007669D01*
X004050Y007591D02*
X004130Y007591D01*
X004130Y007512D02*
X004050Y007512D01*
X004050Y007434D02*
X004130Y007434D01*
X004305Y007434D02*
X008720Y007434D01*
X008720Y007366D02*
X008966Y007120D01*
X009314Y007120D01*
X009560Y007366D01*
X009560Y007714D01*
X009314Y007960D01*
X008966Y007960D01*
X008720Y007714D01*
X008720Y007366D01*
X008731Y007355D02*
X003433Y007355D01*
X003495Y007277D02*
X008810Y007277D01*
X008888Y007198D02*
X003528Y007198D01*
X003555Y007120D02*
X012590Y007120D01*
X012590Y007198D02*
X009392Y007198D01*
X009470Y007277D02*
X012590Y007277D01*
X012590Y007355D02*
X009549Y007355D01*
X009560Y007434D02*
X012590Y007434D01*
X012590Y007512D02*
X009560Y007512D01*
X009560Y007591D02*
X012590Y007591D01*
X012590Y007669D02*
X009560Y007669D01*
X009526Y007748D02*
X012590Y007748D01*
X012590Y007826D02*
X009448Y007826D01*
X009369Y007905D02*
X012590Y007905D01*
X012590Y007983D02*
X004731Y007983D01*
X004719Y007905D02*
X008911Y007905D01*
X008832Y007826D02*
X004697Y007826D01*
X004663Y007748D02*
X008754Y007748D01*
X008720Y007669D02*
X004615Y007669D01*
X004549Y007591D02*
X008720Y007591D01*
X008720Y007512D02*
X004457Y007512D01*
X003875Y007434D02*
X003354Y007434D01*
X003565Y007669D02*
X002615Y007669D01*
X002663Y007748D02*
X003517Y007748D01*
X003483Y007826D02*
X002697Y007826D01*
X002719Y007905D02*
X003461Y007905D01*
X003449Y007983D02*
X002731Y007983D01*
X002725Y008140D02*
X003455Y008140D01*
X003473Y008219D02*
X002707Y008219D01*
X002679Y008297D02*
X003501Y008297D01*
X003542Y008376D02*
X002638Y008376D01*
X002582Y008454D02*
X003598Y008454D01*
X003676Y008533D02*
X002504Y008533D01*
X002386Y008611D02*
X003794Y008611D01*
X003883Y008930D02*
X003805Y008963D01*
X003732Y009005D01*
X003665Y009056D01*
X003606Y009115D01*
X003555Y009182D01*
X003513Y009255D01*
X003480Y009333D01*
X003458Y009414D01*
X003448Y009498D01*
X003448Y009500D01*
X004050Y009500D01*
X004130Y009500D01*
X004130Y009580D01*
X004732Y009580D01*
X004732Y009582D01*
X004722Y009666D01*
X004700Y009747D01*
X004667Y009825D01*
X004625Y009898D01*
X004574Y009965D01*
X004515Y010024D01*
X008036Y010024D01*
X008037Y010021D02*
X008121Y009937D01*
X008231Y009892D01*
X008349Y009892D01*
X008459Y009937D01*
X008543Y010021D01*
X008547Y010030D01*
X008733Y010030D01*
X008737Y010021D01*
X008821Y009937D01*
X008931Y009892D01*
X009049Y009892D01*
X009159Y009937D01*
X009243Y010021D01*
X009288Y010131D01*
X009288Y010249D01*
X009243Y010359D01*
X009159Y010443D01*
X009049Y010488D01*
X008931Y010488D01*
X008821Y010443D01*
X008737Y010359D01*
X008733Y010350D01*
X008547Y010350D01*
X008543Y010359D01*
X008459Y010443D01*
X008349Y010488D01*
X008231Y010488D01*
X008121Y010443D01*
X008037Y010359D01*
X007992Y010249D01*
X007992Y010131D01*
X008037Y010021D01*
X008003Y010103D02*
X004401Y010103D01*
X004375Y010117D02*
X004297Y010150D01*
X004216Y010172D01*
X004132Y010182D01*
X004130Y010182D01*
X004130Y009580D01*
X004050Y009580D01*
X004050Y010182D01*
X004048Y010182D01*
X003964Y010172D01*
X003883Y010150D01*
X003805Y010117D01*
X003732Y010075D01*
X003665Y010024D01*
X002515Y010024D01*
X002448Y010075D01*
X002375Y010117D01*
X002297Y010150D01*
X002216Y010172D01*
X002132Y010182D01*
X002130Y010182D01*
X002130Y009580D01*
X002732Y009580D01*
X002732Y009582D01*
X002722Y009666D01*
X002700Y009747D01*
X002667Y009825D01*
X002625Y009898D01*
X002574Y009965D01*
X002515Y010024D01*
X002589Y009946D02*
X003591Y009946D01*
X003606Y009965D02*
X003555Y009898D01*
X003513Y009825D01*
X003480Y009747D01*
X003458Y009666D01*
X003448Y009582D01*
X003448Y009580D01*
X004050Y009580D01*
X004050Y009500D01*
X004050Y008898D01*
X004048Y008898D01*
X003964Y008908D01*
X003883Y008930D01*
X003903Y008925D02*
X002277Y008925D01*
X002297Y008930D02*
X002216Y008908D01*
X002132Y008898D01*
X002130Y008898D01*
X002130Y009500D01*
X002130Y009580D01*
X002050Y009580D01*
X002050Y010182D01*
X002048Y010182D01*
X001964Y010172D01*
X001883Y010150D01*
X001805Y010117D01*
X001732Y010075D01*
X001665Y010024D01*
X001030Y010024D01*
X001030Y009946D02*
X001591Y009946D01*
X001606Y009965D02*
X001555Y009898D01*
X001513Y009825D01*
X001480Y009747D01*
X001458Y009666D01*
X001448Y009582D01*
X001448Y009580D01*
X002050Y009580D01*
X002050Y009500D01*
X002130Y009500D01*
X002732Y009500D01*
X002732Y009498D01*
X002722Y009414D01*
X002700Y009333D01*
X002667Y009255D01*
X002625Y009182D01*
X002574Y009115D01*
X002515Y009056D01*
X002448Y009005D01*
X002375Y008963D01*
X002297Y008930D01*
X002446Y009004D02*
X003734Y009004D01*
X003639Y009082D02*
X002541Y009082D01*
X002609Y009161D02*
X003571Y009161D01*
X003522Y009239D02*
X002658Y009239D01*
X002693Y009318D02*
X003487Y009318D01*
X003463Y009396D02*
X002717Y009396D01*
X002729Y009475D02*
X003451Y009475D01*
X003454Y009632D02*
X002726Y009632D01*
X002710Y009710D02*
X003470Y009710D01*
X003498Y009789D02*
X002682Y009789D01*
X002643Y009867D02*
X003537Y009867D01*
X003606Y009965D02*
X003665Y010024D01*
X003779Y010103D02*
X003249Y010103D01*
X003182Y010075D02*
X003353Y010146D01*
X003484Y010277D01*
X003555Y010448D01*
X003555Y010632D01*
X003484Y010803D01*
X003353Y010934D01*
X003182Y011005D01*
X002998Y011005D01*
X002827Y010934D01*
X002696Y010803D01*
X002625Y010632D01*
X002625Y010448D01*
X002696Y010277D01*
X002827Y010146D01*
X002998Y010075D01*
X003182Y010075D01*
X003389Y010181D02*
X004037Y010181D01*
X004050Y010181D02*
X004130Y010181D01*
X004143Y010181D02*
X007992Y010181D01*
X007996Y010260D02*
X003467Y010260D01*
X003510Y010338D02*
X008028Y010338D01*
X008094Y010417D02*
X003542Y010417D01*
X003555Y010495D02*
X012590Y010495D01*
X012590Y010417D02*
X009186Y010417D01*
X009252Y010338D02*
X012590Y010338D01*
X012590Y010260D02*
X009284Y010260D01*
X009288Y010181D02*
X012590Y010181D01*
X012590Y010103D02*
X009277Y010103D01*
X009244Y010024D02*
X012590Y010024D01*
X012590Y009946D02*
X009168Y009946D01*
X008990Y010190D02*
X008290Y010190D01*
X008486Y010417D02*
X008794Y010417D01*
X008966Y010620D02*
X009314Y010620D01*
X009560Y010866D01*
X009560Y011214D01*
X009314Y011460D01*
X008966Y011460D01*
X008720Y011214D01*
X008720Y010866D01*
X008966Y010620D01*
X008934Y010652D02*
X003547Y010652D01*
X003555Y010574D02*
X012590Y010574D01*
X012590Y010652D02*
X009346Y010652D01*
X009425Y010731D02*
X012590Y010731D01*
X012590Y010809D02*
X009503Y010809D01*
X009560Y010888D02*
X012590Y010888D01*
X012590Y010966D02*
X009560Y010966D01*
X009560Y011045D02*
X012590Y011045D01*
X012590Y011123D02*
X009560Y011123D01*
X009560Y011202D02*
X012590Y011202D01*
X012590Y011280D02*
X009494Y011280D01*
X009415Y011359D02*
X012590Y011359D01*
X012590Y011437D02*
X009337Y011437D01*
X008943Y011437D02*
X004724Y011437D01*
X004722Y011414D02*
X004732Y011498D01*
X004732Y011500D01*
X004130Y011500D01*
X004130Y011580D01*
X004732Y011580D01*
X004732Y011582D01*
X004722Y011666D01*
X004700Y011747D01*
X004667Y011825D01*
X004625Y011898D01*
X004574Y011965D01*
X004515Y012024D01*
X004448Y012075D01*
X004375Y012117D01*
X004297Y012150D01*
X004216Y012172D01*
X004132Y012182D01*
X004130Y012182D01*
X004130Y011580D01*
X004050Y011580D01*
X004050Y012182D01*
X004048Y012182D01*
X003964Y012172D01*
X003883Y012150D01*
X003805Y012117D01*
X003732Y012075D01*
X003665Y012024D01*
X003606Y011965D01*
X003555Y011898D01*
X003513Y011825D01*
X003480Y011747D01*
X003458Y011666D01*
X003448Y011582D01*
X003448Y011580D01*
X004050Y011580D01*
X004050Y011500D01*
X004130Y011500D01*
X004130Y010898D01*
X004132Y010898D01*
X004216Y010908D01*
X004297Y010930D01*
X004375Y010963D01*
X004448Y011005D01*
X004515Y011056D01*
X004574Y011115D01*
X004625Y011182D01*
X004667Y011255D01*
X004700Y011333D01*
X004722Y011414D01*
X004707Y011359D02*
X008865Y011359D01*
X008786Y011280D02*
X004678Y011280D01*
X004636Y011202D02*
X008720Y011202D01*
X008720Y011123D02*
X004580Y011123D01*
X004500Y011045D02*
X008720Y011045D01*
X008720Y010966D02*
X004381Y010966D01*
X004130Y010966D02*
X004050Y010966D01*
X004050Y010898D02*
X004050Y011500D01*
X003448Y011500D01*
X003448Y011498D01*
X003458Y011414D01*
X003480Y011333D01*
X003513Y011255D01*
X003555Y011182D01*
X003606Y011115D01*
X003665Y011056D01*
X003732Y011005D01*
X003805Y010963D01*
X003883Y010930D01*
X003964Y010908D01*
X004048Y010898D01*
X004050Y010898D01*
X004050Y011045D02*
X004130Y011045D01*
X004130Y011123D02*
X004050Y011123D01*
X004050Y011202D02*
X004130Y011202D01*
X004130Y011280D02*
X004050Y011280D01*
X004050Y011359D02*
X004130Y011359D01*
X004130Y011437D02*
X004050Y011437D01*
X004050Y011516D02*
X002130Y011516D01*
X002130Y011500D02*
X002130Y011580D01*
X002732Y011580D01*
X002732Y011582D01*
X002722Y011666D01*
X002700Y011747D01*
X002667Y011825D01*
X002625Y011898D01*
X002574Y011965D01*
X002515Y012024D01*
X002448Y012075D01*
X002375Y012117D01*
X002297Y012150D01*
X002216Y012172D01*
X002132Y012182D01*
X002130Y012182D01*
X002130Y011580D01*
X002050Y011580D01*
X002050Y012182D01*
X002048Y012182D01*
X001964Y012172D01*
X001883Y012150D01*
X001805Y012117D01*
X001732Y012075D01*
X001665Y012024D01*
X001606Y011965D01*
X001555Y011898D01*
X001513Y011825D01*
X001480Y011747D01*
X001458Y011666D01*
X001448Y011582D01*
X001448Y011580D01*
X002050Y011580D01*
X002050Y011500D01*
X002130Y011500D01*
X002732Y011500D01*
X002732Y011498D01*
X002722Y011414D01*
X002700Y011333D01*
X002667Y011255D01*
X002625Y011182D01*
X002574Y011115D01*
X002515Y011056D01*
X002448Y011005D01*
X002375Y010963D01*
X002297Y010930D01*
X002216Y010908D01*
X002132Y010898D01*
X002130Y010898D01*
X002130Y011500D01*
X002130Y011437D02*
X002050Y011437D01*
X002050Y011500D02*
X002050Y010898D01*
X002048Y010898D01*
X001964Y010908D01*
X001883Y010930D01*
X001805Y010963D01*
X001732Y011005D01*
X001665Y011056D01*
X001606Y011115D01*
X001555Y011182D01*
X001513Y011255D01*
X001480Y011333D01*
X001458Y011414D01*
X001448Y011498D01*
X001448Y011500D01*
X002050Y011500D01*
X002050Y011516D02*
X001030Y011516D01*
X001030Y011594D02*
X001449Y011594D01*
X001460Y011673D02*
X001030Y011673D01*
X001030Y011751D02*
X001482Y011751D01*
X001515Y011830D02*
X001030Y011830D01*
X001030Y011908D02*
X001563Y011908D01*
X001628Y011987D02*
X001030Y011987D01*
X001030Y012065D02*
X001719Y012065D01*
X001868Y012144D02*
X001030Y012144D01*
X001030Y012222D02*
X005264Y012222D01*
X005266Y012220D02*
X005614Y012220D01*
X005860Y012466D01*
X005860Y012814D01*
X005614Y013060D01*
X005266Y013060D01*
X005020Y012814D01*
X005020Y012466D01*
X005266Y012220D01*
X005185Y012301D02*
X001030Y012301D01*
X001030Y012379D02*
X005107Y012379D01*
X005028Y012458D02*
X004363Y012458D01*
X004375Y012463D02*
X004448Y012505D01*
X004515Y012556D01*
X004574Y012615D01*
X004625Y012682D01*
X004667Y012755D01*
X004700Y012833D01*
X004722Y012914D01*
X004732Y012998D01*
X004732Y013000D01*
X004130Y013000D01*
X004130Y013080D01*
X004732Y013080D01*
X004732Y013082D01*
X004722Y013166D01*
X004700Y013247D01*
X004667Y013325D01*
X004625Y013398D01*
X004574Y013465D01*
X004515Y013524D01*
X004448Y013575D01*
X004375Y013617D01*
X004297Y013650D01*
X004216Y013672D01*
X004132Y013682D01*
X004130Y013682D01*
X004130Y013080D01*
X004050Y013080D01*
X004050Y013682D01*
X004048Y013682D01*
X003964Y013672D01*
X003883Y013650D01*
X003805Y013617D01*
X003732Y013575D01*
X003665Y013524D01*
X003606Y013465D01*
X003555Y013398D01*
X003513Y013325D01*
X003480Y013247D01*
X003458Y013166D01*
X003448Y013082D01*
X003448Y013080D01*
X004050Y013080D01*
X004050Y013000D01*
X004130Y013000D01*
X004130Y012398D01*
X004132Y012398D01*
X004216Y012408D01*
X004297Y012430D01*
X004375Y012463D01*
X004489Y012536D02*
X005020Y012536D01*
X005020Y012615D02*
X004573Y012615D01*
X004632Y012693D02*
X005020Y012693D01*
X005020Y012772D02*
X004674Y012772D01*
X004704Y012850D02*
X005056Y012850D01*
X005135Y012929D02*
X004723Y012929D01*
X004732Y013086D02*
X012590Y013086D01*
X012590Y013164D02*
X004722Y013164D01*
X004701Y013243D02*
X012590Y013243D01*
X012590Y013321D02*
X004669Y013321D01*
X004624Y013400D02*
X008211Y013400D01*
X008231Y013392D02*
X008121Y013437D01*
X008037Y013521D01*
X007992Y013631D01*
X007992Y013749D01*
X008037Y013859D01*
X008121Y013943D01*
X008231Y013988D01*
X008349Y013988D01*
X008459Y013943D01*
X008543Y013859D01*
X008547Y013850D01*
X008733Y013850D01*
X008737Y013859D01*
X008821Y013943D01*
X008931Y013988D01*
X009049Y013988D01*
X009159Y013943D01*
X009243Y013859D01*
X009288Y013749D01*
X009288Y013631D01*
X009243Y013521D01*
X009159Y013437D01*
X009049Y013392D01*
X008931Y013392D01*
X008821Y013437D01*
X008737Y013521D01*
X008733Y013530D01*
X008547Y013530D01*
X008543Y013521D01*
X008459Y013437D01*
X008349Y013392D01*
X008231Y013392D01*
X008369Y013400D02*
X008911Y013400D01*
X008780Y013478D02*
X008500Y013478D01*
X008290Y013690D02*
X008990Y013690D01*
X009200Y013478D02*
X012590Y013478D01*
X012590Y013400D02*
X009069Y013400D01*
X009258Y013557D02*
X012590Y013557D01*
X012590Y013635D02*
X009288Y013635D01*
X009288Y013714D02*
X012590Y013714D01*
X012590Y013792D02*
X009271Y013792D01*
X009231Y013871D02*
X012590Y013871D01*
X012590Y013949D02*
X009144Y013949D01*
X009314Y014120D02*
X008966Y014120D01*
X008720Y014366D01*
X008720Y014714D01*
X008966Y014960D01*
X009314Y014960D01*
X009560Y014714D01*
X009560Y014366D01*
X009314Y014120D01*
X009379Y014185D02*
X012590Y014185D01*
X012590Y014263D02*
X009457Y014263D01*
X009536Y014342D02*
X012590Y014342D01*
X012590Y014420D02*
X009560Y014420D01*
X009560Y014499D02*
X012590Y014499D01*
X012590Y014577D02*
X009560Y014577D01*
X009560Y014656D02*
X012590Y014656D01*
X012590Y014734D02*
X009540Y014734D01*
X009461Y014813D02*
X012590Y014813D01*
X012590Y014891D02*
X009383Y014891D01*
X008897Y014891D02*
X004715Y014891D01*
X004722Y014914D02*
X004732Y014998D01*
X004732Y015000D01*
X004130Y015000D01*
X004130Y015080D01*
X004732Y015080D01*
X004732Y015082D01*
X004722Y015166D01*
X004700Y015247D01*
X004667Y015325D01*
X004625Y015398D01*
X004574Y015465D01*
X004515Y015524D01*
X004448Y015575D01*
X004375Y015617D01*
X004297Y015650D01*
X004216Y015672D01*
X004132Y015682D01*
X004130Y015682D01*
X004130Y015080D01*
X004050Y015080D01*
X004050Y015682D01*
X004048Y015682D01*
X003964Y015672D01*
X003883Y015650D01*
X003805Y015617D01*
X003732Y015575D01*
X003665Y015524D01*
X003606Y015465D01*
X003555Y015398D01*
X003513Y015325D01*
X003480Y015247D01*
X003458Y015166D01*
X003448Y015082D01*
X003448Y015080D01*
X004050Y015080D01*
X004050Y015000D01*
X004130Y015000D01*
X004130Y014398D01*
X004132Y014398D01*
X004216Y014408D01*
X004297Y014430D01*
X004375Y014463D01*
X004448Y014505D01*
X004515Y014556D01*
X004574Y014615D01*
X004625Y014682D01*
X004667Y014755D01*
X004700Y014833D01*
X004722Y014914D01*
X004729Y014970D02*
X012590Y014970D01*
X012590Y015048D02*
X004130Y015048D01*
X004130Y014970D02*
X004050Y014970D01*
X004050Y015000D02*
X004050Y014398D01*
X004048Y014398D01*
X003964Y014408D01*
X003883Y014430D01*
X003805Y014463D01*
X003732Y014505D01*
X003665Y014556D01*
X003606Y014615D01*
X003555Y014682D01*
X003513Y014755D01*
X003480Y014833D01*
X003458Y014914D01*
X003448Y014998D01*
X003448Y015000D01*
X004050Y015000D01*
X004050Y015048D02*
X002130Y015048D01*
X002130Y015080D02*
X002732Y015080D01*
X002732Y015082D01*
X002722Y015166D01*
X002700Y015247D01*
X002667Y015325D01*
X002625Y015398D01*
X002574Y015465D01*
X002515Y015524D01*
X002448Y015575D01*
X002375Y015617D01*
X002297Y015650D01*
X002216Y015672D01*
X002132Y015682D01*
X002130Y015682D01*
X002130Y015080D01*
X002130Y015000D01*
X002732Y015000D01*
X002732Y014998D01*
X002722Y014914D01*
X002700Y014833D01*
X002667Y014755D01*
X002625Y014682D01*
X002574Y014615D01*
X002515Y014556D01*
X002448Y014505D01*
X002375Y014463D01*
X002297Y014430D01*
X002216Y014408D01*
X002132Y014398D01*
X002130Y014398D01*
X002130Y015000D01*
X002050Y015000D01*
X002050Y014398D01*
X002048Y014398D01*
X001964Y014408D01*
X001883Y014430D01*
X001805Y014463D01*
X001732Y014505D01*
X001665Y014556D01*
X001606Y014615D01*
X001555Y014682D01*
X001513Y014755D01*
X001480Y014833D01*
X001458Y014914D01*
X001448Y014998D01*
X001448Y015000D01*
X002050Y015000D01*
X002050Y015080D01*
X002050Y015682D01*
X002048Y015682D01*
X001964Y015672D01*
X001883Y015650D01*
X001805Y015617D01*
X001732Y015575D01*
X001665Y015524D01*
X001606Y015465D01*
X001555Y015398D01*
X001513Y015325D01*
X001480Y015247D01*
X001458Y015166D01*
X001448Y015082D01*
X001448Y015080D01*
X002050Y015080D01*
X002130Y015080D01*
X002130Y015127D02*
X002050Y015127D01*
X002050Y015205D02*
X002130Y015205D01*
X002130Y015284D02*
X002050Y015284D01*
X002050Y015362D02*
X002130Y015362D01*
X002130Y015441D02*
X002050Y015441D01*
X002050Y015519D02*
X002130Y015519D01*
X002130Y015598D02*
X002050Y015598D01*
X002050Y015676D02*
X002130Y015676D01*
X002181Y015676D02*
X003999Y015676D01*
X004050Y015676D02*
X004130Y015676D01*
X004181Y015676D02*
X012590Y015676D01*
X012590Y015598D02*
X004409Y015598D01*
X004520Y015519D02*
X012590Y015519D01*
X012590Y015441D02*
X004593Y015441D01*
X004646Y015362D02*
X012590Y015362D01*
X012590Y015284D02*
X004685Y015284D01*
X004711Y015205D02*
X012590Y015205D01*
X012590Y015127D02*
X004727Y015127D01*
X004691Y014813D02*
X008819Y014813D01*
X008740Y014734D02*
X004655Y014734D01*
X004605Y014656D02*
X008720Y014656D01*
X008720Y014577D02*
X004536Y014577D01*
X004437Y014499D02*
X008720Y014499D01*
X008720Y014420D02*
X004259Y014420D01*
X004130Y014420D02*
X004050Y014420D01*
X004050Y014499D02*
X004130Y014499D01*
X004130Y014577D02*
X004050Y014577D01*
X004050Y014656D02*
X004130Y014656D01*
X004130Y014734D02*
X004050Y014734D01*
X004050Y014813D02*
X004130Y014813D01*
X004130Y014891D02*
X004050Y014891D01*
X004050Y015127D02*
X004130Y015127D01*
X004130Y015205D02*
X004050Y015205D01*
X004050Y015284D02*
X004130Y015284D01*
X004130Y015362D02*
X004050Y015362D01*
X004050Y015441D02*
X004130Y015441D01*
X004130Y015519D02*
X004050Y015519D01*
X004050Y015598D02*
X004130Y015598D01*
X004130Y015898D02*
X004132Y015898D01*
X004216Y015908D01*
X004297Y015930D01*
X004375Y015963D01*
X004448Y016005D01*
X004515Y016056D01*
X004574Y016115D01*
X004625Y016182D01*
X004667Y016255D01*
X004700Y016333D01*
X004722Y016414D01*
X004732Y016498D01*
X004732Y016500D01*
X004130Y016500D01*
X004130Y016580D01*
X004732Y016580D01*
X004732Y016582D01*
X004722Y016666D01*
X004700Y016747D01*
X004667Y016825D01*
X004625Y016898D01*
X004574Y016965D01*
X004515Y017024D01*
X004448Y017075D01*
X004375Y017117D01*
X004297Y017150D01*
X004216Y017172D01*
X004132Y017182D01*
X004130Y017182D01*
X004130Y016580D01*
X004050Y016580D01*
X004050Y017182D01*
X004048Y017182D01*
X003964Y017172D01*
X003883Y017150D01*
X003805Y017117D01*
X003732Y017075D01*
X003665Y017024D01*
X003606Y016965D01*
X003555Y016898D01*
X003513Y016825D01*
X003480Y016747D01*
X003458Y016666D01*
X003448Y016582D01*
X003448Y016580D01*
X004050Y016580D01*
X004050Y016500D01*
X004130Y016500D01*
X004130Y015898D01*
X004130Y015912D02*
X004050Y015912D01*
X004050Y015898D02*
X004050Y016500D01*
X003448Y016500D01*
X003448Y016498D01*
X003458Y016414D01*
X003480Y016333D01*
X003513Y016255D01*
X003555Y016182D01*
X003606Y016115D01*
X003665Y016056D01*
X003732Y016005D01*
X003805Y015963D01*
X003883Y015930D01*
X003964Y015908D01*
X004048Y015898D01*
X004050Y015898D01*
X004050Y015990D02*
X004130Y015990D01*
X004130Y016069D02*
X004050Y016069D01*
X004050Y016147D02*
X004130Y016147D01*
X004130Y016226D02*
X004050Y016226D01*
X004050Y016304D02*
X004130Y016304D01*
X004130Y016383D02*
X004050Y016383D01*
X004050Y016461D02*
X004130Y016461D01*
X004130Y016540D02*
X005246Y016540D01*
X005266Y016560D02*
X005020Y016314D01*
X005020Y015966D01*
X005266Y015720D01*
X005614Y015720D01*
X005860Y015966D01*
X005860Y016314D01*
X005614Y016560D01*
X005266Y016560D01*
X005167Y016461D02*
X004728Y016461D01*
X004713Y016383D02*
X005089Y016383D01*
X005020Y016304D02*
X004688Y016304D01*
X004650Y016226D02*
X005020Y016226D01*
X005020Y016147D02*
X004598Y016147D01*
X004527Y016069D02*
X005020Y016069D01*
X005020Y015990D02*
X004422Y015990D01*
X004227Y015912D02*
X005074Y015912D01*
X005153Y015833D02*
X001030Y015833D01*
X001030Y015755D02*
X005231Y015755D01*
X005649Y015755D02*
X012590Y015755D01*
X012590Y015833D02*
X005727Y015833D01*
X005806Y015912D02*
X012590Y015912D01*
X012590Y015990D02*
X005860Y015990D01*
X005860Y016069D02*
X012590Y016069D01*
X012590Y016147D02*
X005860Y016147D01*
X005860Y016226D02*
X012590Y016226D01*
X012590Y016304D02*
X005860Y016304D01*
X005791Y016383D02*
X012590Y016383D01*
X012590Y016461D02*
X005713Y016461D01*
X005634Y016540D02*
X012590Y016540D01*
X012590Y016618D02*
X004728Y016618D01*
X004713Y016697D02*
X012590Y016697D01*
X012590Y016775D02*
X004688Y016775D01*
X004651Y016854D02*
X012590Y016854D01*
X012590Y016932D02*
X009147Y016932D01*
X009159Y016937D02*
X009243Y017021D01*
X009288Y017131D01*
X009288Y017249D01*
X009243Y017359D01*
X009159Y017443D01*
X009049Y017488D01*
X008931Y017488D01*
X008821Y017443D01*
X008737Y017359D01*
X008733Y017350D01*
X008547Y017350D01*
X008543Y017359D01*
X008459Y017443D01*
X008349Y017488D01*
X008231Y017488D01*
X008121Y017443D01*
X008037Y017359D01*
X007992Y017249D01*
X007992Y017131D01*
X008037Y017021D01*
X008121Y016937D01*
X008231Y016892D01*
X008349Y016892D01*
X008459Y016937D01*
X008543Y017021D01*
X008547Y017030D01*
X008733Y017030D01*
X008737Y017021D01*
X008821Y016937D01*
X008931Y016892D01*
X009049Y016892D01*
X009159Y016937D01*
X009233Y017011D02*
X012590Y017011D01*
X012590Y017089D02*
X009271Y017089D01*
X009288Y017168D02*
X012590Y017168D01*
X012590Y017246D02*
X009288Y017246D01*
X009257Y017325D02*
X012590Y017325D01*
X012590Y017403D02*
X009199Y017403D01*
X009066Y017482D02*
X012590Y017482D01*
X012590Y017560D02*
X003555Y017560D01*
X003555Y017632D02*
X003484Y017803D01*
X003353Y017934D01*
X003182Y018005D01*
X002998Y018005D01*
X002827Y017934D01*
X002696Y017803D01*
X002625Y017632D01*
X002625Y017448D01*
X002696Y017277D01*
X002827Y017146D01*
X002998Y017075D01*
X003182Y017075D01*
X003353Y017146D01*
X003484Y017277D01*
X003555Y017448D01*
X003555Y017632D01*
X003552Y017639D02*
X008947Y017639D01*
X008966Y017620D02*
X009314Y017620D01*
X009560Y017866D01*
X009560Y018214D01*
X009314Y018460D01*
X008966Y018460D01*
X008720Y018214D01*
X008720Y017866D01*
X008966Y017620D01*
X008869Y017717D02*
X003520Y017717D01*
X003487Y017796D02*
X008790Y017796D01*
X008720Y017874D02*
X003414Y017874D01*
X003309Y017953D02*
X003829Y017953D01*
X003805Y017963D02*
X003883Y017930D01*
X003964Y017908D01*
X004048Y017898D01*
X004050Y017898D01*
X004050Y018500D01*
X004130Y018500D01*
X004130Y018580D01*
X004732Y018580D01*
X004732Y018582D01*
X004722Y018666D01*
X004700Y018747D01*
X004667Y018825D01*
X004625Y018898D01*
X004574Y018965D01*
X004515Y019024D01*
X004448Y019075D01*
X004375Y019117D01*
X004297Y019150D01*
X004216Y019172D01*
X004132Y019182D01*
X004130Y019182D01*
X004130Y018580D01*
X004050Y018580D01*
X004050Y019182D01*
X004048Y019182D01*
X003964Y019172D01*
X003883Y019150D01*
X003805Y019117D01*
X003732Y019075D01*
X003665Y019024D01*
X003606Y018965D01*
X003555Y018898D01*
X003513Y018825D01*
X003480Y018747D01*
X003458Y018666D01*
X003448Y018582D01*
X003448Y018580D01*
X004050Y018580D01*
X004050Y018500D01*
X003448Y018500D01*
X003448Y018498D01*
X003458Y018414D01*
X003480Y018333D01*
X003513Y018255D01*
X003555Y018182D01*
X003606Y018115D01*
X003665Y018056D01*
X003732Y018005D01*
X003805Y017963D01*
X003698Y018031D02*
X002482Y018031D01*
X002515Y018056D02*
X002448Y018005D01*
X002375Y017963D01*
X002297Y017930D01*
X002216Y017908D01*
X002132Y017898D01*
X002130Y017898D01*
X002130Y018500D01*
X002130Y018580D01*
X002732Y018580D01*
X002732Y018582D01*
X002722Y018666D01*
X002700Y018747D01*
X002667Y018825D01*
X002625Y018898D01*
X002574Y018965D01*
X002515Y019024D01*
X002448Y019075D01*
X002375Y019117D01*
X002297Y019150D01*
X002216Y019172D01*
X002132Y019182D01*
X002130Y019182D01*
X002130Y018580D01*
X002050Y018580D01*
X002050Y019182D01*
X002048Y019182D01*
X001964Y019172D01*
X001883Y019150D01*
X001805Y019117D01*
X001732Y019075D01*
X001665Y019024D01*
X001606Y018965D01*
X001555Y018898D01*
X001513Y018825D01*
X001480Y018747D01*
X001458Y018666D01*
X001448Y018582D01*
X001448Y018580D01*
X002050Y018580D01*
X002050Y018500D01*
X002130Y018500D01*
X002732Y018500D01*
X002732Y018498D01*
X002722Y018414D01*
X002700Y018333D01*
X002667Y018255D01*
X002625Y018182D01*
X002574Y018115D01*
X002515Y018056D01*
X002568Y018110D02*
X003612Y018110D01*
X003551Y018188D02*
X002629Y018188D01*
X002672Y018267D02*
X003508Y018267D01*
X003477Y018345D02*
X002703Y018345D01*
X002723Y018424D02*
X003457Y018424D01*
X003448Y018581D02*
X002732Y018581D01*
X002722Y018659D02*
X003458Y018659D01*
X003478Y018738D02*
X002702Y018738D01*
X002671Y018816D02*
X003509Y018816D01*
X003553Y018895D02*
X002627Y018895D01*
X002566Y018973D02*
X003614Y018973D01*
X003701Y019052D02*
X002479Y019052D01*
X002344Y019130D02*
X003836Y019130D01*
X004050Y019130D02*
X004130Y019130D01*
X004130Y019052D02*
X004050Y019052D01*
X004050Y018973D02*
X004130Y018973D01*
X004130Y018895D02*
X004050Y018895D01*
X004050Y018816D02*
X004130Y018816D01*
X004130Y018738D02*
X004050Y018738D01*
X004050Y018659D02*
X004130Y018659D01*
X004130Y018581D02*
X004050Y018581D01*
X004050Y018502D02*
X002130Y018502D01*
X002130Y018424D02*
X002050Y018424D01*
X002050Y018500D02*
X002050Y017898D01*
X002048Y017898D01*
X001964Y017908D01*
X001883Y017930D01*
X001805Y017963D01*
X001732Y018005D01*
X001665Y018056D01*
X001606Y018115D01*
X001555Y018182D01*
X001513Y018255D01*
X001480Y018333D01*
X001458Y018414D01*
X001448Y018498D01*
X001448Y018500D01*
X002050Y018500D01*
X002050Y018502D02*
X001030Y018502D01*
X001030Y018424D02*
X001457Y018424D01*
X001477Y018345D02*
X001030Y018345D01*
X001030Y018267D02*
X001508Y018267D01*
X001551Y018188D02*
X001030Y018188D01*
X001030Y018110D02*
X001612Y018110D01*
X001698Y018031D02*
X001030Y018031D01*
X001030Y017953D02*
X001829Y017953D01*
X002050Y017953D02*
X002130Y017953D01*
X002130Y018031D02*
X002050Y018031D01*
X002050Y018110D02*
X002130Y018110D01*
X002130Y018188D02*
X002050Y018188D01*
X002050Y018267D02*
X002130Y018267D01*
X002130Y018345D02*
X002050Y018345D01*
X002050Y018581D02*
X002130Y018581D01*
X002130Y018659D02*
X002050Y018659D01*
X002050Y018738D02*
X002130Y018738D01*
X002130Y018816D02*
X002050Y018816D01*
X002050Y018895D02*
X002130Y018895D01*
X002130Y018973D02*
X002050Y018973D01*
X002050Y019052D02*
X002130Y019052D01*
X002130Y019130D02*
X002050Y019130D01*
X001836Y019130D02*
X001030Y019130D01*
X001030Y019052D02*
X001701Y019052D01*
X001614Y018973D02*
X001030Y018973D01*
X001030Y018895D02*
X001553Y018895D01*
X001509Y018816D02*
X001030Y018816D01*
X001030Y018738D02*
X001478Y018738D01*
X001458Y018659D02*
X001030Y018659D01*
X001030Y018581D02*
X001448Y018581D01*
X001030Y019209D02*
X012590Y019209D01*
X012590Y019287D02*
X001030Y019287D01*
X001030Y019366D02*
X012590Y019366D01*
X012590Y019444D02*
X001030Y019444D01*
X001030Y019523D02*
X012590Y019523D01*
X012590Y019601D02*
X001030Y019601D01*
X001030Y019994D02*
X001650Y019994D01*
X001650Y020072D02*
X001030Y020072D01*
X001030Y020151D02*
X002050Y020151D01*
X002050Y020229D02*
X002130Y020229D01*
X002130Y020151D02*
X022150Y020151D01*
X022150Y020229D02*
X002530Y020229D01*
X002530Y020308D02*
X022150Y020308D01*
X022150Y020386D02*
X002466Y020386D01*
X002388Y020465D02*
X022150Y020465D01*
X022150Y020543D02*
X002309Y020543D01*
X002130Y020543D02*
X002050Y020543D01*
X002050Y020465D02*
X002130Y020465D01*
X002130Y020386D02*
X002050Y020386D01*
X002050Y020308D02*
X002130Y020308D01*
X001871Y020543D02*
X001030Y020543D01*
X001030Y020465D02*
X001792Y020465D01*
X001714Y020386D02*
X001030Y020386D01*
X001030Y020308D02*
X001650Y020308D01*
X001650Y020229D02*
X001030Y020229D01*
X001030Y020622D02*
X022150Y020622D01*
X022150Y020700D02*
X001030Y020700D01*
X001030Y020779D02*
X022150Y020779D01*
X022150Y020857D02*
X001030Y020857D01*
X001030Y020936D02*
X022150Y020936D01*
X022150Y021014D02*
X001030Y021014D01*
X001030Y021093D02*
X022150Y021093D01*
X022150Y021171D02*
X001030Y021171D01*
X001030Y021250D02*
X022150Y021250D01*
X022150Y021328D02*
X001030Y021328D01*
X001030Y021407D02*
X022150Y021407D01*
X022150Y021485D02*
X001030Y021485D01*
X001030Y021564D02*
X022150Y021564D01*
X022150Y021642D02*
X001030Y021642D01*
X001030Y021721D02*
X022150Y021721D01*
X022150Y021799D02*
X001030Y021799D01*
X001030Y021878D02*
X001880Y021878D01*
X001908Y021850D02*
X002272Y021850D01*
X002530Y022108D01*
X002530Y022472D01*
X002272Y022730D01*
X001908Y022730D01*
X001650Y022472D01*
X001650Y022108D01*
X001908Y021850D01*
X001802Y021956D02*
X001030Y021956D01*
X001030Y022035D02*
X001723Y022035D01*
X001650Y022113D02*
X001030Y022113D01*
X001030Y022192D02*
X001650Y022192D01*
X001650Y022270D02*
X001030Y022270D01*
X001030Y022349D02*
X001650Y022349D01*
X001650Y022427D02*
X001030Y022427D01*
X001030Y022506D02*
X001683Y022506D01*
X001762Y022584D02*
X001030Y022584D01*
X001030Y022663D02*
X001840Y022663D01*
X001908Y022850D02*
X002050Y022850D01*
X002050Y023250D01*
X002130Y023250D01*
X002130Y023330D01*
X002530Y023330D01*
X002530Y023472D01*
X002272Y023730D01*
X002130Y023730D01*
X002130Y023330D01*
X002050Y023330D01*
X002050Y023730D01*
X001908Y023730D01*
X001650Y023472D01*
X001650Y023330D01*
X002050Y023330D01*
X002050Y023250D01*
X001650Y023250D01*
X001650Y023108D01*
X001908Y022850D01*
X001860Y022898D02*
X001030Y022898D01*
X001030Y022820D02*
X022150Y022820D01*
X022150Y022898D02*
X021320Y022898D01*
X021272Y022850D02*
X021530Y023108D01*
X021530Y023472D01*
X021272Y023730D01*
X020908Y023730D01*
X020650Y023472D01*
X020650Y023108D01*
X020908Y022850D01*
X021272Y022850D01*
X021272Y022730D02*
X020908Y022730D01*
X020650Y022472D01*
X020650Y022108D01*
X020908Y021850D01*
X021272Y021850D01*
X021530Y022108D01*
X021530Y022472D01*
X021272Y022730D01*
X021340Y022663D02*
X022150Y022663D01*
X022150Y022741D02*
X001030Y022741D01*
X001030Y022977D02*
X001781Y022977D01*
X001703Y023055D02*
X001030Y023055D01*
X001030Y023134D02*
X001650Y023134D01*
X001650Y023212D02*
X001030Y023212D01*
X001030Y023291D02*
X002050Y023291D01*
X002050Y023369D02*
X002130Y023369D01*
X002130Y023291D02*
X003050Y023291D01*
X003050Y023330D02*
X003050Y023250D01*
X003130Y023250D01*
X003130Y023330D01*
X003530Y023330D01*
X003530Y023472D01*
X003272Y023730D01*
X003130Y023730D01*
X003130Y023330D01*
X003050Y023330D01*
X003050Y023730D01*
X002908Y023730D01*
X002650Y023472D01*
X002650Y023330D01*
X003050Y023330D01*
X003050Y023369D02*
X003130Y023369D01*
X003130Y023291D02*
X003650Y023291D01*
X003650Y023369D02*
X003530Y023369D01*
X003530Y023448D02*
X003650Y023448D01*
X003650Y023472D02*
X003650Y023108D01*
X003908Y022850D01*
X004272Y022850D01*
X004530Y023108D01*
X004530Y023472D01*
X004272Y023730D01*
X003908Y023730D01*
X003650Y023472D01*
X003704Y023526D02*
X003476Y023526D01*
X003398Y023605D02*
X003782Y023605D01*
X003861Y023683D02*
X003319Y023683D01*
X003130Y023683D02*
X003050Y023683D01*
X003050Y023605D02*
X003130Y023605D01*
X003130Y023526D02*
X003050Y023526D01*
X003050Y023448D02*
X003130Y023448D01*
X003130Y023250D02*
X003530Y023250D01*
X003530Y023108D01*
X003272Y022850D01*
X003130Y022850D01*
X003130Y023250D01*
X003130Y023212D02*
X003050Y023212D01*
X003050Y023250D02*
X003050Y022850D01*
X002908Y022850D01*
X002650Y023108D01*
X002650Y023250D01*
X003050Y023250D01*
X003050Y023134D02*
X003130Y023134D01*
X003130Y023055D02*
X003050Y023055D01*
X003050Y022977D02*
X003130Y022977D01*
X003130Y022898D02*
X003050Y022898D01*
X002860Y022898D02*
X002320Y022898D01*
X002272Y022850D02*
X002530Y023108D01*
X002530Y023250D01*
X002130Y023250D01*
X002130Y022850D01*
X002272Y022850D01*
X002130Y022898D02*
X002050Y022898D01*
X002050Y022977D02*
X002130Y022977D01*
X002130Y023055D02*
X002050Y023055D01*
X002050Y023134D02*
X002130Y023134D01*
X002130Y023212D02*
X002050Y023212D01*
X002050Y023448D02*
X002130Y023448D01*
X002130Y023526D02*
X002050Y023526D01*
X002050Y023605D02*
X002130Y023605D01*
X002130Y023683D02*
X002050Y023683D01*
X001861Y023683D02*
X001030Y023683D01*
X001030Y023605D02*
X001782Y023605D01*
X001704Y023526D02*
X001030Y023526D01*
X001030Y023448D02*
X001650Y023448D01*
X001650Y023369D02*
X001030Y023369D01*
X001030Y023762D02*
X022150Y023762D01*
X022150Y023840D02*
X001030Y023840D01*
X002319Y023683D02*
X002861Y023683D01*
X002782Y023605D02*
X002398Y023605D01*
X002476Y023526D02*
X002704Y023526D01*
X002650Y023448D02*
X002530Y023448D01*
X002530Y023369D02*
X002650Y023369D01*
X002650Y023212D02*
X002530Y023212D01*
X002530Y023134D02*
X002650Y023134D01*
X002703Y023055D02*
X002477Y023055D01*
X002399Y022977D02*
X002781Y022977D01*
X002908Y022730D02*
X002650Y022472D01*
X002650Y022108D01*
X002908Y021850D01*
X003272Y021850D01*
X003530Y022108D01*
X003530Y022472D01*
X003272Y022730D01*
X002908Y022730D01*
X002840Y022663D02*
X002340Y022663D01*
X002418Y022584D02*
X002762Y022584D01*
X002683Y022506D02*
X002497Y022506D01*
X002530Y022427D02*
X002650Y022427D01*
X002650Y022349D02*
X002530Y022349D01*
X002530Y022270D02*
X002650Y022270D01*
X002650Y022192D02*
X002530Y022192D01*
X002530Y022113D02*
X002650Y022113D01*
X002723Y022035D02*
X002457Y022035D01*
X002378Y021956D02*
X002802Y021956D01*
X002880Y021878D02*
X002300Y021878D01*
X003300Y021878D02*
X003880Y021878D01*
X003908Y021850D02*
X003650Y022108D01*
X003650Y022472D01*
X003908Y022730D01*
X004272Y022730D01*
X004530Y022472D01*
X004530Y022108D01*
X004272Y021850D01*
X003908Y021850D01*
X003802Y021956D02*
X003378Y021956D01*
X003457Y022035D02*
X003723Y022035D01*
X003650Y022113D02*
X003530Y022113D01*
X003530Y022192D02*
X003650Y022192D01*
X003650Y022270D02*
X003530Y022270D01*
X003530Y022349D02*
X003650Y022349D01*
X003650Y022427D02*
X003530Y022427D01*
X003497Y022506D02*
X003683Y022506D01*
X003762Y022584D02*
X003418Y022584D01*
X003340Y022663D02*
X003840Y022663D01*
X003860Y022898D02*
X003320Y022898D01*
X003399Y022977D02*
X003781Y022977D01*
X003703Y023055D02*
X003477Y023055D01*
X003530Y023134D02*
X003650Y023134D01*
X003650Y023212D02*
X003530Y023212D01*
X004320Y022898D02*
X004860Y022898D01*
X004908Y022850D02*
X005272Y022850D01*
X005530Y023108D01*
X005530Y023472D01*
X005272Y023730D01*
X004908Y023730D01*
X004650Y023472D01*
X004650Y023108D01*
X004908Y022850D01*
X004908Y022730D02*
X004650Y022472D01*
X004650Y022108D01*
X004908Y021850D01*
X005272Y021850D01*
X005530Y022108D01*
X005530Y022472D01*
X005272Y022730D01*
X004908Y022730D01*
X004840Y022663D02*
X004340Y022663D01*
X004418Y022584D02*
X004762Y022584D01*
X004683Y022506D02*
X004497Y022506D01*
X004530Y022427D02*
X004650Y022427D01*
X004650Y022349D02*
X004530Y022349D01*
X004530Y022270D02*
X004650Y022270D01*
X004650Y022192D02*
X004530Y022192D01*
X004530Y022113D02*
X004650Y022113D01*
X004723Y022035D02*
X004457Y022035D01*
X004378Y021956D02*
X004802Y021956D01*
X004880Y021878D02*
X004300Y021878D01*
X004399Y022977D02*
X004781Y022977D01*
X004703Y023055D02*
X004477Y023055D01*
X004530Y023134D02*
X004650Y023134D01*
X004650Y023212D02*
X004530Y023212D01*
X004530Y023291D02*
X004650Y023291D01*
X004650Y023369D02*
X004530Y023369D01*
X004530Y023448D02*
X004650Y023448D01*
X004704Y023526D02*
X004476Y023526D01*
X004398Y023605D02*
X004782Y023605D01*
X004861Y023683D02*
X004319Y023683D01*
X005319Y023683D02*
X005861Y023683D01*
X005908Y023730D02*
X005650Y023472D01*
X005650Y023108D01*
X005908Y022850D01*
X006272Y022850D01*
X006530Y023108D01*
X006530Y023472D01*
X006272Y023730D01*
X005908Y023730D01*
X005782Y023605D02*
X005398Y023605D01*
X005476Y023526D02*
X005704Y023526D01*
X005650Y023448D02*
X005530Y023448D01*
X005530Y023369D02*
X005650Y023369D01*
X005650Y023291D02*
X005530Y023291D01*
X005530Y023212D02*
X005650Y023212D01*
X005650Y023134D02*
X005530Y023134D01*
X005477Y023055D02*
X005703Y023055D01*
X005781Y022977D02*
X005399Y022977D01*
X005320Y022898D02*
X005860Y022898D01*
X005908Y022730D02*
X005650Y022472D01*
X005650Y022108D01*
X005908Y021850D01*
X006272Y021850D01*
X006530Y022108D01*
X006530Y022472D01*
X006272Y022730D01*
X005908Y022730D01*
X005840Y022663D02*
X005340Y022663D01*
X005418Y022584D02*
X005762Y022584D01*
X005683Y022506D02*
X005497Y022506D01*
X005530Y022427D02*
X005650Y022427D01*
X005650Y022349D02*
X005530Y022349D01*
X005530Y022270D02*
X005650Y022270D01*
X005650Y022192D02*
X005530Y022192D01*
X005530Y022113D02*
X005650Y022113D01*
X005723Y022035D02*
X005457Y022035D01*
X005378Y021956D02*
X005802Y021956D01*
X005880Y021878D02*
X005300Y021878D01*
X006300Y021878D02*
X006880Y021878D01*
X006908Y021850D02*
X007272Y021850D01*
X007530Y022108D01*
X007530Y022472D01*
X007272Y022730D01*
X006908Y022730D01*
X006650Y022472D01*
X006650Y022108D01*
X006908Y021850D01*
X006802Y021956D02*
X006378Y021956D01*
X006457Y022035D02*
X006723Y022035D01*
X006650Y022113D02*
X006530Y022113D01*
X006530Y022192D02*
X006650Y022192D01*
X006650Y022270D02*
X006530Y022270D01*
X006530Y022349D02*
X006650Y022349D01*
X006650Y022427D02*
X006530Y022427D01*
X006497Y022506D02*
X006683Y022506D01*
X006762Y022584D02*
X006418Y022584D01*
X006340Y022663D02*
X006840Y022663D01*
X006908Y022850D02*
X007272Y022850D01*
X007530Y023108D01*
X007530Y023472D01*
X007272Y023730D01*
X006908Y023730D01*
X006650Y023472D01*
X006650Y023108D01*
X006908Y022850D01*
X006860Y022898D02*
X006320Y022898D01*
X006399Y022977D02*
X006781Y022977D01*
X006703Y023055D02*
X006477Y023055D01*
X006530Y023134D02*
X006650Y023134D01*
X006650Y023212D02*
X006530Y023212D01*
X006530Y023291D02*
X006650Y023291D01*
X006650Y023369D02*
X006530Y023369D01*
X006530Y023448D02*
X006650Y023448D01*
X006704Y023526D02*
X006476Y023526D01*
X006398Y023605D02*
X006782Y023605D01*
X006861Y023683D02*
X006319Y023683D01*
X007319Y023683D02*
X007861Y023683D01*
X007908Y023730D02*
X007650Y023472D01*
X007650Y023108D01*
X007908Y022850D01*
X008272Y022850D01*
X008530Y023108D01*
X008530Y023472D01*
X008272Y023730D01*
X007908Y023730D01*
X007782Y023605D02*
X007398Y023605D01*
X007476Y023526D02*
X007704Y023526D01*
X007650Y023448D02*
X007530Y023448D01*
X007530Y023369D02*
X007650Y023369D01*
X007650Y023291D02*
X007530Y023291D01*
X007530Y023212D02*
X007650Y023212D01*
X007650Y023134D02*
X007530Y023134D01*
X007477Y023055D02*
X007703Y023055D01*
X007781Y022977D02*
X007399Y022977D01*
X007320Y022898D02*
X007860Y022898D01*
X007908Y022730D02*
X007650Y022472D01*
X007650Y022108D01*
X007908Y021850D01*
X008272Y021850D01*
X008530Y022108D01*
X008530Y022472D01*
X008272Y022730D01*
X007908Y022730D01*
X007840Y022663D02*
X007340Y022663D01*
X007418Y022584D02*
X007762Y022584D01*
X007683Y022506D02*
X007497Y022506D01*
X007530Y022427D02*
X007650Y022427D01*
X007650Y022349D02*
X007530Y022349D01*
X007530Y022270D02*
X007650Y022270D01*
X007650Y022192D02*
X007530Y022192D01*
X007530Y022113D02*
X007650Y022113D01*
X007723Y022035D02*
X007457Y022035D01*
X007378Y021956D02*
X007802Y021956D01*
X007880Y021878D02*
X007300Y021878D01*
X008300Y021878D02*
X008880Y021878D01*
X008908Y021850D02*
X008650Y022108D01*
X008650Y022472D01*
X008908Y022730D01*
X009272Y022730D01*
X009530Y022472D01*
X009530Y022108D01*
X009272Y021850D01*
X008908Y021850D01*
X008802Y021956D02*
X008378Y021956D01*
X008457Y022035D02*
X008723Y022035D01*
X008650Y022113D02*
X008530Y022113D01*
X008530Y022192D02*
X008650Y022192D01*
X008650Y022270D02*
X008530Y022270D01*
X008530Y022349D02*
X008650Y022349D01*
X008650Y022427D02*
X008530Y022427D01*
X008497Y022506D02*
X008683Y022506D01*
X008762Y022584D02*
X008418Y022584D01*
X008340Y022663D02*
X008840Y022663D01*
X008908Y022850D02*
X009272Y022850D01*
X009530Y023108D01*
X009530Y023472D01*
X009272Y023730D01*
X008908Y023730D01*
X008650Y023472D01*
X008650Y023108D01*
X008908Y022850D01*
X008860Y022898D02*
X008320Y022898D01*
X008399Y022977D02*
X008781Y022977D01*
X008703Y023055D02*
X008477Y023055D01*
X008530Y023134D02*
X008650Y023134D01*
X008650Y023212D02*
X008530Y023212D01*
X008530Y023291D02*
X008650Y023291D01*
X008650Y023369D02*
X008530Y023369D01*
X008530Y023448D02*
X008650Y023448D01*
X008704Y023526D02*
X008476Y023526D01*
X008398Y023605D02*
X008782Y023605D01*
X008861Y023683D02*
X008319Y023683D01*
X009319Y023683D02*
X009861Y023683D01*
X009908Y023730D02*
X009650Y023472D01*
X009650Y023108D01*
X009908Y022850D01*
X010272Y022850D01*
X010530Y023108D01*
X010530Y023472D01*
X010272Y023730D01*
X009908Y023730D01*
X009782Y023605D02*
X009398Y023605D01*
X009476Y023526D02*
X009704Y023526D01*
X009650Y023448D02*
X009530Y023448D01*
X009530Y023369D02*
X009650Y023369D01*
X009650Y023291D02*
X009530Y023291D01*
X009530Y023212D02*
X009650Y023212D01*
X009650Y023134D02*
X009530Y023134D01*
X009477Y023055D02*
X009703Y023055D01*
X009781Y022977D02*
X009399Y022977D01*
X009320Y022898D02*
X009860Y022898D01*
X009908Y022730D02*
X009650Y022472D01*
X009650Y022108D01*
X009908Y021850D01*
X010272Y021850D01*
X010530Y022108D01*
X010530Y022472D01*
X010272Y022730D01*
X009908Y022730D01*
X009840Y022663D02*
X009340Y022663D01*
X009418Y022584D02*
X009762Y022584D01*
X009683Y022506D02*
X009497Y022506D01*
X009530Y022427D02*
X009650Y022427D01*
X009650Y022349D02*
X009530Y022349D01*
X009530Y022270D02*
X009650Y022270D01*
X009650Y022192D02*
X009530Y022192D01*
X009530Y022113D02*
X009650Y022113D01*
X009723Y022035D02*
X009457Y022035D01*
X009378Y021956D02*
X009802Y021956D01*
X009880Y021878D02*
X009300Y021878D01*
X010300Y021878D02*
X010880Y021878D01*
X010908Y021850D02*
X011272Y021850D01*
X011530Y022108D01*
X011530Y022472D01*
X011272Y022730D01*
X010908Y022730D01*
X010650Y022472D01*
X010650Y022108D01*
X010908Y021850D01*
X010802Y021956D02*
X010378Y021956D01*
X010457Y022035D02*
X010723Y022035D01*
X010650Y022113D02*
X010530Y022113D01*
X010530Y022192D02*
X010650Y022192D01*
X010650Y022270D02*
X010530Y022270D01*
X010530Y022349D02*
X010650Y022349D01*
X010650Y022427D02*
X010530Y022427D01*
X010497Y022506D02*
X010683Y022506D01*
X010762Y022584D02*
X010418Y022584D01*
X010340Y022663D02*
X010840Y022663D01*
X010908Y022850D02*
X011272Y022850D01*
X011530Y023108D01*
X011530Y023472D01*
X011272Y023730D01*
X010908Y023730D01*
X010650Y023472D01*
X010650Y023108D01*
X010908Y022850D01*
X010860Y022898D02*
X010320Y022898D01*
X010399Y022977D02*
X010781Y022977D01*
X010703Y023055D02*
X010477Y023055D01*
X010530Y023134D02*
X010650Y023134D01*
X010650Y023212D02*
X010530Y023212D01*
X010530Y023291D02*
X010650Y023291D01*
X010650Y023369D02*
X010530Y023369D01*
X010530Y023448D02*
X010650Y023448D01*
X010704Y023526D02*
X010476Y023526D01*
X010398Y023605D02*
X010782Y023605D01*
X010861Y023683D02*
X010319Y023683D01*
X011319Y023683D02*
X011861Y023683D01*
X011908Y023730D02*
X011650Y023472D01*
X011650Y023108D01*
X011908Y022850D01*
X012272Y022850D01*
X012530Y023108D01*
X012530Y023472D01*
X012272Y023730D01*
X011908Y023730D01*
X011782Y023605D02*
X011398Y023605D01*
X011476Y023526D02*
X011704Y023526D01*
X011650Y023448D02*
X011530Y023448D01*
X011530Y023369D02*
X011650Y023369D01*
X011650Y023291D02*
X011530Y023291D01*
X011530Y023212D02*
X011650Y023212D01*
X011650Y023134D02*
X011530Y023134D01*
X011477Y023055D02*
X011703Y023055D01*
X011781Y022977D02*
X011399Y022977D01*
X011320Y022898D02*
X011860Y022898D01*
X011908Y022730D02*
X011650Y022472D01*
X011650Y022108D01*
X011908Y021850D01*
X012272Y021850D01*
X012530Y022108D01*
X012530Y022472D01*
X012272Y022730D01*
X011908Y022730D01*
X011840Y022663D02*
X011340Y022663D01*
X011418Y022584D02*
X011762Y022584D01*
X011683Y022506D02*
X011497Y022506D01*
X011530Y022427D02*
X011650Y022427D01*
X011650Y022349D02*
X011530Y022349D01*
X011530Y022270D02*
X011650Y022270D01*
X011650Y022192D02*
X011530Y022192D01*
X011530Y022113D02*
X011650Y022113D01*
X011723Y022035D02*
X011457Y022035D01*
X011378Y021956D02*
X011802Y021956D01*
X011880Y021878D02*
X011300Y021878D01*
X012300Y021878D02*
X012880Y021878D01*
X012908Y021850D02*
X013272Y021850D01*
X013530Y022108D01*
X013530Y022472D01*
X013272Y022730D01*
X012908Y022730D01*
X012650Y022472D01*
X012650Y022108D01*
X012908Y021850D01*
X012802Y021956D02*
X012378Y021956D01*
X012457Y022035D02*
X012723Y022035D01*
X012650Y022113D02*
X012530Y022113D01*
X012530Y022192D02*
X012650Y022192D01*
X012650Y022270D02*
X012530Y022270D01*
X012530Y022349D02*
X012650Y022349D01*
X012650Y022427D02*
X012530Y022427D01*
X012497Y022506D02*
X012683Y022506D01*
X012762Y022584D02*
X012418Y022584D01*
X012340Y022663D02*
X012840Y022663D01*
X012908Y022850D02*
X013272Y022850D01*
X013530Y023108D01*
X013530Y023472D01*
X013272Y023730D01*
X012908Y023730D01*
X012650Y023472D01*
X012650Y023108D01*
X012908Y022850D01*
X012860Y022898D02*
X012320Y022898D01*
X012399Y022977D02*
X012781Y022977D01*
X012703Y023055D02*
X012477Y023055D01*
X012530Y023134D02*
X012650Y023134D01*
X012650Y023212D02*
X012530Y023212D01*
X012530Y023291D02*
X012650Y023291D01*
X012650Y023369D02*
X012530Y023369D01*
X012530Y023448D02*
X012650Y023448D01*
X012704Y023526D02*
X012476Y023526D01*
X012398Y023605D02*
X012782Y023605D01*
X012861Y023683D02*
X012319Y023683D01*
X013319Y023683D02*
X013861Y023683D01*
X013908Y023730D02*
X013650Y023472D01*
X013650Y023108D01*
X013908Y022850D01*
X014272Y022850D01*
X014530Y023108D01*
X014530Y023472D01*
X014272Y023730D01*
X013908Y023730D01*
X013782Y023605D02*
X013398Y023605D01*
X013476Y023526D02*
X013704Y023526D01*
X013650Y023448D02*
X013530Y023448D01*
X013530Y023369D02*
X013650Y023369D01*
X013650Y023291D02*
X013530Y023291D01*
X013530Y023212D02*
X013650Y023212D01*
X013650Y023134D02*
X013530Y023134D01*
X013477Y023055D02*
X013703Y023055D01*
X013781Y022977D02*
X013399Y022977D01*
X013320Y022898D02*
X013860Y022898D01*
X013908Y022730D02*
X013650Y022472D01*
X013650Y022108D01*
X013908Y021850D01*
X014272Y021850D01*
X014530Y022108D01*
X014530Y022472D01*
X014272Y022730D01*
X013908Y022730D01*
X013840Y022663D02*
X013340Y022663D01*
X013418Y022584D02*
X013762Y022584D01*
X013683Y022506D02*
X013497Y022506D01*
X013530Y022427D02*
X013650Y022427D01*
X013650Y022349D02*
X013530Y022349D01*
X013530Y022270D02*
X013650Y022270D01*
X013650Y022192D02*
X013530Y022192D01*
X013530Y022113D02*
X013650Y022113D01*
X013723Y022035D02*
X013457Y022035D01*
X013378Y021956D02*
X013802Y021956D01*
X013880Y021878D02*
X013300Y021878D01*
X014300Y021878D02*
X014880Y021878D01*
X014908Y021850D02*
X015272Y021850D01*
X015530Y022108D01*
X015530Y022472D01*
X015272Y022730D01*
X014908Y022730D01*
X014650Y022472D01*
X014650Y022108D01*
X014908Y021850D01*
X014802Y021956D02*
X014378Y021956D01*
X014457Y022035D02*
X014723Y022035D01*
X014650Y022113D02*
X014530Y022113D01*
X014530Y022192D02*
X014650Y022192D01*
X014650Y022270D02*
X014530Y022270D01*
X014530Y022349D02*
X014650Y022349D01*
X014650Y022427D02*
X014530Y022427D01*
X014497Y022506D02*
X014683Y022506D01*
X014762Y022584D02*
X014418Y022584D01*
X014340Y022663D02*
X014840Y022663D01*
X014908Y022850D02*
X015272Y022850D01*
X015530Y023108D01*
X015530Y023472D01*
X015272Y023730D01*
X014908Y023730D01*
X014650Y023472D01*
X014650Y023108D01*
X014908Y022850D01*
X014860Y022898D02*
X014320Y022898D01*
X014399Y022977D02*
X014781Y022977D01*
X014703Y023055D02*
X014477Y023055D01*
X014530Y023134D02*
X014650Y023134D01*
X014650Y023212D02*
X014530Y023212D01*
X014530Y023291D02*
X014650Y023291D01*
X014650Y023369D02*
X014530Y023369D01*
X014530Y023448D02*
X014650Y023448D01*
X014704Y023526D02*
X014476Y023526D01*
X014398Y023605D02*
X014782Y023605D01*
X014861Y023683D02*
X014319Y023683D01*
X015319Y023683D02*
X015861Y023683D01*
X015908Y023730D02*
X015650Y023472D01*
X015650Y023108D01*
X015908Y022850D01*
X016272Y022850D01*
X016530Y023108D01*
X016530Y023472D01*
X016272Y023730D01*
X015908Y023730D01*
X015782Y023605D02*
X015398Y023605D01*
X015476Y023526D02*
X015704Y023526D01*
X015650Y023448D02*
X015530Y023448D01*
X015530Y023369D02*
X015650Y023369D01*
X015650Y023291D02*
X015530Y023291D01*
X015530Y023212D02*
X015650Y023212D01*
X015650Y023134D02*
X015530Y023134D01*
X015477Y023055D02*
X015703Y023055D01*
X015781Y022977D02*
X015399Y022977D01*
X015320Y022898D02*
X015860Y022898D01*
X015908Y022730D02*
X015650Y022472D01*
X015650Y022108D01*
X015908Y021850D01*
X016272Y021850D01*
X016530Y022108D01*
X016530Y022472D01*
X016272Y022730D01*
X015908Y022730D01*
X015840Y022663D02*
X015340Y022663D01*
X015418Y022584D02*
X015762Y022584D01*
X015683Y022506D02*
X015497Y022506D01*
X015530Y022427D02*
X015650Y022427D01*
X015650Y022349D02*
X015530Y022349D01*
X015530Y022270D02*
X015650Y022270D01*
X015650Y022192D02*
X015530Y022192D01*
X015530Y022113D02*
X015650Y022113D01*
X015723Y022035D02*
X015457Y022035D01*
X015378Y021956D02*
X015802Y021956D01*
X015880Y021878D02*
X015300Y021878D01*
X016300Y021878D02*
X016880Y021878D01*
X016908Y021850D02*
X016650Y022108D01*
X016650Y022472D01*
X016908Y022730D01*
X017272Y022730D01*
X017530Y022472D01*
X017530Y022108D01*
X017272Y021850D01*
X016908Y021850D01*
X016802Y021956D02*
X016378Y021956D01*
X016457Y022035D02*
X016723Y022035D01*
X016650Y022113D02*
X016530Y022113D01*
X016530Y022192D02*
X016650Y022192D01*
X016650Y022270D02*
X016530Y022270D01*
X016530Y022349D02*
X016650Y022349D01*
X016650Y022427D02*
X016530Y022427D01*
X016497Y022506D02*
X016683Y022506D01*
X016762Y022584D02*
X016418Y022584D01*
X016340Y022663D02*
X016840Y022663D01*
X016908Y022850D02*
X017272Y022850D01*
X017530Y023108D01*
X017530Y023472D01*
X017272Y023730D01*
X016908Y023730D01*
X016650Y023472D01*
X016650Y023108D01*
X016908Y022850D01*
X016860Y022898D02*
X016320Y022898D01*
X016399Y022977D02*
X016781Y022977D01*
X016703Y023055D02*
X016477Y023055D01*
X016530Y023134D02*
X016650Y023134D01*
X016650Y023212D02*
X016530Y023212D01*
X016530Y023291D02*
X016650Y023291D01*
X016650Y023369D02*
X016530Y023369D01*
X016530Y023448D02*
X016650Y023448D01*
X016704Y023526D02*
X016476Y023526D01*
X016398Y023605D02*
X016782Y023605D01*
X016861Y023683D02*
X016319Y023683D01*
X017319Y023683D02*
X017861Y023683D01*
X017908Y023730D02*
X017650Y023472D01*
X017650Y023108D01*
X017908Y022850D01*
X018272Y022850D01*
X018530Y023108D01*
X018530Y023472D01*
X018272Y023730D01*
X017908Y023730D01*
X017782Y023605D02*
X017398Y023605D01*
X017476Y023526D02*
X017704Y023526D01*
X017650Y023448D02*
X017530Y023448D01*
X017530Y023369D02*
X017650Y023369D01*
X017650Y023291D02*
X017530Y023291D01*
X017530Y023212D02*
X017650Y023212D01*
X017650Y023134D02*
X017530Y023134D01*
X017477Y023055D02*
X017703Y023055D01*
X017781Y022977D02*
X017399Y022977D01*
X017320Y022898D02*
X017860Y022898D01*
X017908Y022730D02*
X017650Y022472D01*
X017650Y022108D01*
X017908Y021850D01*
X018272Y021850D01*
X018530Y022108D01*
X018530Y022472D01*
X018272Y022730D01*
X017908Y022730D01*
X017840Y022663D02*
X017340Y022663D01*
X017418Y022584D02*
X017762Y022584D01*
X017683Y022506D02*
X017497Y022506D01*
X017530Y022427D02*
X017650Y022427D01*
X017650Y022349D02*
X017530Y022349D01*
X017530Y022270D02*
X017650Y022270D01*
X017650Y022192D02*
X017530Y022192D01*
X017530Y022113D02*
X017650Y022113D01*
X017723Y022035D02*
X017457Y022035D01*
X017378Y021956D02*
X017802Y021956D01*
X017880Y021878D02*
X017300Y021878D01*
X018300Y021878D02*
X018880Y021878D01*
X018908Y021850D02*
X019272Y021850D01*
X019530Y022108D01*
X019530Y022472D01*
X019272Y022730D01*
X018908Y022730D01*
X018650Y022472D01*
X018650Y022108D01*
X018908Y021850D01*
X018802Y021956D02*
X018378Y021956D01*
X018457Y022035D02*
X018723Y022035D01*
X018650Y022113D02*
X018530Y022113D01*
X018530Y022192D02*
X018650Y022192D01*
X018650Y022270D02*
X018530Y022270D01*
X018530Y022349D02*
X018650Y022349D01*
X018650Y022427D02*
X018530Y022427D01*
X018497Y022506D02*
X018683Y022506D01*
X018762Y022584D02*
X018418Y022584D01*
X018340Y022663D02*
X018840Y022663D01*
X018908Y022850D02*
X019272Y022850D01*
X019530Y023108D01*
X019530Y023472D01*
X019272Y023730D01*
X018908Y023730D01*
X018650Y023472D01*
X018650Y023108D01*
X018908Y022850D01*
X018860Y022898D02*
X018320Y022898D01*
X018399Y022977D02*
X018781Y022977D01*
X018703Y023055D02*
X018477Y023055D01*
X018530Y023134D02*
X018650Y023134D01*
X018650Y023212D02*
X018530Y023212D01*
X018530Y023291D02*
X018650Y023291D01*
X018650Y023369D02*
X018530Y023369D01*
X018530Y023448D02*
X018650Y023448D01*
X018704Y023526D02*
X018476Y023526D01*
X018398Y023605D02*
X018782Y023605D01*
X018861Y023683D02*
X018319Y023683D01*
X019319Y023683D02*
X019861Y023683D01*
X019908Y023730D02*
X019650Y023472D01*
X019650Y023108D01*
X019908Y022850D01*
X020272Y022850D01*
X020530Y023108D01*
X020530Y023472D01*
X020272Y023730D01*
X019908Y023730D01*
X019782Y023605D02*
X019398Y023605D01*
X019476Y023526D02*
X019704Y023526D01*
X019650Y023448D02*
X019530Y023448D01*
X019530Y023369D02*
X019650Y023369D01*
X019650Y023291D02*
X019530Y023291D01*
X019530Y023212D02*
X019650Y023212D01*
X019650Y023134D02*
X019530Y023134D01*
X019477Y023055D02*
X019703Y023055D01*
X019781Y022977D02*
X019399Y022977D01*
X019320Y022898D02*
X019860Y022898D01*
X019908Y022730D02*
X019650Y022472D01*
X019650Y022108D01*
X019908Y021850D01*
X020272Y021850D01*
X020530Y022108D01*
X020530Y022472D01*
X020272Y022730D01*
X019908Y022730D01*
X019840Y022663D02*
X019340Y022663D01*
X019418Y022584D02*
X019762Y022584D01*
X019683Y022506D02*
X019497Y022506D01*
X019530Y022427D02*
X019650Y022427D01*
X019650Y022349D02*
X019530Y022349D01*
X019530Y022270D02*
X019650Y022270D01*
X019650Y022192D02*
X019530Y022192D01*
X019530Y022113D02*
X019650Y022113D01*
X019723Y022035D02*
X019457Y022035D01*
X019378Y021956D02*
X019802Y021956D01*
X019880Y021878D02*
X019300Y021878D01*
X020300Y021878D02*
X020880Y021878D01*
X020802Y021956D02*
X020378Y021956D01*
X020457Y022035D02*
X020723Y022035D01*
X020650Y022113D02*
X020530Y022113D01*
X020530Y022192D02*
X020650Y022192D01*
X020650Y022270D02*
X020530Y022270D01*
X020530Y022349D02*
X020650Y022349D01*
X020650Y022427D02*
X020530Y022427D01*
X020497Y022506D02*
X020683Y022506D01*
X020762Y022584D02*
X020418Y022584D01*
X020340Y022663D02*
X020840Y022663D01*
X020860Y022898D02*
X020320Y022898D01*
X020399Y022977D02*
X020781Y022977D01*
X020703Y023055D02*
X020477Y023055D01*
X020530Y023134D02*
X020650Y023134D01*
X020650Y023212D02*
X020530Y023212D01*
X020530Y023291D02*
X020650Y023291D01*
X020650Y023369D02*
X020530Y023369D01*
X020530Y023448D02*
X020650Y023448D01*
X020704Y023526D02*
X020476Y023526D01*
X020398Y023605D02*
X020782Y023605D01*
X020861Y023683D02*
X020319Y023683D01*
X021319Y023683D02*
X022150Y023683D01*
X022150Y023605D02*
X021398Y023605D01*
X021476Y023526D02*
X022150Y023526D01*
X022150Y023448D02*
X021530Y023448D01*
X021530Y023369D02*
X022150Y023369D01*
X022150Y023291D02*
X021530Y023291D01*
X021530Y023212D02*
X022150Y023212D01*
X022150Y023134D02*
X021530Y023134D01*
X021477Y023055D02*
X022150Y023055D01*
X022150Y022977D02*
X021399Y022977D01*
X021418Y022584D02*
X022150Y022584D01*
X022150Y022506D02*
X021497Y022506D01*
X021530Y022427D02*
X022150Y022427D01*
X022150Y022349D02*
X021530Y022349D01*
X021530Y022270D02*
X022150Y022270D01*
X022150Y022192D02*
X021530Y022192D01*
X021530Y022113D02*
X022150Y022113D01*
X022150Y022035D02*
X021457Y022035D01*
X021378Y021956D02*
X022150Y021956D01*
X022150Y021878D02*
X021300Y021878D01*
X022150Y020072D02*
X002530Y020072D01*
X002530Y019994D02*
X022150Y019994D01*
X022150Y019915D02*
X012890Y019915D01*
X012890Y019837D02*
X022150Y019837D01*
X022150Y019758D02*
X012890Y019758D01*
X012890Y019680D02*
X022150Y019680D01*
X022150Y019601D02*
X012890Y019601D01*
X012890Y019523D02*
X022150Y019523D01*
X022150Y019444D02*
X012890Y019444D01*
X012890Y019366D02*
X022150Y019366D01*
X022150Y019287D02*
X012890Y019287D01*
X012890Y019209D02*
X022150Y019209D01*
X022150Y019130D02*
X012890Y019130D01*
X012890Y019052D02*
X022150Y019052D01*
X022150Y018973D02*
X012890Y018973D01*
X012890Y018895D02*
X022150Y018895D01*
X022150Y018816D02*
X012890Y018816D01*
X012890Y018738D02*
X022150Y018738D01*
X022150Y018659D02*
X012890Y018659D01*
X012890Y018581D02*
X022150Y018581D01*
X022150Y018502D02*
X012890Y018502D01*
X012890Y018424D02*
X022150Y018424D01*
X022150Y018345D02*
X012890Y018345D01*
X012890Y018267D02*
X022150Y018267D01*
X022150Y018188D02*
X012890Y018188D01*
X012890Y018110D02*
X022150Y018110D01*
X022150Y018031D02*
X012890Y018031D01*
X012890Y017953D02*
X022150Y017953D01*
X022150Y017874D02*
X012890Y017874D01*
X012890Y017796D02*
X022150Y017796D01*
X022150Y017717D02*
X012890Y017717D01*
X012890Y017639D02*
X022150Y017639D01*
X022150Y017560D02*
X012890Y017560D01*
X012890Y017482D02*
X022150Y017482D01*
X022150Y017403D02*
X012890Y017403D01*
X012890Y017325D02*
X022150Y017325D01*
X022150Y017246D02*
X012890Y017246D01*
X012890Y017168D02*
X022150Y017168D01*
X022150Y017089D02*
X012890Y017089D01*
X012890Y017011D02*
X022150Y017011D01*
X022150Y016932D02*
X012890Y016932D01*
X012890Y016854D02*
X022150Y016854D01*
X022150Y016775D02*
X012890Y016775D01*
X012890Y016697D02*
X022150Y016697D01*
X022150Y016618D02*
X012890Y016618D01*
X012890Y016540D02*
X022150Y016540D01*
X022150Y016461D02*
X012890Y016461D01*
X012890Y016383D02*
X022150Y016383D01*
X022150Y016304D02*
X012890Y016304D01*
X012890Y016226D02*
X022150Y016226D01*
X022150Y016147D02*
X012890Y016147D01*
X012890Y016069D02*
X022150Y016069D01*
X022150Y015990D02*
X012890Y015990D01*
X012890Y015912D02*
X022150Y015912D01*
X022150Y015833D02*
X012890Y015833D01*
X012890Y015755D02*
X022150Y015755D01*
X022150Y015676D02*
X012890Y015676D01*
X012890Y015598D02*
X022150Y015598D01*
X022150Y015519D02*
X012890Y015519D01*
X012890Y015441D02*
X022150Y015441D01*
X022150Y015362D02*
X012890Y015362D01*
X012890Y015284D02*
X022150Y015284D01*
X022150Y015205D02*
X012890Y015205D01*
X012890Y015127D02*
X022150Y015127D01*
X022150Y015048D02*
X012890Y015048D01*
X012890Y014970D02*
X022150Y014970D01*
X022150Y014891D02*
X012890Y014891D01*
X012890Y014813D02*
X022150Y014813D01*
X022150Y014734D02*
X012890Y014734D01*
X012890Y014656D02*
X022150Y014656D01*
X022150Y014577D02*
X012890Y014577D01*
X012890Y014499D02*
X022150Y014499D01*
X022150Y014420D02*
X012890Y014420D01*
X012890Y014342D02*
X022150Y014342D01*
X022150Y014263D02*
X012890Y014263D01*
X012890Y014185D02*
X022150Y014185D01*
X022150Y014106D02*
X012890Y014106D01*
X012890Y014028D02*
X022150Y014028D01*
X022150Y013949D02*
X012890Y013949D01*
X012890Y013871D02*
X022150Y013871D01*
X022150Y013792D02*
X012890Y013792D01*
X012890Y013714D02*
X022150Y013714D01*
X022150Y013635D02*
X012890Y013635D01*
X012890Y013557D02*
X022150Y013557D01*
X022150Y013478D02*
X012890Y013478D01*
X012890Y013400D02*
X022150Y013400D01*
X022150Y013321D02*
X012890Y013321D01*
X012890Y013243D02*
X022150Y013243D01*
X022150Y013164D02*
X012890Y013164D01*
X012890Y013086D02*
X022150Y013086D01*
X022150Y013007D02*
X012890Y013007D01*
X012890Y012929D02*
X022150Y012929D01*
X022150Y012850D02*
X012890Y012850D01*
X012890Y012772D02*
X022150Y012772D01*
X022150Y012693D02*
X012890Y012693D01*
X012890Y012615D02*
X022150Y012615D01*
X022150Y012536D02*
X012890Y012536D01*
X012890Y012458D02*
X022150Y012458D01*
X022150Y012379D02*
X012890Y012379D01*
X012890Y012301D02*
X022150Y012301D01*
X022150Y012222D02*
X012890Y012222D01*
X012890Y012144D02*
X022150Y012144D01*
X022150Y012065D02*
X012890Y012065D01*
X012890Y011987D02*
X022150Y011987D01*
X022150Y011908D02*
X012890Y011908D01*
X012890Y011830D02*
X022150Y011830D01*
X022150Y011751D02*
X012890Y011751D01*
X012890Y011673D02*
X022150Y011673D01*
X022150Y011594D02*
X012890Y011594D01*
X012890Y011516D02*
X022150Y011516D01*
X022150Y011437D02*
X012890Y011437D01*
X012890Y011359D02*
X022150Y011359D01*
X022150Y011280D02*
X012890Y011280D01*
X012890Y011202D02*
X022150Y011202D01*
X022150Y011123D02*
X012890Y011123D01*
X012890Y011045D02*
X022150Y011045D01*
X022150Y010966D02*
X012890Y010966D01*
X012890Y010888D02*
X022150Y010888D01*
X022150Y010809D02*
X012890Y010809D01*
X012890Y010731D02*
X022150Y010731D01*
X022150Y010652D02*
X012890Y010652D01*
X012890Y010574D02*
X022150Y010574D01*
X022150Y010495D02*
X012890Y010495D01*
X012890Y010417D02*
X022150Y010417D01*
X022150Y010338D02*
X012890Y010338D01*
X012890Y010260D02*
X022150Y010260D01*
X022150Y010181D02*
X012890Y010181D01*
X012890Y010103D02*
X022150Y010103D01*
X022150Y010024D02*
X012890Y010024D01*
X012890Y009946D02*
X022150Y009946D01*
X022150Y009867D02*
X012890Y009867D01*
X012890Y009789D02*
X022150Y009789D01*
X022150Y009710D02*
X012890Y009710D01*
X012890Y009632D02*
X022150Y009632D01*
X022150Y009553D02*
X012890Y009553D01*
X012890Y009475D02*
X022150Y009475D01*
X022150Y009396D02*
X012890Y009396D01*
X012890Y009318D02*
X022150Y009318D01*
X022150Y009239D02*
X012890Y009239D01*
X012890Y009161D02*
X022150Y009161D01*
X022150Y009082D02*
X012890Y009082D01*
X012890Y009004D02*
X022150Y009004D01*
X022150Y008925D02*
X012890Y008925D01*
X012890Y008847D02*
X022150Y008847D01*
X022150Y008768D02*
X012890Y008768D01*
X012890Y008690D02*
X022150Y008690D01*
X022150Y008611D02*
X012890Y008611D01*
X012890Y008533D02*
X022150Y008533D01*
X022150Y008454D02*
X012890Y008454D01*
X012890Y008376D02*
X022150Y008376D01*
X022150Y008297D02*
X012890Y008297D01*
X012890Y008219D02*
X022150Y008219D01*
X022150Y008140D02*
X012890Y008140D01*
X012890Y008062D02*
X022150Y008062D01*
X022150Y007983D02*
X012890Y007983D01*
X012890Y007905D02*
X022150Y007905D01*
X022150Y007826D02*
X012890Y007826D01*
X012890Y007748D02*
X022150Y007748D01*
X022150Y007669D02*
X012890Y007669D01*
X012890Y007591D02*
X022150Y007591D01*
X022150Y007512D02*
X012890Y007512D01*
X012890Y007434D02*
X022150Y007434D01*
X022150Y007355D02*
X012890Y007355D01*
X012890Y007277D02*
X022150Y007277D01*
X022150Y007198D02*
X012890Y007198D01*
X012890Y007120D02*
X022150Y007120D01*
X022150Y007041D02*
X012890Y007041D01*
X012890Y006963D02*
X022150Y006963D01*
X022150Y006884D02*
X012890Y006884D01*
X012890Y006806D02*
X022150Y006806D01*
X022150Y006727D02*
X012890Y006727D01*
X012890Y006649D02*
X022150Y006649D01*
X022150Y006570D02*
X012890Y006570D01*
X012890Y006492D02*
X022150Y006492D01*
X022150Y006413D02*
X012890Y006413D01*
X012890Y006335D02*
X022150Y006335D01*
X022150Y006256D02*
X012890Y006256D01*
X012890Y006178D02*
X022150Y006178D01*
X022150Y006099D02*
X012890Y006099D01*
X012890Y006021D02*
X022150Y006021D01*
X022150Y005942D02*
X012890Y005942D01*
X012890Y005864D02*
X022150Y005864D01*
X022150Y005785D02*
X012890Y005785D01*
X012890Y005707D02*
X022150Y005707D01*
X022150Y005628D02*
X012890Y005628D01*
X012890Y005550D02*
X022150Y005550D01*
X022150Y005471D02*
X012890Y005471D01*
X012890Y005393D02*
X022150Y005393D01*
X022150Y005314D02*
X012890Y005314D01*
X012890Y005236D02*
X022150Y005236D01*
X022150Y005157D02*
X012890Y005157D01*
X012890Y005079D02*
X022150Y005079D01*
X022150Y005000D02*
X012890Y005000D01*
X012890Y004922D02*
X022150Y004922D01*
X022150Y004843D02*
X012890Y004843D01*
X012590Y006099D02*
X004730Y006099D01*
X004718Y006178D02*
X012590Y006178D01*
X012590Y006256D02*
X004696Y006256D01*
X004662Y006335D02*
X012590Y006335D01*
X012590Y006413D02*
X009101Y006413D01*
X009049Y006392D02*
X009159Y006437D01*
X009243Y006521D01*
X009288Y006631D01*
X009288Y006749D01*
X009243Y006859D01*
X009159Y006943D01*
X009049Y006988D01*
X008931Y006988D01*
X008821Y006943D01*
X008737Y006859D01*
X008733Y006850D01*
X008547Y006850D01*
X008543Y006859D01*
X008459Y006943D01*
X008349Y006988D01*
X008231Y006988D01*
X008121Y006943D01*
X008037Y006859D01*
X007992Y006749D01*
X007992Y006631D01*
X008037Y006521D01*
X008121Y006437D01*
X008231Y006392D01*
X008349Y006392D01*
X008459Y006437D01*
X008543Y006521D01*
X008547Y006530D01*
X008733Y006530D01*
X008737Y006521D01*
X008821Y006437D01*
X008931Y006392D01*
X009049Y006392D01*
X008879Y006413D02*
X008401Y006413D01*
X008514Y006492D02*
X008766Y006492D01*
X008990Y006690D02*
X008290Y006690D01*
X008015Y006806D02*
X003496Y006806D01*
X003529Y006884D02*
X008062Y006884D01*
X008168Y006963D02*
X003555Y006963D01*
X003555Y007041D02*
X012590Y007041D01*
X012590Y006963D02*
X009112Y006963D01*
X009218Y006884D02*
X012590Y006884D01*
X012590Y006806D02*
X009265Y006806D01*
X009288Y006727D02*
X012590Y006727D01*
X012590Y006649D02*
X009288Y006649D01*
X009263Y006570D02*
X012590Y006570D01*
X012590Y006492D02*
X009214Y006492D01*
X008868Y006963D02*
X008412Y006963D01*
X008518Y006884D02*
X008762Y006884D01*
X008179Y006413D02*
X004614Y006413D01*
X004547Y006492D02*
X008066Y006492D01*
X008017Y006570D02*
X004455Y006570D01*
X004300Y006649D02*
X007992Y006649D01*
X007992Y006727D02*
X003435Y006727D01*
X003356Y006649D02*
X003880Y006649D01*
X004050Y006649D02*
X004130Y006649D01*
X004130Y006570D02*
X004050Y006570D01*
X004050Y006492D02*
X004130Y006492D01*
X004130Y006413D02*
X004050Y006413D01*
X004050Y006335D02*
X004130Y006335D01*
X004130Y006256D02*
X004050Y006256D01*
X004050Y006178D02*
X004130Y006178D01*
X004130Y006099D02*
X004050Y006099D01*
X004050Y005864D02*
X004130Y005864D01*
X004130Y005785D02*
X004050Y005785D01*
X004050Y005707D02*
X004130Y005707D01*
X004130Y005628D02*
X004050Y005628D01*
X004050Y005550D02*
X004130Y005550D01*
X004130Y005471D02*
X004050Y005471D01*
X003791Y005471D02*
X002389Y005471D01*
X002506Y005550D02*
X003674Y005550D01*
X003596Y005628D02*
X002584Y005628D01*
X002639Y005707D02*
X003541Y005707D01*
X003500Y005785D02*
X002680Y005785D01*
X002708Y005864D02*
X003472Y005864D01*
X003455Y005942D02*
X002725Y005942D01*
X002730Y006099D02*
X003450Y006099D01*
X003462Y006178D02*
X002718Y006178D01*
X002696Y006256D02*
X003484Y006256D01*
X003518Y006335D02*
X002662Y006335D01*
X002614Y006413D02*
X003566Y006413D01*
X003633Y006492D02*
X002547Y006492D01*
X002455Y006570D02*
X003725Y006570D01*
X002824Y006649D02*
X002300Y006649D01*
X002130Y006649D02*
X002050Y006649D01*
X002050Y006570D02*
X002130Y006570D01*
X002130Y006492D02*
X002050Y006492D01*
X002050Y006413D02*
X002130Y006413D01*
X002130Y006335D02*
X002050Y006335D01*
X002050Y006256D02*
X002130Y006256D01*
X002130Y006178D02*
X002050Y006178D01*
X002050Y006099D02*
X002130Y006099D01*
X002130Y005864D02*
X002050Y005864D01*
X002050Y005785D02*
X002130Y005785D01*
X002130Y005707D02*
X002050Y005707D01*
X002050Y005628D02*
X002130Y005628D01*
X002130Y005550D02*
X002050Y005550D01*
X002050Y005471D02*
X002130Y005471D01*
X001791Y005471D02*
X001030Y005471D01*
X001030Y005393D02*
X005094Y005393D01*
X005020Y005471D02*
X004389Y005471D01*
X004506Y005550D02*
X005020Y005550D01*
X005020Y005628D02*
X004584Y005628D01*
X004639Y005707D02*
X005020Y005707D01*
X005020Y005785D02*
X004680Y005785D01*
X004708Y005864D02*
X005070Y005864D01*
X005148Y005942D02*
X004725Y005942D01*
X005172Y005314D02*
X001030Y005314D01*
X001030Y005236D02*
X005251Y005236D01*
X003723Y007512D02*
X002457Y007512D01*
X002549Y007591D02*
X003631Y007591D01*
X004050Y008925D02*
X004130Y008925D01*
X004130Y008898D02*
X004132Y008898D01*
X004216Y008908D01*
X004297Y008930D01*
X004375Y008963D01*
X004448Y009005D01*
X004515Y009056D01*
X004574Y009115D01*
X004625Y009182D01*
X004667Y009255D01*
X004700Y009333D01*
X004722Y009414D01*
X004732Y009498D01*
X004732Y009500D01*
X004130Y009500D01*
X004130Y008898D01*
X004130Y009004D02*
X004050Y009004D01*
X004050Y009082D02*
X004130Y009082D01*
X004130Y009161D02*
X004050Y009161D01*
X004050Y009239D02*
X004130Y009239D01*
X004130Y009318D02*
X004050Y009318D01*
X004050Y009396D02*
X004130Y009396D01*
X004130Y009475D02*
X004050Y009475D01*
X004050Y009553D02*
X002130Y009553D01*
X002130Y009475D02*
X002050Y009475D01*
X002050Y009500D02*
X002050Y008898D01*
X002048Y008898D01*
X001964Y008908D01*
X001883Y008930D01*
X001805Y008963D01*
X001732Y009005D01*
X001665Y009056D01*
X001606Y009115D01*
X001555Y009182D01*
X001513Y009255D01*
X001480Y009333D01*
X001458Y009414D01*
X001448Y009498D01*
X001448Y009500D01*
X002050Y009500D01*
X002050Y009553D02*
X001030Y009553D01*
X001030Y009475D02*
X001451Y009475D01*
X001463Y009396D02*
X001030Y009396D01*
X001030Y009318D02*
X001487Y009318D01*
X001522Y009239D02*
X001030Y009239D01*
X001030Y009161D02*
X001571Y009161D01*
X001639Y009082D02*
X001030Y009082D01*
X001030Y009004D02*
X001734Y009004D01*
X001903Y008925D02*
X001030Y008925D01*
X001030Y008847D02*
X005140Y008847D01*
X005218Y008768D02*
X001030Y008768D01*
X001030Y008690D02*
X012590Y008690D01*
X012590Y008768D02*
X005662Y008768D01*
X005614Y008720D02*
X005860Y008966D01*
X005860Y009314D01*
X005614Y009560D01*
X005266Y009560D01*
X005020Y009314D01*
X005020Y008966D01*
X005266Y008720D01*
X005614Y008720D01*
X005740Y008847D02*
X012590Y008847D01*
X012590Y008925D02*
X005819Y008925D01*
X005860Y009004D02*
X012590Y009004D01*
X012590Y009082D02*
X005860Y009082D01*
X005860Y009161D02*
X012590Y009161D01*
X012590Y009239D02*
X005860Y009239D01*
X005856Y009318D02*
X012590Y009318D01*
X012590Y009396D02*
X005778Y009396D01*
X005699Y009475D02*
X012590Y009475D01*
X012590Y009553D02*
X005621Y009553D01*
X005259Y009553D02*
X004130Y009553D01*
X004130Y009632D02*
X004050Y009632D01*
X004050Y009710D02*
X004130Y009710D01*
X004130Y009789D02*
X004050Y009789D01*
X004050Y009867D02*
X004130Y009867D01*
X004130Y009946D02*
X004050Y009946D01*
X004050Y010024D02*
X004130Y010024D01*
X004130Y010103D02*
X004050Y010103D01*
X004375Y010117D02*
X004448Y010075D01*
X004515Y010024D01*
X004589Y009946D02*
X008112Y009946D01*
X008468Y009946D02*
X008812Y009946D01*
X008736Y010024D02*
X008544Y010024D01*
X008855Y010731D02*
X003514Y010731D01*
X003479Y010809D02*
X008777Y010809D01*
X008720Y010888D02*
X003400Y010888D01*
X003277Y010966D02*
X003799Y010966D01*
X003680Y011045D02*
X002500Y011045D01*
X002580Y011123D02*
X003600Y011123D01*
X003544Y011202D02*
X002636Y011202D01*
X002678Y011280D02*
X003502Y011280D01*
X003473Y011359D02*
X002707Y011359D01*
X002724Y011437D02*
X003456Y011437D01*
X003449Y011594D02*
X002731Y011594D01*
X002720Y011673D02*
X003460Y011673D01*
X003482Y011751D02*
X002698Y011751D01*
X002665Y011830D02*
X003515Y011830D01*
X003563Y011908D02*
X002617Y011908D01*
X002552Y011987D02*
X003628Y011987D01*
X003719Y012065D02*
X002461Y012065D01*
X002312Y012144D02*
X003868Y012144D01*
X004050Y012144D02*
X004130Y012144D01*
X004130Y012065D02*
X004050Y012065D01*
X004050Y011987D02*
X004130Y011987D01*
X004130Y011908D02*
X004050Y011908D01*
X004050Y011830D02*
X004130Y011830D01*
X004130Y011751D02*
X004050Y011751D01*
X004050Y011673D02*
X004130Y011673D01*
X004130Y011594D02*
X004050Y011594D01*
X004130Y011516D02*
X012590Y011516D01*
X012590Y011594D02*
X004731Y011594D01*
X004720Y011673D02*
X012590Y011673D01*
X012590Y011751D02*
X004698Y011751D01*
X004665Y011830D02*
X012590Y011830D01*
X012590Y011908D02*
X004617Y011908D01*
X004552Y011987D02*
X012590Y011987D01*
X012590Y012065D02*
X004461Y012065D01*
X004312Y012144D02*
X012590Y012144D01*
X012590Y012222D02*
X005616Y012222D01*
X005695Y012301D02*
X012590Y012301D01*
X012590Y012379D02*
X005773Y012379D01*
X005852Y012458D02*
X012590Y012458D01*
X012590Y012536D02*
X005860Y012536D01*
X005860Y012615D02*
X012590Y012615D01*
X012590Y012693D02*
X005860Y012693D01*
X005860Y012772D02*
X012590Y012772D01*
X012590Y012850D02*
X005824Y012850D01*
X005745Y012929D02*
X012590Y012929D01*
X012590Y013007D02*
X005667Y013007D01*
X005213Y013007D02*
X004130Y013007D01*
X004130Y012929D02*
X004050Y012929D01*
X004050Y013000D02*
X004050Y012398D01*
X004048Y012398D01*
X003964Y012408D01*
X003883Y012430D01*
X003805Y012463D01*
X003732Y012505D01*
X003665Y012556D01*
X003606Y012615D01*
X003555Y012682D01*
X003513Y012755D01*
X003480Y012833D01*
X003458Y012914D01*
X003448Y012998D01*
X003448Y013000D01*
X004050Y013000D01*
X004050Y013007D02*
X002130Y013007D01*
X002130Y013000D02*
X002130Y013080D01*
X002732Y013080D01*
X002732Y013082D01*
X002722Y013166D01*
X002700Y013247D01*
X002667Y013325D01*
X002625Y013398D01*
X002574Y013465D01*
X002515Y013524D01*
X002448Y013575D01*
X002375Y013617D01*
X002297Y013650D01*
X002216Y013672D01*
X002132Y013682D01*
X002130Y013682D01*
X002130Y013080D01*
X002050Y013080D01*
X002050Y013682D01*
X002048Y013682D01*
X001964Y013672D01*
X001883Y013650D01*
X001805Y013617D01*
X001732Y013575D01*
X001665Y013524D01*
X001606Y013465D01*
X001555Y013398D01*
X001513Y013325D01*
X001480Y013247D01*
X001458Y013166D01*
X001448Y013082D01*
X001448Y013080D01*
X002050Y013080D01*
X002050Y013000D01*
X002130Y013000D01*
X002732Y013000D01*
X002732Y012998D01*
X002722Y012914D01*
X002700Y012833D01*
X002667Y012755D01*
X002625Y012682D01*
X002574Y012615D01*
X002515Y012556D01*
X002448Y012505D01*
X002375Y012463D01*
X002297Y012430D01*
X002216Y012408D01*
X002132Y012398D01*
X002130Y012398D01*
X002130Y013000D01*
X002130Y012929D02*
X002050Y012929D01*
X002050Y013000D02*
X002050Y012398D01*
X002048Y012398D01*
X001964Y012408D01*
X001883Y012430D01*
X001805Y012463D01*
X001732Y012505D01*
X001665Y012556D01*
X001606Y012615D01*
X001555Y012682D01*
X001513Y012755D01*
X001480Y012833D01*
X001458Y012914D01*
X001448Y012998D01*
X001448Y013000D01*
X002050Y013000D01*
X002050Y013007D02*
X001030Y013007D01*
X001030Y012929D02*
X001457Y012929D01*
X001476Y012850D02*
X001030Y012850D01*
X001030Y012772D02*
X001506Y012772D01*
X001548Y012693D02*
X001030Y012693D01*
X001030Y012615D02*
X001607Y012615D01*
X001691Y012536D02*
X001030Y012536D01*
X001030Y012458D02*
X001817Y012458D01*
X002050Y012458D02*
X002130Y012458D01*
X002130Y012536D02*
X002050Y012536D01*
X002050Y012615D02*
X002130Y012615D01*
X002130Y012693D02*
X002050Y012693D01*
X002050Y012772D02*
X002130Y012772D01*
X002130Y012850D02*
X002050Y012850D01*
X002050Y013086D02*
X002130Y013086D01*
X002130Y013164D02*
X002050Y013164D01*
X002050Y013243D02*
X002130Y013243D01*
X002130Y013321D02*
X002050Y013321D01*
X002050Y013400D02*
X002130Y013400D01*
X002130Y013478D02*
X002050Y013478D01*
X002050Y013557D02*
X002130Y013557D01*
X002130Y013635D02*
X002050Y013635D01*
X001848Y013635D02*
X001030Y013635D01*
X001030Y013557D02*
X001708Y013557D01*
X001619Y013478D02*
X001030Y013478D01*
X001030Y013400D02*
X001556Y013400D01*
X001511Y013321D02*
X001030Y013321D01*
X001030Y013243D02*
X001479Y013243D01*
X001458Y013164D02*
X001030Y013164D01*
X001030Y013086D02*
X001448Y013086D01*
X001030Y013714D02*
X002759Y013714D01*
X002696Y013777D02*
X002827Y013646D01*
X002998Y013575D01*
X003182Y013575D01*
X003353Y013646D01*
X003484Y013777D01*
X003555Y013948D01*
X003555Y014132D01*
X003484Y014303D01*
X003353Y014434D01*
X003182Y014505D01*
X002998Y014505D01*
X002827Y014434D01*
X002696Y014303D01*
X002625Y014132D01*
X002625Y013948D01*
X002696Y013777D01*
X002689Y013792D02*
X001030Y013792D01*
X001030Y013871D02*
X002657Y013871D01*
X002625Y013949D02*
X001030Y013949D01*
X001030Y014028D02*
X002625Y014028D01*
X002625Y014106D02*
X001030Y014106D01*
X001030Y014185D02*
X002647Y014185D01*
X002679Y014263D02*
X001030Y014263D01*
X001030Y014342D02*
X002734Y014342D01*
X002812Y014420D02*
X002259Y014420D01*
X002130Y014420D02*
X002050Y014420D01*
X002050Y014499D02*
X002130Y014499D01*
X002130Y014577D02*
X002050Y014577D01*
X002050Y014656D02*
X002130Y014656D01*
X002130Y014734D02*
X002050Y014734D01*
X002050Y014813D02*
X002130Y014813D01*
X002130Y014891D02*
X002050Y014891D01*
X002050Y014970D02*
X002130Y014970D01*
X002050Y015048D02*
X001030Y015048D01*
X001030Y014970D02*
X001451Y014970D01*
X001465Y014891D02*
X001030Y014891D01*
X001030Y014813D02*
X001489Y014813D01*
X001525Y014734D02*
X001030Y014734D01*
X001030Y014656D02*
X001575Y014656D01*
X001644Y014577D02*
X001030Y014577D01*
X001030Y014499D02*
X001743Y014499D01*
X001921Y014420D02*
X001030Y014420D01*
X001030Y015127D02*
X001453Y015127D01*
X001469Y015205D02*
X001030Y015205D01*
X001030Y015284D02*
X001495Y015284D01*
X001534Y015362D02*
X001030Y015362D01*
X001030Y015441D02*
X001587Y015441D01*
X001660Y015519D02*
X001030Y015519D01*
X001030Y015598D02*
X001771Y015598D01*
X001999Y015676D02*
X001030Y015676D01*
X001030Y015912D02*
X001953Y015912D01*
X001964Y015908D02*
X002048Y015898D01*
X002050Y015898D01*
X002050Y016500D01*
X002130Y016500D01*
X002130Y016580D01*
X002732Y016580D01*
X002732Y016582D01*
X002722Y016666D01*
X002700Y016747D01*
X002667Y016825D01*
X002625Y016898D01*
X002574Y016965D01*
X002515Y017024D01*
X002448Y017075D01*
X002375Y017117D01*
X002297Y017150D01*
X002216Y017172D01*
X002132Y017182D01*
X002130Y017182D01*
X002130Y016580D01*
X002050Y016580D01*
X002050Y017182D01*
X002048Y017182D01*
X001964Y017172D01*
X001883Y017150D01*
X001805Y017117D01*
X001732Y017075D01*
X001665Y017024D01*
X001606Y016965D01*
X001555Y016898D01*
X001513Y016825D01*
X001480Y016747D01*
X001458Y016666D01*
X001448Y016582D01*
X001448Y016580D01*
X002050Y016580D01*
X002050Y016500D01*
X001448Y016500D01*
X001448Y016498D01*
X001458Y016414D01*
X001480Y016333D01*
X001513Y016255D01*
X001555Y016182D01*
X001606Y016115D01*
X001665Y016056D01*
X001732Y016005D01*
X001805Y015963D01*
X001883Y015930D01*
X001964Y015908D01*
X002050Y015912D02*
X002130Y015912D01*
X002130Y015898D02*
X002132Y015898D01*
X002216Y015908D01*
X002297Y015930D01*
X002375Y015963D01*
X002448Y016005D01*
X002515Y016056D01*
X002574Y016115D01*
X002625Y016182D01*
X002667Y016255D01*
X002700Y016333D01*
X002722Y016414D01*
X002732Y016498D01*
X002732Y016500D01*
X002130Y016500D01*
X002130Y015898D01*
X002130Y015990D02*
X002050Y015990D01*
X002050Y016069D02*
X002130Y016069D01*
X002130Y016147D02*
X002050Y016147D01*
X002050Y016226D02*
X002130Y016226D01*
X002130Y016304D02*
X002050Y016304D01*
X002050Y016383D02*
X002130Y016383D01*
X002130Y016461D02*
X002050Y016461D01*
X002050Y016540D02*
X001030Y016540D01*
X001030Y016618D02*
X001452Y016618D01*
X001467Y016697D02*
X001030Y016697D01*
X001030Y016775D02*
X001492Y016775D01*
X001529Y016854D02*
X001030Y016854D01*
X001030Y016932D02*
X001581Y016932D01*
X001652Y017011D02*
X001030Y017011D01*
X001030Y017089D02*
X001756Y017089D01*
X001950Y017168D02*
X001030Y017168D01*
X001030Y017246D02*
X002726Y017246D01*
X002676Y017325D02*
X001030Y017325D01*
X001030Y017403D02*
X002643Y017403D01*
X002625Y017482D02*
X001030Y017482D01*
X001030Y017560D02*
X002625Y017560D01*
X002628Y017639D02*
X001030Y017639D01*
X001030Y017717D02*
X002660Y017717D01*
X002693Y017796D02*
X001030Y017796D01*
X001030Y017874D02*
X002766Y017874D01*
X002871Y017953D02*
X002351Y017953D01*
X002230Y017168D02*
X002805Y017168D01*
X002964Y017089D02*
X002424Y017089D01*
X002528Y017011D02*
X003652Y017011D01*
X003581Y016932D02*
X002599Y016932D01*
X002651Y016854D02*
X003529Y016854D01*
X003492Y016775D02*
X002688Y016775D01*
X002713Y016697D02*
X003467Y016697D01*
X003452Y016618D02*
X002728Y016618D01*
X002728Y016461D02*
X003452Y016461D01*
X003467Y016383D02*
X002713Y016383D01*
X002688Y016304D02*
X003492Y016304D01*
X003530Y016226D02*
X002650Y016226D01*
X002598Y016147D02*
X003582Y016147D01*
X003653Y016069D02*
X002527Y016069D01*
X002422Y015990D02*
X003758Y015990D01*
X003953Y015912D02*
X002227Y015912D01*
X002409Y015598D02*
X003771Y015598D01*
X003660Y015519D02*
X002520Y015519D01*
X002593Y015441D02*
X003587Y015441D01*
X003534Y015362D02*
X002646Y015362D01*
X002685Y015284D02*
X003495Y015284D01*
X003469Y015205D02*
X002711Y015205D01*
X002727Y015127D02*
X003453Y015127D01*
X003451Y014970D02*
X002729Y014970D01*
X002715Y014891D02*
X003465Y014891D01*
X003489Y014813D02*
X002691Y014813D01*
X002655Y014734D02*
X003525Y014734D01*
X003575Y014656D02*
X002605Y014656D01*
X002536Y014577D02*
X003644Y014577D01*
X003743Y014499D02*
X003198Y014499D01*
X003368Y014420D02*
X003921Y014420D01*
X003501Y014263D02*
X008823Y014263D01*
X008901Y014185D02*
X003533Y014185D01*
X003555Y014106D02*
X012590Y014106D01*
X012590Y014028D02*
X003555Y014028D01*
X003555Y013949D02*
X008136Y013949D01*
X008049Y013871D02*
X003523Y013871D01*
X003491Y013792D02*
X008009Y013792D01*
X007992Y013714D02*
X003421Y013714D01*
X003327Y013635D02*
X003848Y013635D01*
X003708Y013557D02*
X002472Y013557D01*
X002561Y013478D02*
X003619Y013478D01*
X003556Y013400D02*
X002624Y013400D01*
X002669Y013321D02*
X003511Y013321D01*
X003479Y013243D02*
X002701Y013243D01*
X002722Y013164D02*
X003458Y013164D01*
X003448Y013086D02*
X002732Y013086D01*
X002723Y012929D02*
X003457Y012929D01*
X003476Y012850D02*
X002704Y012850D01*
X002674Y012772D02*
X003506Y012772D01*
X003548Y012693D02*
X002632Y012693D01*
X002573Y012615D02*
X003607Y012615D01*
X003691Y012536D02*
X002489Y012536D01*
X002363Y012458D02*
X003817Y012458D01*
X004050Y012458D02*
X004130Y012458D01*
X004130Y012536D02*
X004050Y012536D01*
X004050Y012615D02*
X004130Y012615D01*
X004130Y012693D02*
X004050Y012693D01*
X004050Y012772D02*
X004130Y012772D01*
X004130Y012850D02*
X004050Y012850D01*
X004050Y013086D02*
X004130Y013086D01*
X004130Y013164D02*
X004050Y013164D01*
X004050Y013243D02*
X004130Y013243D01*
X004130Y013321D02*
X004050Y013321D01*
X004050Y013400D02*
X004130Y013400D01*
X004130Y013478D02*
X004050Y013478D01*
X004050Y013557D02*
X004130Y013557D01*
X004130Y013635D02*
X004050Y013635D01*
X004332Y013635D02*
X007992Y013635D01*
X008022Y013557D02*
X004472Y013557D01*
X004561Y013478D02*
X008080Y013478D01*
X008444Y013949D02*
X008836Y013949D01*
X008749Y013871D02*
X008531Y013871D01*
X008744Y014342D02*
X003446Y014342D01*
X002982Y014499D02*
X002437Y014499D01*
X002332Y013635D02*
X002853Y013635D01*
X002130Y012144D02*
X002050Y012144D01*
X002050Y012065D02*
X002130Y012065D01*
X002130Y011987D02*
X002050Y011987D01*
X002050Y011908D02*
X002130Y011908D01*
X002130Y011830D02*
X002050Y011830D01*
X002050Y011751D02*
X002130Y011751D01*
X002130Y011673D02*
X002050Y011673D01*
X002050Y011594D02*
X002130Y011594D01*
X002130Y011359D02*
X002050Y011359D01*
X002050Y011280D02*
X002130Y011280D01*
X002130Y011202D02*
X002050Y011202D01*
X002050Y011123D02*
X002130Y011123D01*
X002130Y011045D02*
X002050Y011045D01*
X002050Y010966D02*
X002130Y010966D01*
X002381Y010966D02*
X002903Y010966D01*
X002780Y010888D02*
X001030Y010888D01*
X001030Y010966D02*
X001799Y010966D01*
X001680Y011045D02*
X001030Y011045D01*
X001030Y011123D02*
X001600Y011123D01*
X001544Y011202D02*
X001030Y011202D01*
X001030Y011280D02*
X001502Y011280D01*
X001473Y011359D02*
X001030Y011359D01*
X001030Y011437D02*
X001456Y011437D01*
X001030Y010809D02*
X002701Y010809D01*
X002666Y010731D02*
X001030Y010731D01*
X001030Y010652D02*
X002633Y010652D01*
X002625Y010574D02*
X001030Y010574D01*
X001030Y010495D02*
X002625Y010495D01*
X002638Y010417D02*
X001030Y010417D01*
X001030Y010338D02*
X002670Y010338D01*
X002713Y010260D02*
X001030Y010260D01*
X001030Y010181D02*
X002037Y010181D01*
X002050Y010181D02*
X002130Y010181D01*
X002143Y010181D02*
X002791Y010181D01*
X002931Y010103D02*
X002401Y010103D01*
X002130Y010103D02*
X002050Y010103D01*
X002050Y010024D02*
X002130Y010024D01*
X002130Y009946D02*
X002050Y009946D01*
X002050Y009867D02*
X002130Y009867D01*
X002130Y009789D02*
X002050Y009789D01*
X002050Y009710D02*
X002130Y009710D01*
X002130Y009632D02*
X002050Y009632D01*
X002050Y009396D02*
X002130Y009396D01*
X002130Y009318D02*
X002050Y009318D01*
X002050Y009239D02*
X002130Y009239D01*
X002130Y009161D02*
X002050Y009161D01*
X002050Y009082D02*
X002130Y009082D01*
X002130Y009004D02*
X002050Y009004D01*
X002050Y008925D02*
X002130Y008925D01*
X002130Y008611D02*
X002050Y008611D01*
X002050Y008533D02*
X002130Y008533D01*
X002130Y008454D02*
X002050Y008454D01*
X002050Y008376D02*
X002130Y008376D01*
X002130Y008297D02*
X002050Y008297D01*
X002050Y008219D02*
X002130Y008219D01*
X002130Y008140D02*
X002050Y008140D01*
X002050Y008062D02*
X001030Y008062D01*
X001030Y008140D02*
X001455Y008140D01*
X001473Y008219D02*
X001030Y008219D01*
X001030Y008297D02*
X001501Y008297D01*
X001542Y008376D02*
X001030Y008376D01*
X001030Y008454D02*
X001598Y008454D01*
X001676Y008533D02*
X001030Y008533D01*
X001030Y008611D02*
X001794Y008611D01*
X001449Y007983D02*
X001030Y007983D01*
X001030Y007905D02*
X001461Y007905D01*
X001483Y007826D02*
X001030Y007826D01*
X001030Y007748D02*
X001517Y007748D01*
X001565Y007669D02*
X001030Y007669D01*
X001030Y007591D02*
X001631Y007591D01*
X001723Y007512D02*
X001030Y007512D01*
X001030Y007434D02*
X001875Y007434D01*
X001455Y005942D02*
X001030Y005942D01*
X001030Y005864D02*
X001472Y005864D01*
X001500Y005785D02*
X001030Y005785D01*
X001030Y005707D02*
X001541Y005707D01*
X001596Y005628D02*
X001030Y005628D01*
X001030Y005550D02*
X001674Y005550D01*
X004277Y008925D02*
X005061Y008925D01*
X005020Y009004D02*
X004446Y009004D01*
X004541Y009082D02*
X005020Y009082D01*
X005020Y009161D02*
X004609Y009161D01*
X004658Y009239D02*
X005020Y009239D01*
X005024Y009318D02*
X004693Y009318D01*
X004717Y009396D02*
X005102Y009396D01*
X005181Y009475D02*
X004729Y009475D01*
X004726Y009632D02*
X012590Y009632D01*
X012590Y009710D02*
X004710Y009710D01*
X004682Y009789D02*
X012590Y009789D01*
X012590Y009867D02*
X004643Y009867D01*
X001779Y010103D02*
X001030Y010103D01*
X001030Y009867D02*
X001537Y009867D01*
X001498Y009789D02*
X001030Y009789D01*
X001030Y009710D02*
X001470Y009710D01*
X001454Y009632D02*
X001030Y009632D01*
X001606Y009965D02*
X001665Y010024D01*
X001758Y015990D02*
X001030Y015990D01*
X001030Y016069D02*
X001653Y016069D01*
X001582Y016147D02*
X001030Y016147D01*
X001030Y016226D02*
X001530Y016226D01*
X001492Y016304D02*
X001030Y016304D01*
X001030Y016383D02*
X001467Y016383D01*
X001452Y016461D02*
X001030Y016461D01*
X002050Y016618D02*
X002130Y016618D01*
X002130Y016540D02*
X004050Y016540D01*
X004050Y016618D02*
X004130Y016618D01*
X004130Y016697D02*
X004050Y016697D01*
X004050Y016775D02*
X004130Y016775D01*
X004130Y016854D02*
X004050Y016854D01*
X004050Y016932D02*
X004130Y016932D01*
X004130Y017011D02*
X004050Y017011D01*
X004050Y017089D02*
X004130Y017089D01*
X004130Y017168D02*
X004050Y017168D01*
X003950Y017168D02*
X003375Y017168D01*
X003454Y017246D02*
X007992Y017246D01*
X007992Y017168D02*
X004230Y017168D01*
X004424Y017089D02*
X008009Y017089D01*
X008047Y017011D02*
X004528Y017011D01*
X004599Y016932D02*
X008133Y016932D01*
X008290Y017190D02*
X008990Y017190D01*
X008781Y017403D02*
X008499Y017403D01*
X008366Y017482D02*
X008914Y017482D01*
X009333Y017639D02*
X012590Y017639D01*
X012590Y017717D02*
X009411Y017717D01*
X009490Y017796D02*
X012590Y017796D01*
X012590Y017874D02*
X009560Y017874D01*
X009560Y017953D02*
X012590Y017953D01*
X012590Y018031D02*
X009560Y018031D01*
X009560Y018110D02*
X012590Y018110D01*
X012590Y018188D02*
X009560Y018188D01*
X009507Y018267D02*
X012590Y018267D01*
X012590Y018345D02*
X009429Y018345D01*
X009350Y018424D02*
X012590Y018424D01*
X012590Y018502D02*
X004130Y018502D01*
X004130Y018500D02*
X004732Y018500D01*
X004732Y018498D01*
X004722Y018414D01*
X004700Y018333D01*
X004667Y018255D01*
X004625Y018182D01*
X004574Y018115D01*
X004515Y018056D01*
X004448Y018005D01*
X004375Y017963D01*
X004297Y017930D01*
X004216Y017908D01*
X004132Y017898D01*
X004130Y017898D01*
X004130Y018500D01*
X004130Y018424D02*
X004050Y018424D01*
X004050Y018345D02*
X004130Y018345D01*
X004130Y018267D02*
X004050Y018267D01*
X004050Y018188D02*
X004130Y018188D01*
X004130Y018110D02*
X004050Y018110D01*
X004050Y018031D02*
X004130Y018031D01*
X004130Y017953D02*
X004050Y017953D01*
X004351Y017953D02*
X008720Y017953D01*
X008720Y018031D02*
X004482Y018031D01*
X004568Y018110D02*
X008720Y018110D01*
X008720Y018188D02*
X004629Y018188D01*
X004672Y018267D02*
X008773Y018267D01*
X008851Y018345D02*
X004703Y018345D01*
X004723Y018424D02*
X008930Y018424D01*
X008214Y017482D02*
X003555Y017482D01*
X003537Y017403D02*
X008081Y017403D01*
X008023Y017325D02*
X003504Y017325D01*
X003756Y017089D02*
X003216Y017089D01*
X002130Y017089D02*
X002050Y017089D01*
X002050Y017011D02*
X002130Y017011D01*
X002130Y016932D02*
X002050Y016932D01*
X002050Y016854D02*
X002130Y016854D01*
X002130Y016775D02*
X002050Y016775D01*
X002050Y016697D02*
X002130Y016697D01*
X002130Y017168D02*
X002050Y017168D01*
X004344Y019130D02*
X012590Y019130D01*
X012590Y019052D02*
X004479Y019052D01*
X004566Y018973D02*
X012590Y018973D01*
X012590Y018895D02*
X004627Y018895D01*
X004671Y018816D02*
X012590Y018816D01*
X012590Y018738D02*
X004702Y018738D01*
X004722Y018659D02*
X012590Y018659D01*
X012590Y018581D02*
X004732Y018581D01*
X008447Y016932D02*
X008833Y016932D01*
X008747Y017011D02*
X008533Y017011D01*
D14*
X008290Y017190D03*
X008990Y017190D03*
X008990Y016390D03*
X008990Y013690D03*
X008290Y013690D03*
X008990Y012890D03*
X008990Y010190D03*
X008290Y010190D03*
X008990Y009390D03*
X008990Y006690D03*
X008290Y006690D03*
X008990Y005890D03*
X006240Y007940D03*
X005440Y006690D03*
X005440Y010190D03*
X006240Y011440D03*
X005440Y013690D03*
X006240Y014940D03*
X005440Y017190D03*
X006090Y018190D03*
X005440Y019790D03*
X003290Y020090D03*
X011290Y020090D03*
X012290Y018690D03*
X013440Y019790D03*
X013190Y017090D03*
X012204Y016447D03*
X012290Y015190D03*
X013190Y015190D03*
X013190Y013590D03*
X012204Y012944D03*
X012290Y011690D03*
X013190Y011690D03*
X013190Y010090D03*
X012204Y009440D03*
X012290Y008190D03*
X013190Y008190D03*
X013190Y006590D03*
X012204Y005936D03*
M02*
