G75*
G70*
%OFA0B0*%
%FSLAX24Y24*%
%IPPOS*%
%LPD*%
%AMOC8*
5,1,8,0,0,1.08239X$1,22.5*
%
%ADD10R,0.0631X0.0190*%
%ADD11C,0.1085*%
%ADD12C,0.0770*%
%ADD13R,0.0474X0.0513*%
%ADD14OC8,0.0680*%
%ADD15R,0.0493X0.0505*%
%ADD16R,0.0710X0.0218*%
%ADD17R,0.0505X0.0493*%
%ADD18R,0.0297X0.0474*%
%ADD19C,0.0437*%
D10*
X006097Y006296D03*
X006097Y006493D03*
X006097Y006690D03*
X006097Y006887D03*
X006097Y007084D03*
X007783Y007084D03*
X007783Y006887D03*
X007783Y006690D03*
X007783Y006493D03*
X007783Y006296D03*
X007783Y009796D03*
X007783Y009993D03*
X007783Y010190D03*
X007783Y010387D03*
X007783Y010584D03*
X006097Y010584D03*
X006097Y010387D03*
X006097Y010190D03*
X006097Y009993D03*
X006097Y009796D03*
X006097Y013296D03*
X006097Y013493D03*
X006097Y013690D03*
X006097Y013887D03*
X006097Y014084D03*
X007783Y014084D03*
X007783Y013887D03*
X007783Y013690D03*
X007783Y013493D03*
X007783Y013296D03*
X007783Y016796D03*
X007783Y016993D03*
X007783Y017190D03*
X007783Y017387D03*
X007783Y017584D03*
X006097Y017584D03*
X006097Y017387D03*
X006097Y017190D03*
X006097Y016993D03*
X006097Y016796D03*
D11*
X004090Y016540D03*
X004090Y015040D03*
X004090Y013040D03*
X004090Y011540D03*
X002090Y011540D03*
X002090Y013040D03*
X002090Y015040D03*
X002090Y016540D03*
X002090Y018540D03*
X004090Y018540D03*
X004090Y009540D03*
X004090Y008040D03*
X004090Y006040D03*
X002090Y006040D03*
X002090Y008040D03*
X002090Y009540D03*
D12*
X003090Y010540D03*
X003090Y007040D03*
X003090Y014040D03*
X003090Y017540D03*
D13*
X009455Y017190D03*
X010125Y017190D03*
X010125Y016390D03*
X009455Y016390D03*
X009455Y013690D03*
X010125Y013690D03*
X010125Y012890D03*
X009455Y012890D03*
X009455Y010190D03*
X010125Y010190D03*
X010125Y009390D03*
X009455Y009390D03*
X009455Y006690D03*
X010125Y006690D03*
X010125Y005890D03*
X009455Y005890D03*
D14*
X002090Y001290D03*
X002090Y002290D03*
X003090Y002290D03*
X003090Y001290D03*
X004090Y001290D03*
X004090Y002290D03*
X005090Y002290D03*
X005090Y001290D03*
X006090Y001290D03*
X006090Y002290D03*
X007090Y002290D03*
X007090Y001290D03*
X008090Y001290D03*
X008090Y002290D03*
X009090Y002290D03*
X009090Y001290D03*
X010090Y001290D03*
X010090Y002290D03*
X011090Y002290D03*
X011090Y001290D03*
X012090Y001290D03*
X012090Y002290D03*
X013090Y002290D03*
X013090Y001290D03*
X014090Y001290D03*
X014090Y002290D03*
X015090Y002290D03*
X015090Y001290D03*
X016090Y001290D03*
X016090Y002290D03*
X017090Y002290D03*
X017090Y001290D03*
X018090Y001290D03*
X018090Y002290D03*
X019090Y002290D03*
X019090Y001290D03*
X020090Y001290D03*
X020090Y002290D03*
X021090Y002290D03*
X021090Y001290D03*
X009140Y007540D03*
X009140Y011040D03*
X009140Y014540D03*
X009140Y018040D03*
X005440Y016140D03*
X005440Y012640D03*
X005440Y009140D03*
X005440Y005640D03*
X002090Y020140D03*
X002090Y022290D03*
X002090Y023290D03*
X003090Y023290D03*
X003090Y022290D03*
X004090Y022290D03*
X004090Y023290D03*
X005090Y023290D03*
X005090Y022290D03*
X006090Y022290D03*
X006090Y023290D03*
X007090Y023290D03*
X007090Y022290D03*
X008090Y022290D03*
X008090Y023290D03*
X009090Y023290D03*
X009090Y022290D03*
X010090Y022290D03*
X010090Y023290D03*
X011090Y023290D03*
X011090Y022290D03*
X012090Y022290D03*
X012090Y023290D03*
X013090Y023290D03*
X013090Y022290D03*
X014090Y022290D03*
X014090Y023290D03*
X015090Y023290D03*
X015090Y022290D03*
X016090Y022290D03*
X016090Y023290D03*
X017090Y023290D03*
X017090Y022290D03*
X018090Y022290D03*
X018090Y023290D03*
X019090Y023290D03*
X019090Y022290D03*
X020090Y022290D03*
X020090Y023290D03*
X021090Y023290D03*
X021090Y022290D03*
D15*
X013884Y018190D03*
X013196Y018190D03*
X012284Y018190D03*
X011596Y018190D03*
X011796Y020090D03*
X012484Y020090D03*
X012284Y014690D03*
X011596Y014690D03*
X013196Y014690D03*
X013884Y014690D03*
X013884Y011190D03*
X013196Y011190D03*
X012284Y011190D03*
X011596Y011190D03*
X011596Y007690D03*
X012284Y007690D03*
X013196Y007690D03*
X013884Y007690D03*
X007384Y007890D03*
X007384Y008440D03*
X006696Y008440D03*
X006696Y007890D03*
X006696Y011390D03*
X006696Y011940D03*
X007384Y011940D03*
X007384Y011390D03*
X007384Y014890D03*
X007384Y015440D03*
X006696Y015440D03*
X006696Y014890D03*
X006596Y018190D03*
X006596Y018740D03*
X007284Y018740D03*
X007284Y018190D03*
X007284Y019440D03*
X006596Y019440D03*
X004484Y020090D03*
X003796Y020090D03*
D16*
X011638Y017586D03*
X011638Y017330D03*
X011638Y017074D03*
X011638Y016818D03*
X011638Y016562D03*
X011638Y016306D03*
X011638Y016050D03*
X011638Y015794D03*
X011638Y014086D03*
X011638Y013830D03*
X011638Y013574D03*
X011638Y013318D03*
X011638Y013062D03*
X011638Y012806D03*
X011638Y012550D03*
X011638Y012294D03*
X011638Y010586D03*
X011638Y010330D03*
X011638Y010074D03*
X011638Y009818D03*
X011638Y009562D03*
X011638Y009306D03*
X011638Y009050D03*
X011638Y008794D03*
X011638Y007086D03*
X011638Y006830D03*
X011638Y006574D03*
X011638Y006318D03*
X011638Y006062D03*
X011638Y005806D03*
X011638Y005550D03*
X011638Y005294D03*
X013842Y005294D03*
X013842Y005550D03*
X013842Y005806D03*
X013842Y006062D03*
X013842Y006318D03*
X013842Y006574D03*
X013842Y006830D03*
X013842Y007086D03*
X013842Y008794D03*
X013842Y009050D03*
X013842Y009306D03*
X013842Y009562D03*
X013842Y009818D03*
X013842Y010074D03*
X013842Y010330D03*
X013842Y010586D03*
X013842Y012294D03*
X013842Y012550D03*
X013842Y012806D03*
X013842Y013062D03*
X013842Y013318D03*
X013842Y013574D03*
X013842Y013830D03*
X013842Y014086D03*
X013842Y015794D03*
X013842Y016050D03*
X013842Y016306D03*
X013842Y016562D03*
X013842Y016818D03*
X013842Y017074D03*
X013842Y017330D03*
X013842Y017586D03*
D17*
X014490Y019246D03*
X014490Y019934D03*
X010790Y017134D03*
X010790Y016446D03*
X010790Y013634D03*
X010790Y012946D03*
X010790Y010134D03*
X010790Y009446D03*
X010790Y006634D03*
X010790Y005946D03*
D18*
X013066Y019059D03*
X013814Y019059D03*
X013814Y020121D03*
X013440Y020121D03*
X013066Y020121D03*
X005814Y020121D03*
X005440Y020121D03*
X005066Y020121D03*
X005066Y019059D03*
X005814Y019059D03*
D19*
X005440Y019790D03*
X006090Y018190D03*
X005440Y017190D03*
X006240Y014940D03*
X005440Y013690D03*
X006240Y011440D03*
X005440Y010190D03*
X006240Y007940D03*
X005440Y006690D03*
X008290Y006690D03*
X008990Y006690D03*
X008990Y005890D03*
X012204Y005936D03*
X013190Y006590D03*
X013190Y008190D03*
X012290Y008190D03*
X012204Y009440D03*
X013190Y010090D03*
X013190Y011690D03*
X012290Y011690D03*
X012204Y012944D03*
X013190Y013590D03*
X013190Y015190D03*
X012290Y015190D03*
X012204Y016447D03*
X013190Y017090D03*
X012290Y018690D03*
X013440Y019790D03*
X011290Y020090D03*
X008990Y017190D03*
X008290Y017190D03*
X008990Y016390D03*
X008990Y013690D03*
X008290Y013690D03*
X008990Y012890D03*
X008990Y010190D03*
X008290Y010190D03*
X008990Y009390D03*
X003290Y020090D03*
M02*
