G75*
G70*
%OFA0B0*%
%FSLAX24Y24*%
%IPPOS*%
%LPD*%
%AMOC8*
5,1,8,0,0,1.08239X$1,22.5*
%
%ADD10C,0.1005*%
%ADD11C,0.0690*%
%ADD12OC8,0.0600*%
%ADD13C,0.0080*%
%ADD14C,0.0357*%
%ADD15C,0.0120*%
D10*
X002090Y005040D03*
X004090Y005040D03*
X004090Y007040D03*
X004090Y008540D03*
X002090Y008540D03*
X002090Y007040D03*
X002090Y010540D03*
X002090Y012040D03*
X004090Y012040D03*
X004090Y010540D03*
X004090Y014040D03*
X004090Y015540D03*
X002090Y015540D03*
X002090Y014040D03*
X002090Y017540D03*
X004090Y017540D03*
D11*
X003090Y016540D03*
X003090Y013040D03*
X003090Y009540D03*
X003090Y006040D03*
D12*
X005440Y004640D03*
X005090Y002290D03*
X006090Y002290D03*
X006090Y001290D03*
X005090Y001290D03*
X004090Y001290D03*
X003090Y001290D03*
X002090Y001290D03*
X002090Y002290D03*
X003090Y002290D03*
X004090Y002290D03*
X007090Y002290D03*
X008090Y002290D03*
X009090Y002290D03*
X009090Y001290D03*
X008090Y001290D03*
X007090Y001290D03*
X010090Y001290D03*
X011090Y001290D03*
X012090Y001290D03*
X012090Y002290D03*
X011090Y002290D03*
X010090Y002290D03*
X013090Y002290D03*
X014090Y002290D03*
X014090Y001290D03*
X013090Y001290D03*
X015090Y001290D03*
X016090Y001290D03*
X017090Y001290D03*
X017090Y002290D03*
X016090Y002290D03*
X015090Y002290D03*
X018090Y002290D03*
X019090Y002290D03*
X020090Y002290D03*
X020090Y001290D03*
X019090Y001290D03*
X018090Y001290D03*
X021090Y001290D03*
X021090Y002290D03*
X009140Y006540D03*
X009140Y010040D03*
X009140Y013540D03*
X009140Y017040D03*
X009090Y020290D03*
X009090Y021290D03*
X008090Y021290D03*
X008090Y020290D03*
X007090Y020290D03*
X007090Y021290D03*
X006090Y021290D03*
X006090Y020290D03*
X005090Y020290D03*
X005090Y021290D03*
X004090Y021290D03*
X004090Y020290D03*
X003090Y020290D03*
X003090Y021290D03*
X002090Y021290D03*
X002090Y020290D03*
X002090Y019140D03*
X005440Y015140D03*
X005440Y011640D03*
X005440Y008140D03*
X010090Y020290D03*
X010090Y021290D03*
X011090Y021290D03*
X011090Y020290D03*
X012090Y020290D03*
X012090Y021290D03*
X013090Y021290D03*
X013090Y020290D03*
X014090Y020290D03*
X014090Y021290D03*
X015090Y021290D03*
X015090Y020290D03*
X016090Y020290D03*
X016090Y021290D03*
X017090Y021290D03*
X017090Y020290D03*
X018090Y020290D03*
X018090Y021290D03*
X019090Y021290D03*
X019090Y020290D03*
X020090Y020290D03*
X020090Y021290D03*
X021090Y021290D03*
X021090Y020290D03*
D13*
X001030Y003840D02*
X001030Y000730D01*
X022150Y000730D01*
X022150Y021850D01*
X001030Y021850D01*
X001030Y018940D01*
X001668Y018940D01*
X001650Y018958D01*
X001650Y019100D01*
X002050Y019100D01*
X002050Y019180D01*
X002050Y019580D01*
X001908Y019580D01*
X001650Y019322D01*
X001650Y019180D01*
X002050Y019180D01*
X002130Y019180D01*
X002530Y019180D01*
X002530Y019322D01*
X002272Y019580D01*
X002130Y019580D01*
X002130Y019180D01*
X002130Y019100D01*
X002530Y019100D01*
X002530Y018958D01*
X002512Y018940D01*
X012890Y018940D01*
X012890Y003840D01*
X001030Y003840D01*
X001030Y003823D02*
X022150Y003823D01*
X022150Y003901D02*
X012890Y003901D01*
X012890Y003980D02*
X022150Y003980D01*
X022150Y004058D02*
X012890Y004058D01*
X012890Y004137D02*
X022150Y004137D01*
X022150Y004215D02*
X012890Y004215D01*
X012890Y004294D02*
X022150Y004294D01*
X022150Y004372D02*
X012890Y004372D01*
X012890Y004451D02*
X022150Y004451D01*
X022150Y004529D02*
X012890Y004529D01*
X012890Y004608D02*
X022150Y004608D01*
X022150Y004686D02*
X012890Y004686D01*
X012890Y004765D02*
X022150Y004765D01*
X022150Y004843D02*
X012890Y004843D01*
X012890Y004922D02*
X022150Y004922D01*
X022150Y005000D02*
X012890Y005000D01*
X012890Y005079D02*
X022150Y005079D01*
X022150Y005157D02*
X012890Y005157D01*
X012890Y005236D02*
X022150Y005236D01*
X022150Y005314D02*
X012890Y005314D01*
X012890Y005393D02*
X022150Y005393D01*
X022150Y005471D02*
X012890Y005471D01*
X012890Y005550D02*
X022150Y005550D01*
X022150Y005628D02*
X012890Y005628D01*
X012890Y005707D02*
X022150Y005707D01*
X022150Y005785D02*
X012890Y005785D01*
X012890Y005864D02*
X022150Y005864D01*
X022150Y005942D02*
X012890Y005942D01*
X012890Y006021D02*
X022150Y006021D01*
X022150Y006099D02*
X012890Y006099D01*
X012890Y006178D02*
X022150Y006178D01*
X022150Y006256D02*
X012890Y006256D01*
X012890Y006335D02*
X022150Y006335D01*
X022150Y006413D02*
X012890Y006413D01*
X012890Y006492D02*
X022150Y006492D01*
X022150Y006570D02*
X012890Y006570D01*
X012890Y006649D02*
X022150Y006649D01*
X022150Y006727D02*
X012890Y006727D01*
X012890Y006806D02*
X022150Y006806D01*
X022150Y006884D02*
X012890Y006884D01*
X012890Y006963D02*
X022150Y006963D01*
X022150Y007041D02*
X012890Y007041D01*
X012890Y007120D02*
X022150Y007120D01*
X022150Y007198D02*
X012890Y007198D01*
X012890Y007277D02*
X022150Y007277D01*
X022150Y007355D02*
X012890Y007355D01*
X012890Y007434D02*
X022150Y007434D01*
X022150Y007512D02*
X012890Y007512D01*
X012890Y007591D02*
X022150Y007591D01*
X022150Y007669D02*
X012890Y007669D01*
X012890Y007748D02*
X022150Y007748D01*
X022150Y007826D02*
X012890Y007826D01*
X012890Y007905D02*
X022150Y007905D01*
X022150Y007983D02*
X012890Y007983D01*
X012890Y008062D02*
X022150Y008062D01*
X022150Y008140D02*
X012890Y008140D01*
X012890Y008219D02*
X022150Y008219D01*
X022150Y008297D02*
X012890Y008297D01*
X012890Y008376D02*
X022150Y008376D01*
X022150Y008454D02*
X012890Y008454D01*
X012890Y008533D02*
X022150Y008533D01*
X022150Y008611D02*
X012890Y008611D01*
X012890Y008690D02*
X022150Y008690D01*
X022150Y008768D02*
X012890Y008768D01*
X012890Y008847D02*
X022150Y008847D01*
X022150Y008925D02*
X012890Y008925D01*
X012890Y009004D02*
X022150Y009004D01*
X022150Y009082D02*
X012890Y009082D01*
X012890Y009161D02*
X022150Y009161D01*
X022150Y009239D02*
X012890Y009239D01*
X012890Y009318D02*
X022150Y009318D01*
X022150Y009396D02*
X012890Y009396D01*
X012890Y009475D02*
X022150Y009475D01*
X022150Y009553D02*
X012890Y009553D01*
X012890Y009632D02*
X022150Y009632D01*
X022150Y009710D02*
X012890Y009710D01*
X012890Y009789D02*
X022150Y009789D01*
X022150Y009867D02*
X012890Y009867D01*
X012890Y009946D02*
X022150Y009946D01*
X022150Y010024D02*
X012890Y010024D01*
X012890Y010103D02*
X022150Y010103D01*
X022150Y010181D02*
X012890Y010181D01*
X012890Y010260D02*
X022150Y010260D01*
X022150Y010338D02*
X012890Y010338D01*
X012890Y010417D02*
X022150Y010417D01*
X022150Y010495D02*
X012890Y010495D01*
X012890Y010574D02*
X022150Y010574D01*
X022150Y010652D02*
X012890Y010652D01*
X012890Y010731D02*
X022150Y010731D01*
X022150Y010809D02*
X012890Y010809D01*
X012890Y010888D02*
X022150Y010888D01*
X022150Y010966D02*
X012890Y010966D01*
X012890Y011045D02*
X022150Y011045D01*
X022150Y011123D02*
X012890Y011123D01*
X012890Y011202D02*
X022150Y011202D01*
X022150Y011280D02*
X012890Y011280D01*
X012890Y011359D02*
X022150Y011359D01*
X022150Y011437D02*
X012890Y011437D01*
X012890Y011516D02*
X022150Y011516D01*
X022150Y011594D02*
X012890Y011594D01*
X012890Y011673D02*
X022150Y011673D01*
X022150Y011751D02*
X012890Y011751D01*
X012890Y011830D02*
X022150Y011830D01*
X022150Y011908D02*
X012890Y011908D01*
X012890Y011987D02*
X022150Y011987D01*
X022150Y012065D02*
X012890Y012065D01*
X012890Y012144D02*
X022150Y012144D01*
X022150Y012222D02*
X012890Y012222D01*
X012890Y012301D02*
X022150Y012301D01*
X022150Y012379D02*
X012890Y012379D01*
X012890Y012458D02*
X022150Y012458D01*
X022150Y012536D02*
X012890Y012536D01*
X012890Y012615D02*
X022150Y012615D01*
X022150Y012693D02*
X012890Y012693D01*
X012890Y012772D02*
X022150Y012772D01*
X022150Y012850D02*
X012890Y012850D01*
X012890Y012929D02*
X022150Y012929D01*
X022150Y013007D02*
X012890Y013007D01*
X012890Y013086D02*
X022150Y013086D01*
X022150Y013164D02*
X012890Y013164D01*
X012890Y013243D02*
X022150Y013243D01*
X022150Y013321D02*
X012890Y013321D01*
X012890Y013400D02*
X022150Y013400D01*
X022150Y013478D02*
X012890Y013478D01*
X012890Y013557D02*
X022150Y013557D01*
X022150Y013635D02*
X012890Y013635D01*
X012890Y013714D02*
X022150Y013714D01*
X022150Y013792D02*
X012890Y013792D01*
X012890Y013871D02*
X022150Y013871D01*
X022150Y013949D02*
X012890Y013949D01*
X012890Y014028D02*
X022150Y014028D01*
X022150Y014106D02*
X012890Y014106D01*
X012890Y014185D02*
X022150Y014185D01*
X022150Y014263D02*
X012890Y014263D01*
X012890Y014342D02*
X022150Y014342D01*
X022150Y014420D02*
X012890Y014420D01*
X012890Y014499D02*
X022150Y014499D01*
X022150Y014577D02*
X012890Y014577D01*
X012890Y014656D02*
X022150Y014656D01*
X022150Y014734D02*
X012890Y014734D01*
X012890Y014813D02*
X022150Y014813D01*
X022150Y014891D02*
X012890Y014891D01*
X012890Y014970D02*
X022150Y014970D01*
X022150Y015048D02*
X012890Y015048D01*
X012890Y015127D02*
X022150Y015127D01*
X022150Y015205D02*
X012890Y015205D01*
X012890Y015284D02*
X022150Y015284D01*
X022150Y015362D02*
X012890Y015362D01*
X012890Y015441D02*
X022150Y015441D01*
X022150Y015519D02*
X012890Y015519D01*
X012890Y015598D02*
X022150Y015598D01*
X022150Y015676D02*
X012890Y015676D01*
X012890Y015755D02*
X022150Y015755D01*
X022150Y015833D02*
X012890Y015833D01*
X012890Y015912D02*
X022150Y015912D01*
X022150Y015990D02*
X012890Y015990D01*
X012890Y016069D02*
X022150Y016069D01*
X022150Y016147D02*
X012890Y016147D01*
X012890Y016226D02*
X022150Y016226D01*
X022150Y016304D02*
X012890Y016304D01*
X012890Y016383D02*
X022150Y016383D01*
X022150Y016461D02*
X012890Y016461D01*
X012890Y016540D02*
X022150Y016540D01*
X022150Y016618D02*
X012890Y016618D01*
X012890Y016697D02*
X022150Y016697D01*
X022150Y016775D02*
X012890Y016775D01*
X012890Y016854D02*
X022150Y016854D01*
X022150Y016932D02*
X012890Y016932D01*
X012890Y017011D02*
X022150Y017011D01*
X022150Y017089D02*
X012890Y017089D01*
X012890Y017168D02*
X022150Y017168D01*
X022150Y017246D02*
X012890Y017246D01*
X012890Y017325D02*
X022150Y017325D01*
X022150Y017403D02*
X012890Y017403D01*
X012890Y017482D02*
X022150Y017482D01*
X022150Y017560D02*
X012890Y017560D01*
X012890Y017639D02*
X022150Y017639D01*
X022150Y017717D02*
X012890Y017717D01*
X012890Y017796D02*
X022150Y017796D01*
X022150Y017874D02*
X012890Y017874D01*
X012890Y017953D02*
X022150Y017953D01*
X022150Y018031D02*
X012890Y018031D01*
X012890Y018110D02*
X022150Y018110D01*
X022150Y018188D02*
X012890Y018188D01*
X012890Y018267D02*
X022150Y018267D01*
X022150Y018345D02*
X012890Y018345D01*
X012890Y018424D02*
X022150Y018424D01*
X022150Y018502D02*
X012890Y018502D01*
X012890Y018581D02*
X022150Y018581D01*
X022150Y018659D02*
X012890Y018659D01*
X012890Y018738D02*
X022150Y018738D01*
X022150Y018816D02*
X012890Y018816D01*
X012890Y018895D02*
X022150Y018895D01*
X022150Y018973D02*
X002530Y018973D01*
X002530Y019052D02*
X022150Y019052D01*
X022150Y019130D02*
X002130Y019130D01*
X002130Y019209D02*
X002050Y019209D01*
X002050Y019287D02*
X002130Y019287D01*
X002130Y019366D02*
X002050Y019366D01*
X002050Y019444D02*
X002130Y019444D01*
X002130Y019523D02*
X002050Y019523D01*
X001850Y019523D02*
X001030Y019523D01*
X001030Y019601D02*
X005472Y019601D01*
X005472Y019603D02*
X005472Y019477D01*
X005520Y019360D01*
X005610Y019270D01*
X005727Y019222D01*
X005853Y019222D01*
X005970Y019270D01*
X006040Y019340D01*
X012229Y019340D01*
X012304Y019265D01*
X012421Y019216D01*
X012548Y019216D01*
X012665Y019265D01*
X012754Y019354D01*
X012803Y019471D01*
X012803Y019598D01*
X012754Y019715D01*
X012665Y019804D01*
X012548Y019853D01*
X012421Y019853D01*
X012304Y019804D01*
X012240Y019740D01*
X006040Y019740D01*
X005970Y019810D01*
X005853Y019858D01*
X005727Y019858D01*
X005610Y019810D01*
X005520Y019720D01*
X005472Y019603D01*
X005472Y019523D02*
X002330Y019523D01*
X002408Y019444D02*
X005485Y019444D01*
X005518Y019366D02*
X002487Y019366D01*
X002530Y019287D02*
X005593Y019287D01*
X005987Y019287D02*
X012282Y019287D01*
X012687Y019287D02*
X022150Y019287D01*
X022150Y019209D02*
X002530Y019209D01*
X002050Y019130D02*
X001030Y019130D01*
X001030Y019052D02*
X001650Y019052D01*
X001650Y018973D02*
X001030Y018973D01*
X001030Y019209D02*
X001650Y019209D01*
X001650Y019287D02*
X001030Y019287D01*
X001030Y019366D02*
X001693Y019366D01*
X001772Y019444D02*
X001030Y019444D01*
X001030Y019680D02*
X005503Y019680D01*
X005558Y019758D02*
X001030Y019758D01*
X001030Y019837D02*
X005674Y019837D01*
X005764Y019994D02*
X005416Y019994D01*
X005494Y020072D02*
X005686Y020072D01*
X005650Y020108D02*
X005908Y019850D01*
X006272Y019850D01*
X006530Y020108D01*
X006530Y020472D01*
X006272Y020730D01*
X005908Y020730D01*
X005650Y020472D01*
X005650Y020108D01*
X005650Y020151D02*
X005530Y020151D01*
X005530Y020108D02*
X005272Y019850D01*
X004908Y019850D01*
X004650Y020108D01*
X004650Y020472D01*
X004908Y020730D01*
X005272Y020730D01*
X005530Y020472D01*
X005530Y020108D01*
X005530Y020229D02*
X005650Y020229D01*
X005650Y020308D02*
X005530Y020308D01*
X005530Y020386D02*
X005650Y020386D01*
X005650Y020465D02*
X005530Y020465D01*
X005459Y020543D02*
X005721Y020543D01*
X005799Y020622D02*
X005381Y020622D01*
X005302Y020700D02*
X005878Y020700D01*
X005908Y020850D02*
X006272Y020850D01*
X006530Y021108D01*
X006530Y021472D01*
X006272Y021730D01*
X005908Y021730D01*
X005650Y021472D01*
X005650Y021108D01*
X005908Y020850D01*
X005901Y020857D02*
X005279Y020857D01*
X005272Y020850D02*
X005530Y021108D01*
X005530Y021472D01*
X005272Y021730D01*
X004908Y021730D01*
X004650Y021472D01*
X004650Y021108D01*
X004908Y020850D01*
X005272Y020850D01*
X005358Y020936D02*
X005822Y020936D01*
X005744Y021014D02*
X005436Y021014D01*
X005515Y021093D02*
X005665Y021093D01*
X005650Y021171D02*
X005530Y021171D01*
X005530Y021250D02*
X005650Y021250D01*
X005650Y021328D02*
X005530Y021328D01*
X005530Y021407D02*
X005650Y021407D01*
X005663Y021485D02*
X005517Y021485D01*
X005439Y021564D02*
X005741Y021564D01*
X005820Y021642D02*
X005360Y021642D01*
X005282Y021721D02*
X005898Y021721D01*
X006282Y021721D02*
X006898Y021721D01*
X006908Y021730D02*
X006650Y021472D01*
X006650Y021108D01*
X006908Y020850D01*
X007272Y020850D01*
X007530Y021108D01*
X007530Y021472D01*
X007272Y021730D01*
X006908Y021730D01*
X006820Y021642D02*
X006360Y021642D01*
X006439Y021564D02*
X006741Y021564D01*
X006663Y021485D02*
X006517Y021485D01*
X006530Y021407D02*
X006650Y021407D01*
X006650Y021328D02*
X006530Y021328D01*
X006530Y021250D02*
X006650Y021250D01*
X006650Y021171D02*
X006530Y021171D01*
X006515Y021093D02*
X006665Y021093D01*
X006744Y021014D02*
X006436Y021014D01*
X006358Y020936D02*
X006822Y020936D01*
X006901Y020857D02*
X006279Y020857D01*
X006302Y020700D02*
X006878Y020700D01*
X006908Y020730D02*
X006650Y020472D01*
X006650Y020108D01*
X006908Y019850D01*
X007272Y019850D01*
X007530Y020108D01*
X007530Y020472D01*
X007272Y020730D01*
X006908Y020730D01*
X006799Y020622D02*
X006381Y020622D01*
X006459Y020543D02*
X006721Y020543D01*
X006650Y020465D02*
X006530Y020465D01*
X006530Y020386D02*
X006650Y020386D01*
X006650Y020308D02*
X006530Y020308D01*
X006530Y020229D02*
X006650Y020229D01*
X006650Y020151D02*
X006530Y020151D01*
X006494Y020072D02*
X006686Y020072D01*
X006764Y019994D02*
X006416Y019994D01*
X006337Y019915D02*
X006843Y019915D01*
X007337Y019915D02*
X007843Y019915D01*
X007908Y019850D02*
X008272Y019850D01*
X008530Y020108D01*
X008530Y020472D01*
X008272Y020730D01*
X007908Y020730D01*
X007650Y020472D01*
X007650Y020108D01*
X007908Y019850D01*
X007764Y019994D02*
X007416Y019994D01*
X007494Y020072D02*
X007686Y020072D01*
X007650Y020151D02*
X007530Y020151D01*
X007530Y020229D02*
X007650Y020229D01*
X007650Y020308D02*
X007530Y020308D01*
X007530Y020386D02*
X007650Y020386D01*
X007650Y020465D02*
X007530Y020465D01*
X007459Y020543D02*
X007721Y020543D01*
X007799Y020622D02*
X007381Y020622D01*
X007302Y020700D02*
X007878Y020700D01*
X007908Y020850D02*
X008272Y020850D01*
X008530Y021108D01*
X008530Y021472D01*
X008272Y021730D01*
X007908Y021730D01*
X007650Y021472D01*
X007650Y021108D01*
X007908Y020850D01*
X007901Y020857D02*
X007279Y020857D01*
X007358Y020936D02*
X007822Y020936D01*
X007744Y021014D02*
X007436Y021014D01*
X007515Y021093D02*
X007665Y021093D01*
X007650Y021171D02*
X007530Y021171D01*
X007530Y021250D02*
X007650Y021250D01*
X007650Y021328D02*
X007530Y021328D01*
X007530Y021407D02*
X007650Y021407D01*
X007663Y021485D02*
X007517Y021485D01*
X007439Y021564D02*
X007741Y021564D01*
X007820Y021642D02*
X007360Y021642D01*
X007282Y021721D02*
X007898Y021721D01*
X008282Y021721D02*
X008898Y021721D01*
X008908Y021730D02*
X008650Y021472D01*
X008650Y021108D01*
X008908Y020850D01*
X009272Y020850D01*
X009530Y021108D01*
X009530Y021472D01*
X009272Y021730D01*
X008908Y021730D01*
X008820Y021642D02*
X008360Y021642D01*
X008439Y021564D02*
X008741Y021564D01*
X008663Y021485D02*
X008517Y021485D01*
X008530Y021407D02*
X008650Y021407D01*
X008650Y021328D02*
X008530Y021328D01*
X008530Y021250D02*
X008650Y021250D01*
X008650Y021171D02*
X008530Y021171D01*
X008515Y021093D02*
X008665Y021093D01*
X008744Y021014D02*
X008436Y021014D01*
X008358Y020936D02*
X008822Y020936D01*
X008901Y020857D02*
X008279Y020857D01*
X008302Y020700D02*
X008878Y020700D01*
X008908Y020730D02*
X008650Y020472D01*
X008650Y020108D01*
X008908Y019850D01*
X009272Y019850D01*
X009530Y020108D01*
X009530Y020472D01*
X009272Y020730D01*
X008908Y020730D01*
X008799Y020622D02*
X008381Y020622D01*
X008459Y020543D02*
X008721Y020543D01*
X008650Y020465D02*
X008530Y020465D01*
X008530Y020386D02*
X008650Y020386D01*
X008650Y020308D02*
X008530Y020308D01*
X008530Y020229D02*
X008650Y020229D01*
X008650Y020151D02*
X008530Y020151D01*
X008494Y020072D02*
X008686Y020072D01*
X008764Y019994D02*
X008416Y019994D01*
X008337Y019915D02*
X008843Y019915D01*
X009337Y019915D02*
X009843Y019915D01*
X009908Y019850D02*
X010272Y019850D01*
X010530Y020108D01*
X010530Y020472D01*
X010272Y020730D01*
X009908Y020730D01*
X009650Y020472D01*
X009650Y020108D01*
X009908Y019850D01*
X009764Y019994D02*
X009416Y019994D01*
X009494Y020072D02*
X009686Y020072D01*
X009650Y020151D02*
X009530Y020151D01*
X009530Y020229D02*
X009650Y020229D01*
X009650Y020308D02*
X009530Y020308D01*
X009530Y020386D02*
X009650Y020386D01*
X009650Y020465D02*
X009530Y020465D01*
X009459Y020543D02*
X009721Y020543D01*
X009799Y020622D02*
X009381Y020622D01*
X009302Y020700D02*
X009878Y020700D01*
X009908Y020850D02*
X010272Y020850D01*
X010530Y021108D01*
X010530Y021472D01*
X010272Y021730D01*
X009908Y021730D01*
X009650Y021472D01*
X009650Y021108D01*
X009908Y020850D01*
X009901Y020857D02*
X009279Y020857D01*
X009358Y020936D02*
X009822Y020936D01*
X009744Y021014D02*
X009436Y021014D01*
X009515Y021093D02*
X009665Y021093D01*
X009650Y021171D02*
X009530Y021171D01*
X009530Y021250D02*
X009650Y021250D01*
X009650Y021328D02*
X009530Y021328D01*
X009530Y021407D02*
X009650Y021407D01*
X009663Y021485D02*
X009517Y021485D01*
X009439Y021564D02*
X009741Y021564D01*
X009820Y021642D02*
X009360Y021642D01*
X009282Y021721D02*
X009898Y021721D01*
X010282Y021721D02*
X010898Y021721D01*
X010908Y021730D02*
X010650Y021472D01*
X010650Y021108D01*
X010908Y020850D01*
X011272Y020850D01*
X011530Y021108D01*
X011530Y021472D01*
X011272Y021730D01*
X010908Y021730D01*
X010820Y021642D02*
X010360Y021642D01*
X010439Y021564D02*
X010741Y021564D01*
X010663Y021485D02*
X010517Y021485D01*
X010530Y021407D02*
X010650Y021407D01*
X010650Y021328D02*
X010530Y021328D01*
X010530Y021250D02*
X010650Y021250D01*
X010650Y021171D02*
X010530Y021171D01*
X010515Y021093D02*
X010665Y021093D01*
X010744Y021014D02*
X010436Y021014D01*
X010358Y020936D02*
X010822Y020936D01*
X010901Y020857D02*
X010279Y020857D01*
X010302Y020700D02*
X010878Y020700D01*
X010908Y020730D02*
X010650Y020472D01*
X010650Y020108D01*
X010908Y019850D01*
X011272Y019850D01*
X011530Y020108D01*
X011530Y020472D01*
X011272Y020730D01*
X010908Y020730D01*
X010799Y020622D02*
X010381Y020622D01*
X010459Y020543D02*
X010721Y020543D01*
X010650Y020465D02*
X010530Y020465D01*
X010530Y020386D02*
X010650Y020386D01*
X010650Y020308D02*
X010530Y020308D01*
X010530Y020229D02*
X010650Y020229D01*
X010650Y020151D02*
X010530Y020151D01*
X010494Y020072D02*
X010686Y020072D01*
X010764Y019994D02*
X010416Y019994D01*
X010337Y019915D02*
X010843Y019915D01*
X011337Y019915D02*
X011843Y019915D01*
X011908Y019850D02*
X011650Y020108D01*
X011650Y020472D01*
X011908Y020730D01*
X012272Y020730D01*
X012530Y020472D01*
X012530Y020108D01*
X012272Y019850D01*
X011908Y019850D01*
X011764Y019994D02*
X011416Y019994D01*
X011494Y020072D02*
X011686Y020072D01*
X011650Y020151D02*
X011530Y020151D01*
X011530Y020229D02*
X011650Y020229D01*
X011650Y020308D02*
X011530Y020308D01*
X011530Y020386D02*
X011650Y020386D01*
X011650Y020465D02*
X011530Y020465D01*
X011459Y020543D02*
X011721Y020543D01*
X011799Y020622D02*
X011381Y020622D01*
X011302Y020700D02*
X011878Y020700D01*
X011908Y020850D02*
X012272Y020850D01*
X012530Y021108D01*
X012530Y021472D01*
X012272Y021730D01*
X011908Y021730D01*
X011650Y021472D01*
X011650Y021108D01*
X011908Y020850D01*
X011901Y020857D02*
X011279Y020857D01*
X011358Y020936D02*
X011822Y020936D01*
X011744Y021014D02*
X011436Y021014D01*
X011515Y021093D02*
X011665Y021093D01*
X011650Y021171D02*
X011530Y021171D01*
X011530Y021250D02*
X011650Y021250D01*
X011650Y021328D02*
X011530Y021328D01*
X011530Y021407D02*
X011650Y021407D01*
X011663Y021485D02*
X011517Y021485D01*
X011439Y021564D02*
X011741Y021564D01*
X011820Y021642D02*
X011360Y021642D01*
X011282Y021721D02*
X011898Y021721D01*
X012282Y021721D02*
X012898Y021721D01*
X012908Y021730D02*
X012650Y021472D01*
X012650Y021108D01*
X012908Y020850D01*
X013272Y020850D01*
X013530Y021108D01*
X013530Y021472D01*
X013272Y021730D01*
X012908Y021730D01*
X012820Y021642D02*
X012360Y021642D01*
X012439Y021564D02*
X012741Y021564D01*
X012663Y021485D02*
X012517Y021485D01*
X012530Y021407D02*
X012650Y021407D01*
X012650Y021328D02*
X012530Y021328D01*
X012530Y021250D02*
X012650Y021250D01*
X012650Y021171D02*
X012530Y021171D01*
X012515Y021093D02*
X012665Y021093D01*
X012744Y021014D02*
X012436Y021014D01*
X012358Y020936D02*
X012822Y020936D01*
X012901Y020857D02*
X012279Y020857D01*
X012302Y020700D02*
X012878Y020700D01*
X012908Y020730D02*
X012650Y020472D01*
X012650Y020108D01*
X012908Y019850D01*
X013272Y019850D01*
X013530Y020108D01*
X013530Y020472D01*
X013272Y020730D01*
X012908Y020730D01*
X012799Y020622D02*
X012381Y020622D01*
X012459Y020543D02*
X012721Y020543D01*
X012650Y020465D02*
X012530Y020465D01*
X012530Y020386D02*
X012650Y020386D01*
X012650Y020308D02*
X012530Y020308D01*
X012530Y020229D02*
X012650Y020229D01*
X012650Y020151D02*
X012530Y020151D01*
X012494Y020072D02*
X012686Y020072D01*
X012764Y019994D02*
X012416Y019994D01*
X012337Y019915D02*
X012843Y019915D01*
X012711Y019758D02*
X022150Y019758D01*
X022150Y019680D02*
X012769Y019680D01*
X012802Y019601D02*
X022150Y019601D01*
X022150Y019523D02*
X012803Y019523D01*
X012792Y019444D02*
X022150Y019444D01*
X022150Y019366D02*
X012759Y019366D01*
X012258Y019758D02*
X006022Y019758D01*
X005906Y019837D02*
X012382Y019837D01*
X012587Y019837D02*
X022150Y019837D01*
X022150Y019915D02*
X021337Y019915D01*
X021272Y019850D02*
X021530Y020108D01*
X021530Y020472D01*
X021272Y020730D01*
X020908Y020730D01*
X020650Y020472D01*
X020650Y020108D01*
X020908Y019850D01*
X021272Y019850D01*
X021416Y019994D02*
X022150Y019994D01*
X022150Y020072D02*
X021494Y020072D01*
X021530Y020151D02*
X022150Y020151D01*
X022150Y020229D02*
X021530Y020229D01*
X021530Y020308D02*
X022150Y020308D01*
X022150Y020386D02*
X021530Y020386D01*
X021530Y020465D02*
X022150Y020465D01*
X022150Y020543D02*
X021459Y020543D01*
X021381Y020622D02*
X022150Y020622D01*
X022150Y020700D02*
X021302Y020700D01*
X021272Y020850D02*
X021530Y021108D01*
X021530Y021472D01*
X021272Y021730D01*
X020908Y021730D01*
X020650Y021472D01*
X020650Y021108D01*
X020908Y020850D01*
X021272Y020850D01*
X021279Y020857D02*
X022150Y020857D01*
X022150Y020779D02*
X001030Y020779D01*
X001030Y020857D02*
X001901Y020857D01*
X001908Y020850D02*
X002050Y020850D01*
X002050Y021250D01*
X002130Y021250D01*
X002130Y021330D01*
X002530Y021330D01*
X002530Y021472D01*
X002272Y021730D01*
X002130Y021730D01*
X002130Y021330D01*
X002050Y021330D01*
X002050Y021730D01*
X001908Y021730D01*
X001650Y021472D01*
X001650Y021330D01*
X002050Y021330D01*
X002050Y021250D01*
X001650Y021250D01*
X001650Y021108D01*
X001908Y020850D01*
X001908Y020730D02*
X001650Y020472D01*
X001650Y020108D01*
X001908Y019850D01*
X002272Y019850D01*
X002530Y020108D01*
X002530Y020472D01*
X002272Y020730D01*
X001908Y020730D01*
X001878Y020700D02*
X001030Y020700D01*
X001030Y020622D02*
X001799Y020622D01*
X001721Y020543D02*
X001030Y020543D01*
X001030Y020465D02*
X001650Y020465D01*
X001650Y020386D02*
X001030Y020386D01*
X001030Y020308D02*
X001650Y020308D01*
X001650Y020229D02*
X001030Y020229D01*
X001030Y020151D02*
X001650Y020151D01*
X001686Y020072D02*
X001030Y020072D01*
X001030Y019994D02*
X001764Y019994D01*
X001843Y019915D02*
X001030Y019915D01*
X001030Y020936D02*
X001822Y020936D01*
X001744Y021014D02*
X001030Y021014D01*
X001030Y021093D02*
X001665Y021093D01*
X001650Y021171D02*
X001030Y021171D01*
X001030Y021250D02*
X001650Y021250D01*
X001650Y021407D02*
X001030Y021407D01*
X001030Y021485D02*
X001663Y021485D01*
X001741Y021564D02*
X001030Y021564D01*
X001030Y021642D02*
X001820Y021642D01*
X001898Y021721D02*
X001030Y021721D01*
X001030Y021799D02*
X022150Y021799D01*
X022150Y021721D02*
X021282Y021721D01*
X021360Y021642D02*
X022150Y021642D01*
X022150Y021564D02*
X021439Y021564D01*
X021517Y021485D02*
X022150Y021485D01*
X022150Y021407D02*
X021530Y021407D01*
X021530Y021328D02*
X022150Y021328D01*
X022150Y021250D02*
X021530Y021250D01*
X021530Y021171D02*
X022150Y021171D01*
X022150Y021093D02*
X021515Y021093D01*
X021436Y021014D02*
X022150Y021014D01*
X022150Y020936D02*
X021358Y020936D01*
X020901Y020857D02*
X020279Y020857D01*
X020272Y020850D02*
X020530Y021108D01*
X020530Y021472D01*
X020272Y021730D01*
X019908Y021730D01*
X019650Y021472D01*
X019650Y021108D01*
X019908Y020850D01*
X020272Y020850D01*
X020272Y020730D02*
X019908Y020730D01*
X019650Y020472D01*
X019650Y020108D01*
X019908Y019850D01*
X020272Y019850D01*
X020530Y020108D01*
X020530Y020472D01*
X020272Y020730D01*
X020302Y020700D02*
X020878Y020700D01*
X020799Y020622D02*
X020381Y020622D01*
X020459Y020543D02*
X020721Y020543D01*
X020650Y020465D02*
X020530Y020465D01*
X020530Y020386D02*
X020650Y020386D01*
X020650Y020308D02*
X020530Y020308D01*
X020530Y020229D02*
X020650Y020229D01*
X020650Y020151D02*
X020530Y020151D01*
X020494Y020072D02*
X020686Y020072D01*
X020764Y019994D02*
X020416Y019994D01*
X020337Y019915D02*
X020843Y019915D01*
X020822Y020936D02*
X020358Y020936D01*
X020436Y021014D02*
X020744Y021014D01*
X020665Y021093D02*
X020515Y021093D01*
X020530Y021171D02*
X020650Y021171D01*
X020650Y021250D02*
X020530Y021250D01*
X020530Y021328D02*
X020650Y021328D01*
X020650Y021407D02*
X020530Y021407D01*
X020517Y021485D02*
X020663Y021485D01*
X020741Y021564D02*
X020439Y021564D01*
X020360Y021642D02*
X020820Y021642D01*
X020898Y021721D02*
X020282Y021721D01*
X019898Y021721D02*
X019282Y021721D01*
X019272Y021730D02*
X018908Y021730D01*
X018650Y021472D01*
X018650Y021108D01*
X018908Y020850D01*
X019272Y020850D01*
X019530Y021108D01*
X019530Y021472D01*
X019272Y021730D01*
X019360Y021642D02*
X019820Y021642D01*
X019741Y021564D02*
X019439Y021564D01*
X019517Y021485D02*
X019663Y021485D01*
X019650Y021407D02*
X019530Y021407D01*
X019530Y021328D02*
X019650Y021328D01*
X019650Y021250D02*
X019530Y021250D01*
X019530Y021171D02*
X019650Y021171D01*
X019665Y021093D02*
X019515Y021093D01*
X019436Y021014D02*
X019744Y021014D01*
X019822Y020936D02*
X019358Y020936D01*
X019279Y020857D02*
X019901Y020857D01*
X019878Y020700D02*
X019302Y020700D01*
X019272Y020730D02*
X018908Y020730D01*
X018650Y020472D01*
X018650Y020108D01*
X018908Y019850D01*
X019272Y019850D01*
X019530Y020108D01*
X019530Y020472D01*
X019272Y020730D01*
X019381Y020622D02*
X019799Y020622D01*
X019721Y020543D02*
X019459Y020543D01*
X019530Y020465D02*
X019650Y020465D01*
X019650Y020386D02*
X019530Y020386D01*
X019530Y020308D02*
X019650Y020308D01*
X019650Y020229D02*
X019530Y020229D01*
X019530Y020151D02*
X019650Y020151D01*
X019686Y020072D02*
X019494Y020072D01*
X019416Y019994D02*
X019764Y019994D01*
X019843Y019915D02*
X019337Y019915D01*
X018843Y019915D02*
X018337Y019915D01*
X018272Y019850D02*
X018530Y020108D01*
X018530Y020472D01*
X018272Y020730D01*
X017908Y020730D01*
X017650Y020472D01*
X017650Y020108D01*
X017908Y019850D01*
X018272Y019850D01*
X018416Y019994D02*
X018764Y019994D01*
X018686Y020072D02*
X018494Y020072D01*
X018530Y020151D02*
X018650Y020151D01*
X018650Y020229D02*
X018530Y020229D01*
X018530Y020308D02*
X018650Y020308D01*
X018650Y020386D02*
X018530Y020386D01*
X018530Y020465D02*
X018650Y020465D01*
X018721Y020543D02*
X018459Y020543D01*
X018381Y020622D02*
X018799Y020622D01*
X018878Y020700D02*
X018302Y020700D01*
X018272Y020850D02*
X018530Y021108D01*
X018530Y021472D01*
X018272Y021730D01*
X017908Y021730D01*
X017650Y021472D01*
X017650Y021108D01*
X017908Y020850D01*
X018272Y020850D01*
X018279Y020857D02*
X018901Y020857D01*
X018822Y020936D02*
X018358Y020936D01*
X018436Y021014D02*
X018744Y021014D01*
X018665Y021093D02*
X018515Y021093D01*
X018530Y021171D02*
X018650Y021171D01*
X018650Y021250D02*
X018530Y021250D01*
X018530Y021328D02*
X018650Y021328D01*
X018650Y021407D02*
X018530Y021407D01*
X018517Y021485D02*
X018663Y021485D01*
X018741Y021564D02*
X018439Y021564D01*
X018360Y021642D02*
X018820Y021642D01*
X018898Y021721D02*
X018282Y021721D01*
X017898Y021721D02*
X017282Y021721D01*
X017272Y021730D02*
X016908Y021730D01*
X016650Y021472D01*
X016650Y021108D01*
X016908Y020850D01*
X017272Y020850D01*
X017530Y021108D01*
X017530Y021472D01*
X017272Y021730D01*
X017360Y021642D02*
X017820Y021642D01*
X017741Y021564D02*
X017439Y021564D01*
X017517Y021485D02*
X017663Y021485D01*
X017650Y021407D02*
X017530Y021407D01*
X017530Y021328D02*
X017650Y021328D01*
X017650Y021250D02*
X017530Y021250D01*
X017530Y021171D02*
X017650Y021171D01*
X017665Y021093D02*
X017515Y021093D01*
X017436Y021014D02*
X017744Y021014D01*
X017822Y020936D02*
X017358Y020936D01*
X017279Y020857D02*
X017901Y020857D01*
X017878Y020700D02*
X017302Y020700D01*
X017272Y020730D02*
X016908Y020730D01*
X016650Y020472D01*
X016650Y020108D01*
X016908Y019850D01*
X017272Y019850D01*
X017530Y020108D01*
X017530Y020472D01*
X017272Y020730D01*
X017381Y020622D02*
X017799Y020622D01*
X017721Y020543D02*
X017459Y020543D01*
X017530Y020465D02*
X017650Y020465D01*
X017650Y020386D02*
X017530Y020386D01*
X017530Y020308D02*
X017650Y020308D01*
X017650Y020229D02*
X017530Y020229D01*
X017530Y020151D02*
X017650Y020151D01*
X017686Y020072D02*
X017494Y020072D01*
X017416Y019994D02*
X017764Y019994D01*
X017843Y019915D02*
X017337Y019915D01*
X016843Y019915D02*
X016337Y019915D01*
X016272Y019850D02*
X016530Y020108D01*
X016530Y020472D01*
X016272Y020730D01*
X015908Y020730D01*
X015650Y020472D01*
X015650Y020108D01*
X015908Y019850D01*
X016272Y019850D01*
X016416Y019994D02*
X016764Y019994D01*
X016686Y020072D02*
X016494Y020072D01*
X016530Y020151D02*
X016650Y020151D01*
X016650Y020229D02*
X016530Y020229D01*
X016530Y020308D02*
X016650Y020308D01*
X016650Y020386D02*
X016530Y020386D01*
X016530Y020465D02*
X016650Y020465D01*
X016721Y020543D02*
X016459Y020543D01*
X016381Y020622D02*
X016799Y020622D01*
X016878Y020700D02*
X016302Y020700D01*
X016272Y020850D02*
X016530Y021108D01*
X016530Y021472D01*
X016272Y021730D01*
X015908Y021730D01*
X015650Y021472D01*
X015650Y021108D01*
X015908Y020850D01*
X016272Y020850D01*
X016279Y020857D02*
X016901Y020857D01*
X016822Y020936D02*
X016358Y020936D01*
X016436Y021014D02*
X016744Y021014D01*
X016665Y021093D02*
X016515Y021093D01*
X016530Y021171D02*
X016650Y021171D01*
X016650Y021250D02*
X016530Y021250D01*
X016530Y021328D02*
X016650Y021328D01*
X016650Y021407D02*
X016530Y021407D01*
X016517Y021485D02*
X016663Y021485D01*
X016741Y021564D02*
X016439Y021564D01*
X016360Y021642D02*
X016820Y021642D01*
X016898Y021721D02*
X016282Y021721D01*
X015898Y021721D02*
X015282Y021721D01*
X015272Y021730D02*
X014908Y021730D01*
X014650Y021472D01*
X014650Y021108D01*
X014908Y020850D01*
X015272Y020850D01*
X015530Y021108D01*
X015530Y021472D01*
X015272Y021730D01*
X015360Y021642D02*
X015820Y021642D01*
X015741Y021564D02*
X015439Y021564D01*
X015517Y021485D02*
X015663Y021485D01*
X015650Y021407D02*
X015530Y021407D01*
X015530Y021328D02*
X015650Y021328D01*
X015650Y021250D02*
X015530Y021250D01*
X015530Y021171D02*
X015650Y021171D01*
X015665Y021093D02*
X015515Y021093D01*
X015436Y021014D02*
X015744Y021014D01*
X015822Y020936D02*
X015358Y020936D01*
X015279Y020857D02*
X015901Y020857D01*
X015878Y020700D02*
X015302Y020700D01*
X015272Y020730D02*
X014908Y020730D01*
X014650Y020472D01*
X014650Y020108D01*
X014908Y019850D01*
X015272Y019850D01*
X015530Y020108D01*
X015530Y020472D01*
X015272Y020730D01*
X015381Y020622D02*
X015799Y020622D01*
X015721Y020543D02*
X015459Y020543D01*
X015530Y020465D02*
X015650Y020465D01*
X015650Y020386D02*
X015530Y020386D01*
X015530Y020308D02*
X015650Y020308D01*
X015650Y020229D02*
X015530Y020229D01*
X015530Y020151D02*
X015650Y020151D01*
X015686Y020072D02*
X015494Y020072D01*
X015416Y019994D02*
X015764Y019994D01*
X015843Y019915D02*
X015337Y019915D01*
X014843Y019915D02*
X014337Y019915D01*
X014272Y019850D02*
X014530Y020108D01*
X014530Y020472D01*
X014272Y020730D01*
X013908Y020730D01*
X013650Y020472D01*
X013650Y020108D01*
X013908Y019850D01*
X014272Y019850D01*
X014416Y019994D02*
X014764Y019994D01*
X014686Y020072D02*
X014494Y020072D01*
X014530Y020151D02*
X014650Y020151D01*
X014650Y020229D02*
X014530Y020229D01*
X014530Y020308D02*
X014650Y020308D01*
X014650Y020386D02*
X014530Y020386D01*
X014530Y020465D02*
X014650Y020465D01*
X014721Y020543D02*
X014459Y020543D01*
X014381Y020622D02*
X014799Y020622D01*
X014878Y020700D02*
X014302Y020700D01*
X014272Y020850D02*
X014530Y021108D01*
X014530Y021472D01*
X014272Y021730D01*
X013908Y021730D01*
X013650Y021472D01*
X013650Y021108D01*
X013908Y020850D01*
X014272Y020850D01*
X014279Y020857D02*
X014901Y020857D01*
X014822Y020936D02*
X014358Y020936D01*
X014436Y021014D02*
X014744Y021014D01*
X014665Y021093D02*
X014515Y021093D01*
X014530Y021171D02*
X014650Y021171D01*
X014650Y021250D02*
X014530Y021250D01*
X014530Y021328D02*
X014650Y021328D01*
X014650Y021407D02*
X014530Y021407D01*
X014517Y021485D02*
X014663Y021485D01*
X014741Y021564D02*
X014439Y021564D01*
X014360Y021642D02*
X014820Y021642D01*
X014898Y021721D02*
X014282Y021721D01*
X013898Y021721D02*
X013282Y021721D01*
X013360Y021642D02*
X013820Y021642D01*
X013741Y021564D02*
X013439Y021564D01*
X013517Y021485D02*
X013663Y021485D01*
X013650Y021407D02*
X013530Y021407D01*
X013530Y021328D02*
X013650Y021328D01*
X013650Y021250D02*
X013530Y021250D01*
X013530Y021171D02*
X013650Y021171D01*
X013665Y021093D02*
X013515Y021093D01*
X013436Y021014D02*
X013744Y021014D01*
X013822Y020936D02*
X013358Y020936D01*
X013279Y020857D02*
X013901Y020857D01*
X013878Y020700D02*
X013302Y020700D01*
X013381Y020622D02*
X013799Y020622D01*
X013721Y020543D02*
X013459Y020543D01*
X013530Y020465D02*
X013650Y020465D01*
X013650Y020386D02*
X013530Y020386D01*
X013530Y020308D02*
X013650Y020308D01*
X013650Y020229D02*
X013530Y020229D01*
X013530Y020151D02*
X013650Y020151D01*
X013686Y020072D02*
X013494Y020072D01*
X013416Y019994D02*
X013764Y019994D01*
X013843Y019915D02*
X013337Y019915D01*
X012590Y018640D02*
X001030Y018640D01*
X001030Y004140D01*
X012590Y004140D01*
X012590Y018640D01*
X012590Y018581D02*
X001030Y018581D01*
X001030Y018502D02*
X012590Y018502D01*
X012590Y018424D02*
X001030Y018424D01*
X001030Y018345D02*
X012590Y018345D01*
X012590Y018267D02*
X001030Y018267D01*
X001030Y018188D02*
X012590Y018188D01*
X012590Y018110D02*
X004388Y018110D01*
X004375Y018117D02*
X004297Y018150D01*
X004216Y018172D01*
X004132Y018182D01*
X004130Y018182D01*
X004130Y017580D01*
X004732Y017580D01*
X004732Y017582D01*
X004722Y017666D01*
X004700Y017747D01*
X004667Y017825D01*
X004625Y017898D01*
X004574Y017965D01*
X004515Y018024D01*
X004448Y018075D01*
X004375Y018117D01*
X004505Y018031D02*
X012590Y018031D01*
X012590Y017953D02*
X004583Y017953D01*
X004639Y017874D02*
X012590Y017874D01*
X012590Y017796D02*
X004680Y017796D01*
X004708Y017717D02*
X012590Y017717D01*
X012590Y017639D02*
X004725Y017639D01*
X004732Y017500D02*
X004130Y017500D01*
X004130Y017580D01*
X004050Y017580D01*
X004050Y018182D01*
X004048Y018182D01*
X003964Y018172D01*
X003883Y018150D01*
X003805Y018117D01*
X003732Y018075D01*
X003665Y018024D01*
X003606Y017965D01*
X003555Y017898D01*
X003513Y017825D01*
X003480Y017747D01*
X003458Y017666D01*
X003448Y017582D01*
X003448Y017580D01*
X004050Y017580D01*
X004050Y017500D01*
X004130Y017500D01*
X004130Y016898D01*
X004132Y016898D01*
X004216Y016908D01*
X004297Y016930D01*
X004375Y016963D01*
X004448Y017005D01*
X004515Y017056D01*
X004574Y017115D01*
X004625Y017182D01*
X004667Y017255D01*
X004700Y017333D01*
X004722Y017414D01*
X004732Y017498D01*
X004732Y017500D01*
X004730Y017482D02*
X012590Y017482D01*
X012590Y017560D02*
X004130Y017560D01*
X004130Y017482D02*
X004050Y017482D01*
X004050Y017500D02*
X004050Y016898D01*
X004048Y016898D01*
X003964Y016908D01*
X003883Y016930D01*
X003805Y016963D01*
X003732Y017005D01*
X003665Y017056D01*
X003606Y017115D01*
X003555Y017182D01*
X003513Y017255D01*
X003480Y017333D01*
X003458Y017414D01*
X003448Y017498D01*
X003448Y017500D01*
X004050Y017500D01*
X004050Y017560D02*
X002130Y017560D01*
X002130Y017580D02*
X002130Y017500D01*
X002732Y017500D01*
X002732Y017498D01*
X002722Y017414D01*
X002700Y017333D01*
X002667Y017255D01*
X002625Y017182D01*
X002574Y017115D01*
X002515Y017056D01*
X002448Y017005D01*
X002375Y016963D01*
X002297Y016930D01*
X002216Y016908D01*
X002132Y016898D01*
X002130Y016898D01*
X002130Y017500D01*
X002050Y017500D01*
X002050Y016898D01*
X002048Y016898D01*
X001964Y016908D01*
X001883Y016930D01*
X001805Y016963D01*
X001732Y017005D01*
X001665Y017056D01*
X001606Y017115D01*
X001555Y017182D01*
X001513Y017255D01*
X001480Y017333D01*
X001458Y017414D01*
X001448Y017498D01*
X001448Y017500D01*
X002050Y017500D01*
X002050Y017580D01*
X002050Y018182D01*
X002048Y018182D01*
X001964Y018172D01*
X001883Y018150D01*
X001805Y018117D01*
X001732Y018075D01*
X001665Y018024D01*
X001606Y017965D01*
X001555Y017898D01*
X001513Y017825D01*
X001480Y017747D01*
X001458Y017666D01*
X001448Y017582D01*
X001448Y017580D01*
X002050Y017580D01*
X002130Y017580D01*
X002732Y017580D01*
X002732Y017582D01*
X002722Y017666D01*
X002700Y017747D01*
X002667Y017825D01*
X002625Y017898D01*
X002574Y017965D01*
X002515Y018024D01*
X002448Y018075D01*
X002375Y018117D01*
X002297Y018150D01*
X002216Y018172D01*
X002132Y018182D01*
X002130Y018182D01*
X002130Y017580D01*
X002130Y017639D02*
X002050Y017639D01*
X002050Y017717D02*
X002130Y017717D01*
X002130Y017796D02*
X002050Y017796D01*
X002050Y017874D02*
X002130Y017874D01*
X002130Y017953D02*
X002050Y017953D01*
X002050Y018031D02*
X002130Y018031D01*
X002130Y018110D02*
X002050Y018110D01*
X001792Y018110D02*
X001030Y018110D01*
X001030Y018031D02*
X001675Y018031D01*
X001597Y017953D02*
X001030Y017953D01*
X001030Y017874D02*
X001541Y017874D01*
X001500Y017796D02*
X001030Y017796D01*
X001030Y017717D02*
X001472Y017717D01*
X001455Y017639D02*
X001030Y017639D01*
X001030Y017560D02*
X002050Y017560D01*
X002050Y017482D02*
X002130Y017482D01*
X002130Y017403D02*
X002050Y017403D01*
X002050Y017325D02*
X002130Y017325D01*
X002130Y017246D02*
X002050Y017246D01*
X002050Y017168D02*
X002130Y017168D01*
X002130Y017089D02*
X002050Y017089D01*
X002050Y017011D02*
X002130Y017011D01*
X002130Y016932D02*
X002050Y016932D01*
X001879Y016932D02*
X001030Y016932D01*
X001030Y016854D02*
X002746Y016854D01*
X002696Y016803D02*
X002625Y016632D01*
X002625Y016448D01*
X002696Y016277D01*
X002827Y016146D01*
X002998Y016075D01*
X003182Y016075D01*
X003353Y016146D01*
X003484Y016277D01*
X003555Y016448D01*
X003555Y016632D01*
X003484Y016803D01*
X003353Y016934D01*
X003182Y017005D01*
X002998Y017005D01*
X002827Y016934D01*
X002696Y016803D01*
X002684Y016775D02*
X001030Y016775D01*
X001030Y016697D02*
X002652Y016697D01*
X002625Y016618D02*
X001030Y016618D01*
X001030Y016540D02*
X002625Y016540D01*
X002625Y016461D02*
X001030Y016461D01*
X001030Y016383D02*
X002652Y016383D01*
X002684Y016304D02*
X001030Y016304D01*
X001030Y016226D02*
X002747Y016226D01*
X002825Y016147D02*
X002303Y016147D01*
X002297Y016150D02*
X002216Y016172D01*
X002132Y016182D01*
X002130Y016182D01*
X002130Y015580D01*
X002732Y015580D01*
X002732Y015582D01*
X002722Y015666D01*
X002700Y015747D01*
X002667Y015825D01*
X002625Y015898D01*
X002574Y015965D01*
X002515Y016024D01*
X002448Y016075D01*
X002375Y016117D01*
X002297Y016150D01*
X002130Y016147D02*
X002050Y016147D01*
X002050Y016182D02*
X002048Y016182D01*
X001964Y016172D01*
X001883Y016150D01*
X001805Y016117D01*
X001732Y016075D01*
X001665Y016024D01*
X001606Y015965D01*
X001555Y015898D01*
X001513Y015825D01*
X001480Y015747D01*
X001458Y015666D01*
X001448Y015582D01*
X001448Y015580D01*
X002050Y015580D01*
X002050Y016182D01*
X002050Y016069D02*
X002130Y016069D01*
X002130Y015990D02*
X002050Y015990D01*
X002050Y015912D02*
X002130Y015912D01*
X002130Y015833D02*
X002050Y015833D01*
X002050Y015755D02*
X002130Y015755D01*
X002130Y015676D02*
X002050Y015676D01*
X002050Y015598D02*
X002130Y015598D01*
X002130Y015580D02*
X002050Y015580D01*
X002050Y015500D01*
X002130Y015500D01*
X002130Y015580D01*
X002130Y015519D02*
X004050Y015519D01*
X004050Y015500D02*
X003448Y015500D01*
X003448Y015498D01*
X003458Y015414D01*
X003480Y015333D01*
X003513Y015255D01*
X003555Y015182D01*
X003606Y015115D01*
X003665Y015056D01*
X003732Y015005D01*
X003805Y014963D01*
X003883Y014930D01*
X003964Y014908D01*
X004048Y014898D01*
X004050Y014898D01*
X004050Y015500D01*
X004130Y015500D01*
X004130Y015580D01*
X004732Y015580D01*
X004732Y015582D01*
X004722Y015666D01*
X004700Y015747D01*
X004667Y015825D01*
X004625Y015898D01*
X004574Y015965D01*
X004515Y016024D01*
X004448Y016075D01*
X004375Y016117D01*
X004297Y016150D01*
X004216Y016172D01*
X004132Y016182D01*
X004130Y016182D01*
X004130Y015580D01*
X004050Y015580D01*
X004050Y016182D01*
X004048Y016182D01*
X003964Y016172D01*
X003883Y016150D01*
X003805Y016117D01*
X003732Y016075D01*
X003665Y016024D01*
X003606Y015965D01*
X003555Y015898D01*
X003513Y015825D01*
X003480Y015747D01*
X003458Y015666D01*
X003448Y015582D01*
X003448Y015580D01*
X004050Y015580D01*
X004050Y015500D01*
X004050Y015441D02*
X004130Y015441D01*
X004130Y015500D02*
X004130Y014898D01*
X004132Y014898D01*
X004216Y014908D01*
X004297Y014930D01*
X004375Y014963D01*
X004448Y015005D01*
X004515Y015056D01*
X004574Y015115D01*
X004625Y015182D01*
X004667Y015255D01*
X004700Y015333D01*
X004722Y015414D01*
X004732Y015498D01*
X004732Y015500D01*
X004130Y015500D01*
X004130Y015519D02*
X005225Y015519D01*
X005266Y015560D02*
X005020Y015314D01*
X005020Y014966D01*
X005266Y014720D01*
X005614Y014720D01*
X005860Y014966D01*
X005860Y015314D01*
X005614Y015560D01*
X005266Y015560D01*
X005147Y015441D02*
X004725Y015441D01*
X004707Y015362D02*
X005068Y015362D01*
X005020Y015284D02*
X004679Y015284D01*
X004639Y015205D02*
X005020Y015205D01*
X005020Y015127D02*
X004583Y015127D01*
X004504Y015048D02*
X005020Y015048D01*
X005020Y014970D02*
X004387Y014970D01*
X004130Y014970D02*
X004050Y014970D01*
X004050Y015048D02*
X004130Y015048D01*
X004130Y015127D02*
X004050Y015127D01*
X004050Y015205D02*
X004130Y015205D01*
X004130Y015284D02*
X004050Y015284D01*
X004050Y015362D02*
X004130Y015362D01*
X004130Y015598D02*
X004050Y015598D01*
X004050Y015676D02*
X004130Y015676D01*
X004130Y015755D02*
X004050Y015755D01*
X004050Y015833D02*
X004130Y015833D01*
X004130Y015912D02*
X004050Y015912D01*
X004050Y015990D02*
X004130Y015990D01*
X004130Y016069D02*
X004050Y016069D01*
X004050Y016147D02*
X004130Y016147D01*
X004303Y016147D02*
X007992Y016147D01*
X007992Y016131D02*
X008037Y016021D01*
X008121Y015937D01*
X008231Y015892D01*
X008349Y015892D01*
X008459Y015937D01*
X008543Y016021D01*
X008547Y016030D01*
X008733Y016030D01*
X008737Y016021D01*
X008821Y015937D01*
X008931Y015892D01*
X009049Y015892D01*
X009159Y015937D01*
X009243Y016021D01*
X009288Y016131D01*
X009288Y016249D01*
X009243Y016359D01*
X009159Y016443D01*
X009049Y016488D01*
X008931Y016488D01*
X008821Y016443D01*
X008737Y016359D01*
X008733Y016350D01*
X008547Y016350D01*
X008543Y016359D01*
X008459Y016443D01*
X008349Y016488D01*
X008231Y016488D01*
X008121Y016443D01*
X008037Y016359D01*
X007992Y016249D01*
X007992Y016131D01*
X008017Y016069D02*
X004457Y016069D01*
X004549Y015990D02*
X008068Y015990D01*
X008182Y015912D02*
X004615Y015912D01*
X004663Y015833D02*
X012590Y015833D01*
X012590Y015755D02*
X004697Y015755D01*
X004719Y015676D02*
X012590Y015676D01*
X012590Y015598D02*
X004730Y015598D01*
X005095Y014891D02*
X001030Y014891D01*
X001030Y014813D02*
X005173Y014813D01*
X005252Y014734D02*
X001030Y014734D01*
X001030Y014656D02*
X001905Y014656D01*
X001883Y014650D02*
X001805Y014617D01*
X001732Y014575D01*
X001665Y014524D01*
X001606Y014465D01*
X001555Y014398D01*
X001513Y014325D01*
X001480Y014247D01*
X001458Y014166D01*
X001448Y014082D01*
X001448Y014080D01*
X002050Y014080D01*
X002050Y014682D01*
X002048Y014682D01*
X001964Y014672D01*
X001883Y014650D01*
X001735Y014577D02*
X001030Y014577D01*
X001030Y014499D02*
X001640Y014499D01*
X001572Y014420D02*
X001030Y014420D01*
X001030Y014342D02*
X001522Y014342D01*
X001487Y014263D02*
X001030Y014263D01*
X001030Y014185D02*
X001464Y014185D01*
X001451Y014106D02*
X001030Y014106D01*
X001030Y014028D02*
X002050Y014028D01*
X002050Y014000D02*
X001448Y014000D01*
X001448Y013998D01*
X001458Y013914D01*
X001480Y013833D01*
X001513Y013755D01*
X001555Y013682D01*
X001606Y013615D01*
X001665Y013556D01*
X001732Y013505D01*
X001805Y013463D01*
X001883Y013430D01*
X001964Y013408D01*
X002048Y013398D01*
X002050Y013398D01*
X002050Y014000D01*
X002130Y014000D01*
X002130Y014080D01*
X002732Y014080D01*
X002732Y014082D01*
X002722Y014166D01*
X002700Y014247D01*
X002667Y014325D01*
X002625Y014398D01*
X002574Y014465D01*
X002515Y014524D01*
X002448Y014575D01*
X002375Y014617D01*
X002297Y014650D01*
X002216Y014672D01*
X002132Y014682D01*
X002130Y014682D01*
X002130Y014080D01*
X002050Y014080D01*
X002050Y014000D01*
X002050Y013949D02*
X002130Y013949D01*
X002130Y014000D02*
X002130Y013398D01*
X002132Y013398D01*
X002216Y013408D01*
X002297Y013430D01*
X002375Y013463D01*
X002448Y013505D01*
X002515Y013556D01*
X002574Y013615D01*
X002625Y013682D01*
X002667Y013755D01*
X002700Y013833D01*
X002722Y013914D01*
X002732Y013998D01*
X002732Y014000D01*
X002130Y014000D01*
X002130Y014028D02*
X004050Y014028D01*
X004050Y014000D02*
X003448Y014000D01*
X003448Y013998D01*
X003458Y013914D01*
X003480Y013833D01*
X003513Y013755D01*
X003555Y013682D01*
X003606Y013615D01*
X003665Y013556D01*
X003732Y013505D01*
X003805Y013463D01*
X003883Y013430D01*
X003964Y013408D01*
X004048Y013398D01*
X004050Y013398D01*
X004050Y014000D01*
X004130Y014000D01*
X004130Y014080D01*
X004732Y014080D01*
X004732Y014082D01*
X004722Y014166D01*
X004700Y014247D01*
X004667Y014325D01*
X004625Y014398D01*
X004574Y014465D01*
X004515Y014524D01*
X004448Y014575D01*
X004375Y014617D01*
X004297Y014650D01*
X004216Y014672D01*
X004132Y014682D01*
X004130Y014682D01*
X004130Y014080D01*
X004050Y014080D01*
X004050Y014682D01*
X004048Y014682D01*
X003964Y014672D01*
X003883Y014650D01*
X003805Y014617D01*
X003732Y014575D01*
X003665Y014524D01*
X003606Y014465D01*
X003555Y014398D01*
X003513Y014325D01*
X003480Y014247D01*
X003458Y014166D01*
X003448Y014082D01*
X003448Y014080D01*
X004050Y014080D01*
X004050Y014000D01*
X004050Y013949D02*
X004130Y013949D01*
X004130Y014000D02*
X004130Y013398D01*
X004132Y013398D01*
X004216Y013408D01*
X004297Y013430D01*
X004375Y013463D01*
X004448Y013505D01*
X004515Y013556D01*
X004574Y013615D01*
X004625Y013682D01*
X004667Y013755D01*
X004700Y013833D01*
X004722Y013914D01*
X004732Y013998D01*
X004732Y014000D01*
X004130Y014000D01*
X004130Y014028D02*
X012590Y014028D01*
X012590Y014106D02*
X004729Y014106D01*
X004716Y014185D02*
X012590Y014185D01*
X012590Y014263D02*
X004693Y014263D01*
X004658Y014342D02*
X012590Y014342D01*
X012590Y014420D02*
X004608Y014420D01*
X004540Y014499D02*
X012590Y014499D01*
X012590Y014577D02*
X004445Y014577D01*
X004275Y014656D02*
X012590Y014656D01*
X012590Y014734D02*
X005628Y014734D01*
X005707Y014813D02*
X012590Y014813D01*
X012590Y014891D02*
X005785Y014891D01*
X005860Y014970D02*
X012590Y014970D01*
X012590Y015048D02*
X005860Y015048D01*
X005860Y015127D02*
X012590Y015127D01*
X012590Y015205D02*
X005860Y015205D01*
X005860Y015284D02*
X012590Y015284D01*
X012590Y015362D02*
X005812Y015362D01*
X005733Y015441D02*
X012590Y015441D01*
X012590Y015519D02*
X005655Y015519D01*
X004130Y014656D02*
X004050Y014656D01*
X004050Y014577D02*
X004130Y014577D01*
X004130Y014499D02*
X004050Y014499D01*
X004050Y014420D02*
X004130Y014420D01*
X004130Y014342D02*
X004050Y014342D01*
X004050Y014263D02*
X004130Y014263D01*
X004130Y014185D02*
X004050Y014185D01*
X004050Y014106D02*
X004130Y014106D01*
X004130Y013871D02*
X004050Y013871D01*
X004050Y013792D02*
X004130Y013792D01*
X004130Y013714D02*
X004050Y013714D01*
X004050Y013635D02*
X004130Y013635D01*
X004130Y013557D02*
X004050Y013557D01*
X004050Y013478D02*
X004130Y013478D01*
X004130Y013400D02*
X004050Y013400D01*
X004032Y013400D02*
X003388Y013400D01*
X003353Y013434D02*
X003182Y013505D01*
X002998Y013505D01*
X002827Y013434D01*
X002696Y013303D01*
X002625Y013132D01*
X002625Y012948D01*
X002696Y012777D01*
X002827Y012646D01*
X002998Y012575D01*
X003182Y012575D01*
X003353Y012646D01*
X003484Y012777D01*
X003555Y012948D01*
X003555Y013132D01*
X003484Y013303D01*
X003353Y013434D01*
X003248Y013478D02*
X003778Y013478D01*
X003665Y013557D02*
X002515Y013557D01*
X002589Y013635D02*
X003591Y013635D01*
X003537Y013714D02*
X002643Y013714D01*
X002683Y013792D02*
X003497Y013792D01*
X003470Y013871D02*
X002710Y013871D01*
X002726Y013949D02*
X003454Y013949D01*
X003451Y014106D02*
X002729Y014106D01*
X002716Y014185D02*
X003464Y014185D01*
X003487Y014263D02*
X002693Y014263D01*
X002658Y014342D02*
X003522Y014342D01*
X003572Y014420D02*
X002608Y014420D01*
X002540Y014499D02*
X003640Y014499D01*
X003735Y014577D02*
X002445Y014577D01*
X002275Y014656D02*
X003905Y014656D01*
X003793Y014970D02*
X002387Y014970D01*
X002375Y014963D02*
X002448Y015005D01*
X002515Y015056D01*
X002574Y015115D01*
X002625Y015182D01*
X002667Y015255D01*
X002700Y015333D01*
X002722Y015414D01*
X002732Y015498D01*
X002732Y015500D01*
X002130Y015500D01*
X002130Y014898D01*
X002132Y014898D01*
X002216Y014908D01*
X002297Y014930D01*
X002375Y014963D01*
X002504Y015048D02*
X003676Y015048D01*
X003597Y015127D02*
X002583Y015127D01*
X002639Y015205D02*
X003541Y015205D01*
X003501Y015284D02*
X002679Y015284D01*
X002707Y015362D02*
X003473Y015362D01*
X003455Y015441D02*
X002725Y015441D01*
X002730Y015598D02*
X003450Y015598D01*
X003461Y015676D02*
X002719Y015676D01*
X002697Y015755D02*
X003483Y015755D01*
X003517Y015833D02*
X002663Y015833D01*
X002615Y015912D02*
X003565Y015912D01*
X003631Y015990D02*
X002549Y015990D01*
X002457Y016069D02*
X003723Y016069D01*
X003877Y016147D02*
X003355Y016147D01*
X003433Y016226D02*
X007992Y016226D01*
X008014Y016304D02*
X003496Y016304D01*
X003528Y016383D02*
X008061Y016383D01*
X008165Y016461D02*
X003555Y016461D01*
X003555Y016540D02*
X012590Y016540D01*
X012590Y016618D02*
X003555Y016618D01*
X003528Y016697D02*
X008889Y016697D01*
X008966Y016620D02*
X008720Y016866D01*
X008720Y017214D01*
X008966Y017460D01*
X009314Y017460D01*
X009560Y017214D01*
X009560Y016866D01*
X009314Y016620D01*
X008966Y016620D01*
X008865Y016461D02*
X008415Y016461D01*
X008519Y016383D02*
X008761Y016383D01*
X008990Y016190D02*
X008290Y016190D01*
X008398Y015912D02*
X008882Y015912D01*
X008768Y015990D02*
X008512Y015990D01*
X009098Y015912D02*
X012590Y015912D01*
X012590Y015990D02*
X009212Y015990D01*
X009263Y016069D02*
X012590Y016069D01*
X012590Y016147D02*
X009288Y016147D01*
X009288Y016226D02*
X012590Y016226D01*
X012590Y016304D02*
X009266Y016304D01*
X009219Y016383D02*
X012590Y016383D01*
X012590Y016461D02*
X009115Y016461D01*
X008811Y016775D02*
X003496Y016775D01*
X003434Y016854D02*
X008732Y016854D01*
X008720Y016932D02*
X004301Y016932D01*
X004130Y016932D02*
X004050Y016932D01*
X004050Y017011D02*
X004130Y017011D01*
X004130Y017089D02*
X004050Y017089D01*
X004050Y017168D02*
X004130Y017168D01*
X004130Y017246D02*
X004050Y017246D01*
X004050Y017325D02*
X004130Y017325D01*
X004130Y017403D02*
X004050Y017403D01*
X004050Y017639D02*
X004130Y017639D01*
X004130Y017717D02*
X004050Y017717D01*
X004050Y017796D02*
X004130Y017796D01*
X004130Y017874D02*
X004050Y017874D01*
X004050Y017953D02*
X004130Y017953D01*
X004130Y018031D02*
X004050Y018031D01*
X004050Y018110D02*
X004130Y018110D01*
X003792Y018110D02*
X002388Y018110D01*
X002505Y018031D02*
X003675Y018031D01*
X003597Y017953D02*
X002583Y017953D01*
X002639Y017874D02*
X003541Y017874D01*
X003500Y017796D02*
X002680Y017796D01*
X002708Y017717D02*
X003472Y017717D01*
X003455Y017639D02*
X002725Y017639D01*
X002730Y017482D02*
X003450Y017482D01*
X003462Y017403D02*
X002718Y017403D01*
X002696Y017325D02*
X003484Y017325D01*
X003518Y017246D02*
X002662Y017246D01*
X002614Y017168D02*
X003566Y017168D01*
X003632Y017089D02*
X002548Y017089D01*
X002455Y017011D02*
X003725Y017011D01*
X003879Y016932D02*
X003356Y016932D01*
X002824Y016932D02*
X002301Y016932D01*
X001725Y017011D02*
X001030Y017011D01*
X001030Y017089D02*
X001632Y017089D01*
X001566Y017168D02*
X001030Y017168D01*
X001030Y017246D02*
X001518Y017246D01*
X001484Y017325D02*
X001030Y017325D01*
X001030Y017403D02*
X001462Y017403D01*
X001450Y017482D02*
X001030Y017482D01*
X001030Y016147D02*
X001877Y016147D01*
X001723Y016069D02*
X001030Y016069D01*
X001030Y015990D02*
X001631Y015990D01*
X001565Y015912D02*
X001030Y015912D01*
X001030Y015833D02*
X001517Y015833D01*
X001483Y015755D02*
X001030Y015755D01*
X001030Y015676D02*
X001461Y015676D01*
X001450Y015598D02*
X001030Y015598D01*
X001030Y015519D02*
X002050Y015519D01*
X002050Y015500D02*
X001448Y015500D01*
X001448Y015498D01*
X001458Y015414D01*
X001480Y015333D01*
X001513Y015255D01*
X001555Y015182D01*
X001606Y015115D01*
X001665Y015056D01*
X001732Y015005D01*
X001805Y014963D01*
X001883Y014930D01*
X001964Y014908D01*
X002048Y014898D01*
X002050Y014898D01*
X002050Y015500D01*
X002050Y015441D02*
X002130Y015441D01*
X002130Y015362D02*
X002050Y015362D01*
X002050Y015284D02*
X002130Y015284D01*
X002130Y015205D02*
X002050Y015205D01*
X002050Y015127D02*
X002130Y015127D01*
X002130Y015048D02*
X002050Y015048D01*
X002050Y014970D02*
X002130Y014970D01*
X002130Y014656D02*
X002050Y014656D01*
X002050Y014577D02*
X002130Y014577D01*
X002130Y014499D02*
X002050Y014499D01*
X002050Y014420D02*
X002130Y014420D01*
X002130Y014342D02*
X002050Y014342D01*
X002050Y014263D02*
X002130Y014263D01*
X002130Y014185D02*
X002050Y014185D01*
X002050Y014106D02*
X002130Y014106D01*
X002130Y013871D02*
X002050Y013871D01*
X002050Y013792D02*
X002130Y013792D01*
X002130Y013714D02*
X002050Y013714D01*
X002050Y013635D02*
X002130Y013635D01*
X002130Y013557D02*
X002050Y013557D01*
X002050Y013478D02*
X002130Y013478D01*
X002130Y013400D02*
X002050Y013400D01*
X002032Y013400D02*
X001030Y013400D01*
X001030Y013478D02*
X001778Y013478D01*
X001665Y013557D02*
X001030Y013557D01*
X001030Y013635D02*
X001591Y013635D01*
X001537Y013714D02*
X001030Y013714D01*
X001030Y013792D02*
X001497Y013792D01*
X001470Y013871D02*
X001030Y013871D01*
X001030Y013949D02*
X001454Y013949D01*
X001030Y013321D02*
X002713Y013321D01*
X002671Y013243D02*
X001030Y013243D01*
X001030Y013164D02*
X002638Y013164D01*
X002625Y013086D02*
X001030Y013086D01*
X001030Y013007D02*
X002625Y013007D01*
X002633Y012929D02*
X001030Y012929D01*
X001030Y012850D02*
X002665Y012850D01*
X002701Y012772D02*
X001030Y012772D01*
X001030Y012693D02*
X002779Y012693D01*
X002902Y012615D02*
X002380Y012615D01*
X002375Y012617D02*
X002448Y012575D01*
X002515Y012524D01*
X002574Y012465D01*
X002625Y012398D01*
X002667Y012325D01*
X002700Y012247D01*
X002722Y012166D01*
X002732Y012082D01*
X002732Y012080D01*
X002130Y012080D01*
X002130Y012000D01*
X002732Y012000D01*
X002732Y011998D01*
X002722Y011914D01*
X002700Y011833D01*
X002667Y011755D01*
X002625Y011682D01*
X002574Y011615D01*
X002515Y011556D01*
X002448Y011505D01*
X002375Y011463D01*
X002297Y011430D01*
X002216Y011408D01*
X002132Y011398D01*
X002130Y011398D01*
X002130Y012000D01*
X002050Y012000D01*
X002050Y011398D01*
X002048Y011398D01*
X001964Y011408D01*
X001883Y011430D01*
X001805Y011463D01*
X001732Y011505D01*
X001665Y011556D01*
X001606Y011615D01*
X001555Y011682D01*
X001513Y011755D01*
X001480Y011833D01*
X001458Y011914D01*
X001448Y011998D01*
X001448Y012000D01*
X002050Y012000D01*
X002050Y012080D01*
X002050Y012682D01*
X002048Y012682D01*
X001964Y012672D01*
X001883Y012650D01*
X001805Y012617D01*
X001732Y012575D01*
X001665Y012524D01*
X001606Y012465D01*
X001555Y012398D01*
X001513Y012325D01*
X001480Y012247D01*
X001458Y012166D01*
X001448Y012082D01*
X001448Y012080D01*
X002050Y012080D01*
X002130Y012080D01*
X002130Y012682D01*
X002132Y012682D01*
X002216Y012672D01*
X002297Y012650D01*
X002375Y012617D01*
X002499Y012536D02*
X003681Y012536D01*
X003665Y012524D02*
X003606Y012465D01*
X003555Y012398D01*
X003513Y012325D01*
X003480Y012247D01*
X003458Y012166D01*
X003448Y012082D01*
X003448Y012080D01*
X004050Y012080D01*
X004050Y012682D01*
X004048Y012682D01*
X003964Y012672D01*
X003883Y012650D01*
X003805Y012617D01*
X003732Y012575D01*
X003665Y012524D01*
X003601Y012458D02*
X002579Y012458D01*
X002636Y012379D02*
X003544Y012379D01*
X003502Y012301D02*
X002678Y012301D01*
X002706Y012222D02*
X003474Y012222D01*
X003456Y012144D02*
X002724Y012144D01*
X002731Y011987D02*
X003449Y011987D01*
X003448Y011998D02*
X003458Y011914D01*
X003480Y011833D01*
X003513Y011755D01*
X003555Y011682D01*
X003606Y011615D01*
X003665Y011556D01*
X003732Y011505D01*
X003805Y011463D01*
X003883Y011430D01*
X003964Y011408D01*
X004048Y011398D01*
X004050Y011398D01*
X004050Y012000D01*
X004130Y012000D01*
X004130Y012080D01*
X004732Y012080D01*
X004732Y012082D01*
X004722Y012166D01*
X004700Y012247D01*
X004667Y012325D01*
X004625Y012398D01*
X004574Y012465D01*
X004515Y012524D01*
X004448Y012575D01*
X004375Y012617D01*
X004297Y012650D01*
X004216Y012672D01*
X004132Y012682D01*
X004130Y012682D01*
X004130Y012080D01*
X004050Y012080D01*
X004050Y012000D01*
X003448Y012000D01*
X003448Y011998D01*
X003460Y011908D02*
X002720Y011908D01*
X002698Y011830D02*
X003482Y011830D01*
X003515Y011751D02*
X002665Y011751D01*
X002618Y011673D02*
X003562Y011673D01*
X003627Y011594D02*
X002553Y011594D01*
X002462Y011516D02*
X003718Y011516D01*
X003867Y011437D02*
X002313Y011437D01*
X002130Y011437D02*
X002050Y011437D01*
X002050Y011516D02*
X002130Y011516D01*
X002130Y011594D02*
X002050Y011594D01*
X002050Y011673D02*
X002130Y011673D01*
X002130Y011751D02*
X002050Y011751D01*
X002050Y011830D02*
X002130Y011830D01*
X002130Y011908D02*
X002050Y011908D01*
X002050Y011987D02*
X002130Y011987D01*
X002130Y012065D02*
X004050Y012065D01*
X004050Y011987D02*
X004130Y011987D01*
X004130Y012000D02*
X004130Y011398D01*
X004132Y011398D01*
X004216Y011408D01*
X004297Y011430D01*
X004375Y011463D01*
X004448Y011505D01*
X004515Y011556D01*
X004574Y011615D01*
X004625Y011682D01*
X004667Y011755D01*
X004700Y011833D01*
X004722Y011914D01*
X004732Y011998D01*
X004732Y012000D01*
X004130Y012000D01*
X004130Y012065D02*
X012590Y012065D01*
X012590Y011987D02*
X005687Y011987D01*
X005614Y012060D02*
X005266Y012060D01*
X005020Y011814D01*
X005020Y011466D01*
X005266Y011220D01*
X005614Y011220D01*
X005860Y011466D01*
X005860Y011814D01*
X005614Y012060D01*
X005766Y011908D02*
X012590Y011908D01*
X012590Y011830D02*
X005844Y011830D01*
X005860Y011751D02*
X012590Y011751D01*
X012590Y011673D02*
X005860Y011673D01*
X005860Y011594D02*
X012590Y011594D01*
X012590Y011516D02*
X005860Y011516D01*
X005831Y011437D02*
X012590Y011437D01*
X012590Y011359D02*
X005753Y011359D01*
X005674Y011280D02*
X012590Y011280D01*
X012590Y011202D02*
X001030Y011202D01*
X001030Y011280D02*
X005206Y011280D01*
X005127Y011359D02*
X001030Y011359D01*
X001030Y011437D02*
X001867Y011437D01*
X001718Y011516D02*
X001030Y011516D01*
X001030Y011594D02*
X001627Y011594D01*
X001562Y011673D02*
X001030Y011673D01*
X001030Y011751D02*
X001515Y011751D01*
X001482Y011830D02*
X001030Y011830D01*
X001030Y011908D02*
X001460Y011908D01*
X001449Y011987D02*
X001030Y011987D01*
X001030Y012065D02*
X002050Y012065D01*
X002050Y012144D02*
X002130Y012144D01*
X002130Y012222D02*
X002050Y012222D01*
X002050Y012301D02*
X002130Y012301D01*
X002130Y012379D02*
X002050Y012379D01*
X002050Y012458D02*
X002130Y012458D01*
X002130Y012536D02*
X002050Y012536D01*
X002050Y012615D02*
X002130Y012615D01*
X001800Y012615D02*
X001030Y012615D01*
X001030Y012536D02*
X001681Y012536D01*
X001601Y012458D02*
X001030Y012458D01*
X001030Y012379D02*
X001544Y012379D01*
X001502Y012301D02*
X001030Y012301D01*
X001030Y012222D02*
X001474Y012222D01*
X001456Y012144D02*
X001030Y012144D01*
X001030Y011123D02*
X001819Y011123D01*
X001805Y011117D02*
X001732Y011075D01*
X001665Y011024D01*
X001606Y010965D01*
X001555Y010898D01*
X001513Y010825D01*
X001480Y010747D01*
X001458Y010666D01*
X001448Y010582D01*
X001448Y010580D01*
X002050Y010580D01*
X002050Y011182D01*
X002048Y011182D01*
X001964Y011172D01*
X001883Y011150D01*
X001805Y011117D01*
X001692Y011045D02*
X001030Y011045D01*
X001030Y010966D02*
X001607Y010966D01*
X001549Y010888D02*
X001030Y010888D01*
X001030Y010809D02*
X001506Y010809D01*
X001476Y010731D02*
X001030Y010731D01*
X001030Y010652D02*
X001457Y010652D01*
X001448Y010500D02*
X001448Y010498D01*
X001458Y010414D01*
X001480Y010333D01*
X001513Y010255D01*
X001555Y010182D01*
X001606Y010115D01*
X001665Y010056D01*
X001732Y010005D01*
X001805Y009963D01*
X001883Y009930D01*
X001964Y009908D01*
X002048Y009898D01*
X002050Y009898D01*
X002050Y010500D01*
X002130Y010500D01*
X002130Y010580D01*
X002732Y010580D01*
X002732Y010582D01*
X002722Y010666D01*
X002700Y010747D01*
X002667Y010825D01*
X002625Y010898D01*
X002574Y010965D01*
X002515Y011024D01*
X002448Y011075D01*
X002375Y011117D01*
X002297Y011150D01*
X002216Y011172D01*
X002132Y011182D01*
X002130Y011182D01*
X002130Y010580D01*
X002050Y010580D01*
X002050Y010500D01*
X001448Y010500D01*
X001448Y010495D02*
X001030Y010495D01*
X001030Y010417D02*
X001458Y010417D01*
X001479Y010338D02*
X001030Y010338D01*
X001030Y010260D02*
X001511Y010260D01*
X001556Y010181D02*
X001030Y010181D01*
X001030Y010103D02*
X001619Y010103D01*
X001707Y010024D02*
X001030Y010024D01*
X001030Y009946D02*
X001846Y009946D01*
X002050Y009946D02*
X002130Y009946D01*
X002130Y009898D02*
X002132Y009898D01*
X002216Y009908D01*
X002297Y009930D01*
X002375Y009963D01*
X002448Y010005D01*
X002515Y010056D01*
X002574Y010115D01*
X002625Y010182D01*
X002667Y010255D01*
X002700Y010333D01*
X002722Y010414D01*
X002732Y010498D01*
X002732Y010500D01*
X002130Y010500D01*
X002130Y009898D01*
X002130Y010024D02*
X002050Y010024D01*
X002050Y010103D02*
X002130Y010103D01*
X002130Y010181D02*
X002050Y010181D01*
X002050Y010260D02*
X002130Y010260D01*
X002130Y010338D02*
X002050Y010338D01*
X002050Y010417D02*
X002130Y010417D01*
X002130Y010495D02*
X002050Y010495D01*
X002050Y010574D02*
X001030Y010574D01*
X001030Y009867D02*
X002759Y009867D01*
X002696Y009803D02*
X002625Y009632D01*
X001030Y009632D01*
X001030Y009710D02*
X002657Y009710D01*
X002625Y009632D02*
X002625Y009448D01*
X002696Y009277D01*
X002827Y009146D01*
X002998Y009075D01*
X003182Y009075D01*
X003353Y009146D01*
X003484Y009277D01*
X003555Y009448D01*
X003555Y009632D01*
X008955Y009632D01*
X008966Y009620D02*
X009314Y009620D01*
X009560Y009866D01*
X009560Y010214D01*
X009314Y010460D01*
X008966Y010460D01*
X008720Y010214D01*
X008720Y009866D01*
X008966Y009620D01*
X008876Y009710D02*
X003523Y009710D01*
X003555Y009632D02*
X003484Y009803D01*
X003353Y009934D01*
X003182Y010005D01*
X002998Y010005D01*
X002827Y009934D01*
X002696Y009803D01*
X002690Y009789D02*
X001030Y009789D01*
X001030Y009553D02*
X002625Y009553D01*
X002625Y009475D02*
X001030Y009475D01*
X001030Y009396D02*
X002646Y009396D01*
X002679Y009318D02*
X001030Y009318D01*
X001030Y009239D02*
X002733Y009239D01*
X002812Y009161D02*
X002257Y009161D01*
X002297Y009150D02*
X002216Y009172D01*
X002132Y009182D01*
X002130Y009182D01*
X002130Y008580D01*
X002732Y008580D01*
X002732Y008582D01*
X002722Y008666D01*
X002700Y008747D01*
X002667Y008825D01*
X002625Y008898D01*
X002574Y008965D01*
X002515Y009024D01*
X002448Y009075D01*
X002375Y009117D01*
X002297Y009150D01*
X002436Y009082D02*
X002981Y009082D01*
X003199Y009082D02*
X003744Y009082D01*
X003732Y009075D02*
X003665Y009024D01*
X003606Y008965D01*
X003555Y008898D01*
X003513Y008825D01*
X003480Y008747D01*
X003458Y008666D01*
X003448Y008582D01*
X003448Y008580D01*
X004050Y008580D01*
X004050Y009182D01*
X004048Y009182D01*
X003964Y009172D01*
X003883Y009150D01*
X003805Y009117D01*
X003732Y009075D01*
X003645Y009004D02*
X002535Y009004D01*
X002604Y008925D02*
X003576Y008925D01*
X003525Y008847D02*
X002655Y008847D01*
X002691Y008768D02*
X003489Y008768D01*
X003465Y008690D02*
X002715Y008690D01*
X002729Y008611D02*
X003451Y008611D01*
X003448Y008500D02*
X003448Y008498D01*
X003458Y008414D01*
X003480Y008333D01*
X003513Y008255D01*
X003555Y008182D01*
X003606Y008115D01*
X003665Y008056D01*
X003732Y008005D01*
X003805Y007963D01*
X003883Y007930D01*
X003964Y007908D01*
X004048Y007898D01*
X004050Y007898D01*
X004050Y008500D01*
X004130Y008500D01*
X004130Y008580D01*
X004732Y008580D01*
X004732Y008582D01*
X004722Y008666D01*
X004700Y008747D01*
X004667Y008825D01*
X004625Y008898D01*
X004574Y008965D01*
X004515Y009024D01*
X004448Y009075D01*
X004375Y009117D01*
X004297Y009150D01*
X004216Y009172D01*
X004132Y009182D01*
X004130Y009182D01*
X004130Y008580D01*
X004050Y008580D01*
X004050Y008500D01*
X003448Y008500D01*
X003453Y008454D02*
X002727Y008454D01*
X002722Y008414D02*
X002732Y008498D01*
X002732Y008500D01*
X002130Y008500D01*
X002130Y008580D01*
X002050Y008580D01*
X002050Y009182D01*
X002048Y009182D01*
X001964Y009172D01*
X001883Y009150D01*
X001805Y009117D01*
X001732Y009075D01*
X001665Y009024D01*
X001606Y008965D01*
X001555Y008898D01*
X001513Y008825D01*
X001480Y008747D01*
X001458Y008666D01*
X001448Y008582D01*
X001448Y008580D01*
X002050Y008580D01*
X002050Y008500D01*
X002130Y008500D01*
X002130Y007898D01*
X002132Y007898D01*
X002216Y007908D01*
X002297Y007930D01*
X002375Y007963D01*
X002448Y008005D01*
X002515Y008056D01*
X002574Y008115D01*
X002625Y008182D01*
X002667Y008255D01*
X002700Y008333D01*
X002722Y008414D01*
X002711Y008376D02*
X003469Y008376D01*
X003495Y008297D02*
X002685Y008297D01*
X002646Y008219D02*
X003534Y008219D01*
X003587Y008140D02*
X002593Y008140D01*
X002520Y008062D02*
X003660Y008062D01*
X003770Y007983D02*
X002410Y007983D01*
X002185Y007905D02*
X003995Y007905D01*
X004050Y007905D02*
X004130Y007905D01*
X004130Y007898D02*
X004132Y007898D01*
X004216Y007908D01*
X004297Y007930D01*
X004375Y007963D01*
X004448Y008005D01*
X004515Y008056D01*
X004574Y008115D01*
X004625Y008182D01*
X004667Y008255D01*
X004700Y008333D01*
X004722Y008414D01*
X004732Y008498D01*
X004732Y008500D01*
X004130Y008500D01*
X004130Y007898D01*
X004185Y007905D02*
X005082Y007905D01*
X005020Y007966D02*
X005020Y008314D01*
X005266Y008560D01*
X005614Y008560D01*
X005860Y008314D01*
X005860Y007966D01*
X005614Y007720D01*
X005266Y007720D01*
X005020Y007966D01*
X005020Y007983D02*
X004410Y007983D01*
X004520Y008062D02*
X005020Y008062D01*
X005020Y008140D02*
X004593Y008140D01*
X004646Y008219D02*
X005020Y008219D01*
X005020Y008297D02*
X004685Y008297D01*
X004711Y008376D02*
X005082Y008376D01*
X005160Y008454D02*
X004727Y008454D01*
X004729Y008611D02*
X012590Y008611D01*
X012590Y008533D02*
X005641Y008533D01*
X005720Y008454D02*
X012590Y008454D01*
X012590Y008376D02*
X005798Y008376D01*
X005860Y008297D02*
X012590Y008297D01*
X012590Y008219D02*
X005860Y008219D01*
X005860Y008140D02*
X012590Y008140D01*
X012590Y008062D02*
X005860Y008062D01*
X005860Y007983D02*
X012590Y007983D01*
X012590Y007905D02*
X005798Y007905D01*
X005720Y007826D02*
X012590Y007826D01*
X012590Y007748D02*
X005641Y007748D01*
X005239Y007748D02*
X001030Y007748D01*
X001030Y007826D02*
X005160Y007826D01*
X004625Y007398D02*
X004574Y007465D01*
X004515Y007524D01*
X004448Y007575D01*
X004375Y007617D01*
X004297Y007650D01*
X004216Y007672D01*
X004132Y007682D01*
X004130Y007682D01*
X004130Y007080D01*
X004732Y007080D01*
X004732Y007082D01*
X004722Y007166D01*
X004700Y007247D01*
X004667Y007325D01*
X004625Y007398D01*
X004598Y007434D02*
X012590Y007434D01*
X012590Y007512D02*
X004527Y007512D01*
X004421Y007591D02*
X012590Y007591D01*
X012590Y007669D02*
X004225Y007669D01*
X004130Y007669D02*
X004050Y007669D01*
X004050Y007682D02*
X004048Y007682D01*
X003964Y007672D01*
X003883Y007650D01*
X003805Y007617D01*
X003732Y007575D01*
X003665Y007524D01*
X003606Y007465D01*
X003555Y007398D01*
X003513Y007325D01*
X003480Y007247D01*
X003458Y007166D01*
X003448Y007082D01*
X003448Y007080D01*
X004050Y007080D01*
X004050Y007682D01*
X004050Y007591D02*
X004130Y007591D01*
X004130Y007512D02*
X004050Y007512D01*
X004050Y007434D02*
X004130Y007434D01*
X004130Y007355D02*
X004050Y007355D01*
X004050Y007277D02*
X004130Y007277D01*
X004130Y007198D02*
X004050Y007198D01*
X004050Y007120D02*
X004130Y007120D01*
X004130Y007080D02*
X004050Y007080D01*
X004050Y007000D01*
X004130Y007000D01*
X004130Y007080D01*
X004130Y007041D02*
X012590Y007041D01*
X012590Y006963D02*
X004728Y006963D01*
X004732Y006998D02*
X004722Y006914D01*
X004700Y006833D01*
X004667Y006755D01*
X004625Y006682D01*
X004574Y006615D01*
X004515Y006556D01*
X004448Y006505D01*
X004375Y006463D01*
X004297Y006430D01*
X004216Y006408D01*
X004132Y006398D01*
X004130Y006398D01*
X004130Y007000D01*
X004732Y007000D01*
X004732Y006998D01*
X004713Y006884D02*
X008890Y006884D01*
X008966Y006960D02*
X008720Y006714D01*
X008720Y006366D01*
X008966Y006120D01*
X009314Y006120D01*
X009560Y006366D01*
X009560Y006714D01*
X009314Y006960D01*
X008966Y006960D01*
X008812Y006806D02*
X004688Y006806D01*
X004651Y006727D02*
X008733Y006727D01*
X008720Y006649D02*
X004599Y006649D01*
X004529Y006570D02*
X008720Y006570D01*
X008720Y006492D02*
X004425Y006492D01*
X004233Y006413D02*
X008720Y006413D01*
X008752Y006335D02*
X003453Y006335D01*
X003484Y006303D02*
X003353Y006434D01*
X003182Y006505D01*
X002998Y006505D01*
X002827Y006434D01*
X002696Y006303D01*
X002625Y006132D01*
X002625Y005948D01*
X002696Y005777D01*
X002827Y005646D01*
X002998Y005575D01*
X003182Y005575D01*
X003353Y005646D01*
X003484Y005777D01*
X003555Y005948D01*
X003555Y006132D01*
X003484Y006303D01*
X003504Y006256D02*
X008830Y006256D01*
X008909Y006178D02*
X003536Y006178D01*
X003555Y006099D02*
X012590Y006099D01*
X012590Y006021D02*
X003555Y006021D01*
X003553Y005942D02*
X008120Y005942D01*
X008121Y005943D02*
X008037Y005859D01*
X007992Y005749D01*
X007992Y005631D01*
X008037Y005521D01*
X008121Y005437D01*
X008231Y005392D01*
X008349Y005392D01*
X008459Y005437D01*
X008543Y005521D01*
X008547Y005530D01*
X008733Y005530D01*
X008737Y005521D01*
X008821Y005437D01*
X008931Y005392D01*
X009049Y005392D01*
X009159Y005437D01*
X009243Y005521D01*
X009288Y005631D01*
X009288Y005749D01*
X009243Y005859D01*
X009159Y005943D01*
X009049Y005988D01*
X008931Y005988D01*
X008821Y005943D01*
X008737Y005859D01*
X008733Y005850D01*
X008547Y005850D01*
X008543Y005859D01*
X008459Y005943D01*
X008349Y005988D01*
X008231Y005988D01*
X008121Y005943D01*
X008041Y005864D02*
X003520Y005864D01*
X003488Y005785D02*
X008006Y005785D01*
X007992Y005707D02*
X003414Y005707D01*
X003310Y005628D02*
X003831Y005628D01*
X003805Y005617D02*
X003732Y005575D01*
X003665Y005524D01*
X003606Y005465D01*
X003555Y005398D01*
X003513Y005325D01*
X003480Y005247D01*
X003458Y005166D01*
X003448Y005082D01*
X003448Y005080D01*
X004050Y005080D01*
X004050Y005682D01*
X004048Y005682D01*
X003964Y005672D01*
X003883Y005650D01*
X003805Y005617D01*
X003699Y005550D02*
X002481Y005550D01*
X002448Y005575D02*
X002375Y005617D01*
X002297Y005650D01*
X002216Y005672D01*
X002132Y005682D01*
X002130Y005682D01*
X002130Y005080D01*
X002732Y005080D01*
X002732Y005082D01*
X002722Y005166D01*
X002700Y005247D01*
X002667Y005325D01*
X002625Y005398D01*
X002574Y005465D01*
X002515Y005524D01*
X002448Y005575D01*
X002349Y005628D02*
X002870Y005628D01*
X002766Y005707D02*
X001030Y005707D01*
X001030Y005785D02*
X002692Y005785D01*
X002660Y005864D02*
X001030Y005864D01*
X001030Y005942D02*
X002627Y005942D01*
X002625Y006021D02*
X001030Y006021D01*
X001030Y006099D02*
X002625Y006099D01*
X002644Y006178D02*
X001030Y006178D01*
X001030Y006256D02*
X002676Y006256D01*
X002727Y006335D02*
X001030Y006335D01*
X001030Y006413D02*
X001947Y006413D01*
X001964Y006408D02*
X002048Y006398D01*
X002050Y006398D01*
X002050Y007000D01*
X002130Y007000D01*
X002130Y007080D01*
X002732Y007080D01*
X002732Y007082D01*
X002722Y007166D01*
X002700Y007247D01*
X002667Y007325D01*
X002625Y007398D01*
X002574Y007465D01*
X002515Y007524D01*
X002448Y007575D01*
X002375Y007617D01*
X002297Y007650D01*
X002216Y007672D01*
X002132Y007682D01*
X002130Y007682D01*
X002130Y007080D01*
X002050Y007080D01*
X002050Y007682D01*
X002048Y007682D01*
X001964Y007672D01*
X001883Y007650D01*
X001805Y007617D01*
X001732Y007575D01*
X001665Y007524D01*
X001606Y007465D01*
X001555Y007398D01*
X001513Y007325D01*
X001480Y007247D01*
X001458Y007166D01*
X001448Y007082D01*
X001448Y007080D01*
X002050Y007080D01*
X002050Y007000D01*
X001448Y007000D01*
X001448Y006998D01*
X001458Y006914D01*
X001480Y006833D01*
X001513Y006755D01*
X001555Y006682D01*
X001606Y006615D01*
X001665Y006556D01*
X001732Y006505D01*
X001805Y006463D01*
X001883Y006430D01*
X001964Y006408D01*
X002050Y006413D02*
X002130Y006413D01*
X002130Y006398D02*
X002132Y006398D01*
X002216Y006408D01*
X002297Y006430D01*
X002375Y006463D01*
X002448Y006505D01*
X002515Y006556D01*
X002574Y006615D01*
X002625Y006682D01*
X002667Y006755D01*
X002700Y006833D01*
X002722Y006914D01*
X002732Y006998D01*
X002732Y007000D01*
X002130Y007000D01*
X002130Y006398D01*
X002130Y006492D02*
X002050Y006492D01*
X002050Y006570D02*
X002130Y006570D01*
X002130Y006649D02*
X002050Y006649D01*
X002050Y006727D02*
X002130Y006727D01*
X002130Y006806D02*
X002050Y006806D01*
X002050Y006884D02*
X002130Y006884D01*
X002130Y006963D02*
X002050Y006963D01*
X002050Y007041D02*
X001030Y007041D01*
X001030Y006963D02*
X001452Y006963D01*
X001467Y006884D02*
X001030Y006884D01*
X001030Y006806D02*
X001492Y006806D01*
X001529Y006727D02*
X001030Y006727D01*
X001030Y006649D02*
X001581Y006649D01*
X001651Y006570D02*
X001030Y006570D01*
X001030Y006492D02*
X001755Y006492D01*
X002233Y006413D02*
X002805Y006413D01*
X002965Y006492D02*
X002425Y006492D01*
X002529Y006570D02*
X003651Y006570D01*
X003665Y006556D02*
X003606Y006615D01*
X003555Y006682D01*
X003513Y006755D01*
X003480Y006833D01*
X003458Y006914D01*
X003448Y006998D01*
X003448Y007000D01*
X004050Y007000D01*
X004050Y006398D01*
X004048Y006398D01*
X003964Y006408D01*
X003883Y006430D01*
X003805Y006463D01*
X003732Y006505D01*
X003665Y006556D01*
X003755Y006492D02*
X003215Y006492D01*
X003375Y006413D02*
X003947Y006413D01*
X004050Y006413D02*
X004130Y006413D01*
X004130Y006492D02*
X004050Y006492D01*
X004050Y006570D02*
X004130Y006570D01*
X004130Y006649D02*
X004050Y006649D01*
X004050Y006727D02*
X004130Y006727D01*
X004130Y006806D02*
X004050Y006806D01*
X004050Y006884D02*
X004130Y006884D01*
X004130Y006963D02*
X004050Y006963D01*
X004050Y007041D02*
X002130Y007041D01*
X002130Y007120D02*
X002050Y007120D01*
X002050Y007198D02*
X002130Y007198D01*
X002130Y007277D02*
X002050Y007277D01*
X002050Y007355D02*
X002130Y007355D01*
X002130Y007434D02*
X002050Y007434D01*
X002050Y007512D02*
X002130Y007512D01*
X002130Y007591D02*
X002050Y007591D01*
X002050Y007669D02*
X002130Y007669D01*
X002225Y007669D02*
X003955Y007669D01*
X003759Y007591D02*
X002421Y007591D01*
X002527Y007512D02*
X003653Y007512D01*
X003582Y007434D02*
X002598Y007434D01*
X002650Y007355D02*
X003530Y007355D01*
X003493Y007277D02*
X002687Y007277D01*
X002713Y007198D02*
X003467Y007198D01*
X003452Y007120D02*
X002728Y007120D01*
X002728Y006963D02*
X003452Y006963D01*
X003467Y006884D02*
X002713Y006884D01*
X002688Y006806D02*
X003492Y006806D01*
X003529Y006727D02*
X002651Y006727D01*
X002599Y006649D02*
X003581Y006649D01*
X004130Y005682D02*
X004132Y005682D01*
X004216Y005672D01*
X004297Y005650D01*
X004375Y005617D01*
X004448Y005575D01*
X004515Y005524D01*
X004574Y005465D01*
X004625Y005398D01*
X004667Y005325D01*
X004700Y005247D01*
X004722Y005166D01*
X004732Y005082D01*
X004732Y005080D01*
X004130Y005080D01*
X004130Y005000D01*
X004732Y005000D01*
X004732Y004998D01*
X004722Y004914D01*
X004700Y004833D01*
X004667Y004755D01*
X004625Y004682D01*
X004574Y004615D01*
X004515Y004556D01*
X004448Y004505D01*
X004375Y004463D01*
X004297Y004430D01*
X004216Y004408D01*
X004132Y004398D01*
X004130Y004398D01*
X004130Y005000D01*
X004050Y005000D01*
X004050Y004398D01*
X004048Y004398D01*
X003964Y004408D01*
X003883Y004430D01*
X003805Y004463D01*
X003732Y004505D01*
X003665Y004556D01*
X003606Y004615D01*
X003555Y004682D01*
X003513Y004755D01*
X003480Y004833D01*
X003458Y004914D01*
X003448Y004998D01*
X003448Y005000D01*
X004050Y005000D01*
X004050Y005080D01*
X004130Y005080D01*
X004130Y005682D01*
X004130Y005628D02*
X004050Y005628D01*
X004050Y005550D02*
X004130Y005550D01*
X004130Y005471D02*
X004050Y005471D01*
X004050Y005393D02*
X004130Y005393D01*
X004130Y005314D02*
X004050Y005314D01*
X004050Y005236D02*
X004130Y005236D01*
X004130Y005157D02*
X004050Y005157D01*
X004050Y005079D02*
X002130Y005079D01*
X002130Y005080D02*
X002130Y005000D01*
X002732Y005000D01*
X002732Y004998D01*
X002722Y004914D01*
X002700Y004833D01*
X002667Y004755D01*
X002625Y004682D01*
X002574Y004615D01*
X002515Y004556D01*
X002448Y004505D01*
X002375Y004463D01*
X002297Y004430D01*
X002216Y004408D01*
X002132Y004398D01*
X002130Y004398D01*
X002130Y005000D01*
X002050Y005000D01*
X002050Y004398D01*
X002048Y004398D01*
X001964Y004408D01*
X001883Y004430D01*
X001805Y004463D01*
X001732Y004505D01*
X001665Y004556D01*
X001606Y004615D01*
X001555Y004682D01*
X001513Y004755D01*
X001480Y004833D01*
X001458Y004914D01*
X001448Y004998D01*
X001448Y005000D01*
X002050Y005000D01*
X002050Y005080D01*
X002050Y005682D01*
X002048Y005682D01*
X001964Y005672D01*
X001883Y005650D01*
X001805Y005617D01*
X001732Y005575D01*
X001665Y005524D01*
X001606Y005465D01*
X001555Y005398D01*
X001513Y005325D01*
X001480Y005247D01*
X001458Y005166D01*
X001448Y005082D01*
X001448Y005080D01*
X002050Y005080D01*
X002130Y005080D01*
X002130Y005157D02*
X002050Y005157D01*
X002050Y005079D02*
X001030Y005079D01*
X001030Y005157D02*
X001457Y005157D01*
X001477Y005236D02*
X001030Y005236D01*
X001030Y005314D02*
X001508Y005314D01*
X001552Y005393D02*
X001030Y005393D01*
X001030Y005471D02*
X001612Y005471D01*
X001699Y005550D02*
X001030Y005550D01*
X001030Y005628D02*
X001831Y005628D01*
X002050Y005628D02*
X002130Y005628D01*
X002130Y005550D02*
X002050Y005550D01*
X002050Y005471D02*
X002130Y005471D01*
X002130Y005393D02*
X002050Y005393D01*
X002050Y005314D02*
X002130Y005314D01*
X002130Y005236D02*
X002050Y005236D01*
X002050Y005000D02*
X001030Y005000D01*
X001030Y004922D02*
X001458Y004922D01*
X001478Y004843D02*
X001030Y004843D01*
X001030Y004765D02*
X001509Y004765D01*
X001552Y004686D02*
X001030Y004686D01*
X001030Y004608D02*
X001614Y004608D01*
X001701Y004529D02*
X001030Y004529D01*
X001030Y004451D02*
X001834Y004451D01*
X002050Y004451D02*
X002130Y004451D01*
X002130Y004529D02*
X002050Y004529D01*
X002050Y004608D02*
X002130Y004608D01*
X002130Y004686D02*
X002050Y004686D01*
X002050Y004765D02*
X002130Y004765D01*
X002130Y004843D02*
X002050Y004843D01*
X002050Y004922D02*
X002130Y004922D01*
X002130Y005000D02*
X004050Y005000D01*
X004050Y004922D02*
X004130Y004922D01*
X004130Y005000D02*
X005206Y005000D01*
X005266Y005060D02*
X005020Y004814D01*
X005020Y004466D01*
X005266Y004220D01*
X005614Y004220D01*
X005860Y004466D01*
X005860Y004814D01*
X005614Y005060D01*
X005266Y005060D01*
X005128Y004922D02*
X004722Y004922D01*
X004702Y004843D02*
X005049Y004843D01*
X005020Y004765D02*
X004671Y004765D01*
X004628Y004686D02*
X005020Y004686D01*
X005020Y004608D02*
X004566Y004608D01*
X004479Y004529D02*
X005020Y004529D01*
X005036Y004451D02*
X004346Y004451D01*
X004130Y004451D02*
X004050Y004451D01*
X004050Y004529D02*
X004130Y004529D01*
X004130Y004608D02*
X004050Y004608D01*
X004050Y004686D02*
X004130Y004686D01*
X004130Y004765D02*
X004050Y004765D01*
X004050Y004843D02*
X004130Y004843D01*
X004130Y005079D02*
X012590Y005079D01*
X012590Y005157D02*
X004723Y005157D01*
X004703Y005236D02*
X012590Y005236D01*
X012590Y005314D02*
X004672Y005314D01*
X004628Y005393D02*
X008228Y005393D01*
X008352Y005393D02*
X008928Y005393D01*
X009052Y005393D02*
X012590Y005393D01*
X012590Y005471D02*
X009193Y005471D01*
X009255Y005550D02*
X012590Y005550D01*
X012590Y005628D02*
X009287Y005628D01*
X009288Y005707D02*
X012590Y005707D01*
X012590Y005785D02*
X009274Y005785D01*
X009239Y005864D02*
X012590Y005864D01*
X012590Y005942D02*
X009160Y005942D01*
X008990Y005690D02*
X008290Y005690D01*
X008493Y005471D02*
X008787Y005471D01*
X008741Y005864D02*
X008539Y005864D01*
X008460Y005942D02*
X008820Y005942D01*
X009371Y006178D02*
X012590Y006178D01*
X012590Y006256D02*
X009450Y006256D01*
X009528Y006335D02*
X012590Y006335D01*
X012590Y006413D02*
X009560Y006413D01*
X009560Y006492D02*
X012590Y006492D01*
X012590Y006570D02*
X009560Y006570D01*
X009560Y006649D02*
X012590Y006649D01*
X012590Y006727D02*
X009547Y006727D01*
X009468Y006806D02*
X012590Y006806D01*
X012590Y006884D02*
X009390Y006884D01*
X007993Y005628D02*
X004349Y005628D01*
X004481Y005550D02*
X008025Y005550D01*
X008087Y005471D02*
X004568Y005471D01*
X005674Y005000D02*
X012590Y005000D01*
X012590Y004922D02*
X005752Y004922D01*
X005831Y004843D02*
X012590Y004843D01*
X012590Y004765D02*
X005860Y004765D01*
X005860Y004686D02*
X012590Y004686D01*
X012590Y004608D02*
X005860Y004608D01*
X005860Y004529D02*
X012590Y004529D01*
X012590Y004451D02*
X005844Y004451D01*
X005766Y004372D02*
X012590Y004372D01*
X012590Y004294D02*
X005687Y004294D01*
X005193Y004294D02*
X001030Y004294D01*
X001030Y004372D02*
X005114Y004372D01*
X003834Y004451D02*
X002346Y004451D01*
X002479Y004529D02*
X003701Y004529D01*
X003614Y004608D02*
X002566Y004608D01*
X002628Y004686D02*
X003552Y004686D01*
X003509Y004765D02*
X002671Y004765D01*
X002702Y004843D02*
X003478Y004843D01*
X003458Y004922D02*
X002722Y004922D01*
X002723Y005157D02*
X003457Y005157D01*
X003477Y005236D02*
X002703Y005236D01*
X002672Y005314D02*
X003508Y005314D01*
X003552Y005393D02*
X002628Y005393D01*
X002568Y005471D02*
X003612Y005471D01*
X004728Y007120D02*
X012590Y007120D01*
X012590Y007198D02*
X004713Y007198D01*
X004687Y007277D02*
X012590Y007277D01*
X012590Y007355D02*
X004650Y007355D01*
X004130Y007983D02*
X004050Y007983D01*
X004050Y008062D02*
X004130Y008062D01*
X004130Y008140D02*
X004050Y008140D01*
X004050Y008219D02*
X004130Y008219D01*
X004130Y008297D02*
X004050Y008297D01*
X004050Y008376D02*
X004130Y008376D01*
X004130Y008454D02*
X004050Y008454D01*
X004050Y008533D02*
X002130Y008533D01*
X002130Y008611D02*
X002050Y008611D01*
X002050Y008533D02*
X001030Y008533D01*
X001030Y008611D02*
X001451Y008611D01*
X001465Y008690D02*
X001030Y008690D01*
X001030Y008768D02*
X001489Y008768D01*
X001525Y008847D02*
X001030Y008847D01*
X001030Y008925D02*
X001576Y008925D01*
X001645Y009004D02*
X001030Y009004D01*
X001030Y009082D02*
X001744Y009082D01*
X001923Y009161D02*
X001030Y009161D01*
X001030Y008454D02*
X001453Y008454D01*
X001458Y008414D02*
X001480Y008333D01*
X001513Y008255D01*
X001555Y008182D01*
X001606Y008115D01*
X001665Y008056D01*
X001732Y008005D01*
X001805Y007963D01*
X001883Y007930D01*
X001964Y007908D01*
X002048Y007898D01*
X002050Y007898D01*
X002050Y008500D01*
X001448Y008500D01*
X001448Y008498D01*
X001458Y008414D01*
X001469Y008376D02*
X001030Y008376D01*
X001030Y008297D02*
X001495Y008297D01*
X001534Y008219D02*
X001030Y008219D01*
X001030Y008140D02*
X001587Y008140D01*
X001660Y008062D02*
X001030Y008062D01*
X001030Y007983D02*
X001770Y007983D01*
X001995Y007905D02*
X001030Y007905D01*
X001030Y007669D02*
X001955Y007669D01*
X001759Y007591D02*
X001030Y007591D01*
X001030Y007512D02*
X001653Y007512D01*
X001582Y007434D02*
X001030Y007434D01*
X001030Y007355D02*
X001530Y007355D01*
X001493Y007277D02*
X001030Y007277D01*
X001030Y007198D02*
X001467Y007198D01*
X001452Y007120D02*
X001030Y007120D01*
X002050Y007905D02*
X002130Y007905D01*
X002130Y007983D02*
X002050Y007983D01*
X002050Y008062D02*
X002130Y008062D01*
X002130Y008140D02*
X002050Y008140D01*
X002050Y008219D02*
X002130Y008219D01*
X002130Y008297D02*
X002050Y008297D01*
X002050Y008376D02*
X002130Y008376D01*
X002130Y008454D02*
X002050Y008454D01*
X002050Y008690D02*
X002130Y008690D01*
X002130Y008768D02*
X002050Y008768D01*
X002050Y008847D02*
X002130Y008847D01*
X002130Y008925D02*
X002050Y008925D01*
X002050Y009004D02*
X002130Y009004D01*
X002130Y009082D02*
X002050Y009082D01*
X002050Y009161D02*
X002130Y009161D01*
X002334Y009946D02*
X002854Y009946D01*
X002624Y010181D02*
X003556Y010181D01*
X003555Y010182D02*
X003606Y010115D01*
X003665Y010056D01*
X003732Y010005D01*
X003805Y009963D01*
X003883Y009930D01*
X003964Y009908D01*
X004048Y009898D01*
X004050Y009898D01*
X004050Y010500D01*
X004130Y010500D01*
X004130Y010580D01*
X004732Y010580D01*
X004732Y010582D01*
X004722Y010666D01*
X004700Y010747D01*
X004667Y010825D01*
X004625Y010898D01*
X004574Y010965D01*
X004515Y011024D01*
X004448Y011075D01*
X004375Y011117D01*
X004297Y011150D01*
X004216Y011172D01*
X004132Y011182D01*
X004130Y011182D01*
X004130Y010580D01*
X004050Y010580D01*
X004050Y011182D01*
X004048Y011182D01*
X003964Y011172D01*
X003883Y011150D01*
X003805Y011117D01*
X003732Y011075D01*
X003665Y011024D01*
X003606Y010965D01*
X003555Y010898D01*
X003513Y010825D01*
X003480Y010747D01*
X003458Y010666D01*
X003448Y010582D01*
X003448Y010580D01*
X004050Y010580D01*
X004050Y010500D01*
X003448Y010500D01*
X003448Y010498D01*
X003458Y010414D01*
X003480Y010333D01*
X003513Y010255D01*
X003555Y010182D01*
X003511Y010260D02*
X002669Y010260D01*
X002701Y010338D02*
X003479Y010338D01*
X003458Y010417D02*
X002722Y010417D01*
X002732Y010495D02*
X003448Y010495D01*
X003457Y010652D02*
X002723Y010652D01*
X002704Y010731D02*
X003476Y010731D01*
X003506Y010809D02*
X002674Y010809D01*
X002631Y010888D02*
X003549Y010888D01*
X003607Y010966D02*
X002573Y010966D01*
X002488Y011045D02*
X003692Y011045D01*
X003819Y011123D02*
X002361Y011123D01*
X002130Y011123D02*
X002050Y011123D01*
X002050Y011045D02*
X002130Y011045D01*
X002130Y010966D02*
X002050Y010966D01*
X002050Y010888D02*
X002130Y010888D01*
X002130Y010809D02*
X002050Y010809D01*
X002050Y010731D02*
X002130Y010731D01*
X002130Y010652D02*
X002050Y010652D01*
X002130Y010574D02*
X004050Y010574D01*
X004050Y010652D02*
X004130Y010652D01*
X004130Y010574D02*
X012590Y010574D01*
X012590Y010652D02*
X004723Y010652D01*
X004704Y010731D02*
X012590Y010731D01*
X012590Y010809D02*
X004674Y010809D01*
X004631Y010888D02*
X012590Y010888D01*
X012590Y010966D02*
X004573Y010966D01*
X004488Y011045D02*
X012590Y011045D01*
X012590Y011123D02*
X004361Y011123D01*
X004130Y011123D02*
X004050Y011123D01*
X004050Y011045D02*
X004130Y011045D01*
X004130Y010966D02*
X004050Y010966D01*
X004050Y010888D02*
X004130Y010888D01*
X004130Y010809D02*
X004050Y010809D01*
X004050Y010731D02*
X004130Y010731D01*
X004130Y010500D02*
X004732Y010500D01*
X004732Y010498D01*
X004722Y010414D01*
X004700Y010333D01*
X004667Y010255D01*
X004625Y010182D01*
X004574Y010115D01*
X004515Y010056D01*
X004448Y010005D01*
X004375Y009963D01*
X004297Y009930D01*
X004216Y009908D01*
X004132Y009898D01*
X004130Y009898D01*
X004130Y010500D01*
X004130Y010495D02*
X004050Y010495D01*
X004050Y010417D02*
X004130Y010417D01*
X004130Y010338D02*
X004050Y010338D01*
X004050Y010260D02*
X004130Y010260D01*
X004130Y010181D02*
X004050Y010181D01*
X004050Y010103D02*
X004130Y010103D01*
X004130Y010024D02*
X004050Y010024D01*
X004050Y009946D02*
X004130Y009946D01*
X004334Y009946D02*
X008720Y009946D01*
X008720Y010024D02*
X004473Y010024D01*
X004561Y010103D02*
X008720Y010103D01*
X008720Y010181D02*
X004624Y010181D01*
X004669Y010260D02*
X008766Y010260D01*
X008844Y010338D02*
X004701Y010338D01*
X004722Y010417D02*
X008923Y010417D01*
X009357Y010417D02*
X012590Y010417D01*
X012590Y010495D02*
X004732Y010495D01*
X005049Y011437D02*
X004313Y011437D01*
X004462Y011516D02*
X005020Y011516D01*
X005020Y011594D02*
X004553Y011594D01*
X004618Y011673D02*
X005020Y011673D01*
X005020Y011751D02*
X004665Y011751D01*
X004698Y011830D02*
X005036Y011830D01*
X005114Y011908D02*
X004720Y011908D01*
X004731Y011987D02*
X005193Y011987D01*
X004724Y012144D02*
X012590Y012144D01*
X012590Y012222D02*
X004706Y012222D01*
X004678Y012301D02*
X012590Y012301D01*
X012590Y012379D02*
X004636Y012379D01*
X004579Y012458D02*
X008100Y012458D01*
X008121Y012437D02*
X008231Y012392D01*
X008349Y012392D01*
X008459Y012437D01*
X008543Y012521D01*
X008547Y012530D01*
X008733Y012530D01*
X008737Y012521D01*
X008821Y012437D01*
X008931Y012392D01*
X009049Y012392D01*
X009159Y012437D01*
X009243Y012521D01*
X009288Y012631D01*
X009288Y012749D01*
X009243Y012859D01*
X009159Y012943D01*
X009049Y012988D01*
X008931Y012988D01*
X008821Y012943D01*
X008737Y012859D01*
X008733Y012850D01*
X008547Y012850D01*
X008543Y012859D01*
X008459Y012943D01*
X008349Y012988D01*
X008231Y012988D01*
X008121Y012943D01*
X008037Y012859D01*
X007992Y012749D01*
X007992Y012631D01*
X008037Y012521D01*
X008121Y012437D01*
X008031Y012536D02*
X004499Y012536D01*
X004380Y012615D02*
X007998Y012615D01*
X007992Y012693D02*
X003401Y012693D01*
X003479Y012772D02*
X008001Y012772D01*
X008033Y012850D02*
X003515Y012850D01*
X003547Y012929D02*
X008107Y012929D01*
X008290Y012690D02*
X008990Y012690D01*
X009288Y012693D02*
X012590Y012693D01*
X012590Y012615D02*
X009282Y012615D01*
X009249Y012536D02*
X012590Y012536D01*
X012590Y012458D02*
X009180Y012458D01*
X009279Y012772D02*
X012590Y012772D01*
X012590Y012850D02*
X009247Y012850D01*
X009173Y012929D02*
X012590Y012929D01*
X012590Y013007D02*
X003555Y013007D01*
X003555Y013086D02*
X012590Y013086D01*
X012590Y013164D02*
X009358Y013164D01*
X009314Y013120D02*
X009560Y013366D01*
X009560Y013714D01*
X009314Y013960D01*
X008966Y013960D01*
X008720Y013714D01*
X008720Y013366D01*
X008966Y013120D01*
X009314Y013120D01*
X009437Y013243D02*
X012590Y013243D01*
X012590Y013321D02*
X009515Y013321D01*
X009560Y013400D02*
X012590Y013400D01*
X012590Y013478D02*
X009560Y013478D01*
X009560Y013557D02*
X012590Y013557D01*
X012590Y013635D02*
X009560Y013635D01*
X009560Y013714D02*
X012590Y013714D01*
X012590Y013792D02*
X009482Y013792D01*
X009403Y013871D02*
X012590Y013871D01*
X012590Y013949D02*
X009325Y013949D01*
X008955Y013949D02*
X004726Y013949D01*
X004710Y013871D02*
X008877Y013871D01*
X008798Y013792D02*
X004683Y013792D01*
X004643Y013714D02*
X008720Y013714D01*
X008720Y013635D02*
X004589Y013635D01*
X004515Y013557D02*
X008720Y013557D01*
X008720Y013478D02*
X004402Y013478D01*
X004148Y013400D02*
X008720Y013400D01*
X008765Y013321D02*
X003467Y013321D01*
X003509Y013243D02*
X008843Y013243D01*
X008922Y013164D02*
X003542Y013164D01*
X003800Y012615D02*
X003278Y012615D01*
X004050Y012615D02*
X004130Y012615D01*
X004130Y012536D02*
X004050Y012536D01*
X004050Y012458D02*
X004130Y012458D01*
X004130Y012379D02*
X004050Y012379D01*
X004050Y012301D02*
X004130Y012301D01*
X004130Y012222D02*
X004050Y012222D01*
X004050Y012144D02*
X004130Y012144D01*
X004130Y011908D02*
X004050Y011908D01*
X004050Y011830D02*
X004130Y011830D01*
X004130Y011751D02*
X004050Y011751D01*
X004050Y011673D02*
X004130Y011673D01*
X004130Y011594D02*
X004050Y011594D01*
X004050Y011516D02*
X004130Y011516D01*
X004130Y011437D02*
X004050Y011437D01*
X003619Y010103D02*
X002561Y010103D01*
X002473Y010024D02*
X003707Y010024D01*
X003846Y009946D02*
X003326Y009946D01*
X003421Y009867D02*
X008720Y009867D01*
X008798Y009789D02*
X003490Y009789D01*
X003555Y009553D02*
X012590Y009553D01*
X012590Y009475D02*
X009083Y009475D01*
X009049Y009488D02*
X008931Y009488D01*
X008821Y009443D01*
X008737Y009359D01*
X008733Y009350D01*
X008547Y009350D01*
X008543Y009359D01*
X008459Y009443D01*
X008349Y009488D01*
X008231Y009488D01*
X008121Y009443D01*
X008037Y009359D01*
X007992Y009249D01*
X007992Y009131D01*
X008037Y009021D01*
X008121Y008937D01*
X008231Y008892D01*
X008349Y008892D01*
X008459Y008937D01*
X008543Y009021D01*
X008547Y009030D01*
X008733Y009030D01*
X008737Y009021D01*
X008821Y008937D01*
X008931Y008892D01*
X009049Y008892D01*
X009159Y008937D01*
X009243Y009021D01*
X009288Y009131D01*
X009288Y009249D01*
X009243Y009359D01*
X009159Y009443D01*
X009049Y009488D01*
X008897Y009475D02*
X008383Y009475D01*
X008506Y009396D02*
X008774Y009396D01*
X008990Y009190D02*
X008290Y009190D01*
X008012Y009082D02*
X004436Y009082D01*
X004535Y009004D02*
X008054Y009004D01*
X008150Y008925D02*
X004604Y008925D01*
X004655Y008847D02*
X012590Y008847D01*
X012590Y008925D02*
X009130Y008925D01*
X009226Y009004D02*
X012590Y009004D01*
X012590Y009082D02*
X009268Y009082D01*
X009288Y009161D02*
X012590Y009161D01*
X012590Y009239D02*
X009288Y009239D01*
X009260Y009318D02*
X012590Y009318D01*
X012590Y009396D02*
X009206Y009396D01*
X009325Y009632D02*
X012590Y009632D01*
X012590Y009710D02*
X009404Y009710D01*
X009482Y009789D02*
X012590Y009789D01*
X012590Y009867D02*
X009560Y009867D01*
X009560Y009946D02*
X012590Y009946D01*
X012590Y010024D02*
X009560Y010024D01*
X009560Y010103D02*
X012590Y010103D01*
X012590Y010181D02*
X009560Y010181D01*
X009514Y010260D02*
X012590Y010260D01*
X012590Y010338D02*
X009436Y010338D01*
X008754Y009004D02*
X008526Y009004D01*
X008430Y008925D02*
X008850Y008925D01*
X008197Y009475D02*
X003555Y009475D01*
X003534Y009396D02*
X008074Y009396D01*
X008020Y009318D02*
X003501Y009318D01*
X003447Y009239D02*
X007992Y009239D01*
X007992Y009161D02*
X004257Y009161D01*
X004130Y009161D02*
X004050Y009161D01*
X004050Y009082D02*
X004130Y009082D01*
X004130Y009004D02*
X004050Y009004D01*
X004050Y008925D02*
X004130Y008925D01*
X004130Y008847D02*
X004050Y008847D01*
X004050Y008768D02*
X004130Y008768D01*
X004130Y008690D02*
X004050Y008690D01*
X004050Y008611D02*
X004130Y008611D01*
X004130Y008533D02*
X005239Y008533D01*
X004715Y008690D02*
X012590Y008690D01*
X012590Y008768D02*
X004691Y008768D01*
X003923Y009161D02*
X003368Y009161D01*
X002792Y013400D02*
X002148Y013400D01*
X002402Y013478D02*
X002932Y013478D01*
X001793Y014970D02*
X001030Y014970D01*
X001030Y015048D02*
X001676Y015048D01*
X001597Y015127D02*
X001030Y015127D01*
X001030Y015205D02*
X001541Y015205D01*
X001501Y015284D02*
X001030Y015284D01*
X001030Y015362D02*
X001473Y015362D01*
X001455Y015441D02*
X001030Y015441D01*
X004455Y017011D02*
X008720Y017011D01*
X008720Y017089D02*
X004548Y017089D01*
X004614Y017168D02*
X008720Y017168D01*
X008752Y017246D02*
X004662Y017246D01*
X004696Y017325D02*
X008831Y017325D01*
X008909Y017403D02*
X004718Y017403D01*
X004272Y019850D02*
X003908Y019850D01*
X003650Y020108D01*
X003650Y020472D01*
X003908Y020730D01*
X004272Y020730D01*
X004530Y020472D01*
X004530Y020108D01*
X004272Y019850D01*
X004337Y019915D02*
X004843Y019915D01*
X004764Y019994D02*
X004416Y019994D01*
X004494Y020072D02*
X004686Y020072D01*
X004650Y020151D02*
X004530Y020151D01*
X004530Y020229D02*
X004650Y020229D01*
X004650Y020308D02*
X004530Y020308D01*
X004530Y020386D02*
X004650Y020386D01*
X004650Y020465D02*
X004530Y020465D01*
X004459Y020543D02*
X004721Y020543D01*
X004799Y020622D02*
X004381Y020622D01*
X004302Y020700D02*
X004878Y020700D01*
X004901Y020857D02*
X004279Y020857D01*
X004272Y020850D02*
X004530Y021108D01*
X004530Y021472D01*
X004272Y021730D01*
X003908Y021730D01*
X003650Y021472D01*
X003650Y021108D01*
X003908Y020850D01*
X004272Y020850D01*
X004358Y020936D02*
X004822Y020936D01*
X004744Y021014D02*
X004436Y021014D01*
X004515Y021093D02*
X004665Y021093D01*
X004650Y021171D02*
X004530Y021171D01*
X004530Y021250D02*
X004650Y021250D01*
X004650Y021328D02*
X004530Y021328D01*
X004530Y021407D02*
X004650Y021407D01*
X004663Y021485D02*
X004517Y021485D01*
X004439Y021564D02*
X004741Y021564D01*
X004820Y021642D02*
X004360Y021642D01*
X004282Y021721D02*
X004898Y021721D01*
X003898Y021721D02*
X003282Y021721D01*
X003272Y021730D02*
X003130Y021730D01*
X003130Y021330D01*
X003530Y021330D01*
X003530Y021472D01*
X003272Y021730D01*
X003360Y021642D02*
X003820Y021642D01*
X003741Y021564D02*
X003439Y021564D01*
X003517Y021485D02*
X003663Y021485D01*
X003650Y021407D02*
X003530Y021407D01*
X003650Y021328D02*
X003130Y021328D01*
X003130Y021330D02*
X003130Y021250D01*
X003530Y021250D01*
X003530Y021108D01*
X003272Y020850D01*
X003130Y020850D01*
X003130Y021250D01*
X003050Y021250D01*
X003050Y020850D01*
X002908Y020850D01*
X002650Y021108D01*
X002650Y021250D01*
X003050Y021250D01*
X003050Y021330D01*
X003050Y021730D01*
X002908Y021730D01*
X002650Y021472D01*
X002650Y021330D01*
X003050Y021330D01*
X003130Y021330D01*
X003130Y021407D02*
X003050Y021407D01*
X003050Y021485D02*
X003130Y021485D01*
X003130Y021564D02*
X003050Y021564D01*
X003050Y021642D02*
X003130Y021642D01*
X003130Y021721D02*
X003050Y021721D01*
X002898Y021721D02*
X002282Y021721D01*
X002360Y021642D02*
X002820Y021642D01*
X002741Y021564D02*
X002439Y021564D01*
X002517Y021485D02*
X002663Y021485D01*
X002650Y021407D02*
X002530Y021407D01*
X002530Y021250D02*
X002130Y021250D01*
X002130Y020850D01*
X002272Y020850D01*
X002530Y021108D01*
X002530Y021250D01*
X002650Y021250D01*
X002650Y021171D02*
X002530Y021171D01*
X002515Y021093D02*
X002665Y021093D01*
X002744Y021014D02*
X002436Y021014D01*
X002358Y020936D02*
X002822Y020936D01*
X002901Y020857D02*
X002279Y020857D01*
X002130Y020857D02*
X002050Y020857D01*
X002050Y020936D02*
X002130Y020936D01*
X002130Y021014D02*
X002050Y021014D01*
X002050Y021093D02*
X002130Y021093D01*
X002130Y021171D02*
X002050Y021171D01*
X002050Y021250D02*
X002130Y021250D01*
X002130Y021328D02*
X003050Y021328D01*
X003050Y021250D02*
X003130Y021250D01*
X003130Y021171D02*
X003050Y021171D01*
X003050Y021093D02*
X003130Y021093D01*
X003130Y021014D02*
X003050Y021014D01*
X003050Y020936D02*
X003130Y020936D01*
X003130Y020857D02*
X003050Y020857D01*
X002908Y020730D02*
X002650Y020472D01*
X002650Y020108D01*
X002908Y019850D01*
X003272Y019850D01*
X003530Y020108D01*
X003530Y020472D01*
X003272Y020730D01*
X002908Y020730D01*
X002878Y020700D02*
X002302Y020700D01*
X002381Y020622D02*
X002799Y020622D01*
X002721Y020543D02*
X002459Y020543D01*
X002530Y020465D02*
X002650Y020465D01*
X002650Y020386D02*
X002530Y020386D01*
X002530Y020308D02*
X002650Y020308D01*
X002650Y020229D02*
X002530Y020229D01*
X002530Y020151D02*
X002650Y020151D01*
X002686Y020072D02*
X002494Y020072D01*
X002416Y019994D02*
X002764Y019994D01*
X002843Y019915D02*
X002337Y019915D01*
X003337Y019915D02*
X003843Y019915D01*
X003764Y019994D02*
X003416Y019994D01*
X003494Y020072D02*
X003686Y020072D01*
X003650Y020151D02*
X003530Y020151D01*
X003530Y020229D02*
X003650Y020229D01*
X003650Y020308D02*
X003530Y020308D01*
X003530Y020386D02*
X003650Y020386D01*
X003650Y020465D02*
X003530Y020465D01*
X003459Y020543D02*
X003721Y020543D01*
X003799Y020622D02*
X003381Y020622D01*
X003302Y020700D02*
X003878Y020700D01*
X003901Y020857D02*
X003279Y020857D01*
X003358Y020936D02*
X003822Y020936D01*
X003744Y021014D02*
X003436Y021014D01*
X003515Y021093D02*
X003665Y021093D01*
X003650Y021171D02*
X003530Y021171D01*
X003530Y021250D02*
X003650Y021250D01*
X002130Y021407D02*
X002050Y021407D01*
X002050Y021485D02*
X002130Y021485D01*
X002130Y021564D02*
X002050Y021564D01*
X002050Y021642D02*
X002130Y021642D01*
X002130Y021721D02*
X002050Y021721D01*
X002050Y021328D02*
X001030Y021328D01*
X005337Y019915D02*
X005843Y019915D01*
X009371Y017403D02*
X012590Y017403D01*
X012590Y017325D02*
X009449Y017325D01*
X009528Y017246D02*
X012590Y017246D01*
X012590Y017168D02*
X009560Y017168D01*
X009560Y017089D02*
X012590Y017089D01*
X012590Y017011D02*
X009560Y017011D01*
X009560Y016932D02*
X012590Y016932D01*
X012590Y016854D02*
X009548Y016854D01*
X009469Y016775D02*
X012590Y016775D01*
X012590Y016697D02*
X009391Y016697D01*
X008807Y012929D02*
X008473Y012929D01*
X008547Y012850D02*
X008733Y012850D01*
X008800Y012458D02*
X008480Y012458D01*
X012590Y004215D02*
X001030Y004215D01*
X001030Y003744D02*
X022150Y003744D01*
X022150Y003666D02*
X001030Y003666D01*
X001030Y003587D02*
X022150Y003587D01*
X022150Y003509D02*
X001030Y003509D01*
X001030Y003430D02*
X022150Y003430D01*
X022150Y003352D02*
X001030Y003352D01*
X001030Y003273D02*
X022150Y003273D01*
X022150Y003195D02*
X001030Y003195D01*
X001030Y003116D02*
X022150Y003116D01*
X022150Y003038D02*
X001030Y003038D01*
X001030Y002959D02*
X022150Y002959D01*
X022150Y002881D02*
X001030Y002881D01*
X001030Y002802D02*
X022150Y002802D01*
X022150Y002724D02*
X021279Y002724D01*
X021272Y002730D02*
X020908Y002730D01*
X020650Y002472D01*
X020650Y002108D01*
X020908Y001850D01*
X021272Y001850D01*
X021530Y002108D01*
X021530Y002472D01*
X021272Y002730D01*
X021357Y002645D02*
X022150Y002645D01*
X022150Y002567D02*
X021436Y002567D01*
X021514Y002488D02*
X022150Y002488D01*
X022150Y002410D02*
X021530Y002410D01*
X021530Y002331D02*
X022150Y002331D01*
X022150Y002253D02*
X021530Y002253D01*
X021530Y002174D02*
X022150Y002174D01*
X022150Y002096D02*
X021518Y002096D01*
X021439Y002017D02*
X022150Y002017D01*
X022150Y001939D02*
X021361Y001939D01*
X021282Y001860D02*
X022150Y001860D01*
X022150Y001782D02*
X001030Y001782D01*
X001030Y001860D02*
X001898Y001860D01*
X001908Y001850D02*
X002272Y001850D01*
X002530Y002108D01*
X002530Y002472D01*
X002272Y002730D01*
X001908Y002730D01*
X001650Y002472D01*
X001650Y002108D01*
X001908Y001850D01*
X001908Y001730D02*
X001650Y001472D01*
X001650Y001108D01*
X001908Y000850D01*
X002272Y000850D01*
X002530Y001108D01*
X002530Y001472D01*
X002272Y001730D01*
X001908Y001730D01*
X001881Y001703D02*
X001030Y001703D01*
X001030Y001625D02*
X001802Y001625D01*
X001724Y001546D02*
X001030Y001546D01*
X001030Y001468D02*
X001650Y001468D01*
X001650Y001389D02*
X001030Y001389D01*
X001030Y001311D02*
X001650Y001311D01*
X001650Y001232D02*
X001030Y001232D01*
X001030Y001154D02*
X001650Y001154D01*
X001683Y001075D02*
X001030Y001075D01*
X001030Y000997D02*
X001761Y000997D01*
X001840Y000918D02*
X001030Y000918D01*
X001030Y000840D02*
X022150Y000840D01*
X022150Y000918D02*
X021340Y000918D01*
X021272Y000850D02*
X021530Y001108D01*
X021530Y001472D01*
X021272Y001730D01*
X020908Y001730D01*
X020650Y001472D01*
X020650Y001108D01*
X020908Y000850D01*
X021272Y000850D01*
X021419Y000997D02*
X022150Y000997D01*
X022150Y001075D02*
X021497Y001075D01*
X021530Y001154D02*
X022150Y001154D01*
X022150Y001232D02*
X021530Y001232D01*
X021530Y001311D02*
X022150Y001311D01*
X022150Y001389D02*
X021530Y001389D01*
X021530Y001468D02*
X022150Y001468D01*
X022150Y001546D02*
X021456Y001546D01*
X021378Y001625D02*
X022150Y001625D01*
X022150Y001703D02*
X021299Y001703D01*
X020881Y001703D02*
X020299Y001703D01*
X020272Y001730D02*
X019908Y001730D01*
X019650Y001472D01*
X019650Y001108D01*
X019908Y000850D01*
X020272Y000850D01*
X020530Y001108D01*
X020530Y001472D01*
X020272Y001730D01*
X020272Y001850D02*
X019908Y001850D01*
X019650Y002108D01*
X019650Y002472D01*
X019908Y002730D01*
X020272Y002730D01*
X020530Y002472D01*
X020530Y002108D01*
X020272Y001850D01*
X020282Y001860D02*
X020898Y001860D01*
X020819Y001939D02*
X020361Y001939D01*
X020439Y002017D02*
X020741Y002017D01*
X020662Y002096D02*
X020518Y002096D01*
X020530Y002174D02*
X020650Y002174D01*
X020650Y002253D02*
X020530Y002253D01*
X020530Y002331D02*
X020650Y002331D01*
X020650Y002410D02*
X020530Y002410D01*
X020514Y002488D02*
X020666Y002488D01*
X020744Y002567D02*
X020436Y002567D01*
X020357Y002645D02*
X020823Y002645D01*
X020901Y002724D02*
X020279Y002724D01*
X019901Y002724D02*
X019279Y002724D01*
X019272Y002730D02*
X018908Y002730D01*
X018650Y002472D01*
X018650Y002108D01*
X018908Y001850D01*
X019272Y001850D01*
X019530Y002108D01*
X019530Y002472D01*
X019272Y002730D01*
X019357Y002645D02*
X019823Y002645D01*
X019744Y002567D02*
X019436Y002567D01*
X019514Y002488D02*
X019666Y002488D01*
X019650Y002410D02*
X019530Y002410D01*
X019530Y002331D02*
X019650Y002331D01*
X019650Y002253D02*
X019530Y002253D01*
X019530Y002174D02*
X019650Y002174D01*
X019662Y002096D02*
X019518Y002096D01*
X019439Y002017D02*
X019741Y002017D01*
X019819Y001939D02*
X019361Y001939D01*
X019282Y001860D02*
X019898Y001860D01*
X019881Y001703D02*
X019299Y001703D01*
X019272Y001730D02*
X018908Y001730D01*
X018650Y001472D01*
X018650Y001108D01*
X018908Y000850D01*
X019272Y000850D01*
X019530Y001108D01*
X019530Y001472D01*
X019272Y001730D01*
X019378Y001625D02*
X019802Y001625D01*
X019724Y001546D02*
X019456Y001546D01*
X019530Y001468D02*
X019650Y001468D01*
X019650Y001389D02*
X019530Y001389D01*
X019530Y001311D02*
X019650Y001311D01*
X019650Y001232D02*
X019530Y001232D01*
X019530Y001154D02*
X019650Y001154D01*
X019683Y001075D02*
X019497Y001075D01*
X019419Y000997D02*
X019761Y000997D01*
X019840Y000918D02*
X019340Y000918D01*
X018840Y000918D02*
X018340Y000918D01*
X018272Y000850D02*
X018530Y001108D01*
X018530Y001472D01*
X018272Y001730D01*
X017908Y001730D01*
X017650Y001472D01*
X017650Y001108D01*
X017908Y000850D01*
X018272Y000850D01*
X018419Y000997D02*
X018761Y000997D01*
X018683Y001075D02*
X018497Y001075D01*
X018530Y001154D02*
X018650Y001154D01*
X018650Y001232D02*
X018530Y001232D01*
X018530Y001311D02*
X018650Y001311D01*
X018650Y001389D02*
X018530Y001389D01*
X018530Y001468D02*
X018650Y001468D01*
X018724Y001546D02*
X018456Y001546D01*
X018378Y001625D02*
X018802Y001625D01*
X018881Y001703D02*
X018299Y001703D01*
X018272Y001850D02*
X018530Y002108D01*
X018530Y002472D01*
X018272Y002730D01*
X017908Y002730D01*
X017650Y002472D01*
X017650Y002108D01*
X017908Y001850D01*
X018272Y001850D01*
X018282Y001860D02*
X018898Y001860D01*
X018819Y001939D02*
X018361Y001939D01*
X018439Y002017D02*
X018741Y002017D01*
X018662Y002096D02*
X018518Y002096D01*
X018530Y002174D02*
X018650Y002174D01*
X018650Y002253D02*
X018530Y002253D01*
X018530Y002331D02*
X018650Y002331D01*
X018650Y002410D02*
X018530Y002410D01*
X018514Y002488D02*
X018666Y002488D01*
X018744Y002567D02*
X018436Y002567D01*
X018357Y002645D02*
X018823Y002645D01*
X018901Y002724D02*
X018279Y002724D01*
X017901Y002724D02*
X017279Y002724D01*
X017272Y002730D02*
X016908Y002730D01*
X016650Y002472D01*
X016650Y002108D01*
X016908Y001850D01*
X017272Y001850D01*
X017530Y002108D01*
X017530Y002472D01*
X017272Y002730D01*
X017357Y002645D02*
X017823Y002645D01*
X017744Y002567D02*
X017436Y002567D01*
X017514Y002488D02*
X017666Y002488D01*
X017650Y002410D02*
X017530Y002410D01*
X017530Y002331D02*
X017650Y002331D01*
X017650Y002253D02*
X017530Y002253D01*
X017530Y002174D02*
X017650Y002174D01*
X017662Y002096D02*
X017518Y002096D01*
X017439Y002017D02*
X017741Y002017D01*
X017819Y001939D02*
X017361Y001939D01*
X017282Y001860D02*
X017898Y001860D01*
X017881Y001703D02*
X017299Y001703D01*
X017272Y001730D02*
X016908Y001730D01*
X016650Y001472D01*
X016650Y001108D01*
X016908Y000850D01*
X017272Y000850D01*
X017530Y001108D01*
X017530Y001472D01*
X017272Y001730D01*
X017378Y001625D02*
X017802Y001625D01*
X017724Y001546D02*
X017456Y001546D01*
X017530Y001468D02*
X017650Y001468D01*
X017650Y001389D02*
X017530Y001389D01*
X017530Y001311D02*
X017650Y001311D01*
X017650Y001232D02*
X017530Y001232D01*
X017530Y001154D02*
X017650Y001154D01*
X017683Y001075D02*
X017497Y001075D01*
X017419Y000997D02*
X017761Y000997D01*
X017840Y000918D02*
X017340Y000918D01*
X016840Y000918D02*
X016340Y000918D01*
X016272Y000850D02*
X016530Y001108D01*
X016530Y001472D01*
X016272Y001730D01*
X015908Y001730D01*
X015650Y001472D01*
X015650Y001108D01*
X015908Y000850D01*
X016272Y000850D01*
X016419Y000997D02*
X016761Y000997D01*
X016683Y001075D02*
X016497Y001075D01*
X016530Y001154D02*
X016650Y001154D01*
X016650Y001232D02*
X016530Y001232D01*
X016530Y001311D02*
X016650Y001311D01*
X016650Y001389D02*
X016530Y001389D01*
X016530Y001468D02*
X016650Y001468D01*
X016724Y001546D02*
X016456Y001546D01*
X016378Y001625D02*
X016802Y001625D01*
X016881Y001703D02*
X016299Y001703D01*
X016272Y001850D02*
X016530Y002108D01*
X016530Y002472D01*
X016272Y002730D01*
X015908Y002730D01*
X015650Y002472D01*
X015650Y002108D01*
X015908Y001850D01*
X016272Y001850D01*
X016282Y001860D02*
X016898Y001860D01*
X016819Y001939D02*
X016361Y001939D01*
X016439Y002017D02*
X016741Y002017D01*
X016662Y002096D02*
X016518Y002096D01*
X016530Y002174D02*
X016650Y002174D01*
X016650Y002253D02*
X016530Y002253D01*
X016530Y002331D02*
X016650Y002331D01*
X016650Y002410D02*
X016530Y002410D01*
X016514Y002488D02*
X016666Y002488D01*
X016744Y002567D02*
X016436Y002567D01*
X016357Y002645D02*
X016823Y002645D01*
X016901Y002724D02*
X016279Y002724D01*
X015901Y002724D02*
X015279Y002724D01*
X015272Y002730D02*
X014908Y002730D01*
X014650Y002472D01*
X014650Y002108D01*
X014908Y001850D01*
X015272Y001850D01*
X015530Y002108D01*
X015530Y002472D01*
X015272Y002730D01*
X015357Y002645D02*
X015823Y002645D01*
X015744Y002567D02*
X015436Y002567D01*
X015514Y002488D02*
X015666Y002488D01*
X015650Y002410D02*
X015530Y002410D01*
X015530Y002331D02*
X015650Y002331D01*
X015650Y002253D02*
X015530Y002253D01*
X015530Y002174D02*
X015650Y002174D01*
X015662Y002096D02*
X015518Y002096D01*
X015439Y002017D02*
X015741Y002017D01*
X015819Y001939D02*
X015361Y001939D01*
X015282Y001860D02*
X015898Y001860D01*
X015881Y001703D02*
X015299Y001703D01*
X015272Y001730D02*
X015530Y001472D01*
X015530Y001108D01*
X015272Y000850D01*
X014908Y000850D01*
X014650Y001108D01*
X014650Y001472D01*
X014908Y001730D01*
X015272Y001730D01*
X015378Y001625D02*
X015802Y001625D01*
X015724Y001546D02*
X015456Y001546D01*
X015530Y001468D02*
X015650Y001468D01*
X015650Y001389D02*
X015530Y001389D01*
X015530Y001311D02*
X015650Y001311D01*
X015650Y001232D02*
X015530Y001232D01*
X015530Y001154D02*
X015650Y001154D01*
X015683Y001075D02*
X015497Y001075D01*
X015419Y000997D02*
X015761Y000997D01*
X015840Y000918D02*
X015340Y000918D01*
X014840Y000918D02*
X014340Y000918D01*
X014272Y000850D02*
X014530Y001108D01*
X014530Y001472D01*
X014272Y001730D01*
X013908Y001730D01*
X013650Y001472D01*
X013650Y001108D01*
X013908Y000850D01*
X014272Y000850D01*
X014419Y000997D02*
X014761Y000997D01*
X014683Y001075D02*
X014497Y001075D01*
X014530Y001154D02*
X014650Y001154D01*
X014650Y001232D02*
X014530Y001232D01*
X014530Y001311D02*
X014650Y001311D01*
X014650Y001389D02*
X014530Y001389D01*
X014530Y001468D02*
X014650Y001468D01*
X014724Y001546D02*
X014456Y001546D01*
X014378Y001625D02*
X014802Y001625D01*
X014881Y001703D02*
X014299Y001703D01*
X014272Y001850D02*
X014530Y002108D01*
X014530Y002472D01*
X014272Y002730D01*
X013908Y002730D01*
X013650Y002472D01*
X013650Y002108D01*
X013908Y001850D01*
X014272Y001850D01*
X014282Y001860D02*
X014898Y001860D01*
X014819Y001939D02*
X014361Y001939D01*
X014439Y002017D02*
X014741Y002017D01*
X014662Y002096D02*
X014518Y002096D01*
X014530Y002174D02*
X014650Y002174D01*
X014650Y002253D02*
X014530Y002253D01*
X014530Y002331D02*
X014650Y002331D01*
X014650Y002410D02*
X014530Y002410D01*
X014514Y002488D02*
X014666Y002488D01*
X014744Y002567D02*
X014436Y002567D01*
X014357Y002645D02*
X014823Y002645D01*
X014901Y002724D02*
X014279Y002724D01*
X013901Y002724D02*
X013279Y002724D01*
X013272Y002730D02*
X012908Y002730D01*
X012650Y002472D01*
X012650Y002108D01*
X012908Y001850D01*
X013272Y001850D01*
X013530Y002108D01*
X013530Y002472D01*
X013272Y002730D01*
X013357Y002645D02*
X013823Y002645D01*
X013744Y002567D02*
X013436Y002567D01*
X013514Y002488D02*
X013666Y002488D01*
X013650Y002410D02*
X013530Y002410D01*
X013530Y002331D02*
X013650Y002331D01*
X013650Y002253D02*
X013530Y002253D01*
X013530Y002174D02*
X013650Y002174D01*
X013662Y002096D02*
X013518Y002096D01*
X013439Y002017D02*
X013741Y002017D01*
X013819Y001939D02*
X013361Y001939D01*
X013282Y001860D02*
X013898Y001860D01*
X013881Y001703D02*
X013299Y001703D01*
X013272Y001730D02*
X012908Y001730D01*
X012650Y001472D01*
X012650Y001108D01*
X012908Y000850D01*
X013272Y000850D01*
X013530Y001108D01*
X013530Y001472D01*
X013272Y001730D01*
X013378Y001625D02*
X013802Y001625D01*
X013724Y001546D02*
X013456Y001546D01*
X013530Y001468D02*
X013650Y001468D01*
X013650Y001389D02*
X013530Y001389D01*
X013530Y001311D02*
X013650Y001311D01*
X013650Y001232D02*
X013530Y001232D01*
X013530Y001154D02*
X013650Y001154D01*
X013683Y001075D02*
X013497Y001075D01*
X013419Y000997D02*
X013761Y000997D01*
X013840Y000918D02*
X013340Y000918D01*
X012840Y000918D02*
X012340Y000918D01*
X012272Y000850D02*
X012530Y001108D01*
X012530Y001472D01*
X012272Y001730D01*
X011908Y001730D01*
X011650Y001472D01*
X011650Y001108D01*
X011908Y000850D01*
X012272Y000850D01*
X012419Y000997D02*
X012761Y000997D01*
X012683Y001075D02*
X012497Y001075D01*
X012530Y001154D02*
X012650Y001154D01*
X012650Y001232D02*
X012530Y001232D01*
X012530Y001311D02*
X012650Y001311D01*
X012650Y001389D02*
X012530Y001389D01*
X012530Y001468D02*
X012650Y001468D01*
X012724Y001546D02*
X012456Y001546D01*
X012378Y001625D02*
X012802Y001625D01*
X012881Y001703D02*
X012299Y001703D01*
X012272Y001850D02*
X011908Y001850D01*
X011650Y002108D01*
X011650Y002472D01*
X011908Y002730D01*
X012272Y002730D01*
X012530Y002472D01*
X012530Y002108D01*
X012272Y001850D01*
X012282Y001860D02*
X012898Y001860D01*
X012819Y001939D02*
X012361Y001939D01*
X012439Y002017D02*
X012741Y002017D01*
X012662Y002096D02*
X012518Y002096D01*
X012530Y002174D02*
X012650Y002174D01*
X012650Y002253D02*
X012530Y002253D01*
X012530Y002331D02*
X012650Y002331D01*
X012650Y002410D02*
X012530Y002410D01*
X012514Y002488D02*
X012666Y002488D01*
X012744Y002567D02*
X012436Y002567D01*
X012357Y002645D02*
X012823Y002645D01*
X012901Y002724D02*
X012279Y002724D01*
X011901Y002724D02*
X011279Y002724D01*
X011272Y002730D02*
X010908Y002730D01*
X010650Y002472D01*
X010650Y002108D01*
X010908Y001850D01*
X011272Y001850D01*
X011530Y002108D01*
X011530Y002472D01*
X011272Y002730D01*
X011357Y002645D02*
X011823Y002645D01*
X011744Y002567D02*
X011436Y002567D01*
X011514Y002488D02*
X011666Y002488D01*
X011650Y002410D02*
X011530Y002410D01*
X011530Y002331D02*
X011650Y002331D01*
X011650Y002253D02*
X011530Y002253D01*
X011530Y002174D02*
X011650Y002174D01*
X011662Y002096D02*
X011518Y002096D01*
X011439Y002017D02*
X011741Y002017D01*
X011819Y001939D02*
X011361Y001939D01*
X011282Y001860D02*
X011898Y001860D01*
X011881Y001703D02*
X011299Y001703D01*
X011272Y001730D02*
X010908Y001730D01*
X010650Y001472D01*
X010650Y001108D01*
X010908Y000850D01*
X011272Y000850D01*
X011530Y001108D01*
X011530Y001472D01*
X011272Y001730D01*
X011378Y001625D02*
X011802Y001625D01*
X011724Y001546D02*
X011456Y001546D01*
X011530Y001468D02*
X011650Y001468D01*
X011650Y001389D02*
X011530Y001389D01*
X011530Y001311D02*
X011650Y001311D01*
X011650Y001232D02*
X011530Y001232D01*
X011530Y001154D02*
X011650Y001154D01*
X011683Y001075D02*
X011497Y001075D01*
X011419Y000997D02*
X011761Y000997D01*
X011840Y000918D02*
X011340Y000918D01*
X010840Y000918D02*
X010340Y000918D01*
X010272Y000850D02*
X010530Y001108D01*
X010530Y001472D01*
X010272Y001730D01*
X009908Y001730D01*
X009650Y001472D01*
X009650Y001108D01*
X009908Y000850D01*
X010272Y000850D01*
X010419Y000997D02*
X010761Y000997D01*
X010683Y001075D02*
X010497Y001075D01*
X010530Y001154D02*
X010650Y001154D01*
X010650Y001232D02*
X010530Y001232D01*
X010530Y001311D02*
X010650Y001311D01*
X010650Y001389D02*
X010530Y001389D01*
X010530Y001468D02*
X010650Y001468D01*
X010724Y001546D02*
X010456Y001546D01*
X010378Y001625D02*
X010802Y001625D01*
X010881Y001703D02*
X010299Y001703D01*
X010272Y001850D02*
X010530Y002108D01*
X010530Y002472D01*
X010272Y002730D01*
X009908Y002730D01*
X009650Y002472D01*
X009650Y002108D01*
X009908Y001850D01*
X010272Y001850D01*
X010282Y001860D02*
X010898Y001860D01*
X010819Y001939D02*
X010361Y001939D01*
X010439Y002017D02*
X010741Y002017D01*
X010662Y002096D02*
X010518Y002096D01*
X010530Y002174D02*
X010650Y002174D01*
X010650Y002253D02*
X010530Y002253D01*
X010530Y002331D02*
X010650Y002331D01*
X010650Y002410D02*
X010530Y002410D01*
X010514Y002488D02*
X010666Y002488D01*
X010744Y002567D02*
X010436Y002567D01*
X010357Y002645D02*
X010823Y002645D01*
X010901Y002724D02*
X010279Y002724D01*
X009901Y002724D02*
X009279Y002724D01*
X009272Y002730D02*
X008908Y002730D01*
X008650Y002472D01*
X008650Y002108D01*
X008908Y001850D01*
X009272Y001850D01*
X009530Y002108D01*
X009530Y002472D01*
X009272Y002730D01*
X009357Y002645D02*
X009823Y002645D01*
X009744Y002567D02*
X009436Y002567D01*
X009514Y002488D02*
X009666Y002488D01*
X009650Y002410D02*
X009530Y002410D01*
X009530Y002331D02*
X009650Y002331D01*
X009650Y002253D02*
X009530Y002253D01*
X009530Y002174D02*
X009650Y002174D01*
X009662Y002096D02*
X009518Y002096D01*
X009439Y002017D02*
X009741Y002017D01*
X009819Y001939D02*
X009361Y001939D01*
X009282Y001860D02*
X009898Y001860D01*
X009881Y001703D02*
X009299Y001703D01*
X009272Y001730D02*
X008908Y001730D01*
X008650Y001472D01*
X008650Y001108D01*
X008908Y000850D01*
X009272Y000850D01*
X009530Y001108D01*
X009530Y001472D01*
X009272Y001730D01*
X009378Y001625D02*
X009802Y001625D01*
X009724Y001546D02*
X009456Y001546D01*
X009530Y001468D02*
X009650Y001468D01*
X009650Y001389D02*
X009530Y001389D01*
X009530Y001311D02*
X009650Y001311D01*
X009650Y001232D02*
X009530Y001232D01*
X009530Y001154D02*
X009650Y001154D01*
X009683Y001075D02*
X009497Y001075D01*
X009419Y000997D02*
X009761Y000997D01*
X009840Y000918D02*
X009340Y000918D01*
X008840Y000918D02*
X008340Y000918D01*
X008272Y000850D02*
X008530Y001108D01*
X008530Y001472D01*
X008272Y001730D01*
X007908Y001730D01*
X007650Y001472D01*
X007650Y001108D01*
X007908Y000850D01*
X008272Y000850D01*
X008419Y000997D02*
X008761Y000997D01*
X008683Y001075D02*
X008497Y001075D01*
X008530Y001154D02*
X008650Y001154D01*
X008650Y001232D02*
X008530Y001232D01*
X008530Y001311D02*
X008650Y001311D01*
X008650Y001389D02*
X008530Y001389D01*
X008530Y001468D02*
X008650Y001468D01*
X008724Y001546D02*
X008456Y001546D01*
X008378Y001625D02*
X008802Y001625D01*
X008881Y001703D02*
X008299Y001703D01*
X008272Y001850D02*
X008530Y002108D01*
X008530Y002472D01*
X008272Y002730D01*
X007908Y002730D01*
X007650Y002472D01*
X007650Y002108D01*
X007908Y001850D01*
X008272Y001850D01*
X008282Y001860D02*
X008898Y001860D01*
X008819Y001939D02*
X008361Y001939D01*
X008439Y002017D02*
X008741Y002017D01*
X008662Y002096D02*
X008518Y002096D01*
X008530Y002174D02*
X008650Y002174D01*
X008650Y002253D02*
X008530Y002253D01*
X008530Y002331D02*
X008650Y002331D01*
X008650Y002410D02*
X008530Y002410D01*
X008514Y002488D02*
X008666Y002488D01*
X008744Y002567D02*
X008436Y002567D01*
X008357Y002645D02*
X008823Y002645D01*
X008901Y002724D02*
X008279Y002724D01*
X007901Y002724D02*
X007279Y002724D01*
X007272Y002730D02*
X006908Y002730D01*
X006650Y002472D01*
X006650Y002108D01*
X006908Y001850D01*
X007272Y001850D01*
X007530Y002108D01*
X007530Y002472D01*
X007272Y002730D01*
X007357Y002645D02*
X007823Y002645D01*
X007744Y002567D02*
X007436Y002567D01*
X007514Y002488D02*
X007666Y002488D01*
X007650Y002410D02*
X007530Y002410D01*
X007530Y002331D02*
X007650Y002331D01*
X007650Y002253D02*
X007530Y002253D01*
X007530Y002174D02*
X007650Y002174D01*
X007662Y002096D02*
X007518Y002096D01*
X007439Y002017D02*
X007741Y002017D01*
X007819Y001939D02*
X007361Y001939D01*
X007282Y001860D02*
X007898Y001860D01*
X007881Y001703D02*
X007299Y001703D01*
X007272Y001730D02*
X006908Y001730D01*
X006650Y001472D01*
X006650Y001108D01*
X006908Y000850D01*
X007272Y000850D01*
X007530Y001108D01*
X007530Y001472D01*
X007272Y001730D01*
X007378Y001625D02*
X007802Y001625D01*
X007724Y001546D02*
X007456Y001546D01*
X007530Y001468D02*
X007650Y001468D01*
X007650Y001389D02*
X007530Y001389D01*
X007530Y001311D02*
X007650Y001311D01*
X007650Y001232D02*
X007530Y001232D01*
X007530Y001154D02*
X007650Y001154D01*
X007683Y001075D02*
X007497Y001075D01*
X007419Y000997D02*
X007761Y000997D01*
X007840Y000918D02*
X007340Y000918D01*
X006840Y000918D02*
X006340Y000918D01*
X006272Y000850D02*
X006530Y001108D01*
X006530Y001472D01*
X006272Y001730D01*
X005908Y001730D01*
X005650Y001472D01*
X005650Y001108D01*
X005908Y000850D01*
X006272Y000850D01*
X006419Y000997D02*
X006761Y000997D01*
X006683Y001075D02*
X006497Y001075D01*
X006530Y001154D02*
X006650Y001154D01*
X006650Y001232D02*
X006530Y001232D01*
X006530Y001311D02*
X006650Y001311D01*
X006650Y001389D02*
X006530Y001389D01*
X006530Y001468D02*
X006650Y001468D01*
X006724Y001546D02*
X006456Y001546D01*
X006378Y001625D02*
X006802Y001625D01*
X006881Y001703D02*
X006299Y001703D01*
X006272Y001850D02*
X006530Y002108D01*
X006530Y002472D01*
X006272Y002730D01*
X005908Y002730D01*
X005650Y002472D01*
X005650Y002108D01*
X005908Y001850D01*
X006272Y001850D01*
X006282Y001860D02*
X006898Y001860D01*
X006819Y001939D02*
X006361Y001939D01*
X006439Y002017D02*
X006741Y002017D01*
X006662Y002096D02*
X006518Y002096D01*
X006530Y002174D02*
X006650Y002174D01*
X006650Y002253D02*
X006530Y002253D01*
X006530Y002331D02*
X006650Y002331D01*
X006650Y002410D02*
X006530Y002410D01*
X006514Y002488D02*
X006666Y002488D01*
X006744Y002567D02*
X006436Y002567D01*
X006357Y002645D02*
X006823Y002645D01*
X006901Y002724D02*
X006279Y002724D01*
X005901Y002724D02*
X005279Y002724D01*
X005272Y002730D02*
X004908Y002730D01*
X004650Y002472D01*
X004650Y002108D01*
X004908Y001850D01*
X005272Y001850D01*
X005530Y002108D01*
X005530Y002472D01*
X005272Y002730D01*
X005357Y002645D02*
X005823Y002645D01*
X005744Y002567D02*
X005436Y002567D01*
X005514Y002488D02*
X005666Y002488D01*
X005650Y002410D02*
X005530Y002410D01*
X005530Y002331D02*
X005650Y002331D01*
X005650Y002253D02*
X005530Y002253D01*
X005530Y002174D02*
X005650Y002174D01*
X005662Y002096D02*
X005518Y002096D01*
X005439Y002017D02*
X005741Y002017D01*
X005819Y001939D02*
X005361Y001939D01*
X005282Y001860D02*
X005898Y001860D01*
X005881Y001703D02*
X005299Y001703D01*
X005272Y001730D02*
X004908Y001730D01*
X004650Y001472D01*
X004650Y001108D01*
X004908Y000850D01*
X005272Y000850D01*
X005530Y001108D01*
X005530Y001472D01*
X005272Y001730D01*
X005378Y001625D02*
X005802Y001625D01*
X005724Y001546D02*
X005456Y001546D01*
X005530Y001468D02*
X005650Y001468D01*
X005650Y001389D02*
X005530Y001389D01*
X005530Y001311D02*
X005650Y001311D01*
X005650Y001232D02*
X005530Y001232D01*
X005530Y001154D02*
X005650Y001154D01*
X005683Y001075D02*
X005497Y001075D01*
X005419Y000997D02*
X005761Y000997D01*
X005840Y000918D02*
X005340Y000918D01*
X004840Y000918D02*
X004340Y000918D01*
X004272Y000850D02*
X004530Y001108D01*
X004530Y001472D01*
X004272Y001730D01*
X003908Y001730D01*
X003650Y001472D01*
X003650Y001108D01*
X003908Y000850D01*
X004272Y000850D01*
X004419Y000997D02*
X004761Y000997D01*
X004683Y001075D02*
X004497Y001075D01*
X004530Y001154D02*
X004650Y001154D01*
X004650Y001232D02*
X004530Y001232D01*
X004530Y001311D02*
X004650Y001311D01*
X004650Y001389D02*
X004530Y001389D01*
X004530Y001468D02*
X004650Y001468D01*
X004724Y001546D02*
X004456Y001546D01*
X004378Y001625D02*
X004802Y001625D01*
X004881Y001703D02*
X004299Y001703D01*
X004272Y001850D02*
X003908Y001850D01*
X003650Y002108D01*
X003650Y002472D01*
X003908Y002730D01*
X004272Y002730D01*
X004530Y002472D01*
X004530Y002108D01*
X004272Y001850D01*
X004282Y001860D02*
X004898Y001860D01*
X004819Y001939D02*
X004361Y001939D01*
X004439Y002017D02*
X004741Y002017D01*
X004662Y002096D02*
X004518Y002096D01*
X004530Y002174D02*
X004650Y002174D01*
X004650Y002253D02*
X004530Y002253D01*
X004530Y002331D02*
X004650Y002331D01*
X004650Y002410D02*
X004530Y002410D01*
X004514Y002488D02*
X004666Y002488D01*
X004744Y002567D02*
X004436Y002567D01*
X004357Y002645D02*
X004823Y002645D01*
X004901Y002724D02*
X004279Y002724D01*
X003901Y002724D02*
X003279Y002724D01*
X003272Y002730D02*
X002908Y002730D01*
X002650Y002472D01*
X002650Y002108D01*
X002908Y001850D01*
X003272Y001850D01*
X003530Y002108D01*
X003530Y002472D01*
X003272Y002730D01*
X003357Y002645D02*
X003823Y002645D01*
X003744Y002567D02*
X003436Y002567D01*
X003514Y002488D02*
X003666Y002488D01*
X003650Y002410D02*
X003530Y002410D01*
X003530Y002331D02*
X003650Y002331D01*
X003650Y002253D02*
X003530Y002253D01*
X003530Y002174D02*
X003650Y002174D01*
X003662Y002096D02*
X003518Y002096D01*
X003439Y002017D02*
X003741Y002017D01*
X003819Y001939D02*
X003361Y001939D01*
X003282Y001860D02*
X003898Y001860D01*
X003881Y001703D02*
X003299Y001703D01*
X003272Y001730D02*
X002908Y001730D01*
X002650Y001472D01*
X002650Y001108D01*
X002908Y000850D01*
X003272Y000850D01*
X003530Y001108D01*
X003530Y001472D01*
X003272Y001730D01*
X003378Y001625D02*
X003802Y001625D01*
X003724Y001546D02*
X003456Y001546D01*
X003530Y001468D02*
X003650Y001468D01*
X003650Y001389D02*
X003530Y001389D01*
X003530Y001311D02*
X003650Y001311D01*
X003650Y001232D02*
X003530Y001232D01*
X003530Y001154D02*
X003650Y001154D01*
X003683Y001075D02*
X003497Y001075D01*
X003419Y000997D02*
X003761Y000997D01*
X003840Y000918D02*
X003340Y000918D01*
X002840Y000918D02*
X002340Y000918D01*
X002419Y000997D02*
X002761Y000997D01*
X002683Y001075D02*
X002497Y001075D01*
X002530Y001154D02*
X002650Y001154D01*
X002650Y001232D02*
X002530Y001232D01*
X002530Y001311D02*
X002650Y001311D01*
X002650Y001389D02*
X002530Y001389D01*
X002530Y001468D02*
X002650Y001468D01*
X002724Y001546D02*
X002456Y001546D01*
X002378Y001625D02*
X002802Y001625D01*
X002881Y001703D02*
X002299Y001703D01*
X002282Y001860D02*
X002898Y001860D01*
X002819Y001939D02*
X002361Y001939D01*
X002439Y002017D02*
X002741Y002017D01*
X002662Y002096D02*
X002518Y002096D01*
X002530Y002174D02*
X002650Y002174D01*
X002650Y002253D02*
X002530Y002253D01*
X002530Y002331D02*
X002650Y002331D01*
X002650Y002410D02*
X002530Y002410D01*
X002514Y002488D02*
X002666Y002488D01*
X002744Y002567D02*
X002436Y002567D01*
X002357Y002645D02*
X002823Y002645D01*
X002901Y002724D02*
X002279Y002724D01*
X001901Y002724D02*
X001030Y002724D01*
X001030Y002645D02*
X001823Y002645D01*
X001744Y002567D02*
X001030Y002567D01*
X001030Y002488D02*
X001666Y002488D01*
X001650Y002410D02*
X001030Y002410D01*
X001030Y002331D02*
X001650Y002331D01*
X001650Y002253D02*
X001030Y002253D01*
X001030Y002174D02*
X001650Y002174D01*
X001662Y002096D02*
X001030Y002096D01*
X001030Y002017D02*
X001741Y002017D01*
X001819Y001939D02*
X001030Y001939D01*
X001030Y000761D02*
X022150Y000761D01*
X020840Y000918D02*
X020340Y000918D01*
X020419Y000997D02*
X020761Y000997D01*
X020683Y001075D02*
X020497Y001075D01*
X020530Y001154D02*
X020650Y001154D01*
X020650Y001232D02*
X020530Y001232D01*
X020530Y001311D02*
X020650Y001311D01*
X020650Y001389D02*
X020530Y001389D01*
X020530Y001468D02*
X020650Y001468D01*
X020724Y001546D02*
X020456Y001546D01*
X020378Y001625D02*
X020802Y001625D01*
D14*
X013190Y005590D03*
X012204Y004936D03*
X012290Y007190D03*
X013190Y007190D03*
X012204Y008440D03*
X013190Y009090D03*
X013190Y010690D03*
X012290Y010690D03*
X012204Y011944D03*
X013190Y012590D03*
X013190Y014190D03*
X012290Y014190D03*
X012204Y015447D03*
X013190Y016090D03*
X012290Y017690D03*
X013440Y018790D03*
X012484Y019534D03*
X011290Y019090D03*
X008990Y016190D03*
X008290Y016190D03*
X008990Y015390D03*
X008990Y012690D03*
X008290Y012690D03*
X008990Y011890D03*
X008990Y009190D03*
X008290Y009190D03*
X008990Y008390D03*
X008990Y005690D03*
X008290Y005690D03*
X008990Y004890D03*
X006240Y006940D03*
X005440Y005690D03*
X005440Y009190D03*
X006240Y010440D03*
X005440Y012690D03*
X006240Y013940D03*
X005440Y016190D03*
X006090Y017190D03*
X005440Y018790D03*
X005790Y019540D03*
X003290Y019090D03*
D15*
X005790Y019540D02*
X012440Y019540D01*
X012429Y019551D01*
X012429Y019540D01*
X012484Y019534D01*
X012479Y019540D01*
M02*
