G75*
G70*
%OFA0B0*%
%FSLAX24Y24*%
%IPPOS*%
%LPD*%
%AMOC8*
5,1,8,0,0,1.08239X$1,22.5*
%
%ADD10C,0.1085*%
%ADD11C,0.0770*%
%ADD12OC8,0.0680*%
%ADD13C,0.0437*%
D10*
X002090Y006040D03*
X002090Y008040D03*
X002090Y009540D03*
X004090Y009540D03*
X004090Y008040D03*
X004090Y006040D03*
X004090Y011540D03*
X004090Y013040D03*
X004090Y015040D03*
X004090Y016540D03*
X004090Y018540D03*
X002090Y018540D03*
X002090Y016540D03*
X002090Y015040D03*
X002090Y013040D03*
X002090Y011540D03*
D11*
X003090Y010540D03*
X003090Y007040D03*
X003090Y014040D03*
X003090Y017540D03*
D12*
X002090Y001290D03*
X002090Y002290D03*
X003090Y002290D03*
X003090Y001290D03*
X004090Y001290D03*
X004090Y002290D03*
X005090Y002290D03*
X005090Y001290D03*
X006090Y001290D03*
X006090Y002290D03*
X007090Y002290D03*
X007090Y001290D03*
X008090Y001290D03*
X008090Y002290D03*
X009090Y002290D03*
X009090Y001290D03*
X010090Y001290D03*
X010090Y002290D03*
X011090Y002290D03*
X011090Y001290D03*
X012090Y001290D03*
X012090Y002290D03*
X013090Y002290D03*
X013090Y001290D03*
X014090Y001290D03*
X014090Y002290D03*
X015090Y002290D03*
X015090Y001290D03*
X016090Y001290D03*
X016090Y002290D03*
X017090Y002290D03*
X017090Y001290D03*
X018090Y001290D03*
X018090Y002290D03*
X019090Y002290D03*
X019090Y001290D03*
X020090Y001290D03*
X020090Y002290D03*
X021090Y002290D03*
X021090Y001290D03*
X009140Y007540D03*
X009140Y011040D03*
X009140Y014540D03*
X009140Y018040D03*
X005440Y016140D03*
X005440Y012640D03*
X005440Y009140D03*
X005440Y005640D03*
X002090Y020140D03*
X002090Y022290D03*
X002090Y023290D03*
X003090Y023290D03*
X003090Y022290D03*
X004090Y022290D03*
X004090Y023290D03*
X005090Y023290D03*
X005090Y022290D03*
X006090Y022290D03*
X006090Y023290D03*
X007090Y023290D03*
X007090Y022290D03*
X008090Y022290D03*
X008090Y023290D03*
X009090Y023290D03*
X009090Y022290D03*
X010090Y022290D03*
X010090Y023290D03*
X011090Y023290D03*
X011090Y022290D03*
X012090Y022290D03*
X012090Y023290D03*
X013090Y023290D03*
X013090Y022290D03*
X014090Y022290D03*
X014090Y023290D03*
X015090Y023290D03*
X015090Y022290D03*
X016090Y022290D03*
X016090Y023290D03*
X017090Y023290D03*
X017090Y022290D03*
X018090Y022290D03*
X018090Y023290D03*
X019090Y023290D03*
X019090Y022290D03*
X020090Y022290D03*
X020090Y023290D03*
X021090Y023290D03*
X021090Y022290D03*
D13*
X013440Y019790D03*
X012290Y018690D03*
X011290Y020090D03*
X008990Y017190D03*
X008290Y017190D03*
X008990Y016390D03*
X008990Y013690D03*
X008290Y013690D03*
X008990Y012890D03*
X008990Y010190D03*
X008290Y010190D03*
X008990Y009390D03*
X008990Y006690D03*
X008290Y006690D03*
X008990Y005890D03*
X006240Y007940D03*
X005440Y006690D03*
X005440Y010190D03*
X006240Y011440D03*
X005440Y013690D03*
X006240Y014940D03*
X005440Y017190D03*
X006090Y018190D03*
X005440Y019790D03*
X003290Y020090D03*
X012204Y016447D03*
X013190Y017090D03*
X013190Y015190D03*
X012290Y015190D03*
X013190Y013590D03*
X012204Y012944D03*
X012290Y011690D03*
X013190Y011690D03*
X013190Y010090D03*
X012204Y009440D03*
X012290Y008190D03*
X013190Y008190D03*
X013190Y006590D03*
X012204Y005936D03*
M02*
