G75*
G70*
%OFA0B0*%
%FSLAX24Y24*%
%IPPOS*%
%LPD*%
%AMOC8*
5,1,8,0,0,1.08239X$1,22.5*
%
%ADD10C,0.0060*%
%ADD11C,0.0040*%
%ADD12C,0.0050*%
%ADD13C,0.0030*%
D10*
X001590Y001040D02*
X001590Y002540D01*
X001840Y002790D01*
X002340Y002790D01*
X002590Y002540D01*
X002590Y001040D01*
X002840Y000790D01*
X003340Y000790D01*
X003590Y001040D01*
X003590Y002540D01*
X003840Y002790D01*
X004340Y002790D01*
X004590Y002540D01*
X004590Y001040D01*
X004840Y000790D01*
X005340Y000790D01*
X005590Y001040D01*
X005590Y002540D01*
X005840Y002790D01*
X006340Y002790D01*
X006590Y002540D01*
X006590Y001040D01*
X006840Y000790D01*
X007340Y000790D01*
X007590Y001040D01*
X007590Y002540D01*
X007840Y002790D01*
X008340Y002790D01*
X008590Y002540D01*
X008590Y001040D01*
X008340Y000790D01*
X007840Y000790D01*
X007590Y001040D01*
X008590Y001040D02*
X008840Y000790D01*
X009340Y000790D01*
X009590Y001040D01*
X009590Y002540D01*
X009840Y002790D01*
X010340Y002790D01*
X010590Y002540D01*
X010590Y001040D01*
X010340Y000790D01*
X009840Y000790D01*
X009590Y001040D01*
X010590Y001040D02*
X010840Y000790D01*
X011340Y000790D01*
X011590Y001040D01*
X011590Y002540D01*
X011840Y002790D01*
X012340Y002790D01*
X012590Y002540D01*
X012590Y001040D01*
X012340Y000790D01*
X011840Y000790D01*
X011590Y001040D01*
X012590Y001040D02*
X012840Y000790D01*
X013340Y000790D01*
X013590Y001040D01*
X013590Y002540D01*
X013840Y002790D01*
X014340Y002790D01*
X014590Y002540D01*
X014590Y001040D01*
X014340Y000790D01*
X013840Y000790D01*
X013590Y001040D01*
X014590Y001040D02*
X014840Y000790D01*
X015340Y000790D01*
X015590Y001040D01*
X015590Y002540D01*
X015840Y002790D01*
X016340Y002790D01*
X016590Y002540D01*
X016590Y001040D01*
X016340Y000790D01*
X015840Y000790D01*
X015590Y001040D01*
X016590Y001040D02*
X016840Y000790D01*
X017340Y000790D01*
X017590Y001040D01*
X017590Y002540D01*
X017840Y002790D01*
X018340Y002790D01*
X018590Y002540D01*
X018590Y001040D01*
X018340Y000790D01*
X017840Y000790D01*
X017590Y001040D01*
X018590Y001040D02*
X018840Y000790D01*
X019340Y000790D01*
X019590Y001040D01*
X019590Y002540D01*
X019840Y002790D01*
X020340Y002790D01*
X020590Y002540D01*
X020840Y002790D01*
X021340Y002790D01*
X021590Y002540D01*
X021590Y001040D01*
X021340Y000790D01*
X020840Y000790D01*
X020590Y001040D01*
X020590Y002540D01*
X019590Y002540D02*
X019340Y002790D01*
X018840Y002790D01*
X018590Y002540D01*
X017590Y002540D02*
X017340Y002790D01*
X016840Y002790D01*
X016590Y002540D01*
X015590Y002540D02*
X015340Y002790D01*
X014840Y002790D01*
X014590Y002540D01*
X013590Y002540D02*
X013340Y002790D01*
X012840Y002790D01*
X012590Y002540D01*
X011590Y002540D02*
X011340Y002790D01*
X010840Y002790D01*
X010590Y002540D01*
X009590Y002540D02*
X009340Y002790D01*
X008840Y002790D01*
X008590Y002540D01*
X007590Y002540D02*
X007340Y002790D01*
X006840Y002790D01*
X006590Y002540D01*
X005590Y002540D02*
X005340Y002790D01*
X004840Y002790D01*
X004590Y002540D01*
X003590Y002540D02*
X003340Y002790D01*
X002840Y002790D01*
X002590Y002540D01*
X002590Y001040D02*
X002340Y000790D01*
X001840Y000790D01*
X001590Y001040D01*
X003590Y001040D02*
X003840Y000790D01*
X004340Y000790D01*
X004590Y001040D01*
X005590Y001040D02*
X005840Y000790D01*
X006340Y000790D01*
X006590Y001040D01*
X005690Y004140D02*
X005190Y004140D01*
X004940Y004390D01*
X004940Y004890D01*
X005190Y005140D01*
X005690Y005140D01*
X005940Y004890D01*
X005940Y004390D01*
X005690Y004140D01*
X008640Y006290D02*
X008890Y006040D01*
X009390Y006040D01*
X009640Y006290D01*
X009640Y006790D01*
X009390Y007040D01*
X008890Y007040D01*
X008640Y006790D01*
X008640Y006290D01*
X005940Y007890D02*
X005690Y007640D01*
X005190Y007640D01*
X004940Y007890D01*
X004940Y008390D01*
X005190Y008640D01*
X005690Y008640D01*
X005940Y008390D01*
X005940Y007890D01*
X008640Y009790D02*
X008890Y009540D01*
X009390Y009540D01*
X009640Y009790D01*
X009640Y010290D01*
X009390Y010540D01*
X008890Y010540D01*
X008640Y010290D01*
X008640Y009790D01*
X005940Y011390D02*
X005690Y011140D01*
X005190Y011140D01*
X004940Y011390D01*
X004940Y011890D01*
X005190Y012140D01*
X005690Y012140D01*
X005940Y011890D01*
X005940Y011390D01*
X008640Y013290D02*
X008640Y013790D01*
X008890Y014040D01*
X009390Y014040D01*
X009640Y013790D01*
X009640Y013290D01*
X009390Y013040D01*
X008890Y013040D01*
X008640Y013290D01*
X005940Y014890D02*
X005690Y014640D01*
X005190Y014640D01*
X004940Y014890D01*
X004940Y015390D01*
X005190Y015640D01*
X005690Y015640D01*
X005940Y015390D01*
X005940Y014890D01*
X008640Y016790D02*
X008890Y016540D01*
X009390Y016540D01*
X009640Y016790D01*
X009640Y017290D01*
X009390Y017540D01*
X008890Y017540D01*
X008640Y017290D01*
X008640Y016790D01*
X008840Y019790D02*
X008590Y020040D01*
X008590Y021540D01*
X008840Y021790D01*
X009340Y021790D01*
X009590Y021540D01*
X009590Y020040D01*
X009340Y019790D01*
X008840Y019790D01*
X008590Y020040D02*
X008340Y019790D01*
X007840Y019790D01*
X007590Y020040D01*
X007590Y021540D01*
X007840Y021790D01*
X008340Y021790D01*
X008590Y021540D01*
X007590Y021540D02*
X007340Y021790D01*
X006840Y021790D01*
X006590Y021540D01*
X006590Y020040D01*
X006840Y019790D01*
X007340Y019790D01*
X007590Y020040D01*
X006590Y020040D02*
X006340Y019790D01*
X005840Y019790D01*
X005590Y020040D01*
X005590Y021540D01*
X005840Y021790D01*
X006340Y021790D01*
X006590Y021540D01*
X005590Y021540D02*
X005340Y021790D01*
X004840Y021790D01*
X004590Y021540D01*
X004590Y020040D01*
X004840Y019790D01*
X005340Y019790D01*
X005590Y020040D01*
X004590Y020040D02*
X004340Y019790D01*
X003840Y019790D01*
X003590Y020040D01*
X003590Y021540D01*
X003840Y021790D01*
X004340Y021790D01*
X004590Y021540D01*
X003590Y021540D02*
X003340Y021790D01*
X002840Y021790D01*
X002590Y021540D01*
X002590Y020040D01*
X002840Y019790D01*
X003340Y019790D01*
X003590Y020040D01*
X002590Y020040D02*
X002340Y019790D01*
X001840Y019790D01*
X001590Y020040D01*
X001590Y021540D01*
X001840Y021790D01*
X002340Y021790D01*
X002590Y021540D01*
X002340Y019640D02*
X001840Y019640D01*
X001590Y019390D01*
X001590Y018890D01*
X001840Y018640D01*
X002340Y018640D01*
X002590Y018890D01*
X002590Y019390D01*
X002340Y019640D01*
X009590Y020040D02*
X009840Y019790D01*
X010340Y019790D01*
X010590Y020040D01*
X010590Y021540D01*
X010840Y021790D01*
X011340Y021790D01*
X011590Y021540D01*
X011590Y020040D01*
X011340Y019790D01*
X010840Y019790D01*
X010590Y020040D01*
X011590Y020040D02*
X011840Y019790D01*
X012340Y019790D01*
X012590Y020040D01*
X012590Y021540D01*
X012840Y021790D01*
X013340Y021790D01*
X013590Y021540D01*
X013590Y020040D01*
X013340Y019790D01*
X012840Y019790D01*
X012590Y020040D01*
X013590Y020040D02*
X013840Y019790D01*
X014340Y019790D01*
X014590Y020040D01*
X014590Y021540D01*
X014840Y021790D01*
X015340Y021790D01*
X015590Y021540D01*
X015590Y020040D01*
X015340Y019790D01*
X014840Y019790D01*
X014590Y020040D01*
X015590Y020040D02*
X015840Y019790D01*
X016340Y019790D01*
X016590Y020040D01*
X016590Y021540D01*
X016840Y021790D01*
X017340Y021790D01*
X017590Y021540D01*
X017590Y020040D01*
X017340Y019790D01*
X016840Y019790D01*
X016590Y020040D01*
X017590Y020040D02*
X017840Y019790D01*
X018340Y019790D01*
X018590Y020040D01*
X018590Y021540D01*
X018840Y021790D01*
X019340Y021790D01*
X019590Y021540D01*
X019590Y020040D01*
X019340Y019790D01*
X018840Y019790D01*
X018590Y020040D01*
X019590Y020040D02*
X019840Y019790D01*
X020340Y019790D01*
X020590Y020040D01*
X020840Y019790D01*
X021340Y019790D01*
X021590Y020040D01*
X021590Y021540D01*
X021340Y021790D01*
X020840Y021790D01*
X020590Y021540D01*
X020590Y020040D01*
X020590Y021540D02*
X020340Y021790D01*
X019840Y021790D01*
X019590Y021540D01*
X018590Y021540D02*
X018340Y021790D01*
X017840Y021790D01*
X017590Y021540D01*
X016590Y021540D02*
X016340Y021790D01*
X015840Y021790D01*
X015590Y021540D01*
X014590Y021540D02*
X014340Y021790D01*
X013840Y021790D01*
X013590Y021540D01*
X012590Y021540D02*
X012340Y021790D01*
X011840Y021790D01*
X011590Y021540D01*
X010590Y021540D02*
X010340Y021790D01*
X009840Y021790D01*
X009590Y021540D01*
X018284Y005761D02*
X018531Y005514D01*
X018531Y005020D01*
X018773Y005143D02*
X018897Y005020D01*
X019144Y005020D01*
X019267Y005143D01*
X019267Y005761D01*
X019510Y005761D02*
X019510Y005267D01*
X019757Y005020D01*
X020004Y005267D01*
X020004Y005761D01*
X020247Y005761D02*
X020247Y005143D01*
X020370Y005020D01*
X020617Y005020D01*
X020740Y005143D01*
X020740Y005761D01*
X020983Y005514D02*
X021230Y005761D01*
X021477Y005514D01*
X021477Y005020D01*
X021477Y005390D02*
X020983Y005390D01*
X020983Y005514D02*
X020983Y005020D01*
X018773Y005143D02*
X018773Y005761D01*
X018531Y005390D02*
X018037Y005390D01*
X018037Y005514D02*
X018037Y005020D01*
X018037Y005514D02*
X018284Y005761D01*
X019590Y001040D02*
X019840Y000790D01*
X020340Y000790D01*
X020590Y001040D01*
D11*
X020636Y003260D02*
X020559Y003260D01*
X020559Y003337D01*
X020636Y003337D01*
X020636Y003260D01*
X020789Y003260D02*
X021096Y003260D01*
X020943Y003260D02*
X020943Y003720D01*
X020789Y003567D01*
X020406Y003644D02*
X020099Y003337D01*
X020099Y003260D01*
X019945Y003260D02*
X019868Y003260D01*
X019868Y003337D01*
X019945Y003337D01*
X019945Y003260D01*
X019715Y003337D02*
X019715Y003490D01*
X019638Y003567D01*
X019561Y003567D01*
X019408Y003490D01*
X019408Y003720D01*
X019715Y003720D01*
X019408Y003983D02*
X019408Y004367D01*
X019408Y004520D02*
X019408Y004597D01*
X019638Y004367D02*
X019561Y004290D01*
X019561Y004137D01*
X019638Y004060D01*
X019792Y004060D01*
X019868Y004137D01*
X019868Y004290D01*
X019792Y004367D01*
X019638Y004367D01*
X019408Y003983D02*
X019331Y003907D01*
X019255Y003907D01*
X019101Y004137D02*
X019101Y004290D01*
X019024Y004367D01*
X018871Y004367D01*
X018794Y004290D01*
X018794Y004137D01*
X018871Y004060D01*
X019024Y004060D01*
X019101Y004137D01*
X018641Y004060D02*
X018641Y004290D01*
X018564Y004367D01*
X018487Y004290D01*
X018487Y004060D01*
X018334Y004060D02*
X018334Y004367D01*
X018411Y004367D01*
X018487Y004290D01*
X019024Y003567D02*
X019024Y003260D01*
X019024Y003413D02*
X019178Y003567D01*
X019255Y003567D01*
X019408Y003337D02*
X019485Y003260D01*
X019638Y003260D01*
X019715Y003337D01*
X020099Y003720D02*
X020406Y003720D01*
X020406Y003644D01*
X020559Y004060D02*
X020482Y004137D01*
X020559Y004213D01*
X020789Y004213D01*
X020789Y004290D02*
X020789Y004060D01*
X020559Y004060D01*
X020559Y004367D02*
X020712Y004367D01*
X020789Y004290D01*
X020943Y004290D02*
X021096Y004290D01*
X021250Y004290D02*
X021250Y004137D01*
X021326Y004060D01*
X021480Y004060D01*
X021557Y004213D02*
X021250Y004213D01*
X021250Y004290D02*
X021326Y004367D01*
X021480Y004367D01*
X021557Y004290D01*
X021557Y004213D01*
X021480Y003720D02*
X021250Y003490D01*
X021557Y003490D01*
X021480Y003260D02*
X021480Y003720D01*
X021019Y004060D02*
X021019Y004444D01*
X021096Y004520D01*
D12*
X013449Y004088D02*
X013449Y006292D01*
X012031Y006292D01*
X012031Y004088D01*
X013449Y004088D01*
X012150Y006056D02*
X012152Y006077D01*
X012158Y006097D01*
X012167Y006117D01*
X012179Y006134D01*
X012194Y006148D01*
X012212Y006160D01*
X012232Y006168D01*
X012252Y006173D01*
X012273Y006174D01*
X012294Y006171D01*
X012314Y006165D01*
X012333Y006154D01*
X012350Y006141D01*
X012363Y006125D01*
X012374Y006107D01*
X012382Y006087D01*
X012386Y006067D01*
X012386Y006045D01*
X012382Y006025D01*
X012374Y006005D01*
X012363Y005987D01*
X012350Y005971D01*
X012333Y005958D01*
X012314Y005947D01*
X012294Y005941D01*
X012273Y005938D01*
X012252Y005939D01*
X012232Y005944D01*
X012212Y005952D01*
X012194Y005964D01*
X012179Y005978D01*
X012167Y005995D01*
X012158Y006015D01*
X012152Y006035D01*
X012150Y006056D01*
X012031Y007588D02*
X013449Y007588D01*
X013449Y009792D01*
X012031Y009792D01*
X012031Y007588D01*
X012150Y009556D02*
X012152Y009577D01*
X012158Y009597D01*
X012167Y009617D01*
X012179Y009634D01*
X012194Y009648D01*
X012212Y009660D01*
X012232Y009668D01*
X012252Y009673D01*
X012273Y009674D01*
X012294Y009671D01*
X012314Y009665D01*
X012333Y009654D01*
X012350Y009641D01*
X012363Y009625D01*
X012374Y009607D01*
X012382Y009587D01*
X012386Y009567D01*
X012386Y009545D01*
X012382Y009525D01*
X012374Y009505D01*
X012363Y009487D01*
X012350Y009471D01*
X012333Y009458D01*
X012314Y009447D01*
X012294Y009441D01*
X012273Y009438D01*
X012252Y009439D01*
X012232Y009444D01*
X012212Y009452D01*
X012194Y009464D01*
X012179Y009478D01*
X012167Y009495D01*
X012158Y009515D01*
X012152Y009535D01*
X012150Y009556D01*
X012031Y011088D02*
X013449Y011088D01*
X013449Y013292D01*
X012031Y013292D01*
X012031Y011088D01*
X012150Y013056D02*
X012152Y013077D01*
X012158Y013097D01*
X012167Y013117D01*
X012179Y013134D01*
X012194Y013148D01*
X012212Y013160D01*
X012232Y013168D01*
X012252Y013173D01*
X012273Y013174D01*
X012294Y013171D01*
X012314Y013165D01*
X012333Y013154D01*
X012350Y013141D01*
X012363Y013125D01*
X012374Y013107D01*
X012382Y013087D01*
X012386Y013067D01*
X012386Y013045D01*
X012382Y013025D01*
X012374Y013005D01*
X012363Y012987D01*
X012350Y012971D01*
X012333Y012958D01*
X012314Y012947D01*
X012294Y012941D01*
X012273Y012938D01*
X012252Y012939D01*
X012232Y012944D01*
X012212Y012952D01*
X012194Y012964D01*
X012179Y012978D01*
X012167Y012995D01*
X012158Y013015D01*
X012152Y013035D01*
X012150Y013056D01*
X012031Y014588D02*
X013449Y014588D01*
X013449Y016792D01*
X012031Y016792D01*
X012031Y014588D01*
X012150Y016556D02*
X012152Y016577D01*
X012158Y016597D01*
X012167Y016617D01*
X012179Y016634D01*
X012194Y016648D01*
X012212Y016660D01*
X012232Y016668D01*
X012252Y016673D01*
X012273Y016674D01*
X012294Y016671D01*
X012314Y016665D01*
X012333Y016654D01*
X012350Y016641D01*
X012363Y016625D01*
X012374Y016607D01*
X012382Y016587D01*
X012386Y016567D01*
X012386Y016545D01*
X012382Y016525D01*
X012374Y016505D01*
X012363Y016487D01*
X012350Y016471D01*
X012333Y016458D01*
X012314Y016447D01*
X012294Y016441D01*
X012273Y016438D01*
X012252Y016439D01*
X012232Y016444D01*
X012212Y016452D01*
X012194Y016464D01*
X012179Y016478D01*
X012167Y016495D01*
X012158Y016515D01*
X012152Y016535D01*
X012150Y016556D01*
X012869Y018275D02*
X012869Y018905D01*
X014011Y018905D01*
X014011Y018275D01*
X012869Y018275D01*
X007531Y016781D02*
X007531Y015599D01*
X006349Y015599D01*
X006349Y016781D01*
X007531Y016781D01*
X006074Y016781D02*
X006076Y016799D01*
X006082Y016815D01*
X006091Y016830D01*
X006104Y016843D01*
X006119Y016852D01*
X006135Y016858D01*
X006153Y016860D01*
X006171Y016858D01*
X006187Y016852D01*
X006202Y016843D01*
X006215Y016830D01*
X006224Y016815D01*
X006230Y016799D01*
X006232Y016781D01*
X006230Y016763D01*
X006224Y016747D01*
X006215Y016732D01*
X006202Y016719D01*
X006187Y016710D01*
X006171Y016704D01*
X006153Y016702D01*
X006135Y016704D01*
X006119Y016710D01*
X006104Y016719D01*
X006091Y016732D01*
X006082Y016747D01*
X006076Y016763D01*
X006074Y016781D01*
X006011Y018275D02*
X004869Y018275D01*
X004869Y018905D01*
X006011Y018905D01*
X006011Y018275D01*
X004270Y017040D02*
X004270Y016040D01*
X003590Y015360D02*
X002590Y015360D01*
X001910Y016040D02*
X001910Y017040D01*
X002590Y017720D02*
X003590Y017720D01*
X003590Y014220D02*
X002590Y014220D01*
X001910Y013540D02*
X001910Y012540D01*
X002590Y011860D02*
X003590Y011860D01*
X004270Y012540D02*
X004270Y013540D01*
X006074Y013281D02*
X006076Y013299D01*
X006082Y013315D01*
X006091Y013330D01*
X006104Y013343D01*
X006119Y013352D01*
X006135Y013358D01*
X006153Y013360D01*
X006171Y013358D01*
X006187Y013352D01*
X006202Y013343D01*
X006215Y013330D01*
X006224Y013315D01*
X006230Y013299D01*
X006232Y013281D01*
X006230Y013263D01*
X006224Y013247D01*
X006215Y013232D01*
X006202Y013219D01*
X006187Y013210D01*
X006171Y013204D01*
X006153Y013202D01*
X006135Y013204D01*
X006119Y013210D01*
X006104Y013219D01*
X006091Y013232D01*
X006082Y013247D01*
X006076Y013263D01*
X006074Y013281D01*
X006349Y013281D02*
X006349Y012099D01*
X007531Y012099D01*
X007531Y013281D01*
X006349Y013281D01*
X003590Y010720D02*
X002590Y010720D01*
X001910Y010040D02*
X001910Y009040D01*
X002590Y008360D02*
X003590Y008360D01*
X004270Y009040D02*
X004270Y010040D01*
X006074Y009781D02*
X006076Y009799D01*
X006082Y009815D01*
X006091Y009830D01*
X006104Y009843D01*
X006119Y009852D01*
X006135Y009858D01*
X006153Y009860D01*
X006171Y009858D01*
X006187Y009852D01*
X006202Y009843D01*
X006215Y009830D01*
X006224Y009815D01*
X006230Y009799D01*
X006232Y009781D01*
X006230Y009763D01*
X006224Y009747D01*
X006215Y009732D01*
X006202Y009719D01*
X006187Y009710D01*
X006171Y009704D01*
X006153Y009702D01*
X006135Y009704D01*
X006119Y009710D01*
X006104Y009719D01*
X006091Y009732D01*
X006082Y009747D01*
X006076Y009763D01*
X006074Y009781D01*
X006349Y009781D02*
X006349Y008599D01*
X007531Y008599D01*
X007531Y009781D01*
X006349Y009781D01*
X003590Y007220D02*
X002590Y007220D01*
X001910Y006540D02*
X001910Y005540D01*
X002590Y004860D02*
X003590Y004860D01*
X004270Y005540D02*
X004270Y006540D01*
X006074Y006281D02*
X006076Y006299D01*
X006082Y006315D01*
X006091Y006330D01*
X006104Y006343D01*
X006119Y006352D01*
X006135Y006358D01*
X006153Y006360D01*
X006171Y006358D01*
X006187Y006352D01*
X006202Y006343D01*
X006215Y006330D01*
X006224Y006315D01*
X006230Y006299D01*
X006232Y006281D01*
X006230Y006263D01*
X006224Y006247D01*
X006215Y006232D01*
X006202Y006219D01*
X006187Y006210D01*
X006171Y006204D01*
X006153Y006202D01*
X006135Y006204D01*
X006119Y006210D01*
X006104Y006219D01*
X006091Y006232D01*
X006082Y006247D01*
X006076Y006263D01*
X006074Y006281D01*
X006349Y006281D02*
X006349Y005099D01*
X007531Y005099D01*
X007531Y006281D01*
X006349Y006281D01*
D13*
X001055Y001269D02*
X001055Y001162D01*
X001055Y001215D02*
X001322Y001215D01*
X001375Y001162D01*
X001375Y001108D01*
X001322Y001055D01*
X001375Y001377D02*
X001055Y001377D01*
X001055Y001537D01*
X001108Y001591D01*
X001215Y001591D01*
X001268Y001537D01*
X001268Y001377D01*
X001375Y001700D02*
X001161Y001913D01*
X001108Y001913D01*
X001055Y001860D01*
X001055Y001753D01*
X001108Y001700D01*
X001375Y001700D02*
X001375Y001913D01*
X005132Y003725D02*
X005132Y004045D01*
X005025Y004045D02*
X005239Y004045D01*
X005347Y004045D02*
X005347Y003725D01*
X005347Y003832D02*
X005507Y003832D01*
X005561Y003885D01*
X005561Y003992D01*
X005507Y004045D01*
X005347Y004045D01*
X005670Y004045D02*
X005670Y003885D01*
X005776Y003939D01*
X005830Y003939D01*
X005883Y003885D01*
X005883Y003778D01*
X005830Y003725D01*
X005723Y003725D01*
X005670Y003778D01*
X005670Y004045D02*
X005883Y004045D01*
X006364Y004674D02*
X006471Y004674D01*
X006418Y004674D02*
X006418Y004995D01*
X006471Y004995D02*
X006364Y004995D01*
X006579Y004941D02*
X006579Y004728D01*
X006633Y004674D01*
X006739Y004674D01*
X006793Y004728D01*
X006902Y004834D02*
X007115Y004834D01*
X007062Y004674D02*
X007062Y004995D01*
X006902Y004834D01*
X006793Y004941D02*
X006739Y004995D01*
X006633Y004995D01*
X006579Y004941D01*
X007743Y006711D02*
X007850Y006711D01*
X007904Y006764D01*
X008012Y006711D02*
X008226Y006924D01*
X008226Y006978D01*
X008172Y007031D01*
X008066Y007031D01*
X008012Y006978D01*
X007904Y006978D02*
X007850Y007031D01*
X007743Y007031D01*
X007690Y006978D01*
X007690Y006764D01*
X007743Y006711D01*
X008012Y006711D02*
X008226Y006711D01*
X008335Y006711D02*
X008548Y006711D01*
X008441Y006711D02*
X008441Y007031D01*
X008335Y006924D01*
X008335Y007261D02*
X008548Y007474D01*
X008548Y007528D01*
X008495Y007581D01*
X008388Y007581D01*
X008335Y007528D01*
X008226Y007528D02*
X008172Y007581D01*
X008066Y007581D01*
X008012Y007528D01*
X007904Y007528D02*
X007850Y007581D01*
X007743Y007581D01*
X007690Y007528D01*
X007690Y007314D01*
X007743Y007261D01*
X007850Y007261D01*
X007904Y007314D01*
X008012Y007261D02*
X008226Y007474D01*
X008226Y007528D01*
X008226Y007261D02*
X008012Y007261D01*
X008335Y007261D02*
X008548Y007261D01*
X009525Y007245D02*
X009739Y007245D01*
X009632Y007245D02*
X009632Y006925D01*
X009847Y006925D02*
X009847Y007245D01*
X010007Y007245D01*
X010061Y007192D01*
X010061Y007085D01*
X010007Y007032D01*
X009847Y007032D01*
X010170Y006978D02*
X010223Y006925D01*
X010330Y006925D01*
X010383Y006978D01*
X010383Y007192D01*
X010330Y007245D01*
X010223Y007245D01*
X010170Y007192D01*
X010170Y007139D01*
X010223Y007085D01*
X010383Y007085D01*
X010037Y007705D02*
X010091Y007758D01*
X010091Y007812D01*
X010037Y007865D01*
X009877Y007865D01*
X009877Y007758D01*
X009931Y007705D01*
X010037Y007705D01*
X009877Y007865D02*
X009984Y007972D01*
X010091Y008025D01*
X009769Y007972D02*
X009769Y007865D01*
X009715Y007812D01*
X009555Y007812D01*
X009662Y007812D02*
X009769Y007705D01*
X009555Y007705D02*
X009555Y008025D01*
X009715Y008025D01*
X009769Y007972D01*
X010540Y008078D02*
X010540Y007864D01*
X010593Y007811D01*
X010700Y007811D01*
X010754Y007864D01*
X010862Y007864D02*
X010862Y007918D01*
X010916Y007971D01*
X011022Y007971D01*
X011076Y007918D01*
X011076Y007864D01*
X011022Y007811D01*
X010916Y007811D01*
X010862Y007864D01*
X010916Y007971D02*
X010862Y008024D01*
X010862Y008078D01*
X010916Y008131D01*
X011022Y008131D01*
X011076Y008078D01*
X011076Y008024D01*
X011022Y007971D01*
X010754Y008078D02*
X010700Y008131D01*
X010593Y008131D01*
X010540Y008078D01*
X011193Y007331D02*
X011140Y007278D01*
X011140Y007064D01*
X011193Y007011D01*
X011300Y007011D01*
X011354Y007064D01*
X011462Y007011D02*
X011676Y007011D01*
X011569Y007011D02*
X011569Y007331D01*
X011462Y007224D01*
X011354Y007278D02*
X011300Y007331D01*
X011193Y007331D01*
X011785Y007278D02*
X011785Y007064D01*
X011998Y007278D01*
X011998Y007064D01*
X011945Y007011D01*
X011838Y007011D01*
X011785Y007064D01*
X011785Y007278D02*
X011838Y007331D01*
X011945Y007331D01*
X011998Y007278D01*
X013605Y007305D02*
X013712Y007305D01*
X013658Y007305D02*
X013658Y007625D01*
X013605Y007625D02*
X013712Y007625D01*
X013820Y007572D02*
X013820Y007358D01*
X013873Y007305D01*
X013980Y007305D01*
X014033Y007358D01*
X014142Y007358D02*
X014142Y007305D01*
X014142Y007358D02*
X014356Y007572D01*
X014356Y007625D01*
X014142Y007625D01*
X014033Y007572D02*
X013980Y007625D01*
X013873Y007625D01*
X013820Y007572D01*
X014293Y006831D02*
X014240Y006778D01*
X014240Y006564D01*
X014293Y006511D01*
X014400Y006511D01*
X014454Y006564D01*
X014562Y006511D02*
X014776Y006511D01*
X014669Y006511D02*
X014669Y006831D01*
X014562Y006724D01*
X014454Y006778D02*
X014400Y006831D01*
X014293Y006831D01*
X014885Y006778D02*
X014938Y006831D01*
X015045Y006831D01*
X015098Y006778D01*
X015098Y006724D01*
X014885Y006511D01*
X015098Y006511D01*
X014302Y004125D02*
X014356Y004072D01*
X014356Y004019D01*
X014302Y003965D01*
X014196Y003965D01*
X014142Y004019D01*
X014142Y004072D01*
X014196Y004125D01*
X014302Y004125D01*
X014302Y003965D02*
X014356Y003912D01*
X014356Y003858D01*
X014302Y003805D01*
X014196Y003805D01*
X014142Y003858D01*
X014142Y003912D01*
X014196Y003965D01*
X014033Y003858D02*
X013980Y003805D01*
X013873Y003805D01*
X013820Y003858D01*
X013820Y004072D01*
X013873Y004125D01*
X013980Y004125D01*
X014033Y004072D01*
X013712Y004125D02*
X013605Y004125D01*
X013658Y004125D02*
X013658Y003805D01*
X013605Y003805D02*
X013712Y003805D01*
X011248Y004261D02*
X011035Y004261D01*
X011141Y004261D02*
X011141Y004581D01*
X011035Y004474D01*
X010926Y004261D02*
X010712Y004261D01*
X010819Y004261D02*
X010819Y004581D01*
X010712Y004474D01*
X010604Y004528D02*
X010550Y004581D01*
X010443Y004581D01*
X010390Y004528D01*
X010390Y004314D01*
X010443Y004261D01*
X010550Y004261D01*
X010604Y004314D01*
X010091Y004312D02*
X010091Y004258D01*
X010037Y004205D01*
X009931Y004205D01*
X009877Y004258D01*
X009877Y004312D01*
X009931Y004365D01*
X010037Y004365D01*
X010091Y004312D01*
X010037Y004365D02*
X010091Y004419D01*
X010091Y004472D01*
X010037Y004525D01*
X009931Y004525D01*
X009877Y004472D01*
X009877Y004419D01*
X009931Y004365D01*
X009769Y004365D02*
X009715Y004312D01*
X009555Y004312D01*
X009662Y004312D02*
X009769Y004205D01*
X009769Y004365D02*
X009769Y004472D01*
X009715Y004525D01*
X009555Y004525D01*
X009555Y004205D01*
X009805Y006055D02*
X009805Y006375D01*
X009965Y006375D01*
X010019Y006322D01*
X010019Y006215D01*
X009965Y006162D01*
X009805Y006162D01*
X009912Y006162D02*
X010019Y006055D01*
X010127Y006055D02*
X010127Y006108D01*
X010341Y006322D01*
X010341Y006375D01*
X010127Y006375D01*
X007115Y008228D02*
X007062Y008174D01*
X006955Y008174D01*
X006902Y008228D01*
X006793Y008228D02*
X006739Y008174D01*
X006633Y008174D01*
X006579Y008228D01*
X006579Y008441D01*
X006633Y008495D01*
X006739Y008495D01*
X006793Y008441D01*
X006902Y008441D02*
X006955Y008495D01*
X007062Y008495D01*
X007115Y008441D01*
X007115Y008388D01*
X007062Y008334D01*
X007115Y008281D01*
X007115Y008228D01*
X007062Y008334D02*
X007008Y008334D01*
X006471Y008174D02*
X006364Y008174D01*
X006418Y008174D02*
X006418Y008495D01*
X006471Y008495D02*
X006364Y008495D01*
X005830Y007545D02*
X005670Y007385D01*
X005883Y007385D01*
X005830Y007225D02*
X005830Y007545D01*
X005561Y007492D02*
X005561Y007385D01*
X005507Y007332D01*
X005347Y007332D01*
X005347Y007225D02*
X005347Y007545D01*
X005507Y007545D01*
X005561Y007492D01*
X005239Y007545D02*
X005025Y007545D01*
X005132Y007545D02*
X005132Y007225D01*
X007743Y010211D02*
X007850Y010211D01*
X007904Y010264D01*
X008012Y010211D02*
X008226Y010211D01*
X008119Y010211D02*
X008119Y010531D01*
X008012Y010424D01*
X007904Y010478D02*
X007850Y010531D01*
X007743Y010531D01*
X007690Y010478D01*
X007690Y010264D01*
X007743Y010211D01*
X007743Y010761D02*
X007850Y010761D01*
X007904Y010814D01*
X008012Y010761D02*
X008226Y010974D01*
X008226Y011028D01*
X008172Y011081D01*
X008066Y011081D01*
X008012Y011028D01*
X007904Y011028D02*
X007850Y011081D01*
X007743Y011081D01*
X007690Y011028D01*
X007690Y010814D01*
X007743Y010761D01*
X008012Y010761D02*
X008226Y010761D01*
X008335Y010814D02*
X008548Y011028D01*
X008548Y010814D01*
X008495Y010761D01*
X008388Y010761D01*
X008335Y010814D01*
X008335Y011028D01*
X008388Y011081D01*
X008495Y011081D01*
X008548Y011028D01*
X008495Y010531D02*
X008388Y010531D01*
X008335Y010478D01*
X008335Y010424D01*
X008388Y010371D01*
X008548Y010371D01*
X008548Y010264D02*
X008548Y010478D01*
X008495Y010531D01*
X008548Y010264D02*
X008495Y010211D01*
X008388Y010211D01*
X008335Y010264D01*
X009525Y010745D02*
X009739Y010745D01*
X009632Y010745D02*
X009632Y010425D01*
X009847Y010425D02*
X009847Y010745D01*
X010007Y010745D01*
X010061Y010692D01*
X010061Y010585D01*
X010007Y010532D01*
X009847Y010532D01*
X010170Y010532D02*
X010223Y010585D01*
X010330Y010585D01*
X010383Y010532D01*
X010383Y010478D01*
X010330Y010425D01*
X010223Y010425D01*
X010170Y010478D01*
X010170Y010532D01*
X010223Y010585D02*
X010170Y010639D01*
X010170Y010692D01*
X010223Y010745D01*
X010330Y010745D01*
X010383Y010692D01*
X010383Y010639D01*
X010330Y010585D01*
X010037Y011205D02*
X010037Y011525D01*
X009877Y011365D01*
X010091Y011365D01*
X009769Y011365D02*
X009715Y011312D01*
X009555Y011312D01*
X009662Y011312D02*
X009769Y011205D01*
X009769Y011365D02*
X009769Y011472D01*
X009715Y011525D01*
X009555Y011525D01*
X009555Y011205D01*
X010540Y011364D02*
X010593Y011311D01*
X010700Y011311D01*
X010754Y011364D01*
X010862Y011364D02*
X010916Y011311D01*
X011022Y011311D01*
X011076Y011364D01*
X011076Y011471D01*
X011022Y011524D01*
X010969Y011524D01*
X010862Y011471D01*
X010862Y011631D01*
X011076Y011631D01*
X010754Y011578D02*
X010700Y011631D01*
X010593Y011631D01*
X010540Y011578D01*
X010540Y011364D01*
X011490Y010778D02*
X011490Y010564D01*
X011543Y010511D01*
X011650Y010511D01*
X011704Y010564D01*
X011812Y010564D02*
X011812Y010511D01*
X011812Y010564D02*
X012026Y010778D01*
X012026Y010831D01*
X011812Y010831D01*
X011704Y010778D02*
X011650Y010831D01*
X011543Y010831D01*
X011490Y010778D01*
X010341Y009875D02*
X010127Y009875D01*
X010127Y009715D01*
X010234Y009769D01*
X010287Y009769D01*
X010341Y009715D01*
X010341Y009608D01*
X010287Y009555D01*
X010181Y009555D01*
X010127Y009608D01*
X010019Y009555D02*
X009912Y009662D01*
X009965Y009662D02*
X009805Y009662D01*
X009805Y009555D02*
X009805Y009875D01*
X009965Y009875D01*
X010019Y009822D01*
X010019Y009715D01*
X009965Y009662D01*
X007115Y011674D02*
X006902Y011674D01*
X007115Y011888D01*
X007115Y011941D01*
X007062Y011995D01*
X006955Y011995D01*
X006902Y011941D01*
X006793Y011941D02*
X006739Y011995D01*
X006633Y011995D01*
X006579Y011941D01*
X006579Y011728D01*
X006633Y011674D01*
X006739Y011674D01*
X006793Y011728D01*
X006471Y011674D02*
X006364Y011674D01*
X006418Y011674D02*
X006418Y011995D01*
X006471Y011995D02*
X006364Y011995D01*
X005830Y011045D02*
X005883Y010992D01*
X005883Y010939D01*
X005830Y010885D01*
X005883Y010832D01*
X005883Y010778D01*
X005830Y010725D01*
X005723Y010725D01*
X005670Y010778D01*
X005776Y010885D02*
X005830Y010885D01*
X005830Y011045D02*
X005723Y011045D01*
X005670Y010992D01*
X005561Y010992D02*
X005561Y010885D01*
X005507Y010832D01*
X005347Y010832D01*
X005347Y010725D02*
X005347Y011045D01*
X005507Y011045D01*
X005561Y010992D01*
X005239Y011045D02*
X005025Y011045D01*
X005132Y011045D02*
X005132Y010725D01*
X007743Y013711D02*
X007850Y013711D01*
X007904Y013764D01*
X008012Y013711D02*
X008226Y013711D01*
X008119Y013711D02*
X008119Y014031D01*
X008012Y013924D01*
X007904Y013978D02*
X007850Y014031D01*
X007743Y014031D01*
X007690Y013978D01*
X007690Y013764D01*
X007743Y013711D01*
X007743Y014261D02*
X007850Y014261D01*
X007904Y014314D01*
X008012Y014261D02*
X008226Y014261D01*
X008119Y014261D02*
X008119Y014581D01*
X008012Y014474D01*
X007904Y014528D02*
X007850Y014581D01*
X007743Y014581D01*
X007690Y014528D01*
X007690Y014314D01*
X007743Y014261D01*
X008335Y014314D02*
X008335Y014368D01*
X008388Y014421D01*
X008495Y014421D01*
X008548Y014368D01*
X008548Y014314D01*
X008495Y014261D01*
X008388Y014261D01*
X008335Y014314D01*
X008388Y014421D02*
X008335Y014474D01*
X008335Y014528D01*
X008388Y014581D01*
X008495Y014581D01*
X008548Y014528D01*
X008548Y014474D01*
X008495Y014421D01*
X008548Y014031D02*
X008335Y014031D01*
X008548Y014031D02*
X008548Y013978D01*
X008335Y013764D01*
X008335Y013711D01*
X009525Y014245D02*
X009739Y014245D01*
X009632Y014245D02*
X009632Y013925D01*
X009847Y013925D02*
X009847Y014245D01*
X010007Y014245D01*
X010061Y014192D01*
X010061Y014085D01*
X010007Y014032D01*
X009847Y014032D01*
X010170Y013978D02*
X010170Y013925D01*
X010170Y013978D02*
X010383Y014192D01*
X010383Y014245D01*
X010170Y014245D01*
X010091Y014705D02*
X009877Y014705D01*
X010091Y014919D01*
X010091Y014972D01*
X010037Y015025D01*
X009931Y015025D01*
X009877Y014972D01*
X009769Y014972D02*
X009769Y014865D01*
X009715Y014812D01*
X009555Y014812D01*
X009662Y014812D02*
X009769Y014705D01*
X009555Y014705D02*
X009555Y015025D01*
X009715Y015025D01*
X009769Y014972D01*
X010540Y015078D02*
X010540Y014864D01*
X010593Y014811D01*
X010700Y014811D01*
X010754Y014864D01*
X010862Y014811D02*
X011076Y015024D01*
X011076Y015078D01*
X011022Y015131D01*
X010916Y015131D01*
X010862Y015078D01*
X010754Y015078D02*
X010700Y015131D01*
X010593Y015131D01*
X010540Y015078D01*
X010862Y014811D02*
X011076Y014811D01*
X011543Y014331D02*
X011490Y014278D01*
X011490Y014064D01*
X011543Y014011D01*
X011650Y014011D01*
X011704Y014064D01*
X011812Y014171D02*
X012026Y014171D01*
X011972Y014011D02*
X011972Y014331D01*
X011812Y014171D01*
X011704Y014278D02*
X011650Y014331D01*
X011543Y014331D01*
X010341Y013322D02*
X010341Y013269D01*
X010287Y013215D01*
X010341Y013162D01*
X010341Y013108D01*
X010287Y013055D01*
X010181Y013055D01*
X010127Y013108D01*
X010019Y013055D02*
X009912Y013162D01*
X009965Y013162D02*
X009805Y013162D01*
X009805Y013055D02*
X009805Y013375D01*
X009965Y013375D01*
X010019Y013322D01*
X010019Y013215D01*
X009965Y013162D01*
X010127Y013322D02*
X010181Y013375D01*
X010287Y013375D01*
X010341Y013322D01*
X010287Y013215D02*
X010234Y013215D01*
X007115Y015174D02*
X006902Y015174D01*
X007008Y015174D02*
X007008Y015495D01*
X006902Y015388D01*
X006793Y015441D02*
X006739Y015495D01*
X006633Y015495D01*
X006579Y015441D01*
X006579Y015228D01*
X006633Y015174D01*
X006739Y015174D01*
X006793Y015228D01*
X006471Y015174D02*
X006364Y015174D01*
X006418Y015174D02*
X006418Y015495D01*
X006471Y015495D02*
X006364Y015495D01*
X005830Y014545D02*
X005723Y014545D01*
X005670Y014492D01*
X005561Y014492D02*
X005561Y014385D01*
X005507Y014332D01*
X005347Y014332D01*
X005347Y014225D02*
X005347Y014545D01*
X005507Y014545D01*
X005561Y014492D01*
X005830Y014545D02*
X005883Y014492D01*
X005883Y014439D01*
X005670Y014225D01*
X005883Y014225D01*
X005239Y014545D02*
X005025Y014545D01*
X005132Y014545D02*
X005132Y014225D01*
X007643Y017011D02*
X007750Y017011D01*
X007804Y017064D01*
X007912Y017011D02*
X008126Y017011D01*
X008019Y017011D02*
X008019Y017331D01*
X007912Y017224D01*
X007804Y017278D02*
X007750Y017331D01*
X007643Y017331D01*
X007590Y017278D01*
X007590Y017064D01*
X007643Y017011D01*
X007643Y017561D02*
X007750Y017561D01*
X007804Y017614D01*
X007912Y017561D02*
X008126Y017561D01*
X008019Y017561D02*
X008019Y017881D01*
X007912Y017774D01*
X007804Y017828D02*
X007750Y017881D01*
X007643Y017881D01*
X007590Y017828D01*
X007590Y017614D01*
X007643Y017561D01*
X008235Y017614D02*
X008288Y017561D01*
X008395Y017561D01*
X008448Y017614D01*
X008448Y017668D01*
X008395Y017721D01*
X008235Y017721D01*
X008235Y017614D01*
X008235Y017721D02*
X008341Y017828D01*
X008448Y017881D01*
X008395Y018261D02*
X008288Y018261D01*
X008235Y018314D01*
X008126Y018261D02*
X007912Y018261D01*
X008019Y018261D02*
X008019Y018581D01*
X007912Y018474D01*
X007804Y018528D02*
X007750Y018581D01*
X007643Y018581D01*
X007590Y018528D01*
X007590Y018314D01*
X007643Y018261D01*
X007750Y018261D01*
X007804Y018314D01*
X008235Y018528D02*
X008288Y018581D01*
X008395Y018581D01*
X008448Y018528D01*
X008448Y018474D01*
X008395Y018421D01*
X008448Y018368D01*
X008448Y018314D01*
X008395Y018261D01*
X008395Y018421D02*
X008341Y018421D01*
X008235Y017331D02*
X008235Y017171D01*
X008341Y017224D01*
X008395Y017224D01*
X008448Y017171D01*
X008448Y017064D01*
X008395Y017011D01*
X008288Y017011D01*
X008235Y017064D01*
X008235Y017331D02*
X008448Y017331D01*
X009525Y017745D02*
X009739Y017745D01*
X009632Y017745D02*
X009632Y017425D01*
X009847Y017425D02*
X009847Y017745D01*
X010007Y017745D01*
X010061Y017692D01*
X010061Y017585D01*
X010007Y017532D01*
X009847Y017532D01*
X010170Y017585D02*
X010330Y017585D01*
X010383Y017532D01*
X010383Y017478D01*
X010330Y017425D01*
X010223Y017425D01*
X010170Y017478D01*
X010170Y017585D01*
X010276Y017692D01*
X010383Y017745D01*
X010234Y016875D02*
X010234Y016555D01*
X010127Y016555D02*
X010341Y016555D01*
X010127Y016769D02*
X010234Y016875D01*
X010019Y016822D02*
X010019Y016715D01*
X009965Y016662D01*
X009805Y016662D01*
X009912Y016662D02*
X010019Y016555D01*
X009805Y016555D02*
X009805Y016875D01*
X009965Y016875D01*
X010019Y016822D01*
X011490Y017564D02*
X011543Y017511D01*
X011650Y017511D01*
X011704Y017564D01*
X011812Y017511D02*
X012026Y017511D01*
X011919Y017511D02*
X011919Y017831D01*
X011812Y017724D01*
X011704Y017778D02*
X011650Y017831D01*
X011543Y017831D01*
X011490Y017778D01*
X011490Y017564D01*
X011450Y018461D02*
X011343Y018461D01*
X011290Y018514D01*
X011290Y018728D01*
X011343Y018781D01*
X011450Y018781D01*
X011504Y018728D01*
X011612Y018728D02*
X011666Y018781D01*
X011772Y018781D01*
X011826Y018728D01*
X011826Y018674D01*
X011612Y018461D01*
X011826Y018461D01*
X011935Y018621D02*
X012148Y018621D01*
X012095Y018461D02*
X012095Y018781D01*
X011935Y018621D01*
X011504Y018514D02*
X011450Y018461D01*
X012455Y018349D02*
X012775Y018349D01*
X012775Y018242D02*
X012775Y018456D01*
X012722Y018564D02*
X012508Y018564D01*
X012455Y018618D01*
X012455Y018725D01*
X012508Y018778D01*
X012722Y018564D01*
X012775Y018618D01*
X012775Y018725D01*
X012722Y018778D01*
X012508Y018778D01*
X012455Y018349D02*
X012561Y018242D01*
X012508Y018133D02*
X012455Y018080D01*
X012455Y017973D01*
X012508Y017920D01*
X012722Y017920D01*
X012775Y017973D01*
X012775Y018080D01*
X012722Y018133D01*
X012775Y017812D02*
X012775Y017705D01*
X012775Y017758D02*
X012455Y017758D01*
X012455Y017705D02*
X012455Y017812D01*
X014240Y017278D02*
X014240Y017064D01*
X014293Y017011D01*
X014400Y017011D01*
X014454Y017064D01*
X014562Y017064D02*
X014616Y017011D01*
X014722Y017011D01*
X014776Y017064D01*
X014776Y017118D01*
X014722Y017171D01*
X014669Y017171D01*
X014722Y017171D02*
X014776Y017224D01*
X014776Y017278D01*
X014722Y017331D01*
X014616Y017331D01*
X014562Y017278D01*
X014454Y017278D02*
X014400Y017331D01*
X014293Y017331D01*
X014240Y017278D01*
X014902Y018190D02*
X015116Y018190D01*
X015169Y018243D01*
X015169Y018350D01*
X015116Y018404D01*
X015169Y018512D02*
X014956Y018726D01*
X014902Y018726D01*
X014849Y018672D01*
X014849Y018566D01*
X014902Y018512D01*
X014902Y018404D02*
X014849Y018350D01*
X014849Y018243D01*
X014902Y018190D01*
X015169Y018512D02*
X015169Y018726D01*
X015116Y018835D02*
X015169Y018888D01*
X015169Y018995D01*
X015116Y019048D01*
X015062Y019048D01*
X015009Y018995D01*
X015009Y018941D01*
X015009Y018995D02*
X014956Y019048D01*
X014902Y019048D01*
X014849Y018995D01*
X014849Y018888D01*
X014902Y018835D01*
X014356Y014625D02*
X014142Y014625D01*
X014142Y014465D01*
X014249Y014519D01*
X014302Y014519D01*
X014356Y014465D01*
X014356Y014358D01*
X014302Y014305D01*
X014196Y014305D01*
X014142Y014358D01*
X014033Y014358D02*
X013980Y014305D01*
X013873Y014305D01*
X013820Y014358D01*
X013820Y014572D01*
X013873Y014625D01*
X013980Y014625D01*
X014033Y014572D01*
X013712Y014625D02*
X013605Y014625D01*
X013658Y014625D02*
X013658Y014305D01*
X013605Y014305D02*
X013712Y014305D01*
X014240Y013778D02*
X014240Y013564D01*
X014293Y013511D01*
X014400Y013511D01*
X014454Y013564D01*
X014562Y013564D02*
X014616Y013511D01*
X014722Y013511D01*
X014776Y013564D01*
X014776Y013618D01*
X014722Y013671D01*
X014562Y013671D01*
X014562Y013564D01*
X014562Y013671D02*
X014669Y013778D01*
X014776Y013831D01*
X014454Y013778D02*
X014400Y013831D01*
X014293Y013831D01*
X014240Y013778D01*
X014356Y011125D02*
X014249Y011072D01*
X014142Y010965D01*
X014302Y010965D01*
X014356Y010912D01*
X014356Y010858D01*
X014302Y010805D01*
X014196Y010805D01*
X014142Y010858D01*
X014142Y010965D01*
X014033Y010858D02*
X013980Y010805D01*
X013873Y010805D01*
X013820Y010858D01*
X013820Y011072D01*
X013873Y011125D01*
X013980Y011125D01*
X014033Y011072D01*
X013712Y011125D02*
X013605Y011125D01*
X013658Y011125D02*
X013658Y010805D01*
X013605Y010805D02*
X013712Y010805D01*
X014240Y010278D02*
X014240Y010064D01*
X014293Y010011D01*
X014400Y010011D01*
X014454Y010064D01*
X014562Y010064D02*
X014616Y010011D01*
X014722Y010011D01*
X014776Y010064D01*
X014776Y010278D01*
X014722Y010331D01*
X014616Y010331D01*
X014562Y010278D01*
X014562Y010224D01*
X014616Y010171D01*
X014776Y010171D01*
X014454Y010278D02*
X014400Y010331D01*
X014293Y010331D01*
X014240Y010278D01*
X004775Y018005D02*
X004775Y018112D01*
X004775Y018058D02*
X004455Y018058D01*
X004455Y018005D02*
X004455Y018112D01*
X004508Y018220D02*
X004722Y018220D01*
X004775Y018273D01*
X004775Y018380D01*
X004722Y018433D01*
X004722Y018542D02*
X004775Y018596D01*
X004775Y018702D01*
X004722Y018756D01*
X004508Y018756D01*
X004455Y018702D01*
X004455Y018596D01*
X004508Y018542D01*
X004561Y018542D01*
X004615Y018596D01*
X004615Y018756D01*
X004508Y018433D02*
X004455Y018380D01*
X004455Y018273D01*
X004508Y018220D01*
X003995Y018461D02*
X003995Y018781D01*
X003835Y018621D01*
X004048Y018621D01*
X003726Y018461D02*
X003512Y018461D01*
X003619Y018461D02*
X003619Y018781D01*
X003512Y018674D01*
X003404Y018728D02*
X003350Y018781D01*
X003243Y018781D01*
X003190Y018728D01*
X003190Y018514D01*
X003243Y018461D01*
X003350Y018461D01*
X003404Y018514D01*
X002533Y018225D02*
X002320Y018225D01*
X002426Y018225D02*
X002426Y018545D01*
X002320Y018439D01*
X002211Y018492D02*
X002211Y018385D01*
X002157Y018332D01*
X001997Y018332D01*
X001997Y018225D02*
X001997Y018545D01*
X002157Y018545D01*
X002211Y018492D01*
X001889Y018545D02*
X001675Y018545D01*
X001782Y018545D02*
X001782Y018225D01*
X001725Y016769D02*
X001725Y016555D01*
X001725Y016662D02*
X001405Y016662D01*
X001511Y016555D01*
X001405Y016446D02*
X001405Y016339D01*
X001405Y016393D02*
X001672Y016393D01*
X001725Y016339D01*
X001725Y016286D01*
X001672Y016233D01*
X001725Y013269D02*
X001725Y013055D01*
X001511Y013269D01*
X001458Y013269D01*
X001405Y013215D01*
X001405Y013108D01*
X001458Y013055D01*
X001405Y012946D02*
X001405Y012839D01*
X001405Y012893D02*
X001672Y012893D01*
X001725Y012839D01*
X001725Y012786D01*
X001672Y012733D01*
X001672Y009769D02*
X001725Y009715D01*
X001725Y009608D01*
X001672Y009555D01*
X001565Y009662D02*
X001565Y009715D01*
X001618Y009769D01*
X001672Y009769D01*
X001565Y009715D02*
X001511Y009769D01*
X001458Y009769D01*
X001405Y009715D01*
X001405Y009608D01*
X001458Y009555D01*
X001405Y009446D02*
X001405Y009339D01*
X001405Y009393D02*
X001672Y009393D01*
X001725Y009339D01*
X001725Y009286D01*
X001672Y009233D01*
X001565Y006269D02*
X001565Y006055D01*
X001405Y006215D01*
X001725Y006215D01*
X001672Y005893D02*
X001405Y005893D01*
X001405Y005946D02*
X001405Y005839D01*
X001672Y005893D02*
X001725Y005839D01*
X001725Y005786D01*
X001672Y005733D01*
X001372Y020055D02*
X001425Y020108D01*
X001425Y020162D01*
X001372Y020215D01*
X001105Y020215D01*
X001105Y020162D02*
X001105Y020269D01*
X001105Y020377D02*
X001105Y020537D01*
X001158Y020591D01*
X001265Y020591D01*
X001318Y020537D01*
X001318Y020377D01*
X001425Y020377D02*
X001105Y020377D01*
X001211Y020700D02*
X001105Y020806D01*
X001425Y020806D01*
X001425Y020700D02*
X001425Y020913D01*
M02*
