G75*
G70*
%OFA0B0*%
%FSLAX24Y24*%
%IPPOS*%
%LPD*%
%AMOC8*
5,1,8,0,0,1.08239X$1,22.5*
%
%ADD10R,0.0631X0.0190*%
%ADD11C,0.1085*%
%ADD12C,0.0770*%
%ADD13R,0.0474X0.0513*%
%ADD14OC8,0.0680*%
%ADD15R,0.0493X0.0505*%
%ADD16R,0.0710X0.0218*%
%ADD17R,0.0505X0.0493*%
%ADD18R,0.0297X0.0474*%
%ADD19C,0.0437*%
D10*
X006097Y005296D03*
X006097Y005493D03*
X006097Y005690D03*
X006097Y005887D03*
X006097Y006084D03*
X007783Y006084D03*
X007783Y005887D03*
X007783Y005690D03*
X007783Y005493D03*
X007783Y005296D03*
X007783Y008796D03*
X007783Y008993D03*
X007783Y009190D03*
X007783Y009387D03*
X007783Y009584D03*
X006097Y009584D03*
X006097Y009387D03*
X006097Y009190D03*
X006097Y008993D03*
X006097Y008796D03*
X006097Y012296D03*
X006097Y012493D03*
X006097Y012690D03*
X006097Y012887D03*
X006097Y013084D03*
X007783Y013084D03*
X007783Y012887D03*
X007783Y012690D03*
X007783Y012493D03*
X007783Y012296D03*
X007783Y015796D03*
X007783Y015993D03*
X007783Y016190D03*
X007783Y016387D03*
X007783Y016584D03*
X006097Y016584D03*
X006097Y016387D03*
X006097Y016190D03*
X006097Y015993D03*
X006097Y015796D03*
D11*
X004090Y015540D03*
X004090Y014040D03*
X002090Y014040D03*
X002090Y015540D03*
X002090Y017540D03*
X004090Y017540D03*
X004090Y012040D03*
X004090Y010540D03*
X002090Y010540D03*
X002090Y012040D03*
X002090Y008540D03*
X002090Y007040D03*
X004090Y007040D03*
X004090Y008540D03*
X004090Y005040D03*
X002090Y005040D03*
D12*
X003090Y006040D03*
X003090Y009540D03*
X003090Y013040D03*
X003090Y016540D03*
D13*
X009455Y016190D03*
X010125Y016190D03*
X010125Y015390D03*
X009455Y015390D03*
X009455Y012690D03*
X010125Y012690D03*
X010125Y011890D03*
X009455Y011890D03*
X009455Y009190D03*
X010125Y009190D03*
X010125Y008390D03*
X009455Y008390D03*
X009455Y005690D03*
X010125Y005690D03*
X010125Y004890D03*
X009455Y004890D03*
D14*
X002090Y001290D03*
X003090Y001290D03*
X004090Y001290D03*
X004090Y002290D03*
X003090Y002290D03*
X002090Y002290D03*
X005090Y002290D03*
X006090Y002290D03*
X006090Y001290D03*
X005090Y001290D03*
X007090Y001290D03*
X008090Y001290D03*
X009090Y001290D03*
X009090Y002290D03*
X008090Y002290D03*
X007090Y002290D03*
X005440Y004640D03*
X005440Y008140D03*
X005440Y011640D03*
X005440Y015140D03*
X009140Y013540D03*
X009140Y017040D03*
X009090Y020290D03*
X009090Y021290D03*
X008090Y021290D03*
X008090Y020290D03*
X007090Y020290D03*
X007090Y021290D03*
X006090Y021290D03*
X006090Y020290D03*
X005090Y020290D03*
X005090Y021290D03*
X004090Y021290D03*
X004090Y020290D03*
X003090Y020290D03*
X003090Y021290D03*
X002090Y021290D03*
X002090Y020290D03*
X002090Y019140D03*
X010090Y020290D03*
X010090Y021290D03*
X011090Y021290D03*
X011090Y020290D03*
X012090Y020290D03*
X012090Y021290D03*
X013090Y021290D03*
X013090Y020290D03*
X014090Y020290D03*
X014090Y021290D03*
X015090Y021290D03*
X015090Y020290D03*
X016090Y020290D03*
X016090Y021290D03*
X017090Y021290D03*
X017090Y020290D03*
X018090Y020290D03*
X018090Y021290D03*
X019090Y021290D03*
X019090Y020290D03*
X020090Y020290D03*
X020090Y021290D03*
X021090Y021290D03*
X021090Y020290D03*
X009140Y010040D03*
X009140Y006540D03*
X010090Y002290D03*
X011090Y002290D03*
X012090Y002290D03*
X012090Y001290D03*
X011090Y001290D03*
X010090Y001290D03*
X013090Y001290D03*
X014090Y001290D03*
X014090Y002290D03*
X013090Y002290D03*
X015090Y002290D03*
X016090Y002290D03*
X017090Y002290D03*
X017090Y001290D03*
X016090Y001290D03*
X015090Y001290D03*
X018090Y001290D03*
X019090Y001290D03*
X020090Y001290D03*
X020090Y002290D03*
X019090Y002290D03*
X018090Y002290D03*
X021090Y002290D03*
X021090Y001290D03*
D15*
X013884Y006690D03*
X013196Y006690D03*
X012284Y006690D03*
X011596Y006690D03*
X011596Y010190D03*
X012284Y010190D03*
X013196Y010190D03*
X013884Y010190D03*
X013884Y013690D03*
X013196Y013690D03*
X012284Y013690D03*
X011596Y013690D03*
X011596Y017190D03*
X012284Y017190D03*
X013196Y017190D03*
X013884Y017190D03*
X012484Y019090D03*
X011796Y019090D03*
X007284Y018440D03*
X006596Y018440D03*
X006596Y017740D03*
X006596Y017190D03*
X007284Y017190D03*
X007284Y017740D03*
X004484Y019090D03*
X003796Y019090D03*
X006696Y014440D03*
X006696Y013890D03*
X007384Y013890D03*
X007384Y014440D03*
X007384Y010940D03*
X007384Y010390D03*
X006696Y010390D03*
X006696Y010940D03*
X006696Y007440D03*
X006696Y006890D03*
X007384Y006890D03*
X007384Y007440D03*
D16*
X011638Y007794D03*
X011638Y008050D03*
X011638Y008306D03*
X011638Y008562D03*
X011638Y008818D03*
X011638Y009074D03*
X011638Y009330D03*
X011638Y009586D03*
X011638Y011294D03*
X011638Y011550D03*
X011638Y011806D03*
X011638Y012062D03*
X011638Y012318D03*
X011638Y012574D03*
X011638Y012830D03*
X011638Y013086D03*
X011638Y014794D03*
X011638Y015050D03*
X011638Y015306D03*
X011638Y015562D03*
X011638Y015818D03*
X011638Y016074D03*
X011638Y016330D03*
X011638Y016586D03*
X013842Y016586D03*
X013842Y016330D03*
X013842Y016074D03*
X013842Y015818D03*
X013842Y015562D03*
X013842Y015306D03*
X013842Y015050D03*
X013842Y014794D03*
X013842Y013086D03*
X013842Y012830D03*
X013842Y012574D03*
X013842Y012318D03*
X013842Y012062D03*
X013842Y011806D03*
X013842Y011550D03*
X013842Y011294D03*
X013842Y009586D03*
X013842Y009330D03*
X013842Y009074D03*
X013842Y008818D03*
X013842Y008562D03*
X013842Y008306D03*
X013842Y008050D03*
X013842Y007794D03*
X013842Y006086D03*
X013842Y005830D03*
X013842Y005574D03*
X013842Y005318D03*
X013842Y005062D03*
X013842Y004806D03*
X013842Y004550D03*
X013842Y004294D03*
X011638Y004294D03*
X011638Y004550D03*
X011638Y004806D03*
X011638Y005062D03*
X011638Y005318D03*
X011638Y005574D03*
X011638Y005830D03*
X011638Y006086D03*
D17*
X010790Y005634D03*
X010790Y004946D03*
X010790Y008446D03*
X010790Y009134D03*
X010790Y011946D03*
X010790Y012634D03*
X010790Y015446D03*
X010790Y016134D03*
X014490Y018246D03*
X014490Y018934D03*
D18*
X013814Y019121D03*
X013440Y019121D03*
X013066Y019121D03*
X013066Y018059D03*
X013814Y018059D03*
X005814Y018059D03*
X005066Y018059D03*
X005066Y019121D03*
X005440Y019121D03*
X005814Y019121D03*
D19*
X005790Y019540D03*
X005440Y018790D03*
X006090Y017190D03*
X005440Y016190D03*
X006240Y013940D03*
X005440Y012690D03*
X006240Y010440D03*
X005440Y009190D03*
X006240Y006940D03*
X005440Y005690D03*
X008290Y005690D03*
X008990Y005690D03*
X008990Y004890D03*
X012204Y004936D03*
X013190Y005590D03*
X013190Y007190D03*
X012290Y007190D03*
X012204Y008440D03*
X013190Y009090D03*
X013190Y010690D03*
X012290Y010690D03*
X012204Y011944D03*
X013190Y012590D03*
X013190Y014190D03*
X012290Y014190D03*
X012204Y015447D03*
X013190Y016090D03*
X012290Y017690D03*
X013440Y018790D03*
X012484Y019534D03*
X011290Y019090D03*
X008990Y016190D03*
X008290Y016190D03*
X008990Y015390D03*
X008990Y012690D03*
X008290Y012690D03*
X008990Y011890D03*
X008990Y009190D03*
X008290Y009190D03*
X008990Y008390D03*
X003290Y019090D03*
M02*
