%
M48
M72
T01C0.0197
T02C0.0400
T03C0.0460
T04C0.0670
%
T01
X5440Y5690
X6240Y6940
X8290Y5690
X8990Y5690
X8990Y4890
X12204Y4936
X13190Y5590
X13190Y7190
X12290Y7190
X12204Y8440
X13190Y9090
X13190Y10690
X12290Y10690
X12204Y11944
X13190Y12590
X13190Y14190
X12290Y14190
X12204Y15447
X13190Y16090
X12290Y17690
X13440Y18790
X12484Y19534
X11290Y19090
X8990Y16190
X8290Y16190
X8990Y15390
X8990Y12690
X8290Y12690
X8990Y11890
X8990Y9190
X8290Y9190
X8990Y8390
X6240Y10440
X5440Y9190
X5440Y12690
X6240Y13940
X5440Y16190
X6090Y17190
X5440Y18790
X5790Y19540
X3290Y19090
T02
X2090Y1290
X3090Y1290
X4090Y1290
X4090Y2290
X3090Y2290
X2090Y2290
X5090Y2290
X6090Y2290
X6090Y1290
X5090Y1290
X7090Y1290
X8090Y1290
X9090Y1290
X9090Y2290
X8090Y2290
X7090Y2290
X10090Y2290
X11090Y2290
X12090Y2290
X12090Y1290
X11090Y1290
X10090Y1290
X13090Y1290
X14090Y1290
X14090Y2290
X13090Y2290
X15090Y2290
X16090Y2290
X17090Y2290
X17090Y1290
X16090Y1290
X15090Y1290
X18090Y1290
X19090Y1290
X20090Y1290
X20090Y2290
X19090Y2290
X18090Y2290
X21090Y2290
X21090Y1290
X21090Y20290
X21090Y21290
X20090Y21290
X20090Y20290
X19090Y20290
X19090Y21290
X18090Y21290
X18090Y20290
X17090Y20290
X17090Y21290
X16090Y21290
X16090Y20290
X15090Y20290
X15090Y21290
X14090Y21290
X14090Y20290
X13090Y20290
X13090Y21290
X12090Y21290
X12090Y20290
X11090Y20290
X11090Y21290
X10090Y21290
X10090Y20290
X9090Y20290
X9090Y21290
X8090Y21290
X8090Y20290
X7090Y20290
X7090Y21290
X6090Y21290
X6090Y20290
X5090Y20290
X5090Y21290
X4090Y21290
X4090Y20290
X3090Y20290
X3090Y21290
X2090Y21290
X2090Y20290
T03
X3090Y16540
X3090Y13040
X3090Y9540
X3090Y6040
T04
X2090Y5040
X4090Y5040
X4090Y7040
X4090Y8540
X2090Y8540
X2090Y7040
X2090Y10540
X2090Y12040
X4090Y12040
X4090Y10540
X4090Y14040
X4090Y15540
X2090Y15540
X2090Y14040
X2090Y17540
X4090Y17540
M30
