G75*
%MOIN*%
%OFA0B0*%
%FSLAX24Y24*%
%IPPOS*%
%LPD*%
%AMOC8*
5,1,8,0,0,1.08239X$1,22.5*
%
%ADD10C,0.0050*%
%ADD11C,0.0040*%
%ADD12C,0.0060*%
%ADD13R,0.0200X0.0200*%
%ADD14R,0.0197X0.0512*%
D10*
X002755Y005333D02*
X005725Y002363D01*
X008695Y005333D01*
X005725Y008303D01*
X002755Y005333D01*
X007834Y005262D02*
X007836Y005291D01*
X007842Y005320D01*
X007851Y005348D01*
X007864Y005374D01*
X007880Y005398D01*
X007900Y005420D01*
X007922Y005440D01*
X007946Y005456D01*
X007972Y005469D01*
X008000Y005478D01*
X008029Y005484D01*
X008058Y005486D01*
X008087Y005484D01*
X008116Y005478D01*
X008144Y005469D01*
X008170Y005456D01*
X008194Y005440D01*
X008216Y005420D01*
X008236Y005398D01*
X008252Y005374D01*
X008265Y005348D01*
X008274Y005320D01*
X008280Y005291D01*
X008282Y005262D01*
X008280Y005233D01*
X008274Y005204D01*
X008265Y005176D01*
X008252Y005150D01*
X008236Y005126D01*
X008216Y005104D01*
X008194Y005084D01*
X008170Y005068D01*
X008144Y005055D01*
X008116Y005046D01*
X008087Y005040D01*
X008058Y005038D01*
X008029Y005040D01*
X008000Y005046D01*
X007972Y005055D01*
X007946Y005068D01*
X007922Y005084D01*
X007900Y005104D01*
X007880Y005126D01*
X007864Y005150D01*
X007851Y005176D01*
X007842Y005204D01*
X007836Y005233D01*
X007834Y005262D01*
D11*
X008347Y004666D02*
X008273Y004593D01*
X008310Y004629D02*
X008529Y004410D01*
X008493Y004373D02*
X008566Y004446D01*
X008608Y004562D02*
X008681Y004562D01*
X008754Y004635D01*
X008754Y004708D01*
X008873Y004753D02*
X009019Y004899D01*
X008946Y004826D02*
X008726Y005046D01*
X008726Y004899D01*
X008608Y004854D02*
X008535Y004854D01*
X008462Y004781D01*
X008462Y004708D01*
X008608Y004562D01*
X008972Y003954D02*
X009487Y003439D01*
X009544Y003614D02*
X009471Y003687D01*
X009471Y003760D01*
X009389Y003842D02*
X009316Y003842D01*
X009243Y003915D01*
X009243Y003988D01*
X009389Y004134D01*
X009462Y004134D01*
X009535Y004061D01*
X009535Y003988D01*
X009617Y003906D02*
X009690Y003906D01*
X009763Y003833D01*
X009763Y003760D01*
X009727Y003723D01*
X009653Y003723D01*
X009653Y003650D01*
X009617Y003614D01*
X009544Y003614D01*
X009653Y003723D02*
X009617Y003760D01*
X009153Y003105D02*
X008638Y003620D01*
X008610Y003355D02*
X008463Y003209D01*
X008463Y003135D01*
X008537Y003062D01*
X008610Y003062D01*
X008655Y002944D02*
X008947Y002944D01*
X008984Y002981D01*
X008984Y003054D01*
X008911Y003127D01*
X008838Y003127D01*
X008756Y003209D02*
X008756Y003282D01*
X008683Y003355D01*
X008610Y003355D01*
X008655Y002944D02*
X008801Y002798D01*
X008708Y002660D02*
X008193Y003175D01*
X007859Y002840D02*
X008374Y002325D01*
X008168Y002311D02*
X007949Y002092D01*
X007875Y002165D02*
X008022Y002019D01*
X007929Y001880D02*
X007414Y002395D01*
X007684Y002429D02*
X007684Y002356D01*
X007757Y002283D01*
X007830Y002283D01*
X007684Y002429D02*
X007830Y002576D01*
X007903Y002576D01*
X007977Y002502D01*
X007977Y002429D01*
X008022Y002311D02*
X008168Y002311D01*
X007595Y001546D02*
X007080Y002061D01*
D12*
X002753Y006613D02*
X002399Y006613D01*
X002046Y006966D01*
X002046Y007320D01*
X002399Y007673D01*
X002753Y007673D01*
X002753Y008027D01*
X003107Y008380D01*
X003460Y008380D01*
X003460Y008734D01*
X003814Y009087D01*
X004167Y009087D01*
X004521Y008734D01*
X004521Y008380D01*
X004167Y008027D01*
X003814Y008027D01*
X003814Y007673D01*
X003460Y007320D01*
X003107Y007320D01*
X003107Y006966D01*
X002753Y006613D01*
X003107Y007320D02*
X002753Y007673D01*
X003460Y008380D02*
X003814Y008027D01*
D13*
G36*
X004131Y008557D02*
X003990Y008416D01*
X003849Y008557D01*
X003990Y008698D01*
X004131Y008557D01*
G37*
G36*
X003424Y007850D02*
X003283Y007709D01*
X003142Y007850D01*
X003283Y007991D01*
X003424Y007850D01*
G37*
G36*
X002717Y007143D02*
X002576Y007002D01*
X002435Y007143D01*
X002576Y007284D01*
X002717Y007143D01*
G37*
D14*
G36*
X007184Y001930D02*
X007045Y002069D01*
X007406Y002430D01*
X007545Y002291D01*
X007184Y001930D01*
G37*
G36*
X007602Y001512D02*
X007463Y001651D01*
X007824Y002012D01*
X007963Y001873D01*
X007602Y001512D01*
G37*
G36*
X008381Y002291D02*
X008242Y002430D01*
X008603Y002791D01*
X008742Y002652D01*
X008381Y002291D01*
G37*
G36*
X007964Y002709D02*
X007825Y002848D01*
X008186Y003209D01*
X008325Y003070D01*
X007964Y002709D01*
G37*
G36*
X008743Y003488D02*
X008604Y003627D01*
X008965Y003988D01*
X009104Y003849D01*
X008743Y003488D01*
G37*
G36*
X009160Y003070D02*
X009021Y003209D01*
X009382Y003570D01*
X009521Y003431D01*
X009160Y003070D01*
G37*
M02*
