G75*
%MOIN*%
%OFA0B0*%
%FSLAX24Y24*%
%IPPOS*%
%LPD*%
%AMOC8*
5,1,8,0,0,1.08239X$1,22.5*
%
%ADD10C,0.0050*%
%ADD11C,0.0040*%
%ADD12C,0.0060*%
%ADD13R,0.0059X0.0118*%
%ADD14R,0.0118X0.0118*%
D10*
X003791Y001725D02*
X003866Y001725D01*
X004016Y001575D01*
X004016Y001425D02*
X004016Y001725D01*
X004176Y001650D02*
X004252Y001725D01*
X004402Y001725D01*
X004477Y001650D01*
X004477Y001500D01*
X004402Y001425D01*
X004252Y001425D01*
X004176Y001500D01*
X004176Y001650D01*
X004637Y001725D02*
X004862Y001725D01*
X004937Y001650D01*
X004862Y001575D01*
X004712Y001575D01*
X004637Y001500D01*
X004712Y001425D01*
X004937Y001425D01*
X005097Y001425D02*
X005097Y001650D01*
X005172Y001725D01*
X005397Y001725D01*
X005397Y001425D01*
X005558Y001575D02*
X005858Y001575D01*
X005858Y001500D02*
X005783Y001425D01*
X005633Y001425D01*
X005558Y001575D02*
X005558Y001650D01*
X005633Y001725D01*
X005783Y001725D01*
X005858Y001650D01*
X005858Y001500D01*
X006018Y001500D02*
X006093Y001575D01*
X006243Y001575D01*
X006318Y001650D01*
X006243Y001725D01*
X006018Y001725D01*
X006018Y001500D02*
X006093Y001425D01*
X006318Y001425D01*
X006552Y001125D02*
X006552Y000675D01*
X006702Y000675D02*
X006402Y000675D01*
X006242Y000900D02*
X005941Y000900D01*
X006016Y000675D02*
X006016Y001125D01*
X006242Y000900D01*
X006552Y001125D02*
X006702Y000975D01*
X006857Y000750D02*
X006857Y000675D01*
X006932Y000675D01*
X006932Y000750D01*
X006857Y000750D01*
X007092Y000750D02*
X007092Y001050D01*
X007393Y000750D01*
X007317Y000675D01*
X007167Y000675D01*
X007092Y000750D01*
X007393Y000750D02*
X007393Y001050D01*
X007317Y001125D01*
X007167Y001125D01*
X007092Y001050D01*
X007164Y001425D02*
X007014Y001425D01*
X007164Y001425D02*
X007239Y001500D01*
X007239Y001650D01*
X007164Y001725D01*
X007014Y001725D01*
X006939Y001650D01*
X006939Y001575D01*
X007239Y001575D01*
X007398Y001725D02*
X007473Y001725D01*
X007623Y001575D01*
X007623Y001425D02*
X007623Y001725D01*
X007783Y001725D02*
X007783Y001425D01*
X008008Y001425D01*
X008083Y001500D01*
X008083Y001725D01*
X008243Y001725D02*
X008468Y001725D01*
X008543Y001650D01*
X008468Y001575D01*
X008318Y001575D01*
X008243Y001500D01*
X008318Y001425D01*
X008543Y001425D01*
X008704Y001500D02*
X008779Y001575D01*
X008929Y001575D01*
X009004Y001650D01*
X008929Y001725D01*
X008704Y001725D01*
X008704Y001500D02*
X008779Y001425D01*
X009004Y001425D01*
X009164Y001575D02*
X009164Y001650D01*
X009239Y001725D01*
X009389Y001725D01*
X009464Y001650D01*
X009464Y001500D01*
X009389Y001425D01*
X009239Y001425D01*
X009164Y001575D02*
X009464Y001575D01*
X009623Y001725D02*
X009698Y001725D01*
X009848Y001575D01*
X009848Y001425D02*
X009848Y001725D01*
X010008Y001650D02*
X010008Y001500D01*
X010083Y001425D01*
X010308Y001425D01*
X010308Y001275D02*
X010308Y001725D01*
X010083Y001725D01*
X010008Y001650D01*
X010083Y000975D02*
X010158Y000975D01*
X010308Y000825D01*
X010308Y000675D02*
X010308Y000975D01*
X009925Y000900D02*
X009925Y000750D01*
X009850Y000675D01*
X009699Y000675D01*
X009624Y000825D02*
X009925Y000825D01*
X009925Y000900D02*
X009850Y000975D01*
X009699Y000975D01*
X009624Y000900D01*
X009624Y000825D01*
X009464Y000975D02*
X009314Y000675D01*
X009164Y000975D01*
X008543Y000900D02*
X008543Y000750D01*
X008468Y000675D01*
X008318Y000675D01*
X008243Y000750D01*
X008243Y000825D01*
X008318Y000900D01*
X008543Y000900D01*
X008393Y001050D01*
X008243Y001125D01*
X008083Y000750D02*
X008008Y000750D01*
X008008Y000675D01*
X008083Y000675D01*
X008083Y000750D01*
X007853Y000675D02*
X007553Y000675D01*
X007703Y000675D02*
X007703Y001125D01*
X007853Y000975D01*
X005966Y008468D02*
X005777Y008657D01*
X005673Y008761D02*
X005626Y008902D01*
X005578Y008950D01*
X005484Y008950D01*
X005390Y008855D01*
X005390Y008761D01*
X005484Y008666D01*
X005578Y008666D01*
X005673Y008761D02*
X005814Y008902D01*
X005626Y009091D01*
X005740Y009111D02*
X005740Y009205D01*
X005976Y009441D01*
X006043Y009508D02*
X006326Y009791D01*
X006221Y009895D02*
X006080Y010037D01*
X005985Y010037D01*
X005797Y009848D01*
X005797Y009754D01*
X005938Y009612D01*
X006221Y009895D01*
X006514Y009602D02*
X006043Y009508D01*
X005871Y009545D02*
X005683Y009734D01*
X005777Y009640D02*
X005494Y009357D01*
X005521Y009195D02*
X005333Y009007D01*
X005144Y009007D01*
X005144Y009195D01*
X005333Y009384D01*
X005740Y009111D02*
X005834Y009016D01*
X005928Y009016D01*
X006164Y009252D01*
X006231Y009319D02*
X006514Y009602D01*
X006571Y009451D02*
X006666Y009451D01*
X006760Y009357D01*
X006760Y009262D01*
X006571Y009073D01*
X006477Y009073D01*
X006383Y009168D01*
X006383Y009262D01*
X006477Y009357D01*
X006571Y009262D01*
X006316Y009101D02*
X006410Y009007D01*
X006410Y008912D01*
X006221Y008723D01*
X006127Y008723D01*
X006033Y008818D01*
X006033Y008912D01*
X006221Y009101D01*
X006316Y009101D01*
X005966Y008657D02*
X005777Y008468D01*
D11*
X003139Y004428D02*
X003029Y004318D01*
X003029Y004245D01*
X003102Y004172D01*
X003175Y004172D01*
X003285Y004281D01*
X003212Y004208D02*
X003212Y004062D01*
X003130Y003980D02*
X002984Y003834D01*
X003057Y003907D02*
X002838Y004127D01*
X002984Y004127D01*
X003139Y004428D02*
X003358Y004208D01*
D12*
X007733Y002690D02*
X007733Y002330D01*
X007733Y002600D02*
X008093Y002600D01*
X008093Y002690D02*
X007913Y002870D01*
X007733Y002690D01*
X008093Y002690D02*
X008093Y002330D01*
X008286Y002420D02*
X008286Y002870D01*
X008646Y002870D02*
X008646Y002420D01*
X008556Y002330D01*
X008376Y002330D01*
X008286Y002420D01*
X008838Y002510D02*
X008838Y002870D01*
X008838Y002510D02*
X009018Y002330D01*
X009198Y002510D01*
X009198Y002870D01*
X009391Y002870D02*
X009391Y002420D01*
X009481Y002330D01*
X009661Y002330D01*
X009751Y002420D01*
X009751Y002870D01*
X009943Y002690D02*
X009943Y002330D01*
X009943Y002600D02*
X010303Y002600D01*
X010303Y002690D02*
X010123Y002870D01*
X009943Y002690D01*
X010303Y002690D02*
X010303Y002330D01*
D13*
G36*
X002058Y005058D02*
X002017Y005099D01*
X002100Y005182D01*
X002141Y005141D01*
X002058Y005058D01*
G37*
G36*
X001724Y005393D02*
X001683Y005434D01*
X001766Y005517D01*
X001807Y005476D01*
X001724Y005393D01*
G37*
D14*
G36*
X001912Y005205D02*
X001829Y005288D01*
X001912Y005371D01*
X001995Y005288D01*
X001912Y005205D01*
G37*
M02*
