G75*
%MOIN*%
%OFA0B0*%
%FSLAX24Y24*%
%IPPOS*%
%LPD*%
%AMOC8*
5,1,8,0,0,1.08239X$1,22.5*
%
%ADD10C,0.1575*%
%ADD11R,0.0680X0.1080*%
%ADD12C,0.0680*%
%ADD13R,0.0592X0.0710*%
%ADD14C,0.0476*%
D10*
X002033Y001600D03*
X009533Y009100D03*
D11*
G36*
X007846Y008642D02*
X008327Y008161D01*
X007564Y007398D01*
X007083Y007879D01*
X007846Y008642D01*
G37*
G36*
X007139Y009349D02*
X007620Y008868D01*
X006857Y008105D01*
X006376Y008586D01*
X007139Y009349D01*
G37*
G36*
X008553Y007935D02*
X009034Y007454D01*
X008271Y006691D01*
X007790Y007172D01*
X008553Y007935D01*
G37*
G36*
X009260Y007228D02*
X009741Y006747D01*
X008978Y005984D01*
X008497Y006465D01*
X009260Y007228D01*
G37*
G36*
X003886Y003268D02*
X004367Y002787D01*
X003604Y002024D01*
X003123Y002505D01*
X003886Y003268D01*
G37*
G36*
X003179Y003975D02*
X003660Y003494D01*
X002897Y002731D01*
X002416Y003212D01*
X003179Y003975D01*
G37*
G36*
X002472Y004682D02*
X002953Y004201D01*
X002190Y003438D01*
X001709Y003919D01*
X002472Y004682D01*
G37*
G36*
X004593Y002561D02*
X005074Y002080D01*
X004311Y001317D01*
X003830Y001798D01*
X004593Y002561D01*
G37*
D12*
X002788Y006931D02*
X002364Y007355D01*
X003071Y008062D02*
X003495Y007638D01*
X004203Y008345D02*
X003778Y008769D01*
D13*
G36*
X008743Y003348D02*
X008324Y003767D01*
X008825Y004268D01*
X009244Y003849D01*
X008743Y003348D01*
G37*
G36*
X009300Y002791D02*
X008881Y003210D01*
X009382Y003711D01*
X009801Y003292D01*
X009300Y002791D01*
G37*
G36*
X008521Y002012D02*
X008102Y002431D01*
X008603Y002932D01*
X009022Y002513D01*
X008521Y002012D01*
G37*
G36*
X007741Y001232D02*
X007322Y001651D01*
X007823Y002152D01*
X008242Y001733D01*
X007741Y001232D01*
G37*
G36*
X007185Y001789D02*
X006766Y002208D01*
X007267Y002709D01*
X007686Y002290D01*
X007185Y001789D01*
G37*
G36*
X007964Y002568D02*
X007545Y002987D01*
X008046Y003488D01*
X008465Y003069D01*
X007964Y002568D01*
G37*
D14*
X008983Y002050D03*
X007033Y007350D03*
M02*
