G75*
%MOIN*%
%OFA0B0*%
%FSLAX24Y24*%
%IPPOS*%
%LPD*%
%AMOC8*
5,1,8,0,0,1.08239X$1,22.5*
%
%ADD10C,0.0000*%
%ADD11R,0.0600X0.1000*%
%ADD12C,0.0600*%
%ADD13R,0.0512X0.0630*%
%ADD14C,0.0100*%
%ADD15C,0.0396*%
D10*
X000783Y000350D02*
X000783Y010350D01*
X010783Y010350D01*
X010783Y000350D01*
X000783Y000350D01*
X001285Y001600D02*
X001287Y001655D01*
X001293Y001709D01*
X001303Y001763D01*
X001317Y001815D01*
X001334Y001867D01*
X001356Y001917D01*
X001381Y001966D01*
X001409Y002013D01*
X001441Y002057D01*
X001476Y002099D01*
X001514Y002138D01*
X001555Y002175D01*
X001598Y002208D01*
X001643Y002238D01*
X001691Y002265D01*
X001740Y002288D01*
X001791Y002308D01*
X001844Y002324D01*
X001897Y002336D01*
X001951Y002344D01*
X002006Y002348D01*
X002060Y002348D01*
X002115Y002344D01*
X002169Y002336D01*
X002222Y002324D01*
X002275Y002308D01*
X002326Y002288D01*
X002375Y002265D01*
X002423Y002238D01*
X002468Y002208D01*
X002511Y002175D01*
X002552Y002138D01*
X002590Y002099D01*
X002625Y002057D01*
X002657Y002013D01*
X002685Y001966D01*
X002710Y001917D01*
X002732Y001867D01*
X002749Y001815D01*
X002763Y001763D01*
X002773Y001709D01*
X002779Y001655D01*
X002781Y001600D01*
X002779Y001545D01*
X002773Y001491D01*
X002763Y001437D01*
X002749Y001385D01*
X002732Y001333D01*
X002710Y001283D01*
X002685Y001234D01*
X002657Y001187D01*
X002625Y001143D01*
X002590Y001101D01*
X002552Y001062D01*
X002511Y001025D01*
X002468Y000992D01*
X002423Y000962D01*
X002375Y000935D01*
X002326Y000912D01*
X002275Y000892D01*
X002222Y000876D01*
X002169Y000864D01*
X002115Y000856D01*
X002060Y000852D01*
X002006Y000852D01*
X001951Y000856D01*
X001897Y000864D01*
X001844Y000876D01*
X001791Y000892D01*
X001740Y000912D01*
X001691Y000935D01*
X001643Y000962D01*
X001598Y000992D01*
X001555Y001025D01*
X001514Y001062D01*
X001476Y001101D01*
X001441Y001143D01*
X001409Y001187D01*
X001381Y001234D01*
X001356Y001283D01*
X001334Y001333D01*
X001317Y001385D01*
X001303Y001437D01*
X001293Y001491D01*
X001287Y001545D01*
X001285Y001600D01*
X008785Y009100D02*
X008787Y009155D01*
X008793Y009209D01*
X008803Y009263D01*
X008817Y009315D01*
X008834Y009367D01*
X008856Y009417D01*
X008881Y009466D01*
X008909Y009513D01*
X008941Y009557D01*
X008976Y009599D01*
X009014Y009638D01*
X009055Y009675D01*
X009098Y009708D01*
X009143Y009738D01*
X009191Y009765D01*
X009240Y009788D01*
X009291Y009808D01*
X009344Y009824D01*
X009397Y009836D01*
X009451Y009844D01*
X009506Y009848D01*
X009560Y009848D01*
X009615Y009844D01*
X009669Y009836D01*
X009722Y009824D01*
X009775Y009808D01*
X009826Y009788D01*
X009875Y009765D01*
X009923Y009738D01*
X009968Y009708D01*
X010011Y009675D01*
X010052Y009638D01*
X010090Y009599D01*
X010125Y009557D01*
X010157Y009513D01*
X010185Y009466D01*
X010210Y009417D01*
X010232Y009367D01*
X010249Y009315D01*
X010263Y009263D01*
X010273Y009209D01*
X010279Y009155D01*
X010281Y009100D01*
X010279Y009045D01*
X010273Y008991D01*
X010263Y008937D01*
X010249Y008885D01*
X010232Y008833D01*
X010210Y008783D01*
X010185Y008734D01*
X010157Y008687D01*
X010125Y008643D01*
X010090Y008601D01*
X010052Y008562D01*
X010011Y008525D01*
X009968Y008492D01*
X009923Y008462D01*
X009875Y008435D01*
X009826Y008412D01*
X009775Y008392D01*
X009722Y008376D01*
X009669Y008364D01*
X009615Y008356D01*
X009560Y008352D01*
X009506Y008352D01*
X009451Y008356D01*
X009397Y008364D01*
X009344Y008376D01*
X009291Y008392D01*
X009240Y008412D01*
X009191Y008435D01*
X009143Y008462D01*
X009098Y008492D01*
X009055Y008525D01*
X009014Y008562D01*
X008976Y008601D01*
X008941Y008643D01*
X008909Y008687D01*
X008881Y008734D01*
X008856Y008783D01*
X008834Y008833D01*
X008817Y008885D01*
X008803Y008937D01*
X008793Y008991D01*
X008787Y009045D01*
X008785Y009100D01*
D11*
G36*
X007846Y008585D02*
X008270Y008161D01*
X007564Y007455D01*
X007140Y007879D01*
X007846Y008585D01*
G37*
G36*
X007139Y009292D02*
X007563Y008868D01*
X006857Y008162D01*
X006433Y008586D01*
X007139Y009292D01*
G37*
G36*
X008553Y007878D02*
X008977Y007454D01*
X008271Y006748D01*
X007847Y007172D01*
X008553Y007878D01*
G37*
G36*
X009260Y007171D02*
X009684Y006747D01*
X008978Y006041D01*
X008554Y006465D01*
X009260Y007171D01*
G37*
G36*
X003886Y003211D02*
X004310Y002787D01*
X003604Y002081D01*
X003180Y002505D01*
X003886Y003211D01*
G37*
G36*
X003179Y003918D02*
X003603Y003494D01*
X002897Y002788D01*
X002473Y003212D01*
X003179Y003918D01*
G37*
G36*
X002472Y004625D02*
X002896Y004201D01*
X002190Y003495D01*
X001766Y003919D01*
X002472Y004625D01*
G37*
G36*
X004593Y002504D02*
X005017Y002080D01*
X004311Y001374D01*
X003887Y001798D01*
X004593Y002504D01*
G37*
D12*
X002788Y006931D02*
X002364Y007355D01*
X003071Y008062D02*
X003495Y007638D01*
X004203Y008345D02*
X003778Y008769D01*
D13*
G36*
X008743Y003405D02*
X008381Y003767D01*
X008825Y004211D01*
X009187Y003849D01*
X008743Y003405D01*
G37*
G36*
X009300Y002848D02*
X008938Y003210D01*
X009382Y003654D01*
X009744Y003292D01*
X009300Y002848D01*
G37*
G36*
X008521Y002069D02*
X008159Y002431D01*
X008603Y002875D01*
X008965Y002513D01*
X008521Y002069D01*
G37*
G36*
X007741Y001289D02*
X007379Y001651D01*
X007823Y002095D01*
X008185Y001733D01*
X007741Y001289D01*
G37*
G36*
X007185Y001846D02*
X006823Y002208D01*
X007267Y002652D01*
X007629Y002290D01*
X007185Y001846D01*
G37*
G36*
X007964Y002625D02*
X007602Y002987D01*
X008046Y003431D01*
X008408Y003069D01*
X007964Y002625D01*
G37*
D14*
X008005Y003028D02*
X006133Y004900D01*
X004819Y004900D01*
X002576Y007143D01*
X003283Y007850D02*
X003833Y007300D01*
X005583Y007300D01*
X006998Y008714D01*
X006998Y008727D01*
X007310Y008727D01*
X007483Y008900D01*
X007983Y008900D01*
X010133Y006750D01*
X010133Y005157D01*
X008784Y003808D01*
X009341Y003251D02*
X009291Y003201D01*
X008562Y002472D01*
X008983Y002050D01*
X008983Y002050D01*
X008562Y002472D02*
X007782Y001692D01*
X007226Y002249D02*
X008005Y003028D01*
X006133Y004900D02*
X006083Y004950D01*
X006083Y004950D01*
X008412Y007278D01*
X008412Y007313D01*
X007705Y008020D02*
X007703Y008020D01*
X007033Y007350D01*
D15*
X007033Y007350D03*
X008983Y002050D03*
M02*
