%
M48
M72
T01C0.0197
T02C0.0400
T03C0.0470
%
T01
X6050Y4450
X6050Y5450
X6050Y7350
X6050Y8350
X7650Y15350
X7650Y15850
X9050Y15350
X9250Y15850
X5350Y16850
X2250Y17650
X16850Y13750
T02
X17850Y16450
X17850Y17450
X17350Y20450
X16350Y20450
X15350Y20450
X14350Y20450
X13350Y20450
X12350Y20450
X10750Y20450
X9750Y20450
X8750Y20450
X7750Y20450
X6750Y20450
X5750Y20450
X4750Y20450
X3750Y20450
X2750Y20450
X1750Y20450
X2350Y15150
X2350Y14150
X11550Y14450
X11550Y13450
X11550Y11450
X11550Y10450
X11550Y8450
X11550Y7450
X11550Y5450
X11550Y4450
X11350Y1450
X10350Y1450
X9350Y1450
X8350Y1450
X7350Y1450
X6350Y1450
X5350Y1450
X12350Y1450
X14350Y1450
X15350Y1450
X16350Y1450
X17350Y1450
X18350Y1450
X19350Y1450
X17850Y4450
X17850Y5450
X17850Y6450
X11550Y16450
X11550Y17450
X18350Y20450
X19350Y20450
T03
X2342Y1981
X2342Y3950
X2342Y5919
X2342Y7881
X2342Y9850
X2342Y11819
M30
