G75*
G70*
%OFA0B0*%
%FSLAX24Y24*%
%IPPOS*%
%LPD*%
%AMOC8*
5,1,8,0,0,1.08239X$1,22.5*
%
%ADD10C,0.0680*%
%ADD11C,0.0785*%
%ADD12C,0.0437*%
D10*
X005350Y001150D02*
X005350Y001750D01*
X006350Y001750D02*
X006350Y001150D01*
X007350Y001150D02*
X007350Y001750D01*
X008350Y001750D02*
X008350Y001150D01*
X009350Y001150D02*
X009350Y001750D01*
X010350Y001750D02*
X010350Y001150D01*
X011350Y001150D02*
X011350Y001750D01*
X012350Y001750D02*
X012350Y001150D01*
X014350Y001150D02*
X014350Y001750D01*
X015350Y001750D02*
X015350Y001150D01*
X016350Y001150D02*
X016350Y001750D01*
X017350Y001750D02*
X017350Y001150D01*
X018350Y001150D02*
X018350Y001750D01*
X019350Y001750D02*
X019350Y001150D01*
X018150Y004450D02*
X017550Y004450D01*
X017550Y005450D02*
X018150Y005450D01*
X018150Y006450D02*
X017550Y006450D01*
X011850Y005450D02*
X011250Y005450D01*
X011250Y004450D02*
X011850Y004450D01*
X011850Y007450D02*
X011250Y007450D01*
X011250Y008450D02*
X011850Y008450D01*
X011850Y010450D02*
X011250Y010450D01*
X011250Y011450D02*
X011850Y011450D01*
X011850Y013450D02*
X011250Y013450D01*
X011250Y014450D02*
X011850Y014450D01*
X011850Y016450D02*
X011250Y016450D01*
X011250Y017450D02*
X011850Y017450D01*
X012350Y020150D02*
X012350Y020750D01*
X013350Y020750D02*
X013350Y020150D01*
X014350Y020150D02*
X014350Y020750D01*
X015350Y020750D02*
X015350Y020150D01*
X016350Y020150D02*
X016350Y020750D01*
X017350Y020750D02*
X017350Y020150D01*
X018350Y020150D02*
X018350Y020750D01*
X019350Y020750D02*
X019350Y020150D01*
X018150Y017450D02*
X017550Y017450D01*
X017550Y016450D02*
X018150Y016450D01*
X010750Y020150D02*
X010750Y020750D01*
X009750Y020750D02*
X009750Y020150D01*
X008750Y020150D02*
X008750Y020750D01*
X007750Y020750D02*
X007750Y020150D01*
X006750Y020150D02*
X006750Y020750D01*
X005750Y020750D02*
X005750Y020150D01*
X004750Y020150D02*
X004750Y020750D01*
X003750Y020750D02*
X003750Y020150D01*
X002750Y020150D02*
X002750Y020750D01*
X001750Y020750D02*
X001750Y020150D01*
X002050Y015150D02*
X002650Y015150D01*
X002650Y014150D02*
X002050Y014150D01*
D11*
X001990Y001981D02*
X002695Y001981D01*
X002695Y003950D02*
X001990Y003950D01*
X001990Y005919D02*
X002695Y005919D01*
X002695Y007881D02*
X001990Y007881D01*
X001990Y009850D02*
X002695Y009850D01*
X002695Y011819D02*
X001990Y011819D01*
D12*
X006050Y008350D03*
X006050Y007350D03*
X006050Y005450D03*
X006050Y004450D03*
X007650Y015350D03*
X007650Y015850D03*
X009050Y015350D03*
X009250Y015850D03*
X005350Y016850D03*
X002250Y017650D03*
X016850Y013750D03*
M02*
