G75*
G70*
%OFA0B0*%
%FSLAX24Y24*%
%IPPOS*%
%LPD*%
%AMOC8*
5,1,8,0,0,1.08239X$1,22.5*
%
%ADD10C,0.0000*%
%ADD11C,0.0600*%
%ADD12R,0.0610X0.0236*%
%ADD13C,0.0705*%
%ADD14R,0.0512X0.0591*%
%ADD15R,0.0512X0.0630*%
%ADD16R,0.0800X0.0310*%
%ADD17R,0.0394X0.0433*%
%ADD18R,0.0394X0.0551*%
%ADD19C,0.0360*%
%ADD20C,0.0160*%
%ADD21C,0.0080*%
%ADD22C,0.0357*%
%ADD23C,0.0120*%
%ADD24C,0.0100*%
D10*
X000350Y000450D02*
X000350Y021450D01*
X020350Y021450D01*
X020350Y000450D01*
X000350Y000450D01*
D11*
X005350Y001150D02*
X005350Y001750D01*
X006350Y001750D02*
X006350Y001150D01*
X007350Y001150D02*
X007350Y001750D01*
X008350Y001750D02*
X008350Y001150D01*
X009350Y001150D02*
X009350Y001750D01*
X010350Y001750D02*
X010350Y001150D01*
X011350Y001150D02*
X011350Y001750D01*
X012350Y001750D02*
X012350Y001150D01*
X014350Y001150D02*
X014350Y001750D01*
X015350Y001750D02*
X015350Y001150D01*
X016350Y001150D02*
X016350Y001750D01*
X017350Y001750D02*
X017350Y001150D01*
X018350Y001150D02*
X018350Y001750D01*
X019350Y001750D02*
X019350Y001150D01*
X018150Y004450D02*
X017550Y004450D01*
X017550Y005450D02*
X018150Y005450D01*
X018150Y006450D02*
X017550Y006450D01*
X011850Y005450D02*
X011250Y005450D01*
X011250Y004450D02*
X011850Y004450D01*
X011850Y007450D02*
X011250Y007450D01*
X011250Y008450D02*
X011850Y008450D01*
X011850Y010450D02*
X011250Y010450D01*
X011250Y011450D02*
X011850Y011450D01*
X011850Y013450D02*
X011250Y013450D01*
X011250Y014450D02*
X011850Y014450D01*
X011850Y016450D02*
X011250Y016450D01*
X011250Y017450D02*
X011850Y017450D01*
X012350Y020150D02*
X012350Y020750D01*
X013350Y020750D02*
X013350Y020150D01*
X014350Y020150D02*
X014350Y020750D01*
X015350Y020750D02*
X015350Y020150D01*
X016350Y020150D02*
X016350Y020750D01*
X017350Y020750D02*
X017350Y020150D01*
X018350Y020150D02*
X018350Y020750D01*
X019350Y020750D02*
X019350Y020150D01*
X018150Y017450D02*
X017550Y017450D01*
X017550Y016450D02*
X018150Y016450D01*
X010750Y020150D02*
X010750Y020750D01*
X009750Y020750D02*
X009750Y020150D01*
X008750Y020150D02*
X008750Y020750D01*
X007750Y020750D02*
X007750Y020150D01*
X006750Y020150D02*
X006750Y020750D01*
X005750Y020750D02*
X005750Y020150D01*
X004750Y020150D02*
X004750Y020750D01*
X003750Y020750D02*
X003750Y020150D01*
X002750Y020150D02*
X002750Y020750D01*
X001750Y020750D02*
X001750Y020150D01*
X002050Y015150D02*
X002650Y015150D01*
X002650Y014150D02*
X002050Y014150D01*
D12*
X004987Y008800D03*
X004987Y008300D03*
X004987Y007800D03*
X004987Y007300D03*
X004987Y005900D03*
X004987Y005400D03*
X004987Y004900D03*
X004987Y004400D03*
X007113Y004400D03*
X007113Y004900D03*
X007113Y005400D03*
X007113Y005900D03*
X007113Y007300D03*
X007113Y007800D03*
X007113Y008300D03*
X007113Y008800D03*
D13*
X002695Y007881D02*
X001990Y007881D01*
X001990Y005919D02*
X002695Y005919D01*
X002695Y003950D02*
X001990Y003950D01*
X001990Y001981D02*
X002695Y001981D01*
X002695Y009850D02*
X001990Y009850D01*
X001990Y011819D02*
X002695Y011819D01*
D14*
X017515Y014550D03*
X018185Y014550D03*
D15*
X018244Y013750D03*
X017456Y013750D03*
D16*
X004537Y016800D03*
X004537Y017300D03*
X004537Y017800D03*
X004537Y018300D03*
X002963Y018300D03*
X002963Y017800D03*
X002963Y017300D03*
X002963Y016800D03*
D17*
X001650Y016915D03*
X001650Y017585D03*
X001650Y018115D03*
X001650Y018785D03*
X005615Y018350D03*
X006285Y018350D03*
X006285Y017550D03*
X005615Y017550D03*
D18*
X006276Y015083D03*
X007024Y015083D03*
X006650Y014217D03*
D19*
X004350Y008550D02*
X003681Y007881D01*
X002342Y007881D01*
X002342Y005919D02*
X002719Y005919D01*
X004350Y007550D01*
X004350Y005650D02*
X002650Y003950D01*
X002342Y003950D01*
X003850Y004150D02*
X003850Y003150D01*
X002681Y001981D01*
X002342Y001981D01*
X003850Y004150D02*
X004350Y004650D01*
D20*
X004600Y004400D01*
X004987Y004400D01*
X004987Y004900D02*
X004600Y004900D01*
X004350Y004650D01*
X004600Y005400D02*
X004350Y005650D01*
X004600Y005900D01*
X004987Y005900D01*
X004987Y005400D02*
X004600Y005400D01*
X006050Y005450D02*
X006100Y005400D01*
X007113Y005400D01*
X007113Y004400D02*
X006100Y004400D01*
X006050Y004450D01*
X006100Y007300D02*
X006050Y007350D01*
X006100Y007300D02*
X007113Y007300D01*
X007113Y008300D02*
X006100Y008300D01*
X006050Y008350D01*
X004987Y008300D02*
X004600Y008300D01*
X004350Y008550D01*
X004600Y008800D01*
X004987Y008800D01*
X004987Y007800D02*
X004600Y007800D01*
X004350Y007550D01*
X004600Y007300D01*
X004987Y007300D01*
D21*
X007113Y007800D02*
X007600Y007800D01*
X008250Y008450D01*
X008250Y019650D01*
X007750Y020150D01*
X007750Y020450D01*
X008450Y019850D02*
X008750Y020150D01*
X008750Y020450D01*
X008450Y019850D02*
X008450Y006750D01*
X007600Y005900D01*
X007113Y005900D01*
X007113Y004900D02*
X007600Y004900D01*
X008650Y005950D01*
X008650Y019050D01*
X009750Y020150D01*
X009750Y020450D01*
X010750Y020450D02*
X010750Y020150D01*
X008850Y018250D01*
X008850Y015550D01*
X009050Y015350D01*
X007650Y015350D02*
X007250Y015350D01*
X007024Y015083D01*
X005350Y016850D02*
X005350Y017050D01*
X005100Y017300D01*
X004537Y017300D01*
X004537Y017800D02*
X005365Y017800D01*
X005615Y017550D01*
X005950Y017885D01*
X005950Y018650D01*
X005750Y018850D01*
X003650Y018850D01*
X002750Y019750D01*
X002750Y020450D01*
X002450Y019750D02*
X002150Y019750D01*
X001750Y020150D01*
X001750Y020450D01*
X002450Y019750D02*
X003900Y018300D01*
X004537Y018300D01*
X005565Y018300D01*
X005615Y018350D01*
X006285Y018350D02*
X006285Y017550D01*
X008050Y017850D02*
X005750Y020150D01*
X005750Y020450D01*
X008050Y017850D02*
X008050Y009150D01*
X007700Y008800D01*
X007113Y008800D01*
X011550Y008450D02*
X012750Y008450D01*
X012750Y005850D01*
X012350Y005450D01*
X011550Y005450D01*
X012750Y008450D02*
X012750Y011450D01*
X011550Y011450D01*
X012750Y011450D02*
X012750Y014450D01*
X011550Y014450D01*
X012750Y014450D02*
X012750Y017050D01*
X012350Y017450D01*
X011550Y017450D01*
X016350Y017650D02*
X016350Y020450D01*
X016350Y017650D02*
X017550Y016450D01*
X017850Y016450D01*
X018050Y016450D01*
X018185Y016315D01*
X018185Y014550D01*
X018185Y013809D01*
X018244Y013750D01*
X017456Y013750D02*
X016850Y013750D01*
X017850Y005450D02*
X018750Y005450D01*
X019350Y004850D01*
X019350Y001450D01*
X017850Y004450D02*
X017450Y004450D01*
X002963Y017300D02*
X002400Y017300D01*
X002050Y016950D01*
X001685Y016950D01*
X001650Y016915D01*
X001615Y016950D01*
X001450Y016950D01*
X001250Y017150D01*
X001250Y017950D01*
X001415Y018115D01*
X001650Y018115D01*
X001650Y017585D02*
X001685Y017550D01*
X002150Y017550D01*
X002250Y017650D01*
X002400Y017800D01*
X002963Y017800D01*
X002963Y018300D02*
X002400Y018300D01*
X001950Y018750D01*
X001685Y018750D01*
X001650Y018785D01*
D22*
X002250Y017650D03*
X005350Y016850D03*
X007650Y015850D03*
X007650Y015350D03*
X009050Y015350D03*
X009250Y015850D03*
X006050Y008350D03*
X006050Y007350D03*
X006050Y005450D03*
X006050Y004450D03*
X016850Y013750D03*
D23*
X016450Y013950D02*
X016450Y004450D01*
X016450Y003050D01*
X015950Y002550D01*
X009350Y002550D01*
X016450Y013950D02*
X017050Y014550D01*
X017515Y014550D01*
X006650Y014217D02*
X002417Y014217D01*
X002350Y014150D01*
X002417Y015083D02*
X002350Y015150D01*
X002417Y015083D02*
X006276Y015083D01*
D24*
X006250Y015850D02*
X006285Y015885D01*
X006285Y017550D01*
X006250Y015850D02*
X004450Y015850D01*
X003750Y016550D01*
X003750Y017050D01*
X003500Y017300D01*
X002963Y017300D01*
X006250Y015850D02*
X007650Y015850D01*
X008850Y014450D02*
X009450Y015050D01*
X009450Y015650D01*
X009250Y015850D01*
X008850Y014450D02*
X008850Y003050D01*
X009350Y002550D01*
X009350Y001450D01*
X016450Y004450D02*
X017450Y004450D01*
M02*
