G75*
G70*
%OFA0B0*%
%FSLAX24Y24*%
%IPPOS*%
%LPD*%
%AMOC8*
5,1,8,0,0,1.08239X$1,22.5*
%
%ADD10C,0.0070*%
%ADD11C,0.0050*%
%ADD12C,0.0040*%
%ADD13C,0.0060*%
D10*
X013784Y011072D02*
X013995Y011283D01*
X014415Y011283D01*
X014310Y011507D02*
X014415Y011612D01*
X014415Y011822D01*
X014310Y011927D01*
X013784Y011927D01*
X013784Y012151D02*
X014205Y012151D01*
X014415Y012362D01*
X014205Y012572D01*
X013784Y012572D01*
X013784Y012796D02*
X014310Y012796D01*
X014415Y012901D01*
X014415Y013111D01*
X014310Y013216D01*
X013784Y013216D01*
X013995Y013440D02*
X013784Y013651D01*
X013995Y013861D01*
X014415Y013861D01*
X014100Y013861D02*
X014100Y013440D01*
X013995Y013440D02*
X014415Y013440D01*
X014310Y011507D02*
X013784Y011507D01*
X014100Y011283D02*
X014100Y010862D01*
X013995Y010862D02*
X013784Y011072D01*
X013995Y010862D02*
X014415Y010862D01*
D11*
X014875Y010852D02*
X014875Y010927D01*
X015325Y010927D01*
X015325Y010852D02*
X015325Y011002D01*
X015325Y010692D02*
X015100Y010692D01*
X015025Y010617D01*
X015025Y010467D01*
X015175Y010467D02*
X015175Y010692D01*
X015325Y010692D02*
X015325Y010467D01*
X015250Y010392D01*
X015175Y010467D01*
X015025Y010233D02*
X015025Y010158D01*
X015175Y010008D01*
X015325Y010008D02*
X015025Y010008D01*
X015100Y009848D02*
X015175Y009848D01*
X015175Y009548D01*
X015250Y009548D02*
X015100Y009548D01*
X015025Y009623D01*
X015025Y009773D01*
X015100Y009848D01*
X015325Y009773D02*
X015325Y009623D01*
X015250Y009548D01*
X015325Y009388D02*
X015100Y009388D01*
X015025Y009313D01*
X015025Y009162D01*
X015100Y009087D01*
X015100Y008927D02*
X015250Y008927D01*
X015325Y008852D01*
X015325Y008627D01*
X015475Y008627D02*
X015025Y008627D01*
X015025Y008852D01*
X015100Y008927D01*
X014875Y009087D02*
X015325Y009087D01*
X015325Y008470D02*
X015325Y008320D01*
X015325Y008395D02*
X015025Y008395D01*
X015025Y008320D01*
X015025Y008162D02*
X015025Y008087D01*
X015175Y007936D01*
X015325Y007936D02*
X015025Y007936D01*
X015100Y007776D02*
X015175Y007776D01*
X015175Y007476D01*
X015250Y007476D02*
X015100Y007476D01*
X015025Y007551D01*
X015025Y007701D01*
X015100Y007776D01*
X015325Y007701D02*
X015325Y007551D01*
X015250Y007476D01*
X015250Y007316D02*
X015100Y007316D01*
X015025Y007241D01*
X015025Y007016D01*
X015475Y007016D01*
X015325Y007016D02*
X015325Y007241D01*
X015250Y007316D01*
X014875Y008395D02*
X014800Y008395D01*
X015925Y009548D02*
X016225Y009548D01*
X016075Y009548D02*
X015925Y009698D01*
X015925Y009773D01*
X016000Y009931D02*
X015925Y010007D01*
X015925Y010157D01*
X016000Y010232D01*
X016075Y010232D01*
X016075Y009931D01*
X016150Y009931D02*
X016000Y009931D01*
X016150Y009931D02*
X016225Y010007D01*
X016225Y010157D01*
X015925Y010392D02*
X016225Y010542D01*
X015925Y010692D01*
X016000Y011313D02*
X016000Y011538D01*
X016075Y011613D01*
X016150Y011613D01*
X016225Y011538D01*
X016225Y011388D01*
X016150Y011313D01*
X016000Y011313D01*
X015850Y011463D01*
X015775Y011613D01*
X015850Y012003D02*
X015775Y012078D01*
X015775Y012228D01*
X015850Y012303D01*
X015925Y012303D01*
X016225Y012003D01*
X016225Y012303D01*
X016150Y012464D02*
X016225Y012539D01*
X016225Y012689D01*
X016150Y012764D01*
X016075Y012764D01*
X016000Y012689D01*
X016000Y012614D01*
X016000Y012689D02*
X015925Y012764D01*
X015850Y012764D01*
X015775Y012689D01*
X015775Y012539D01*
X015850Y012464D01*
X016150Y012924D02*
X016150Y012999D01*
X016225Y012999D01*
X016225Y012924D01*
X016150Y012924D01*
X016225Y013154D02*
X016225Y013454D01*
X016225Y013304D02*
X015775Y013304D01*
X015925Y013154D01*
X016000Y013615D02*
X016000Y013915D01*
X016225Y013840D02*
X015775Y013840D01*
X016000Y013615D01*
X015325Y013690D02*
X015250Y013615D01*
X015100Y013615D01*
X015025Y013690D01*
X015025Y013915D01*
X014875Y013915D02*
X015325Y013915D01*
X015325Y013690D01*
X015325Y013458D02*
X015325Y013308D01*
X015325Y013383D02*
X014875Y013383D01*
X014875Y013308D01*
X015100Y013148D02*
X015175Y013148D01*
X015175Y012847D01*
X015250Y012847D02*
X015100Y012847D01*
X015025Y012922D01*
X015025Y013072D01*
X015100Y013148D01*
X015325Y013072D02*
X015325Y012922D01*
X015250Y012847D01*
X015325Y012690D02*
X015325Y012540D01*
X015325Y012615D02*
X015025Y012615D01*
X015025Y012540D01*
X014875Y012615D02*
X014800Y012615D01*
X015100Y012380D02*
X015325Y012380D01*
X015100Y012380D02*
X015025Y012305D01*
X015025Y012155D01*
X015100Y012080D01*
X015025Y011920D02*
X015025Y011695D01*
X015100Y011620D01*
X015175Y011695D01*
X015175Y011845D01*
X015250Y011920D01*
X015325Y011845D01*
X015325Y011620D01*
X015325Y012080D02*
X014875Y012080D01*
X016150Y011848D02*
X016225Y011848D01*
X016225Y011773D01*
X016150Y011773D01*
X016150Y011848D01*
X007241Y014394D02*
X007241Y014748D01*
X007241Y014394D02*
X006906Y014394D01*
X006768Y014906D02*
X006532Y014906D01*
X006059Y014748D02*
X006059Y014394D01*
X006394Y014394D01*
X004735Y016369D02*
X004737Y016388D01*
X004742Y016407D01*
X004752Y016423D01*
X004764Y016438D01*
X004779Y016450D01*
X004795Y016460D01*
X004814Y016465D01*
X004833Y016467D01*
X004852Y016465D01*
X004871Y016460D01*
X004887Y016450D01*
X004902Y016438D01*
X004914Y016423D01*
X004924Y016407D01*
X004929Y016388D01*
X004931Y016369D01*
X004929Y016350D01*
X004924Y016331D01*
X004914Y016315D01*
X004902Y016300D01*
X004887Y016288D01*
X004871Y016278D01*
X004852Y016273D01*
X004833Y016271D01*
X004814Y016273D01*
X004795Y016278D01*
X004779Y016288D01*
X004764Y016300D01*
X004752Y016315D01*
X004742Y016331D01*
X004737Y016350D01*
X004735Y016369D01*
X004537Y016369D02*
X002963Y016369D01*
X002963Y016566D01*
X004537Y016566D02*
X004537Y016369D01*
X004537Y018534D02*
X004537Y018731D01*
X002963Y018731D01*
X002963Y018534D01*
X005282Y009015D02*
X006818Y009015D01*
X006818Y007085D01*
X005282Y007085D01*
X005282Y009015D01*
X006938Y006900D02*
X006940Y006921D01*
X006946Y006940D01*
X006955Y006959D01*
X006967Y006975D01*
X006983Y006989D01*
X007000Y007000D01*
X007019Y007008D01*
X007040Y007012D01*
X007060Y007012D01*
X007081Y007008D01*
X007100Y007000D01*
X007117Y006989D01*
X007133Y006975D01*
X007145Y006959D01*
X007154Y006940D01*
X007160Y006921D01*
X007162Y006900D01*
X007160Y006879D01*
X007154Y006860D01*
X007145Y006841D01*
X007133Y006825D01*
X007117Y006811D01*
X007100Y006800D01*
X007081Y006792D01*
X007060Y006788D01*
X007040Y006788D01*
X007019Y006792D01*
X007000Y006800D01*
X006983Y006811D01*
X006967Y006825D01*
X006955Y006841D01*
X006946Y006860D01*
X006940Y006879D01*
X006938Y006900D01*
X006818Y006115D02*
X006818Y004185D01*
X005282Y004185D01*
X005282Y006115D01*
X006818Y006115D01*
X006938Y004000D02*
X006940Y004021D01*
X006946Y004040D01*
X006955Y004059D01*
X006967Y004075D01*
X006983Y004089D01*
X007000Y004100D01*
X007019Y004108D01*
X007040Y004112D01*
X007060Y004112D01*
X007081Y004108D01*
X007100Y004100D01*
X007117Y004089D01*
X007133Y004075D01*
X007145Y004059D01*
X007154Y004040D01*
X007160Y004021D01*
X007162Y004000D01*
X007160Y003979D01*
X007154Y003960D01*
X007145Y003941D01*
X007133Y003925D01*
X007117Y003911D01*
X007100Y003900D01*
X007081Y003892D01*
X007060Y003888D01*
X007040Y003888D01*
X007019Y003892D01*
X007000Y003900D01*
X006983Y003911D01*
X006967Y003925D01*
X006955Y003941D01*
X006946Y003960D01*
X006940Y003979D01*
X006938Y004000D01*
D12*
X006705Y003977D02*
X006705Y004029D01*
X006653Y004080D01*
X006549Y004080D01*
X006498Y004029D01*
X006382Y004029D02*
X006382Y003822D01*
X006331Y003770D01*
X006227Y003770D01*
X006175Y003822D01*
X006175Y004029D01*
X006227Y004080D01*
X006331Y004080D01*
X006382Y004029D01*
X006279Y003873D02*
X006382Y003770D01*
X006498Y003770D02*
X006705Y003977D01*
X006705Y003770D02*
X006498Y003770D01*
X006498Y006670D02*
X006705Y006670D01*
X006601Y006670D02*
X006601Y006980D01*
X006498Y006877D01*
X006382Y006929D02*
X006382Y006722D01*
X006331Y006670D01*
X006227Y006670D01*
X006175Y006722D01*
X006175Y006929D01*
X006227Y006980D01*
X006331Y006980D01*
X006382Y006929D01*
X006279Y006773D02*
X006382Y006670D01*
X006032Y009470D02*
X005912Y009470D01*
X005852Y009530D01*
X005852Y009650D01*
X005912Y009710D01*
X006032Y009710D01*
X006092Y009650D01*
X006092Y009590D01*
X005852Y009590D01*
X005724Y009470D02*
X005724Y009710D01*
X005724Y009470D02*
X005544Y009470D01*
X005484Y009530D01*
X005484Y009710D01*
X005298Y009830D02*
X005298Y009470D01*
X005238Y009470D02*
X005358Y009470D01*
X005110Y009530D02*
X005050Y009470D01*
X004870Y009470D01*
X004870Y009830D01*
X005050Y009830D01*
X005110Y009770D01*
X005110Y009710D01*
X005050Y009650D01*
X004870Y009650D01*
X005050Y009650D02*
X005110Y009590D01*
X005110Y009530D01*
X005238Y009830D02*
X005298Y009830D01*
X005238Y010070D02*
X005238Y010310D01*
X005238Y010190D02*
X005358Y010310D01*
X005418Y010310D01*
X005545Y010250D02*
X005605Y010310D01*
X005725Y010310D01*
X005785Y010250D01*
X005785Y010190D01*
X005545Y010190D01*
X005545Y010130D02*
X005545Y010250D01*
X005545Y010130D02*
X005605Y010070D01*
X005725Y010070D01*
X005914Y010130D02*
X005914Y010250D01*
X005974Y010310D01*
X006094Y010310D01*
X006154Y010250D01*
X006154Y010190D01*
X005914Y010190D01*
X005914Y010130D02*
X005974Y010070D01*
X006094Y010070D01*
X006282Y010070D02*
X006282Y010310D01*
X006462Y010310D01*
X006522Y010250D01*
X006522Y010070D01*
X005847Y010670D02*
X005667Y010670D01*
X005607Y010730D01*
X005607Y010850D01*
X005667Y010910D01*
X005847Y010910D01*
X005847Y011030D02*
X005847Y010670D01*
X005479Y010790D02*
X005238Y010790D01*
X005238Y010730D02*
X005238Y010850D01*
X005298Y010910D01*
X005418Y010910D01*
X005479Y010850D01*
X005479Y010790D01*
X005418Y010670D02*
X005298Y010670D01*
X005238Y010730D01*
X005110Y010670D02*
X004990Y010790D01*
X005050Y010790D02*
X004870Y010790D01*
X004870Y010670D02*
X004870Y011030D01*
X005050Y011030D01*
X005110Y010970D01*
X005110Y010850D01*
X005050Y010790D01*
X005050Y010430D02*
X004930Y010430D01*
X004870Y010370D01*
X004870Y010130D01*
X004930Y010070D01*
X005050Y010070D01*
X005110Y010130D01*
X005110Y010250D01*
X004990Y010250D01*
X005110Y010370D02*
X005050Y010430D01*
X005110Y011270D02*
X005110Y011630D01*
X005238Y011630D02*
X005238Y011270D01*
X005110Y011270D02*
X004990Y011390D01*
X004870Y011270D01*
X004870Y011630D01*
X004870Y011870D02*
X005110Y011870D01*
X005238Y011870D02*
X005479Y011870D01*
X005607Y011870D02*
X005787Y011870D01*
X005847Y011930D01*
X005847Y012170D01*
X005787Y012230D01*
X005607Y012230D01*
X005607Y011870D01*
X005667Y011690D02*
X005667Y011630D01*
X005667Y011510D02*
X005607Y011510D01*
X005667Y011510D02*
X005667Y011270D01*
X005607Y011270D02*
X005727Y011270D01*
X005912Y011330D02*
X005972Y011270D01*
X005912Y011330D02*
X005912Y011570D01*
X005852Y011510D02*
X005972Y011510D01*
X006098Y011450D02*
X006098Y011330D01*
X006158Y011270D01*
X006278Y011270D01*
X006338Y011390D02*
X006098Y011390D01*
X006098Y011450D02*
X006158Y011510D01*
X006278Y011510D01*
X006338Y011450D01*
X006338Y011390D01*
X006403Y011870D02*
X006523Y011870D01*
X006583Y011930D01*
X006583Y012050D01*
X006463Y012050D01*
X006343Y011930D02*
X006403Y011870D01*
X006343Y011930D02*
X006343Y012170D01*
X006403Y012230D01*
X006523Y012230D01*
X006583Y012170D01*
X006712Y012110D02*
X006712Y011870D01*
X006952Y011870D02*
X006952Y012050D01*
X006892Y012110D01*
X006712Y012110D01*
X007080Y012050D02*
X007080Y011930D01*
X007140Y011870D01*
X007320Y011870D01*
X007320Y012230D01*
X007320Y012110D02*
X007140Y012110D01*
X007080Y012050D01*
X006095Y012470D02*
X006215Y012710D01*
X005975Y012710D02*
X006095Y012470D01*
X005847Y012650D02*
X005607Y012650D01*
X005787Y012830D01*
X005787Y012470D01*
X005479Y012470D02*
X005238Y012470D01*
X005479Y012710D01*
X005479Y012770D01*
X005418Y012830D01*
X005298Y012830D01*
X005238Y012770D01*
X005110Y012650D02*
X004870Y012650D01*
X004990Y012770D02*
X004990Y012530D01*
X004870Y012230D02*
X004870Y011870D01*
X005238Y011870D02*
X005238Y012230D01*
X005479Y012230D01*
X005358Y012050D02*
X005238Y012050D01*
X005298Y011510D02*
X005418Y011510D01*
X005479Y011450D01*
X005479Y011270D01*
X005238Y011450D02*
X005298Y011510D01*
X005713Y013950D02*
X005773Y013950D01*
X005833Y014010D01*
X005833Y014310D01*
X005653Y014310D01*
X005593Y014250D01*
X005593Y014130D01*
X005653Y014070D01*
X005833Y014070D01*
X005467Y014070D02*
X005347Y014070D01*
X005407Y014070D02*
X005407Y014310D01*
X005347Y014310D01*
X005407Y014430D02*
X005407Y014490D01*
X005219Y014370D02*
X005159Y014430D01*
X005039Y014430D01*
X004979Y014370D01*
X004979Y014310D01*
X005039Y014250D01*
X005159Y014250D01*
X005219Y014190D01*
X005219Y014130D01*
X005159Y014070D01*
X005039Y014070D01*
X004979Y014130D01*
X004410Y014048D02*
X004410Y013928D01*
X004350Y013868D01*
X004230Y013868D01*
X004170Y013928D01*
X004170Y014048D01*
X004230Y014108D01*
X004350Y014108D01*
X004410Y014048D01*
X004410Y014235D02*
X004410Y014295D01*
X004290Y014415D01*
X004170Y014415D02*
X004410Y014415D01*
X004470Y014543D02*
X004350Y014543D01*
X004290Y014603D01*
X004290Y014783D01*
X004170Y014783D02*
X004530Y014783D01*
X004530Y014603D01*
X004470Y014543D01*
X004350Y014912D02*
X004410Y014972D01*
X004410Y015092D01*
X004350Y015152D01*
X004230Y015152D01*
X004170Y015092D01*
X004170Y014972D01*
X004230Y014912D01*
X004350Y014912D01*
X004350Y015280D02*
X004350Y015400D01*
X004350Y015280D02*
X004230Y015280D01*
X004170Y015340D01*
X004170Y015460D01*
X004230Y015520D01*
X004470Y015520D01*
X004530Y015460D01*
X004530Y015340D01*
X004470Y015280D01*
X004918Y015270D02*
X004918Y015030D01*
X004978Y014970D01*
X005098Y014970D01*
X005158Y015030D01*
X005158Y015150D01*
X005038Y015150D01*
X005158Y015270D02*
X005098Y015330D01*
X004978Y015330D01*
X004918Y015270D01*
X005286Y015210D02*
X005286Y014970D01*
X005526Y014970D02*
X005526Y015150D01*
X005466Y015210D01*
X005286Y015210D01*
X005654Y015150D02*
X005654Y015030D01*
X005714Y014970D01*
X005894Y014970D01*
X005894Y015330D01*
X005894Y015210D02*
X005714Y015210D01*
X005654Y015150D01*
X007420Y014853D02*
X007420Y014749D01*
X007471Y014698D01*
X007471Y014582D02*
X007678Y014582D01*
X007730Y014531D01*
X007730Y014427D01*
X007678Y014375D01*
X007471Y014375D01*
X007420Y014427D01*
X007420Y014531D01*
X007471Y014582D01*
X007627Y014479D02*
X007730Y014582D01*
X007678Y014698D02*
X007730Y014749D01*
X007730Y014853D01*
X007678Y014905D01*
X007627Y014905D01*
X007575Y014853D01*
X007575Y014801D01*
X007575Y014853D02*
X007523Y014905D01*
X007471Y014905D01*
X007420Y014853D01*
X009470Y014795D02*
X009530Y014855D01*
X009650Y014855D01*
X009710Y014795D01*
X009710Y014615D01*
X009710Y014735D02*
X009830Y014855D01*
X009830Y014615D02*
X009470Y014615D01*
X009470Y014795D01*
X009590Y014121D02*
X009590Y014001D01*
X009530Y014061D02*
X009770Y014061D01*
X009830Y014121D01*
X009590Y013874D02*
X009590Y013814D01*
X009710Y013694D01*
X009830Y013694D02*
X009590Y013694D01*
X009650Y013566D02*
X009710Y013566D01*
X009710Y013325D01*
X009770Y013325D02*
X009650Y013325D01*
X009590Y013385D01*
X009590Y013506D01*
X009650Y013566D01*
X009830Y013506D02*
X009830Y013385D01*
X009770Y013325D01*
X009710Y013197D02*
X009470Y013197D01*
X009470Y012957D02*
X009710Y012957D01*
X009830Y013077D01*
X009710Y013197D01*
X009830Y011955D02*
X009830Y011715D01*
X009470Y011715D01*
X009590Y011221D02*
X009590Y011101D01*
X009530Y011161D02*
X009770Y011161D01*
X009830Y011221D01*
X009590Y010974D02*
X009590Y010914D01*
X009710Y010794D01*
X009830Y010794D02*
X009590Y010794D01*
X009650Y010666D02*
X009710Y010666D01*
X009710Y010425D01*
X009770Y010425D02*
X009650Y010425D01*
X009590Y010485D01*
X009590Y010606D01*
X009650Y010666D01*
X009830Y010606D02*
X009830Y010485D01*
X009770Y010425D01*
X009710Y010297D02*
X009470Y010297D01*
X009470Y010057D02*
X009710Y010057D01*
X009830Y010177D01*
X009710Y010297D01*
X009650Y009100D02*
X009530Y009100D01*
X009470Y009040D01*
X009470Y008860D01*
X009830Y008860D01*
X009710Y008860D02*
X009710Y009040D01*
X009650Y009100D01*
X009710Y008980D02*
X009830Y009100D01*
X009710Y008364D02*
X009710Y008123D01*
X009770Y008123D02*
X009650Y008123D01*
X009590Y008184D01*
X009590Y008304D01*
X009650Y008364D01*
X009710Y008364D01*
X009830Y008304D02*
X009830Y008184D01*
X009770Y008123D01*
X009830Y007995D02*
X009830Y007815D01*
X009770Y007755D01*
X009650Y007755D01*
X009590Y007815D01*
X009590Y007995D01*
X009890Y007995D01*
X009950Y007935D01*
X009950Y007875D01*
X009590Y007628D02*
X009590Y007568D01*
X009710Y007448D01*
X009830Y007448D02*
X009590Y007448D01*
X009590Y007320D02*
X009830Y007320D01*
X009830Y007140D01*
X009770Y007080D01*
X009590Y007080D01*
X009530Y006952D02*
X009470Y006892D01*
X009470Y006772D01*
X009530Y006712D01*
X009590Y006712D01*
X009650Y006772D01*
X009650Y006892D01*
X009710Y006952D01*
X009770Y006952D01*
X009830Y006892D01*
X009830Y006772D01*
X009770Y006712D01*
X009830Y006100D02*
X009830Y005860D01*
X009470Y005860D01*
X009650Y005364D02*
X009710Y005364D01*
X009710Y005123D01*
X009770Y005123D02*
X009650Y005123D01*
X009590Y005184D01*
X009590Y005304D01*
X009650Y005364D01*
X009830Y005304D02*
X009830Y005184D01*
X009770Y005123D01*
X009830Y004995D02*
X009830Y004815D01*
X009770Y004755D01*
X009650Y004755D01*
X009590Y004815D01*
X009590Y004995D01*
X009890Y004995D01*
X009950Y004935D01*
X009950Y004875D01*
X009590Y004628D02*
X009590Y004568D01*
X009710Y004448D01*
X009830Y004448D02*
X009590Y004448D01*
X009590Y004320D02*
X009830Y004320D01*
X009830Y004140D01*
X009770Y004080D01*
X009590Y004080D01*
X009530Y003952D02*
X009470Y003892D01*
X009470Y003772D01*
X009530Y003712D01*
X009590Y003712D01*
X009650Y003772D01*
X009650Y003892D01*
X009710Y003952D01*
X009770Y003952D01*
X009830Y003892D01*
X009830Y003772D01*
X009770Y003712D01*
X015970Y004611D02*
X015970Y004791D01*
X016030Y004851D01*
X016270Y004851D01*
X016330Y004791D01*
X016330Y004611D01*
X015970Y004611D01*
X016150Y004979D02*
X016090Y005039D01*
X016090Y005159D01*
X016150Y005219D01*
X016210Y005219D01*
X016210Y004979D01*
X016270Y004979D02*
X016150Y004979D01*
X016270Y004979D02*
X016330Y005039D01*
X016330Y005159D01*
X016330Y005347D02*
X016330Y005527D01*
X016270Y005587D01*
X016150Y005587D01*
X016090Y005527D01*
X016090Y005347D01*
X016450Y005347D01*
X016270Y005776D02*
X016030Y005776D01*
X016090Y005716D02*
X016090Y005836D01*
X016150Y005961D02*
X016090Y006021D01*
X016090Y006141D01*
X016150Y006201D01*
X016330Y006201D01*
X016330Y005961D02*
X015970Y005961D01*
X016270Y005776D02*
X016330Y005836D01*
X017438Y007570D02*
X017558Y007690D01*
X017558Y007930D01*
X017559Y008070D02*
X017439Y008070D01*
X017379Y008130D01*
X017439Y008250D02*
X017559Y008250D01*
X017619Y008190D01*
X017619Y008130D01*
X017559Y008070D01*
X017747Y008070D02*
X017867Y008070D01*
X017807Y008070D02*
X017807Y008310D01*
X017747Y008310D01*
X017807Y008430D02*
X017807Y008490D01*
X017926Y008570D02*
X017926Y008750D01*
X017866Y008810D01*
X017686Y008810D01*
X017686Y008570D01*
X017558Y008630D02*
X017558Y008750D01*
X017438Y008750D01*
X017558Y008630D02*
X017498Y008570D01*
X017378Y008570D01*
X017318Y008630D01*
X017318Y008870D01*
X017378Y008930D01*
X017498Y008930D01*
X017558Y008870D01*
X017559Y008430D02*
X017439Y008430D01*
X017379Y008370D01*
X017379Y008310D01*
X017439Y008250D01*
X017619Y008370D02*
X017559Y008430D01*
X017993Y008250D02*
X017993Y008130D01*
X018053Y008070D01*
X018233Y008070D01*
X018233Y008010D02*
X018233Y008310D01*
X018053Y008310D01*
X017993Y008250D01*
X018113Y007950D02*
X018173Y007950D01*
X018233Y008010D01*
X018294Y007810D02*
X018114Y007810D01*
X018054Y007750D01*
X018054Y007630D01*
X018114Y007570D01*
X018294Y007570D01*
X017926Y007570D02*
X017746Y007570D01*
X017686Y007630D01*
X017686Y007750D01*
X017746Y007810D01*
X017926Y007810D01*
X017438Y007570D02*
X017318Y007690D01*
X017318Y007930D01*
X018054Y008630D02*
X018054Y008750D01*
X018114Y008810D01*
X018294Y008810D01*
X018294Y008930D02*
X018294Y008570D01*
X018114Y008570D01*
X018054Y008630D01*
X018728Y013614D02*
X018676Y013666D01*
X018676Y013873D01*
X018728Y013925D01*
X018831Y013925D01*
X018883Y013873D01*
X018999Y013821D02*
X019102Y013925D01*
X019102Y013614D01*
X018999Y013614D02*
X019205Y013614D01*
X018883Y013666D02*
X018831Y013614D01*
X018728Y013614D01*
X018670Y014370D02*
X018670Y014680D01*
X018825Y014680D01*
X018877Y014629D01*
X018877Y014525D01*
X018825Y014473D01*
X018670Y014473D01*
X018773Y014473D02*
X018877Y014370D01*
X018992Y014370D02*
X019199Y014370D01*
X019096Y014370D02*
X019096Y014680D01*
X018992Y014577D01*
X016330Y015804D02*
X015970Y015804D01*
X016090Y015924D01*
X015970Y016044D01*
X016330Y016044D01*
X016330Y016172D02*
X016330Y016292D01*
X016330Y016232D02*
X016090Y016232D01*
X016090Y016172D01*
X015970Y016232D02*
X015910Y016232D01*
X016150Y016418D02*
X016090Y016478D01*
X016090Y016658D01*
X016210Y016598D02*
X016210Y016478D01*
X016150Y016418D01*
X016330Y016418D02*
X016330Y016598D01*
X016270Y016658D01*
X016210Y016598D01*
X016150Y016786D02*
X016090Y016846D01*
X016090Y017026D01*
X016090Y017154D02*
X016090Y017214D01*
X016330Y017214D01*
X016330Y017154D02*
X016330Y017274D01*
X016270Y017400D02*
X016330Y017460D01*
X016330Y017580D01*
X016270Y017640D01*
X016150Y017640D01*
X016090Y017580D01*
X016090Y017460D01*
X016150Y017400D01*
X016270Y017400D01*
X016270Y017026D02*
X016210Y016966D01*
X016210Y016846D01*
X016150Y016786D01*
X016330Y016786D02*
X016330Y016966D01*
X016270Y017026D01*
X015970Y017214D02*
X015910Y017214D01*
X016090Y017768D02*
X016090Y017948D01*
X016150Y018008D01*
X016330Y018008D01*
X016330Y017768D02*
X016090Y017768D01*
X011994Y018770D02*
X011814Y018770D01*
X011754Y018830D01*
X011754Y018950D01*
X011814Y019010D01*
X011994Y019010D01*
X011994Y019130D02*
X011994Y018770D01*
X011626Y018770D02*
X011626Y018950D01*
X011566Y019010D01*
X011386Y019010D01*
X011386Y018770D01*
X011258Y018830D02*
X011258Y018950D01*
X011138Y018950D01*
X011258Y018830D02*
X011198Y018770D01*
X011078Y018770D01*
X011018Y018830D01*
X011018Y019070D01*
X011078Y019130D01*
X011198Y019130D01*
X011258Y019070D01*
X011259Y019370D02*
X011139Y019370D01*
X011079Y019430D01*
X011139Y019550D02*
X011259Y019550D01*
X011319Y019490D01*
X011319Y019430D01*
X011259Y019370D01*
X011447Y019370D02*
X011567Y019370D01*
X011507Y019370D02*
X011507Y019610D01*
X011447Y019610D01*
X011507Y019730D02*
X011507Y019790D01*
X011319Y019670D02*
X011259Y019730D01*
X011139Y019730D01*
X011079Y019670D01*
X011079Y019610D01*
X011139Y019550D01*
X011693Y019550D02*
X011693Y019430D01*
X011753Y019370D01*
X011933Y019370D01*
X011933Y019310D02*
X011933Y019610D01*
X011753Y019610D01*
X011693Y019550D01*
X011813Y019250D02*
X011873Y019250D01*
X011933Y019310D01*
X009830Y017733D02*
X009830Y017613D01*
X009770Y017553D01*
X009650Y017553D01*
X009590Y017613D01*
X009590Y017733D01*
X009650Y017793D01*
X009710Y017793D01*
X009710Y017553D01*
X009650Y017428D02*
X009650Y017308D01*
X009650Y017180D02*
X009830Y017180D01*
X009830Y016999D01*
X009770Y016939D01*
X009710Y016999D01*
X009710Y017180D01*
X009650Y017180D02*
X009590Y017119D01*
X009590Y016999D01*
X009590Y016813D02*
X009590Y016752D01*
X009710Y016632D01*
X009830Y016632D02*
X009590Y016632D01*
X009590Y016507D02*
X009590Y016387D01*
X009530Y016447D02*
X009770Y016447D01*
X009830Y016507D01*
X009770Y016259D02*
X009830Y016199D01*
X009830Y016079D01*
X009770Y016019D01*
X009650Y016079D02*
X009650Y016199D01*
X009710Y016259D01*
X009770Y016259D01*
X009650Y016079D02*
X009590Y016019D01*
X009530Y016019D01*
X009470Y016079D01*
X009470Y016199D01*
X009530Y016259D01*
X009530Y017368D02*
X009470Y017428D01*
X009530Y017368D02*
X009830Y017368D01*
X007149Y017472D02*
X007097Y017420D01*
X006994Y017420D01*
X006942Y017472D01*
X006827Y017420D02*
X006723Y017523D01*
X006775Y017523D02*
X006620Y017523D01*
X006620Y017420D02*
X006620Y017730D01*
X006775Y017730D01*
X006827Y017679D01*
X006827Y017575D01*
X006775Y017523D01*
X006942Y017679D02*
X006994Y017730D01*
X007097Y017730D01*
X007149Y017679D01*
X007149Y017627D01*
X007097Y017575D01*
X007149Y017523D01*
X007149Y017472D01*
X007097Y017575D02*
X007046Y017575D01*
X007149Y018220D02*
X006942Y018220D01*
X007149Y018427D01*
X007149Y018479D01*
X007097Y018530D01*
X006994Y018530D01*
X006942Y018479D01*
X006827Y018479D02*
X006775Y018530D01*
X006620Y018530D01*
X006620Y018220D01*
X006620Y018323D02*
X006775Y018323D01*
X006827Y018375D01*
X006827Y018479D01*
X006723Y018323D02*
X006827Y018220D01*
X003499Y018870D02*
X003292Y018870D01*
X003396Y018870D02*
X003396Y019180D01*
X003292Y019077D01*
X003177Y019180D02*
X003177Y018922D01*
X003125Y018870D01*
X003022Y018870D01*
X002970Y018922D01*
X002970Y019180D01*
X001330Y018697D02*
X001330Y018594D01*
X001278Y018542D01*
X001278Y018427D02*
X001330Y018375D01*
X001330Y018272D01*
X001278Y018220D01*
X001071Y018220D01*
X001020Y018272D01*
X001020Y018375D01*
X001071Y018427D01*
X001071Y018542D02*
X001020Y018594D01*
X001020Y018697D01*
X001071Y018749D01*
X001123Y018749D01*
X001175Y018697D01*
X001227Y018749D01*
X001278Y018749D01*
X001330Y018697D01*
X001175Y018697D02*
X001175Y018646D01*
X001123Y017549D02*
X001071Y017549D01*
X001020Y017497D01*
X001020Y017394D01*
X001071Y017342D01*
X001071Y017227D02*
X001020Y017175D01*
X001020Y017072D01*
X001071Y017020D01*
X001278Y017020D01*
X001330Y017072D01*
X001330Y017175D01*
X001278Y017227D01*
X001330Y017342D02*
X001123Y017549D01*
X001330Y017549D02*
X001330Y017342D01*
D13*
X001632Y000998D02*
X000692Y000998D01*
X000692Y006898D01*
X001632Y006898D01*
X004232Y006898D01*
X004312Y006898D01*
X004312Y000998D01*
X004232Y000998D01*
X001632Y000998D01*
X001632Y001628D01*
X001632Y002328D02*
X001632Y003598D01*
X001632Y004298D02*
X001632Y005569D01*
X001632Y006269D02*
X001632Y006898D01*
X004232Y006898D01*
X004232Y000998D01*
X004850Y001200D02*
X004850Y001700D01*
X005100Y001950D01*
X005600Y001950D01*
X005850Y001700D01*
X006100Y001950D01*
X006600Y001950D01*
X006850Y001700D01*
X006850Y001200D01*
X006600Y000950D01*
X006100Y000950D01*
X005850Y001200D01*
X005600Y000950D01*
X005100Y000950D01*
X004850Y001200D01*
X005850Y001200D02*
X005850Y001700D01*
X006850Y001700D02*
X007100Y001950D01*
X007600Y001950D01*
X007850Y001700D01*
X008100Y001950D01*
X008600Y001950D01*
X008850Y001700D01*
X009100Y001950D01*
X009600Y001950D01*
X009850Y001700D01*
X009850Y001200D01*
X009600Y000950D01*
X009100Y000950D01*
X008850Y001200D01*
X008600Y000950D01*
X008100Y000950D01*
X007850Y001200D01*
X007600Y000950D01*
X007100Y000950D01*
X006850Y001200D01*
X007850Y001200D02*
X007850Y001700D01*
X008850Y001700D02*
X008850Y001200D01*
X009850Y001200D02*
X010100Y000950D01*
X010600Y000950D01*
X010850Y001200D01*
X011100Y000950D01*
X011600Y000950D01*
X011850Y001200D01*
X012100Y000950D01*
X012600Y000950D01*
X012850Y001200D01*
X012850Y001700D01*
X012600Y001950D01*
X012100Y001950D01*
X011850Y001700D01*
X011850Y001200D01*
X011850Y001700D02*
X011600Y001950D01*
X011100Y001950D01*
X010850Y001700D01*
X010850Y001200D01*
X010850Y001700D02*
X010600Y001950D01*
X010100Y001950D01*
X009850Y001700D01*
X011300Y003950D02*
X011050Y004200D01*
X011050Y004700D01*
X011300Y004950D01*
X011050Y005200D01*
X011050Y005700D01*
X011300Y005950D01*
X011800Y005950D01*
X012050Y005700D01*
X012050Y005200D01*
X011800Y004950D01*
X012050Y004700D01*
X012050Y004200D01*
X011800Y003950D01*
X011300Y003950D01*
X011300Y004950D02*
X011800Y004950D01*
X011800Y006950D02*
X011300Y006950D01*
X011050Y007200D01*
X011050Y007700D01*
X011300Y007950D01*
X011050Y008200D01*
X011050Y008700D01*
X011300Y008950D01*
X011800Y008950D01*
X012050Y008700D01*
X012050Y008200D01*
X011800Y007950D01*
X012050Y007700D01*
X012050Y007200D01*
X011800Y006950D01*
X011800Y007950D02*
X011300Y007950D01*
X011300Y009950D02*
X011050Y010200D01*
X011050Y010700D01*
X011300Y010950D01*
X011050Y011200D01*
X011050Y011700D01*
X011300Y011950D01*
X011800Y011950D01*
X012050Y011700D01*
X012050Y011200D01*
X011800Y010950D01*
X012050Y010700D01*
X012050Y010200D01*
X011800Y009950D01*
X011300Y009950D01*
X011300Y010950D02*
X011800Y010950D01*
X011800Y012950D02*
X011300Y012950D01*
X011050Y013200D01*
X011050Y013700D01*
X011300Y013950D01*
X011050Y014200D01*
X011050Y014700D01*
X011300Y014950D01*
X011800Y014950D01*
X012050Y014700D01*
X012050Y014200D01*
X011800Y013950D01*
X012050Y013700D01*
X012050Y013200D01*
X011800Y012950D01*
X011800Y013950D02*
X011300Y013950D01*
X011300Y015950D02*
X011050Y016200D01*
X011050Y016700D01*
X011300Y016950D01*
X011050Y017200D01*
X011050Y017700D01*
X011300Y017950D01*
X011800Y017950D01*
X012050Y017700D01*
X012050Y017200D01*
X011800Y016950D01*
X012050Y016700D01*
X012050Y016200D01*
X011800Y015950D01*
X011300Y015950D01*
X011300Y016950D02*
X011800Y016950D01*
X012100Y019950D02*
X012600Y019950D01*
X012850Y020200D01*
X013100Y019950D01*
X013600Y019950D01*
X013850Y020200D01*
X013850Y020700D01*
X013600Y020950D01*
X013100Y020950D01*
X012850Y020700D01*
X012850Y020200D01*
X012850Y020700D02*
X012600Y020950D01*
X012100Y020950D01*
X011850Y020700D01*
X011850Y020200D01*
X012100Y019950D01*
X011250Y020200D02*
X011000Y019950D01*
X010500Y019950D01*
X010250Y020200D01*
X010000Y019950D01*
X009500Y019950D01*
X009250Y020200D01*
X009000Y019950D01*
X008500Y019950D01*
X008250Y020200D01*
X008000Y019950D01*
X007500Y019950D01*
X007250Y020200D01*
X007000Y019950D01*
X006500Y019950D01*
X006250Y020200D01*
X006000Y019950D01*
X005500Y019950D01*
X005250Y020200D01*
X005000Y019950D01*
X004500Y019950D01*
X004250Y020200D01*
X004000Y019950D01*
X003500Y019950D01*
X003250Y020200D01*
X003000Y019950D01*
X002500Y019950D01*
X002250Y020200D01*
X002000Y019950D01*
X001500Y019950D01*
X001250Y020200D01*
X001250Y020700D01*
X001500Y020950D01*
X002000Y020950D01*
X002250Y020700D01*
X002500Y020950D01*
X003000Y020950D01*
X003250Y020700D01*
X003250Y020200D01*
X003250Y020700D02*
X003500Y020950D01*
X004000Y020950D01*
X004250Y020700D01*
X004500Y020950D01*
X005000Y020950D01*
X005250Y020700D01*
X005500Y020950D01*
X006000Y020950D01*
X006250Y020700D01*
X006250Y020200D01*
X006250Y020700D02*
X006500Y020950D01*
X007000Y020950D01*
X007250Y020700D01*
X007500Y020950D01*
X008000Y020950D01*
X008250Y020700D01*
X008500Y020950D01*
X009000Y020950D01*
X009250Y020700D01*
X009250Y020200D01*
X009250Y020700D02*
X009500Y020950D01*
X010000Y020950D01*
X010250Y020700D01*
X010500Y020950D01*
X011000Y020950D01*
X011250Y020700D01*
X011250Y020200D01*
X010250Y020200D02*
X010250Y020700D01*
X008250Y020700D02*
X008250Y020200D01*
X007250Y020200D02*
X007250Y020700D01*
X005250Y020700D02*
X005250Y020200D01*
X004250Y020200D02*
X004250Y020700D01*
X002250Y020700D02*
X002250Y020200D01*
X002100Y015650D02*
X002600Y015650D01*
X002850Y015400D01*
X002850Y014900D01*
X002600Y014650D01*
X002850Y014400D01*
X002850Y013900D01*
X002600Y013650D01*
X002100Y013650D01*
X001850Y013900D01*
X001850Y014400D01*
X002100Y014650D01*
X001850Y014900D01*
X001850Y015400D01*
X002100Y015650D01*
X002100Y014650D02*
X002600Y014650D01*
X001632Y012798D02*
X000692Y012798D01*
X000692Y006898D01*
X001632Y006898D01*
X001632Y007528D01*
X001632Y008228D02*
X001632Y009498D01*
X001632Y010198D02*
X001632Y011469D01*
X001632Y012169D02*
X001632Y012798D01*
X004232Y012798D01*
X004312Y012798D01*
X004312Y006898D01*
X004232Y006898D01*
X004232Y012798D01*
X003512Y011819D02*
X003514Y011847D01*
X003520Y011874D01*
X003529Y011900D01*
X003542Y011925D01*
X003559Y011948D01*
X003578Y011968D01*
X003600Y011985D01*
X003624Y011999D01*
X003650Y012009D01*
X003677Y012016D01*
X003705Y012019D01*
X003733Y012018D01*
X003760Y012013D01*
X003787Y012004D01*
X003812Y011992D01*
X003835Y011977D01*
X003856Y011958D01*
X003874Y011937D01*
X003889Y011913D01*
X003900Y011887D01*
X003908Y011861D01*
X003912Y011833D01*
X003912Y011805D01*
X003908Y011777D01*
X003900Y011751D01*
X003889Y011725D01*
X003874Y011701D01*
X003856Y011680D01*
X003835Y011661D01*
X003812Y011646D01*
X003787Y011634D01*
X003760Y011625D01*
X003733Y011620D01*
X003705Y011619D01*
X003677Y011622D01*
X003650Y011629D01*
X003624Y011639D01*
X003600Y011653D01*
X003578Y011670D01*
X003559Y011690D01*
X003542Y011713D01*
X003529Y011738D01*
X003520Y011764D01*
X003514Y011791D01*
X003512Y011819D01*
X003512Y009849D02*
X003514Y009877D01*
X003520Y009904D01*
X003529Y009930D01*
X003542Y009955D01*
X003559Y009978D01*
X003578Y009998D01*
X003600Y010015D01*
X003624Y010029D01*
X003650Y010039D01*
X003677Y010046D01*
X003705Y010049D01*
X003733Y010048D01*
X003760Y010043D01*
X003787Y010034D01*
X003812Y010022D01*
X003835Y010007D01*
X003856Y009988D01*
X003874Y009967D01*
X003889Y009943D01*
X003900Y009917D01*
X003908Y009891D01*
X003912Y009863D01*
X003912Y009835D01*
X003908Y009807D01*
X003900Y009781D01*
X003889Y009755D01*
X003874Y009731D01*
X003856Y009710D01*
X003835Y009691D01*
X003812Y009676D01*
X003787Y009664D01*
X003760Y009655D01*
X003733Y009650D01*
X003705Y009649D01*
X003677Y009652D01*
X003650Y009659D01*
X003624Y009669D01*
X003600Y009683D01*
X003578Y009700D01*
X003559Y009720D01*
X003542Y009743D01*
X003529Y009768D01*
X003520Y009794D01*
X003514Y009821D01*
X003512Y009849D01*
X003512Y007879D02*
X003514Y007907D01*
X003520Y007934D01*
X003529Y007960D01*
X003542Y007985D01*
X003559Y008008D01*
X003578Y008028D01*
X003600Y008045D01*
X003624Y008059D01*
X003650Y008069D01*
X003677Y008076D01*
X003705Y008079D01*
X003733Y008078D01*
X003760Y008073D01*
X003787Y008064D01*
X003812Y008052D01*
X003835Y008037D01*
X003856Y008018D01*
X003874Y007997D01*
X003889Y007973D01*
X003900Y007947D01*
X003908Y007921D01*
X003912Y007893D01*
X003912Y007865D01*
X003908Y007837D01*
X003900Y007811D01*
X003889Y007785D01*
X003874Y007761D01*
X003856Y007740D01*
X003835Y007721D01*
X003812Y007706D01*
X003787Y007694D01*
X003760Y007685D01*
X003733Y007680D01*
X003705Y007679D01*
X003677Y007682D01*
X003650Y007689D01*
X003624Y007699D01*
X003600Y007713D01*
X003578Y007730D01*
X003559Y007750D01*
X003542Y007773D01*
X003529Y007798D01*
X003520Y007824D01*
X003514Y007851D01*
X003512Y007879D01*
X003512Y005919D02*
X003514Y005947D01*
X003520Y005974D01*
X003529Y006000D01*
X003542Y006025D01*
X003559Y006048D01*
X003578Y006068D01*
X003600Y006085D01*
X003624Y006099D01*
X003650Y006109D01*
X003677Y006116D01*
X003705Y006119D01*
X003733Y006118D01*
X003760Y006113D01*
X003787Y006104D01*
X003812Y006092D01*
X003835Y006077D01*
X003856Y006058D01*
X003874Y006037D01*
X003889Y006013D01*
X003900Y005987D01*
X003908Y005961D01*
X003912Y005933D01*
X003912Y005905D01*
X003908Y005877D01*
X003900Y005851D01*
X003889Y005825D01*
X003874Y005801D01*
X003856Y005780D01*
X003835Y005761D01*
X003812Y005746D01*
X003787Y005734D01*
X003760Y005725D01*
X003733Y005720D01*
X003705Y005719D01*
X003677Y005722D01*
X003650Y005729D01*
X003624Y005739D01*
X003600Y005753D01*
X003578Y005770D01*
X003559Y005790D01*
X003542Y005813D01*
X003529Y005838D01*
X003520Y005864D01*
X003514Y005891D01*
X003512Y005919D01*
X003512Y003949D02*
X003514Y003977D01*
X003520Y004004D01*
X003529Y004030D01*
X003542Y004055D01*
X003559Y004078D01*
X003578Y004098D01*
X003600Y004115D01*
X003624Y004129D01*
X003650Y004139D01*
X003677Y004146D01*
X003705Y004149D01*
X003733Y004148D01*
X003760Y004143D01*
X003787Y004134D01*
X003812Y004122D01*
X003835Y004107D01*
X003856Y004088D01*
X003874Y004067D01*
X003889Y004043D01*
X003900Y004017D01*
X003908Y003991D01*
X003912Y003963D01*
X003912Y003935D01*
X003908Y003907D01*
X003900Y003881D01*
X003889Y003855D01*
X003874Y003831D01*
X003856Y003810D01*
X003835Y003791D01*
X003812Y003776D01*
X003787Y003764D01*
X003760Y003755D01*
X003733Y003750D01*
X003705Y003749D01*
X003677Y003752D01*
X003650Y003759D01*
X003624Y003769D01*
X003600Y003783D01*
X003578Y003800D01*
X003559Y003820D01*
X003542Y003843D01*
X003529Y003868D01*
X003520Y003894D01*
X003514Y003921D01*
X003512Y003949D01*
X003512Y001979D02*
X003514Y002007D01*
X003520Y002034D01*
X003529Y002060D01*
X003542Y002085D01*
X003559Y002108D01*
X003578Y002128D01*
X003600Y002145D01*
X003624Y002159D01*
X003650Y002169D01*
X003677Y002176D01*
X003705Y002179D01*
X003733Y002178D01*
X003760Y002173D01*
X003787Y002164D01*
X003812Y002152D01*
X003835Y002137D01*
X003856Y002118D01*
X003874Y002097D01*
X003889Y002073D01*
X003900Y002047D01*
X003908Y002021D01*
X003912Y001993D01*
X003912Y001965D01*
X003908Y001937D01*
X003900Y001911D01*
X003889Y001885D01*
X003874Y001861D01*
X003856Y001840D01*
X003835Y001821D01*
X003812Y001806D01*
X003787Y001794D01*
X003760Y001785D01*
X003733Y001780D01*
X003705Y001779D01*
X003677Y001782D01*
X003650Y001789D01*
X003624Y001799D01*
X003600Y001813D01*
X003578Y001830D01*
X003559Y001850D01*
X003542Y001873D01*
X003529Y001898D01*
X003520Y001924D01*
X003514Y001951D01*
X003512Y001979D01*
X013850Y001700D02*
X013850Y001200D01*
X014100Y000950D01*
X014600Y000950D01*
X014850Y001200D01*
X015100Y000950D01*
X015600Y000950D01*
X015850Y001200D01*
X015850Y001700D01*
X015600Y001950D01*
X015100Y001950D01*
X014850Y001700D01*
X014850Y001200D01*
X014850Y001700D02*
X014600Y001950D01*
X014100Y001950D01*
X013850Y001700D01*
X015850Y001700D02*
X016100Y001950D01*
X016600Y001950D01*
X016850Y001700D01*
X017100Y001950D01*
X017600Y001950D01*
X017850Y001700D01*
X018100Y001950D01*
X018600Y001950D01*
X018850Y001700D01*
X019100Y001950D01*
X019600Y001950D01*
X019850Y001700D01*
X019850Y001200D01*
X019600Y000950D01*
X019100Y000950D01*
X018850Y001200D01*
X018600Y000950D01*
X018100Y000950D01*
X017850Y001200D01*
X017600Y000950D01*
X017100Y000950D01*
X016850Y001200D01*
X016600Y000950D01*
X016100Y000950D01*
X015850Y001200D01*
X016850Y001200D02*
X016850Y001700D01*
X017850Y001700D02*
X017850Y001200D01*
X018850Y001200D02*
X018850Y001700D01*
X018100Y003950D02*
X017600Y003950D01*
X017350Y004200D01*
X017350Y004700D01*
X017600Y004950D01*
X017350Y005200D01*
X017350Y005700D01*
X017600Y005950D01*
X017350Y006200D01*
X017350Y006700D01*
X017600Y006950D01*
X018100Y006950D01*
X018350Y006700D01*
X018350Y006200D01*
X018100Y005950D01*
X018350Y005700D01*
X018350Y005200D01*
X018100Y004950D01*
X018350Y004700D01*
X018350Y004200D01*
X018100Y003950D01*
X018100Y004950D02*
X017600Y004950D01*
X017600Y005950D02*
X018100Y005950D01*
X018100Y015950D02*
X017600Y015950D01*
X017350Y016200D01*
X017350Y016700D01*
X017600Y016950D01*
X017350Y017200D01*
X017350Y017700D01*
X017600Y017950D01*
X018100Y017950D01*
X018350Y017700D01*
X018350Y017200D01*
X018100Y016950D01*
X018350Y016700D01*
X018350Y016200D01*
X018100Y015950D01*
X018100Y016950D02*
X017600Y016950D01*
X017600Y019950D02*
X017100Y019950D01*
X016850Y020200D01*
X016600Y019950D01*
X016100Y019950D01*
X015850Y020200D01*
X015600Y019950D01*
X015100Y019950D01*
X014850Y020200D01*
X014600Y019950D01*
X014100Y019950D01*
X013850Y020200D01*
X013850Y020700D02*
X014100Y020950D01*
X014600Y020950D01*
X014850Y020700D01*
X015100Y020950D01*
X015600Y020950D01*
X015850Y020700D01*
X016100Y020950D01*
X016600Y020950D01*
X016850Y020700D01*
X016850Y020200D01*
X016850Y020700D02*
X017100Y020950D01*
X017600Y020950D01*
X017850Y020700D01*
X018100Y020950D01*
X018600Y020950D01*
X018850Y020700D01*
X019100Y020950D01*
X019600Y020950D01*
X019850Y020700D01*
X019850Y020200D01*
X019600Y019950D01*
X019100Y019950D01*
X018850Y020200D01*
X018600Y019950D01*
X018100Y019950D01*
X017850Y020200D01*
X017600Y019950D01*
X017850Y020200D02*
X017850Y020700D01*
X018850Y020700D02*
X018850Y020200D01*
X015850Y020200D02*
X015850Y020700D01*
X014850Y020700D02*
X014850Y020200D01*
M02*
