G75*
%MOIN*%
%OFA0B0*%
%FSLAX24Y24*%
%IPPOS*%
%LPD*%
%AMOC8*
5,1,8,0,0,1.08239X$1,22.5*
%
%ADD10C,0.0600*%
%ADD11OC8,0.0630*%
%ADD12C,0.0630*%
%ADD13C,0.2756*%
%ADD14C,0.0591*%
%ADD15C,0.0705*%
%ADD16C,0.0357*%
%ADD17C,0.0080*%
%ADD18C,0.0100*%
%ADD19C,0.0160*%
D10*
X014600Y002880D02*
X014600Y003480D01*
X015600Y003480D02*
X015600Y002880D01*
X032260Y005687D02*
X032860Y005687D01*
X032860Y006687D02*
X032260Y006687D01*
X032260Y007687D02*
X032860Y007687D01*
X032860Y008687D02*
X032260Y008687D01*
X032260Y009687D02*
X032860Y009687D01*
X032860Y010687D02*
X032260Y010687D01*
X030600Y012880D02*
X030600Y013480D01*
X029600Y013480D02*
X029600Y012880D01*
X025600Y012880D02*
X025600Y013480D01*
X024600Y013480D02*
X024600Y012880D01*
X020600Y012880D02*
X020600Y013480D01*
X019600Y013480D02*
X019600Y012880D01*
X015600Y012880D02*
X015600Y013480D01*
X014600Y013480D02*
X014600Y012880D01*
D11*
X018000Y003580D03*
D12*
X018000Y002580D03*
D13*
X005887Y006211D03*
X005887Y010149D03*
D14*
X014313Y008932D03*
X014313Y008180D03*
X014313Y007428D03*
D15*
X002453Y007196D02*
X001748Y007196D01*
X001748Y005227D02*
X002453Y005227D01*
X002453Y009164D02*
X001748Y009164D01*
X001748Y011133D02*
X002453Y011133D01*
D16*
X018500Y004680D03*
X019800Y003880D03*
X021800Y002680D03*
X025200Y001780D03*
X027000Y003280D03*
X028500Y003980D03*
X028300Y004680D03*
X026900Y005180D03*
X026300Y005380D03*
X026700Y006180D03*
X028700Y006880D03*
X029100Y006480D03*
X029800Y006580D03*
X029100Y005980D03*
X026700Y007480D03*
X023500Y008880D03*
X024300Y009880D03*
X025800Y009680D03*
X026400Y009480D03*
X028000Y009480D03*
X028100Y011680D03*
X026600Y011680D03*
X021800Y010680D03*
X021500Y010180D03*
X019400Y009680D03*
X023100Y014180D03*
X028100Y014180D03*
X029000Y003280D03*
D17*
X027800Y005180D02*
X026900Y005180D01*
X027300Y005380D02*
X027100Y005580D01*
X026500Y005580D01*
X026300Y005380D01*
X027300Y005380D02*
X027700Y005380D01*
X028700Y006380D01*
X028700Y006880D01*
X028500Y007280D02*
X027400Y006180D01*
X026700Y006180D01*
X027800Y005180D02*
X029100Y006480D01*
X029600Y006580D02*
X028900Y007280D01*
X028500Y007280D01*
X029600Y006580D02*
X029800Y006580D01*
X029100Y005980D02*
X030893Y005980D01*
X031600Y006687D01*
X032560Y006687D01*
X026700Y007480D02*
X024300Y009880D01*
X023500Y010680D01*
X021800Y010680D01*
X024600Y012280D02*
X024600Y013180D01*
X024600Y012280D02*
X025800Y011080D01*
X025800Y009680D01*
D18*
X028500Y003980D02*
X027800Y003280D01*
X027000Y003280D01*
D19*
X001100Y004680D02*
X001100Y007680D01*
X007600Y007680D01*
X007600Y005680D01*
X006600Y004680D01*
X001100Y004680D01*
X001100Y004801D02*
X006721Y004801D01*
X006880Y004960D02*
X001100Y004960D01*
X001100Y005118D02*
X007038Y005118D01*
X007197Y005277D02*
X001100Y005277D01*
X001100Y005435D02*
X007355Y005435D01*
X007514Y005594D02*
X001100Y005594D01*
X001100Y005752D02*
X007600Y005752D01*
X007600Y005911D02*
X001100Y005911D01*
X001100Y006069D02*
X007600Y006069D01*
X007600Y006228D02*
X001100Y006228D01*
X001100Y006386D02*
X007600Y006386D01*
X007600Y006545D02*
X001100Y006545D01*
X001100Y006703D02*
X007600Y006703D01*
X007600Y006862D02*
X001100Y006862D01*
X001100Y007020D02*
X007600Y007020D01*
X007600Y007179D02*
X001100Y007179D01*
X001100Y007337D02*
X007600Y007337D01*
X007600Y007496D02*
X001100Y007496D01*
X001100Y007654D02*
X007600Y007654D01*
X007600Y008680D02*
X001100Y008680D01*
X001100Y011680D01*
X006600Y011680D01*
X007600Y010680D01*
X007600Y008680D01*
X007600Y008764D02*
X001100Y008764D01*
X001100Y008922D02*
X007600Y008922D01*
X007600Y009081D02*
X001100Y009081D01*
X001100Y009239D02*
X007600Y009239D01*
X007600Y009398D02*
X001100Y009398D01*
X001100Y009556D02*
X007600Y009556D01*
X007600Y009715D02*
X001100Y009715D01*
X001100Y009873D02*
X007600Y009873D01*
X007600Y010032D02*
X001100Y010032D01*
X001100Y010190D02*
X007600Y010190D01*
X007600Y010349D02*
X001100Y010349D01*
X001100Y010507D02*
X007600Y010507D01*
X007600Y010666D02*
X001100Y010666D01*
X001100Y010824D02*
X007456Y010824D01*
X007297Y010983D02*
X001100Y010983D01*
X001100Y011141D02*
X007139Y011141D01*
X006980Y011300D02*
X001100Y011300D01*
X001100Y011458D02*
X006822Y011458D01*
X006663Y011617D02*
X001100Y011617D01*
X013600Y011617D02*
X024981Y011617D01*
X024822Y011775D02*
X013600Y011775D01*
X013600Y011934D02*
X024664Y011934D01*
X024517Y012080D02*
X025600Y010997D01*
X025600Y009959D01*
X025513Y009872D01*
X025462Y009747D01*
X025462Y009613D01*
X025513Y009488D01*
X025608Y009393D01*
X025733Y009342D01*
X025867Y009342D01*
X025992Y009393D01*
X026087Y009488D01*
X026138Y009613D01*
X026138Y009747D01*
X026087Y009872D01*
X026000Y009959D01*
X026000Y011163D01*
X024800Y012363D01*
X024800Y012465D01*
X024861Y012490D01*
X024990Y012619D01*
X025060Y012788D01*
X025060Y013571D01*
X024990Y013741D01*
X024861Y013870D01*
X024691Y013940D01*
X024508Y013940D01*
X024339Y013870D01*
X024210Y013741D01*
X024140Y013571D01*
X024140Y012788D01*
X024210Y012619D01*
X024339Y012490D01*
X024400Y012465D01*
X024400Y012197D01*
X024517Y012080D01*
X024505Y012092D02*
X013600Y012092D01*
X013600Y012251D02*
X024400Y012251D01*
X024400Y012409D02*
X013600Y012409D01*
X013600Y012568D02*
X014262Y012568D01*
X014210Y012619D02*
X014339Y012490D01*
X014508Y012420D01*
X014691Y012420D01*
X014861Y012490D01*
X014990Y012619D01*
X015060Y012788D01*
X015060Y013571D01*
X014990Y013741D01*
X014861Y013870D01*
X014691Y013940D01*
X014508Y013940D01*
X014339Y013870D01*
X014210Y013741D01*
X014140Y013571D01*
X014140Y012788D01*
X014210Y012619D01*
X014166Y012726D02*
X013600Y012726D01*
X013600Y012885D02*
X014140Y012885D01*
X014140Y013043D02*
X013600Y013043D01*
X013600Y013202D02*
X014140Y013202D01*
X014140Y013360D02*
X013600Y013360D01*
X013600Y013519D02*
X014140Y013519D01*
X014184Y013677D02*
X013600Y013677D01*
X013600Y013836D02*
X014305Y013836D01*
X013600Y013994D02*
X032070Y013994D01*
X032060Y013958D02*
X032060Y013652D01*
X032139Y013355D01*
X032293Y013090D01*
X032510Y012873D01*
X032775Y012719D01*
X033072Y012640D01*
X033378Y012640D01*
X033675Y012719D01*
X033940Y012873D01*
X034157Y013090D01*
X034311Y013355D01*
X034390Y013652D01*
X034390Y013958D01*
X034311Y014255D01*
X034157Y014520D01*
X033940Y014737D01*
X033675Y014891D01*
X033378Y014970D01*
X033072Y014970D01*
X032775Y014891D01*
X032510Y014737D01*
X032293Y014520D01*
X032139Y014255D01*
X032060Y013958D01*
X032060Y013836D02*
X030923Y013836D01*
X030913Y013846D02*
X030852Y013891D01*
X030784Y013925D01*
X030712Y013948D01*
X030638Y013960D01*
X030620Y013960D01*
X030620Y013200D01*
X031080Y013200D01*
X031080Y013518D01*
X031068Y013592D01*
X031045Y013664D01*
X031011Y013732D01*
X030966Y013793D01*
X030913Y013846D01*
X031038Y013677D02*
X032060Y013677D01*
X032096Y013519D02*
X031080Y013519D01*
X031080Y013360D02*
X032138Y013360D01*
X032228Y013202D02*
X031080Y013202D01*
X031080Y013160D02*
X030620Y013160D01*
X030620Y013200D01*
X030580Y013200D01*
X030580Y013960D01*
X030562Y013960D01*
X030488Y013948D01*
X030416Y013925D01*
X030348Y013891D01*
X030287Y013846D01*
X030234Y013793D01*
X030189Y013732D01*
X030155Y013664D01*
X030132Y013592D01*
X030120Y013518D01*
X030120Y013200D01*
X030580Y013200D01*
X030580Y013160D01*
X030620Y013160D01*
X030620Y012400D01*
X030638Y012400D01*
X030712Y012412D01*
X030784Y012435D01*
X030852Y012469D01*
X030913Y012514D01*
X030966Y012567D01*
X031011Y012628D01*
X031045Y012696D01*
X031068Y012768D01*
X031080Y012842D01*
X031080Y013160D01*
X031080Y013043D02*
X032339Y013043D01*
X032498Y012885D02*
X031080Y012885D01*
X031055Y012726D02*
X032764Y012726D01*
X033686Y012726D02*
X034820Y012726D01*
X034820Y012568D02*
X030966Y012568D01*
X030695Y012409D02*
X034820Y012409D01*
X034820Y012251D02*
X024912Y012251D01*
X024800Y012409D02*
X025505Y012409D01*
X025488Y012412D02*
X025562Y012400D01*
X025580Y012400D01*
X025580Y013160D01*
X025620Y013160D01*
X025620Y013200D01*
X026080Y013200D01*
X026080Y013518D01*
X026068Y013592D01*
X026045Y013664D01*
X026011Y013732D01*
X025966Y013793D01*
X025913Y013846D01*
X025852Y013891D01*
X025784Y013925D01*
X025712Y013948D01*
X025638Y013960D01*
X025620Y013960D01*
X025620Y013200D01*
X025580Y013200D01*
X025580Y013960D01*
X025562Y013960D01*
X025488Y013948D01*
X025416Y013925D01*
X025348Y013891D01*
X025287Y013846D01*
X025234Y013793D01*
X025189Y013732D01*
X025155Y013664D01*
X025132Y013592D01*
X025120Y013518D01*
X025120Y013200D01*
X025580Y013200D01*
X025580Y013160D01*
X025120Y013160D01*
X025120Y012842D01*
X025132Y012768D01*
X025155Y012696D01*
X025189Y012628D01*
X025234Y012567D01*
X025287Y012514D01*
X025348Y012469D01*
X025416Y012435D01*
X025488Y012412D01*
X025580Y012409D02*
X025620Y012409D01*
X025620Y012400D02*
X025638Y012400D01*
X025712Y012412D01*
X025784Y012435D01*
X025852Y012469D01*
X025913Y012514D01*
X025966Y012567D01*
X026011Y012628D01*
X026045Y012696D01*
X026068Y012768D01*
X026080Y012842D01*
X026080Y013160D01*
X025620Y013160D01*
X025620Y012400D01*
X025695Y012409D02*
X030505Y012409D01*
X030488Y012412D02*
X030562Y012400D01*
X030580Y012400D01*
X030580Y013160D01*
X030120Y013160D01*
X030120Y012842D01*
X030132Y012768D01*
X030155Y012696D01*
X030189Y012628D01*
X030234Y012567D01*
X030287Y012514D01*
X030348Y012469D01*
X030416Y012435D01*
X030488Y012412D01*
X030580Y012409D02*
X030620Y012409D01*
X030620Y012568D02*
X030580Y012568D01*
X030580Y012726D02*
X030620Y012726D01*
X030620Y012885D02*
X030580Y012885D01*
X030580Y013043D02*
X030620Y013043D01*
X030620Y013202D02*
X030580Y013202D01*
X030580Y013360D02*
X030620Y013360D01*
X030620Y013519D02*
X030580Y013519D01*
X030580Y013677D02*
X030620Y013677D01*
X030620Y013836D02*
X030580Y013836D01*
X030277Y013836D02*
X029895Y013836D01*
X029861Y013870D02*
X029691Y013940D01*
X029508Y013940D01*
X029339Y013870D01*
X029210Y013741D01*
X029140Y013571D01*
X029140Y012788D01*
X029210Y012619D01*
X029339Y012490D01*
X029508Y012420D01*
X029691Y012420D01*
X029861Y012490D01*
X029990Y012619D01*
X030060Y012788D01*
X030060Y013571D01*
X029990Y013741D01*
X029861Y013870D01*
X030016Y013677D02*
X030162Y013677D01*
X030120Y013519D02*
X030060Y013519D01*
X030060Y013360D02*
X030120Y013360D01*
X030120Y013202D02*
X030060Y013202D01*
X030060Y013043D02*
X030120Y013043D01*
X030120Y012885D02*
X030060Y012885D01*
X030034Y012726D02*
X030145Y012726D01*
X030234Y012568D02*
X029938Y012568D01*
X029262Y012568D02*
X025966Y012568D01*
X026055Y012726D02*
X029166Y012726D01*
X029140Y012885D02*
X026080Y012885D01*
X026080Y013043D02*
X029140Y013043D01*
X029140Y013202D02*
X026080Y013202D01*
X026080Y013360D02*
X029140Y013360D01*
X029140Y013519D02*
X026080Y013519D01*
X026038Y013677D02*
X029184Y013677D01*
X029305Y013836D02*
X025923Y013836D01*
X025620Y013836D02*
X025580Y013836D01*
X025580Y013677D02*
X025620Y013677D01*
X025620Y013519D02*
X025580Y013519D01*
X025580Y013360D02*
X025620Y013360D01*
X025620Y013202D02*
X025580Y013202D01*
X025580Y013043D02*
X025620Y013043D01*
X025620Y012885D02*
X025580Y012885D01*
X025580Y012726D02*
X025620Y012726D01*
X025620Y012568D02*
X025580Y012568D01*
X025234Y012568D02*
X024938Y012568D01*
X025034Y012726D02*
X025145Y012726D01*
X025120Y012885D02*
X025060Y012885D01*
X025060Y013043D02*
X025120Y013043D01*
X025120Y013202D02*
X025060Y013202D01*
X025060Y013360D02*
X025120Y013360D01*
X025120Y013519D02*
X025060Y013519D01*
X025016Y013677D02*
X025162Y013677D01*
X025277Y013836D02*
X024895Y013836D01*
X024305Y013836D02*
X020895Y013836D01*
X020861Y013870D02*
X020691Y013940D01*
X020508Y013940D01*
X020339Y013870D01*
X020210Y013741D01*
X020140Y013571D01*
X020140Y012788D01*
X020210Y012619D01*
X020339Y012490D01*
X020508Y012420D01*
X020691Y012420D01*
X020861Y012490D01*
X020990Y012619D01*
X021060Y012788D01*
X021060Y013571D01*
X020990Y013741D01*
X020861Y013870D01*
X021016Y013677D02*
X024184Y013677D01*
X024140Y013519D02*
X021060Y013519D01*
X021060Y013360D02*
X024140Y013360D01*
X024140Y013202D02*
X021060Y013202D01*
X021060Y013043D02*
X024140Y013043D01*
X024140Y012885D02*
X021060Y012885D01*
X021034Y012726D02*
X024166Y012726D01*
X024262Y012568D02*
X020938Y012568D01*
X020262Y012568D02*
X019938Y012568D01*
X019990Y012619D02*
X019861Y012490D01*
X019691Y012420D01*
X019508Y012420D01*
X019339Y012490D01*
X019210Y012619D01*
X019140Y012788D01*
X019140Y013571D01*
X019210Y013741D01*
X019339Y013870D01*
X019508Y013940D01*
X019691Y013940D01*
X019861Y013870D01*
X019990Y013741D01*
X020060Y013571D01*
X020060Y012788D01*
X019990Y012619D01*
X020034Y012726D02*
X020166Y012726D01*
X020140Y012885D02*
X020060Y012885D01*
X020060Y013043D02*
X020140Y013043D01*
X020140Y013202D02*
X020060Y013202D01*
X020060Y013360D02*
X020140Y013360D01*
X020140Y013519D02*
X020060Y013519D01*
X020016Y013677D02*
X020184Y013677D01*
X020305Y013836D02*
X019895Y013836D01*
X019305Y013836D02*
X015895Y013836D01*
X015861Y013870D02*
X015691Y013940D01*
X015508Y013940D01*
X015339Y013870D01*
X015210Y013741D01*
X015140Y013571D01*
X015140Y012788D01*
X015210Y012619D01*
X015339Y012490D01*
X015508Y012420D01*
X015691Y012420D01*
X015861Y012490D01*
X015990Y012619D01*
X016060Y012788D01*
X016060Y013571D01*
X015990Y013741D01*
X015861Y013870D01*
X016016Y013677D02*
X019184Y013677D01*
X019140Y013519D02*
X016060Y013519D01*
X016060Y013360D02*
X019140Y013360D01*
X019140Y013202D02*
X016060Y013202D01*
X016060Y013043D02*
X019140Y013043D01*
X019140Y012885D02*
X016060Y012885D01*
X016034Y012726D02*
X019166Y012726D01*
X019262Y012568D02*
X015938Y012568D01*
X015262Y012568D02*
X014938Y012568D01*
X015034Y012726D02*
X015166Y012726D01*
X015140Y012885D02*
X015060Y012885D01*
X015060Y013043D02*
X015140Y013043D01*
X015140Y013202D02*
X015060Y013202D01*
X015060Y013360D02*
X015140Y013360D01*
X015140Y013519D02*
X015060Y013519D01*
X015016Y013677D02*
X015184Y013677D01*
X015305Y013836D02*
X014895Y013836D01*
X013600Y014153D02*
X032112Y014153D01*
X032172Y014311D02*
X013600Y014311D01*
X013600Y014470D02*
X032263Y014470D01*
X032400Y014628D02*
X013600Y014628D01*
X013600Y014787D02*
X032595Y014787D01*
X032978Y014945D02*
X013600Y014945D01*
X013600Y015104D02*
X034820Y015104D01*
X034820Y015262D02*
X013600Y015262D01*
X013600Y015400D02*
X034820Y015400D01*
X034820Y000960D01*
X013600Y000960D01*
X013600Y015400D01*
X013600Y011458D02*
X025139Y011458D01*
X025298Y011300D02*
X013600Y011300D01*
X013600Y011141D02*
X025456Y011141D01*
X025600Y010983D02*
X021954Y010983D01*
X021992Y010967D02*
X021867Y011018D01*
X021733Y011018D01*
X021608Y010967D01*
X021513Y010872D01*
X021462Y010747D01*
X021462Y010613D01*
X021513Y010488D01*
X021608Y010393D01*
X021733Y010342D01*
X021867Y010342D01*
X021992Y010393D01*
X022079Y010480D01*
X023417Y010480D01*
X023962Y009936D01*
X023962Y009813D01*
X024013Y009688D01*
X024108Y009593D01*
X024233Y009542D01*
X024356Y009542D01*
X026362Y007536D01*
X026362Y007413D01*
X026413Y007288D01*
X026508Y007193D01*
X026633Y007142D01*
X026767Y007142D01*
X026892Y007193D01*
X026987Y007288D01*
X027038Y007413D01*
X027038Y007547D01*
X026987Y007672D01*
X026892Y007767D01*
X026767Y007818D01*
X026644Y007818D01*
X024638Y009824D01*
X024638Y009947D01*
X024587Y010072D01*
X024492Y010167D01*
X024367Y010218D01*
X024244Y010218D01*
X023583Y010880D01*
X022079Y010880D01*
X021992Y010967D01*
X021646Y010983D02*
X013600Y010983D01*
X013600Y010824D02*
X021493Y010824D01*
X021462Y010666D02*
X013600Y010666D01*
X013600Y010507D02*
X021505Y010507D01*
X021716Y010349D02*
X013600Y010349D01*
X013600Y010190D02*
X023707Y010190D01*
X023549Y010349D02*
X021884Y010349D01*
X023639Y010824D02*
X025600Y010824D01*
X025600Y010666D02*
X023797Y010666D01*
X023956Y010507D02*
X025600Y010507D01*
X025600Y010349D02*
X024114Y010349D01*
X024436Y010190D02*
X025600Y010190D01*
X025600Y010032D02*
X024604Y010032D01*
X024638Y009873D02*
X025514Y009873D01*
X025462Y009715D02*
X024748Y009715D01*
X024907Y009556D02*
X025485Y009556D01*
X025604Y009398D02*
X025065Y009398D01*
X025224Y009239D02*
X032140Y009239D01*
X032168Y009227D02*
X031999Y009297D01*
X031870Y009427D01*
X031800Y009596D01*
X031800Y009779D01*
X031870Y009948D01*
X031999Y010077D01*
X032168Y010147D01*
X032951Y010147D01*
X033120Y010077D01*
X033250Y009948D01*
X033320Y009779D01*
X033320Y009596D01*
X033250Y009427D01*
X033120Y009297D01*
X032951Y009227D01*
X032168Y009227D01*
X032168Y009147D02*
X031999Y009077D01*
X031870Y008948D01*
X031800Y008779D01*
X031800Y008596D01*
X031870Y008427D01*
X031999Y008297D01*
X032168Y008227D01*
X032951Y008227D01*
X033120Y008297D01*
X033250Y008427D01*
X033320Y008596D01*
X033320Y008779D01*
X033250Y008948D01*
X033120Y009077D01*
X032951Y009147D01*
X032168Y009147D01*
X032008Y009081D02*
X025382Y009081D01*
X025541Y008922D02*
X031859Y008922D01*
X031800Y008764D02*
X025699Y008764D01*
X025858Y008605D02*
X031800Y008605D01*
X031862Y008447D02*
X026016Y008447D01*
X026175Y008288D02*
X032021Y008288D01*
X032076Y008132D02*
X032008Y008098D01*
X031947Y008053D01*
X031894Y008000D01*
X031849Y007939D01*
X031815Y007871D01*
X031792Y007799D01*
X031780Y007725D01*
X031780Y007707D01*
X032540Y007707D01*
X032540Y008167D01*
X032222Y008167D01*
X032147Y008155D01*
X032076Y008132D01*
X032071Y008130D02*
X026333Y008130D01*
X026492Y007971D02*
X031873Y007971D01*
X031796Y007813D02*
X026782Y007813D01*
X026994Y007654D02*
X031780Y007654D01*
X031780Y007649D02*
X031792Y007575D01*
X031815Y007503D01*
X031849Y007436D01*
X031894Y007374D01*
X031947Y007321D01*
X032008Y007277D01*
X032076Y007242D01*
X032147Y007219D01*
X032222Y007207D01*
X032540Y007207D01*
X032540Y007667D01*
X032580Y007667D01*
X032580Y007707D01*
X033340Y007707D01*
X033340Y007725D01*
X033328Y007799D01*
X033305Y007871D01*
X033270Y007939D01*
X033226Y008000D01*
X033173Y008053D01*
X033111Y008098D01*
X033044Y008132D01*
X032972Y008155D01*
X032898Y008167D01*
X032580Y008167D01*
X032580Y007707D01*
X032540Y007707D01*
X032540Y007667D01*
X031780Y007667D01*
X031780Y007649D01*
X031819Y007496D02*
X027038Y007496D01*
X027007Y007337D02*
X028274Y007337D01*
X028417Y007480D02*
X027317Y006380D01*
X026979Y006380D01*
X026892Y006467D01*
X026767Y006518D01*
X026633Y006518D01*
X026508Y006467D01*
X026413Y006372D01*
X026362Y006247D01*
X026362Y006113D01*
X026413Y005988D01*
X026508Y005893D01*
X026633Y005842D01*
X026767Y005842D01*
X026892Y005893D01*
X026979Y005980D01*
X027483Y005980D01*
X027600Y006097D01*
X028362Y006859D01*
X028362Y006813D01*
X028413Y006688D01*
X028500Y006601D01*
X028500Y006463D01*
X027617Y005580D01*
X027383Y005580D01*
X027300Y005663D01*
X027183Y005780D01*
X026417Y005780D01*
X026356Y005718D01*
X026233Y005718D01*
X026108Y005667D01*
X026013Y005572D01*
X025962Y005447D01*
X025962Y005313D01*
X026013Y005188D01*
X026108Y005093D01*
X026233Y005042D01*
X026367Y005042D01*
X026492Y005093D01*
X026562Y005163D01*
X026562Y005113D01*
X026613Y004988D01*
X026708Y004893D01*
X026833Y004842D01*
X026967Y004842D01*
X027092Y004893D01*
X027179Y004980D01*
X027883Y004980D01*
X028000Y005097D01*
X028777Y005875D01*
X028813Y005788D01*
X028908Y005693D01*
X029033Y005642D01*
X029167Y005642D01*
X029292Y005693D01*
X029379Y005780D01*
X030976Y005780D01*
X031683Y006487D01*
X031845Y006487D01*
X031870Y006427D01*
X031999Y006297D01*
X032168Y006227D01*
X032951Y006227D01*
X033120Y006297D01*
X033250Y006427D01*
X033320Y006596D01*
X033320Y006779D01*
X033250Y006948D01*
X033120Y007077D01*
X032951Y007147D01*
X032168Y007147D01*
X031999Y007077D01*
X031870Y006948D01*
X031845Y006887D01*
X031517Y006887D01*
X031400Y006770D01*
X030810Y006180D01*
X029379Y006180D01*
X029329Y006230D01*
X029387Y006288D01*
X029438Y006413D01*
X029438Y006459D01*
X029517Y006380D01*
X029521Y006380D01*
X029608Y006293D01*
X029733Y006242D01*
X029867Y006242D01*
X029992Y006293D01*
X030087Y006388D01*
X030138Y006513D01*
X030138Y006647D01*
X030087Y006772D01*
X029992Y006867D01*
X029867Y006918D01*
X029733Y006918D01*
X029608Y006867D01*
X029602Y006861D01*
X029100Y007363D01*
X028983Y007480D01*
X028417Y007480D01*
X028116Y007179D02*
X026856Y007179D01*
X026544Y007179D02*
X014702Y007179D01*
X014699Y007170D02*
X014768Y007337D01*
X026393Y007337D01*
X026362Y007496D02*
X014768Y007496D01*
X014768Y007519D02*
X014699Y007686D01*
X014590Y007794D01*
X014622Y007817D01*
X014675Y007870D01*
X014719Y007931D01*
X014753Y007998D01*
X014776Y008069D01*
X014788Y008143D01*
X014788Y008180D01*
X014788Y008217D01*
X014776Y008291D01*
X014753Y008362D01*
X014719Y008429D01*
X014675Y008490D01*
X014622Y008543D01*
X014590Y008566D01*
X014699Y008674D01*
X014768Y008841D01*
X014768Y009023D01*
X014699Y009190D01*
X014570Y009318D01*
X014403Y009387D01*
X014222Y009387D01*
X014055Y009318D01*
X013927Y009190D01*
X013857Y009023D01*
X013857Y008841D01*
X013927Y008674D01*
X014035Y008566D01*
X014003Y008543D01*
X013950Y008490D01*
X013906Y008429D01*
X013872Y008362D01*
X013849Y008291D01*
X013837Y008217D01*
X013837Y008180D01*
X014313Y008180D01*
X014788Y008180D01*
X014313Y008180D01*
X014313Y008180D01*
X014313Y008180D01*
X013837Y008180D01*
X013837Y008143D01*
X013849Y008069D01*
X013872Y007998D01*
X013906Y007931D01*
X013950Y007870D01*
X014003Y007817D01*
X014035Y007794D01*
X013927Y007686D01*
X013857Y007519D01*
X013857Y007337D01*
X013858Y007337D02*
X013600Y007337D01*
X013600Y007179D02*
X013923Y007179D01*
X013927Y007170D02*
X014055Y007042D01*
X014222Y006973D01*
X014403Y006973D01*
X014570Y007042D01*
X014699Y007170D01*
X014768Y007337D02*
X014768Y007519D01*
X014712Y007654D02*
X026243Y007654D01*
X026085Y007813D02*
X014615Y007813D01*
X014740Y007971D02*
X025926Y007971D01*
X025768Y008130D02*
X014786Y008130D01*
X014777Y008288D02*
X025609Y008288D01*
X025451Y008447D02*
X014706Y008447D01*
X014629Y008605D02*
X025292Y008605D01*
X025134Y008764D02*
X014736Y008764D01*
X014768Y008922D02*
X024975Y008922D01*
X024817Y009081D02*
X014744Y009081D01*
X014649Y009239D02*
X024658Y009239D01*
X024500Y009398D02*
X013600Y009398D01*
X013600Y009556D02*
X024198Y009556D01*
X024002Y009715D02*
X013600Y009715D01*
X013600Y009873D02*
X023962Y009873D01*
X023866Y010032D02*
X013600Y010032D01*
X013600Y009239D02*
X013976Y009239D01*
X013881Y009081D02*
X013600Y009081D01*
X013600Y008922D02*
X013857Y008922D01*
X013890Y008764D02*
X013600Y008764D01*
X013600Y008605D02*
X013996Y008605D01*
X013919Y008447D02*
X013600Y008447D01*
X013600Y008288D02*
X013849Y008288D01*
X013839Y008130D02*
X013600Y008130D01*
X013600Y007971D02*
X013886Y007971D01*
X014010Y007813D02*
X013600Y007813D01*
X013600Y007654D02*
X013913Y007654D01*
X013857Y007496D02*
X013600Y007496D01*
X013857Y007337D02*
X013927Y007170D01*
X014108Y007020D02*
X013600Y007020D01*
X013600Y006862D02*
X027799Y006862D01*
X027957Y007020D02*
X014517Y007020D01*
X013600Y006703D02*
X027640Y006703D01*
X027482Y006545D02*
X013600Y006545D01*
X013600Y006386D02*
X026427Y006386D01*
X026362Y006228D02*
X013600Y006228D01*
X013600Y006069D02*
X026380Y006069D01*
X026491Y005911D02*
X013600Y005911D01*
X013600Y005752D02*
X026389Y005752D01*
X026035Y005594D02*
X013600Y005594D01*
X013600Y005435D02*
X025962Y005435D01*
X025977Y005277D02*
X013600Y005277D01*
X013600Y005118D02*
X026083Y005118D01*
X026517Y005118D02*
X026562Y005118D01*
X026642Y004960D02*
X013600Y004960D01*
X013600Y004801D02*
X034820Y004801D01*
X034820Y004643D02*
X013600Y004643D01*
X013600Y004484D02*
X034820Y004484D01*
X034820Y004326D02*
X013600Y004326D01*
X013600Y004167D02*
X028211Y004167D01*
X028213Y004172D02*
X028162Y004047D01*
X028162Y003939D01*
X027713Y003490D01*
X027269Y003490D01*
X027192Y003567D01*
X027067Y003618D01*
X026933Y003618D01*
X026808Y003567D01*
X026713Y003472D01*
X026662Y003347D01*
X026662Y003213D01*
X026713Y003088D01*
X026808Y002993D01*
X026933Y002942D01*
X027067Y002942D01*
X027192Y002993D01*
X027269Y003070D01*
X027887Y003070D01*
X028459Y003642D01*
X028567Y003642D01*
X028692Y003693D01*
X028787Y003788D01*
X028838Y003913D01*
X028838Y004047D01*
X028787Y004172D01*
X028692Y004267D01*
X028567Y004318D01*
X028433Y004318D01*
X028308Y004267D01*
X028213Y004172D01*
X028162Y004009D02*
X018272Y004009D01*
X018205Y004075D02*
X018495Y003785D01*
X018495Y003580D01*
X018000Y003580D01*
X018000Y003580D01*
X018000Y004075D01*
X018205Y004075D01*
X018000Y004075D02*
X017795Y004075D01*
X017505Y003785D01*
X017505Y003580D01*
X018000Y003580D01*
X018000Y003580D01*
X018000Y003580D01*
X018000Y004075D01*
X018000Y004009D02*
X018000Y004009D01*
X018000Y003850D02*
X018000Y003850D01*
X018000Y003692D02*
X018000Y003692D01*
X018000Y003580D02*
X017505Y003580D01*
X017505Y003375D01*
X017795Y003085D01*
X018000Y003085D01*
X018205Y003085D01*
X018495Y003375D01*
X018495Y003580D01*
X018000Y003580D01*
X018000Y003085D01*
X018000Y003580D01*
X018000Y003580D01*
X018000Y003533D02*
X018000Y003533D01*
X018000Y003375D02*
X018000Y003375D01*
X018000Y003216D02*
X018000Y003216D01*
X018094Y003055D02*
X017906Y003055D01*
X017731Y002983D01*
X017597Y002849D01*
X017525Y002674D01*
X017525Y002486D01*
X017597Y002311D01*
X017731Y002177D01*
X017906Y002105D01*
X018094Y002105D01*
X018269Y002177D01*
X018403Y002311D01*
X018475Y002486D01*
X018475Y002674D01*
X018403Y002849D01*
X018269Y002983D01*
X018094Y003055D01*
X018336Y003216D02*
X026662Y003216D01*
X026673Y003375D02*
X018495Y003375D01*
X018495Y003533D02*
X026774Y003533D01*
X027226Y003533D02*
X027756Y003533D01*
X027915Y003692D02*
X018495Y003692D01*
X018430Y003850D02*
X028073Y003850D01*
X028350Y003533D02*
X032589Y003533D01*
X032510Y003487D02*
X032775Y003641D01*
X033072Y003720D01*
X033378Y003720D01*
X033675Y003641D01*
X033940Y003487D01*
X034157Y003270D01*
X034311Y003005D01*
X034390Y002708D01*
X034390Y002402D01*
X034311Y002105D01*
X034157Y001840D01*
X033940Y001623D01*
X033675Y001469D01*
X033378Y001390D01*
X033072Y001390D01*
X032775Y001469D01*
X032510Y001623D01*
X032293Y001840D01*
X032139Y002105D01*
X032060Y002402D01*
X032060Y002708D01*
X032139Y003005D01*
X032293Y003270D01*
X032510Y003487D01*
X032397Y003375D02*
X028191Y003375D01*
X028033Y003216D02*
X032261Y003216D01*
X032170Y003058D02*
X027256Y003058D01*
X026744Y003058D02*
X016060Y003058D01*
X016060Y003216D02*
X017664Y003216D01*
X017505Y003375D02*
X016060Y003375D01*
X016060Y003533D02*
X017505Y003533D01*
X017505Y003692D02*
X016010Y003692D01*
X015990Y003741D02*
X015861Y003870D01*
X015691Y003940D01*
X015508Y003940D01*
X015339Y003870D01*
X015210Y003741D01*
X015140Y003571D01*
X015140Y002788D01*
X015210Y002619D01*
X015339Y002490D01*
X015508Y002420D01*
X015691Y002420D01*
X015861Y002490D01*
X015990Y002619D01*
X016060Y002788D01*
X016060Y003571D01*
X015990Y003741D01*
X015881Y003850D02*
X017570Y003850D01*
X017728Y004009D02*
X013600Y004009D01*
X013600Y003850D02*
X014293Y003850D01*
X014287Y003846D02*
X014234Y003793D01*
X014189Y003732D01*
X014155Y003664D01*
X014132Y003592D01*
X014120Y003518D01*
X014120Y003200D01*
X014580Y003200D01*
X014580Y003960D01*
X014562Y003960D01*
X014488Y003948D01*
X014416Y003925D01*
X014348Y003891D01*
X014287Y003846D01*
X014169Y003692D02*
X013600Y003692D01*
X013600Y003533D02*
X014122Y003533D01*
X014120Y003375D02*
X013600Y003375D01*
X013600Y003216D02*
X014120Y003216D01*
X014120Y003160D02*
X014120Y002842D01*
X014132Y002768D01*
X014155Y002696D01*
X014189Y002628D01*
X014234Y002567D01*
X014287Y002514D01*
X014348Y002469D01*
X014416Y002435D01*
X014488Y002412D01*
X014562Y002400D01*
X014580Y002400D01*
X014580Y003160D01*
X014120Y003160D01*
X014120Y003058D02*
X013600Y003058D01*
X013600Y002899D02*
X014120Y002899D01*
X014141Y002741D02*
X013600Y002741D01*
X013600Y002582D02*
X014223Y002582D01*
X014452Y002424D02*
X013600Y002424D01*
X013600Y002265D02*
X017643Y002265D01*
X017551Y002424D02*
X015700Y002424D01*
X015500Y002424D02*
X014748Y002424D01*
X014712Y002412D02*
X014784Y002435D01*
X014852Y002469D01*
X014913Y002514D01*
X014966Y002567D01*
X015011Y002628D01*
X015045Y002696D01*
X015068Y002768D01*
X015080Y002842D01*
X015080Y003160D01*
X014620Y003160D01*
X014620Y003200D01*
X014580Y003200D01*
X014580Y003160D01*
X014620Y003160D01*
X014620Y002400D01*
X014638Y002400D01*
X014712Y002412D01*
X014620Y002424D02*
X014580Y002424D01*
X014580Y002582D02*
X014620Y002582D01*
X014620Y002741D02*
X014580Y002741D01*
X014580Y002899D02*
X014620Y002899D01*
X014620Y003058D02*
X014580Y003058D01*
X014620Y003200D02*
X015080Y003200D01*
X015080Y003518D01*
X015068Y003592D01*
X015045Y003664D01*
X015011Y003732D01*
X014966Y003793D01*
X014913Y003846D01*
X014852Y003891D01*
X014784Y003925D01*
X014712Y003948D01*
X014638Y003960D01*
X014620Y003960D01*
X014620Y003200D01*
X014620Y003216D02*
X014580Y003216D01*
X014580Y003375D02*
X014620Y003375D01*
X014620Y003533D02*
X014580Y003533D01*
X014580Y003692D02*
X014620Y003692D01*
X014620Y003850D02*
X014580Y003850D01*
X014907Y003850D02*
X015319Y003850D01*
X015190Y003692D02*
X015031Y003692D01*
X015078Y003533D02*
X015140Y003533D01*
X015140Y003375D02*
X015080Y003375D01*
X015080Y003216D02*
X015140Y003216D01*
X015140Y003058D02*
X015080Y003058D01*
X015080Y002899D02*
X015140Y002899D01*
X015160Y002741D02*
X015059Y002741D01*
X014977Y002582D02*
X015247Y002582D01*
X015953Y002582D02*
X017525Y002582D01*
X017552Y002741D02*
X016040Y002741D01*
X016060Y002899D02*
X017647Y002899D01*
X018353Y002899D02*
X032111Y002899D01*
X032069Y002741D02*
X018448Y002741D01*
X018475Y002582D02*
X032060Y002582D01*
X032060Y002424D02*
X018449Y002424D01*
X018357Y002265D02*
X032097Y002265D01*
X032139Y002107D02*
X018098Y002107D01*
X017902Y002107D02*
X013600Y002107D01*
X013600Y001948D02*
X032230Y001948D01*
X032343Y001790D02*
X013600Y001790D01*
X013600Y001631D02*
X032501Y001631D01*
X032770Y001473D02*
X013600Y001473D01*
X013600Y001314D02*
X034820Y001314D01*
X034820Y001156D02*
X013600Y001156D01*
X013600Y000997D02*
X034820Y000997D01*
X034820Y001473D02*
X033680Y001473D01*
X033949Y001631D02*
X034820Y001631D01*
X034820Y001790D02*
X034107Y001790D01*
X034220Y001948D02*
X034820Y001948D01*
X034820Y002107D02*
X034311Y002107D01*
X034353Y002265D02*
X034820Y002265D01*
X034820Y002424D02*
X034390Y002424D01*
X034390Y002582D02*
X034820Y002582D01*
X034820Y002741D02*
X034381Y002741D01*
X034339Y002899D02*
X034820Y002899D01*
X034820Y003058D02*
X034280Y003058D01*
X034189Y003216D02*
X034820Y003216D01*
X034820Y003375D02*
X034053Y003375D01*
X033861Y003533D02*
X034820Y003533D01*
X034820Y003692D02*
X033485Y003692D01*
X032965Y003692D02*
X028688Y003692D01*
X028812Y003850D02*
X034820Y003850D01*
X034820Y004009D02*
X028838Y004009D01*
X028789Y004167D02*
X034820Y004167D01*
X034820Y004960D02*
X027158Y004960D01*
X028021Y005118D02*
X034820Y005118D01*
X034820Y005277D02*
X033071Y005277D01*
X033120Y005297D02*
X033250Y005427D01*
X033320Y005596D01*
X033320Y005779D01*
X033250Y005948D01*
X033120Y006077D01*
X032951Y006147D01*
X032168Y006147D01*
X031999Y006077D01*
X031870Y005948D01*
X031800Y005779D01*
X031800Y005596D01*
X031870Y005427D01*
X031999Y005297D01*
X032168Y005227D01*
X032951Y005227D01*
X033120Y005297D01*
X033253Y005435D02*
X034820Y005435D01*
X034820Y005594D02*
X033319Y005594D01*
X033320Y005752D02*
X034820Y005752D01*
X034820Y005911D02*
X033265Y005911D01*
X033128Y006069D02*
X034820Y006069D01*
X034820Y006228D02*
X032952Y006228D01*
X033209Y006386D02*
X034820Y006386D01*
X034820Y006545D02*
X033299Y006545D01*
X033320Y006703D02*
X034820Y006703D01*
X034820Y006862D02*
X033285Y006862D01*
X033177Y007020D02*
X034820Y007020D01*
X034820Y007179D02*
X029284Y007179D01*
X029126Y007337D02*
X031931Y007337D01*
X032540Y007337D02*
X032580Y007337D01*
X032580Y007207D02*
X032898Y007207D01*
X032972Y007219D01*
X033044Y007242D01*
X033111Y007277D01*
X033173Y007321D01*
X033226Y007374D01*
X033270Y007436D01*
X033305Y007503D01*
X033328Y007575D01*
X033340Y007649D01*
X033340Y007667D01*
X032580Y007667D01*
X032580Y007207D01*
X032580Y007496D02*
X032540Y007496D01*
X032540Y007654D02*
X032580Y007654D01*
X032580Y007813D02*
X032540Y007813D01*
X032540Y007971D02*
X032580Y007971D01*
X032580Y008130D02*
X032540Y008130D01*
X033049Y008130D02*
X034820Y008130D01*
X034820Y008288D02*
X033098Y008288D01*
X033258Y008447D02*
X034820Y008447D01*
X034820Y008605D02*
X033320Y008605D01*
X033320Y008764D02*
X034820Y008764D01*
X034820Y008922D02*
X033260Y008922D01*
X033112Y009081D02*
X034820Y009081D01*
X034820Y009239D02*
X032980Y009239D01*
X033221Y009398D02*
X034820Y009398D01*
X034820Y009556D02*
X033303Y009556D01*
X033320Y009715D02*
X034820Y009715D01*
X034820Y009873D02*
X033281Y009873D01*
X033166Y010032D02*
X034820Y010032D01*
X034820Y010190D02*
X026000Y010190D01*
X026000Y010032D02*
X031954Y010032D01*
X031839Y009873D02*
X026086Y009873D01*
X026138Y009715D02*
X031800Y009715D01*
X031816Y009556D02*
X026115Y009556D01*
X025996Y009398D02*
X031899Y009398D01*
X032168Y010227D02*
X031999Y010297D01*
X031870Y010427D01*
X031800Y010596D01*
X031800Y010779D01*
X031870Y010948D01*
X031999Y011077D01*
X032168Y011147D01*
X032951Y011147D01*
X033120Y011077D01*
X033250Y010948D01*
X033320Y010779D01*
X033320Y010596D01*
X033250Y010427D01*
X033120Y010297D01*
X032951Y010227D01*
X032168Y010227D01*
X031948Y010349D02*
X026000Y010349D01*
X026000Y010507D02*
X031837Y010507D01*
X031800Y010666D02*
X026000Y010666D01*
X026000Y010824D02*
X031819Y010824D01*
X031905Y010983D02*
X026000Y010983D01*
X026000Y011141D02*
X032154Y011141D01*
X032966Y011141D02*
X034820Y011141D01*
X034820Y010983D02*
X033215Y010983D01*
X033301Y010824D02*
X034820Y010824D01*
X034820Y010666D02*
X033320Y010666D01*
X033283Y010507D02*
X034820Y010507D01*
X034820Y010349D02*
X033172Y010349D01*
X034820Y011300D02*
X025863Y011300D01*
X025705Y011458D02*
X034820Y011458D01*
X034820Y011617D02*
X025546Y011617D01*
X025388Y011775D02*
X034820Y011775D01*
X034820Y011934D02*
X025229Y011934D01*
X025071Y012092D02*
X034820Y012092D01*
X034820Y012885D02*
X033952Y012885D01*
X034111Y013043D02*
X034820Y013043D01*
X034820Y013202D02*
X034222Y013202D01*
X034312Y013360D02*
X034820Y013360D01*
X034820Y013519D02*
X034354Y013519D01*
X034390Y013677D02*
X034820Y013677D01*
X034820Y013836D02*
X034390Y013836D01*
X034380Y013994D02*
X034820Y013994D01*
X034820Y014153D02*
X034338Y014153D01*
X034278Y014311D02*
X034820Y014311D01*
X034820Y014470D02*
X034187Y014470D01*
X034050Y014628D02*
X034820Y014628D01*
X034820Y014787D02*
X033855Y014787D01*
X033472Y014945D02*
X034820Y014945D01*
X034820Y007971D02*
X033247Y007971D01*
X033324Y007813D02*
X034820Y007813D01*
X034820Y007654D02*
X033340Y007654D01*
X033301Y007496D02*
X034820Y007496D01*
X034820Y007337D02*
X033189Y007337D01*
X031942Y007020D02*
X029443Y007020D01*
X029601Y006862D02*
X029603Y006862D01*
X029997Y006862D02*
X031492Y006862D01*
X031333Y006703D02*
X030115Y006703D01*
X030138Y006545D02*
X031175Y006545D01*
X031016Y006386D02*
X030085Y006386D01*
X029511Y006386D02*
X029427Y006386D01*
X029331Y006228D02*
X030858Y006228D01*
X031265Y006069D02*
X031991Y006069D01*
X031854Y005911D02*
X031106Y005911D01*
X031423Y006228D02*
X032167Y006228D01*
X031910Y006386D02*
X031582Y006386D01*
X031800Y005752D02*
X029351Y005752D01*
X028849Y005752D02*
X028655Y005752D01*
X028496Y005594D02*
X031801Y005594D01*
X031866Y005435D02*
X028338Y005435D01*
X028179Y005277D02*
X032049Y005277D01*
X028500Y006545D02*
X028047Y006545D01*
X028206Y006703D02*
X028407Y006703D01*
X028423Y006386D02*
X027889Y006386D01*
X027730Y006228D02*
X028265Y006228D01*
X028106Y006069D02*
X027572Y006069D01*
X027948Y005911D02*
X026909Y005911D01*
X027211Y005752D02*
X027789Y005752D01*
X027631Y005594D02*
X027369Y005594D01*
X027323Y006386D02*
X026973Y006386D01*
M02*
