G75*
%MOIN*%
%OFA0B0*%
%FSLAX24Y24*%
%IPPOS*%
%LPD*%
%AMOC8*
5,1,8,0,0,1.08239X$1,22.5*
%
%ADD10C,0.1850*%
%ADD11C,0.0680*%
%ADD12OC8,0.0710*%
%ADD13C,0.0710*%
%ADD14C,0.2836*%
%ADD15C,0.0671*%
%ADD16C,0.0785*%
%ADD17C,0.0437*%
D10*
X001975Y002555D03*
X001975Y013805D03*
X033225Y013805D03*
X033225Y002555D03*
D11*
X032860Y005687D02*
X032260Y005687D01*
X032260Y006687D02*
X032860Y006687D01*
X032860Y007687D02*
X032260Y007687D01*
X032260Y008687D02*
X032860Y008687D01*
X032860Y009687D02*
X032260Y009687D01*
X032260Y010687D02*
X032860Y010687D01*
X030600Y012880D02*
X030600Y013480D01*
X029600Y013480D02*
X029600Y012880D01*
X025600Y012880D02*
X025600Y013480D01*
X024600Y013480D02*
X024600Y012880D01*
X020600Y012880D02*
X020600Y013480D01*
X019600Y013480D02*
X019600Y012880D01*
X015600Y012880D02*
X015600Y013480D01*
X014600Y013480D02*
X014600Y012880D01*
X014600Y003480D02*
X014600Y002880D01*
X015600Y002880D02*
X015600Y003480D01*
D12*
X018000Y003580D03*
D13*
X018000Y002580D03*
D14*
X005887Y006211D03*
X005887Y010149D03*
D15*
X014313Y008932D03*
X014313Y008180D03*
X014313Y007428D03*
D16*
X002453Y007196D02*
X001748Y007196D01*
X001748Y005227D02*
X002453Y005227D01*
X002453Y009164D02*
X001748Y009164D01*
X001748Y011133D02*
X002453Y011133D01*
D17*
X018500Y004680D03*
X019800Y003880D03*
X021800Y002680D03*
X025200Y001780D03*
X027000Y003280D03*
X028500Y003980D03*
X028300Y004680D03*
X026900Y005180D03*
X026300Y005380D03*
X026700Y006180D03*
X028700Y006880D03*
X029100Y006480D03*
X029800Y006580D03*
X029100Y005980D03*
X026700Y007480D03*
X023500Y008880D03*
X024300Y009880D03*
X025800Y009680D03*
X026400Y009480D03*
X028000Y009480D03*
X028100Y011680D03*
X026600Y011680D03*
X021800Y010680D03*
X021500Y010180D03*
X019400Y009680D03*
X023100Y014180D03*
X028100Y014180D03*
X029000Y003280D03*
M02*
