%
M48
M72
T01C0.0197
T02C0.0315
T03C0.0320
T04C0.0400
T05C0.0470
T06C0.1770
T07C0.1969
%
T01
X18500Y4680
X19800Y3880
X21800Y2680
X25200Y1780
X27000Y3280
X28500Y3980
X28300Y4680
X26900Y5180
X26300Y5380
X26700Y6180
X28700Y6880
X29100Y6480
X29800Y6580
X29100Y5980
X26700Y7480
X23500Y8880
X24300Y9880
X25800Y9680
X26400Y9480
X28000Y9480
X28100Y11680
X26600Y11680
X21800Y10680
X21500Y10180
X19400Y9680
X23100Y14180
X28100Y14180
X29000Y3280
T02
X14313Y7428
X14313Y8180
X14313Y8932
T03
X18000Y3580
X18000Y2580
T04
X15600Y3180
X14600Y3180
X32560Y5687
X32560Y6687
X32560Y7687
X32560Y8687
X32560Y9687
X32560Y10687
X30600Y13180
X29600Y13180
X25600Y13180
X24600Y13180
X20600Y13180
X19600Y13180
X15600Y13180
X14600Y13180
T05
X2100Y11133
X2100Y9164
X2100Y7196
X2100Y5227
T06
X1975Y2555
X1975Y13805
X33225Y13805
X33225Y2555
T07
X5887Y6211
X5887Y10149
M30
